<svg xmlns="http://www.w3.org/2000/svg" width="12" height="12" viewBox="0 0 12 12" fill="none">
  <g clip-path="url(#clip0_4957_16590)">
    <path d="M3.54638 5.18799L0.925781 10.1253L3.30552 9.90545L4.45731 11.9997L7.07791 7.06237L3.54638 5.18799Z" fill="#E95454"/>
    <path d="M3.84954 10.5618C3.92307 10.4039 3.84616 10.2151 3.69234 10.1334L3.54152 10.0531C3.3907 9.96716 3.33329 9.77619 3.41546 9.62162C3.49875 9.46442 3.69459 9.40439 3.85179 9.48768L4.27799 9.71391C4.40967 9.7837 4.57475 9.73305 4.64266 9.60061L4.65316 9.58035C4.7312 9.45542 4.68505 9.29034 4.55524 9.22168L3.28039 8.54524C3.12507 8.4627 3.04891 8.27474 3.12132 8.11642C3.20123 7.94796 3.40308 7.88156 3.56553 7.96785L4.74808 8.59552C4.87977 8.6653 5.04485 8.61465 5.11463 8.48296L5.12138 8.46571L5.12326 8.46195C5.19867 8.32389 5.14577 8.15056 5.00658 8.07665L4.34327 7.72473C4.18794 7.64219 4.11178 7.45423 4.18532 7.29403C4.26448 7.12745 4.46708 7.05917 4.62953 7.14546L5.36225 7.53452C5.49918 7.6073 5.66276 7.54652 5.73367 7.40846C5.73479 7.40658 5.73479 7.40658 5.73555 7.40471C5.73667 7.40283 5.73667 7.40283 5.73742 7.40096C5.81208 7.26477 5.77081 7.09519 5.6335 7.02278L4.843 6.60333C4.68955 6.52192 4.61339 6.33396 4.6858 6.17563C4.76572 6.00718 4.96756 5.94077 5.13001 6.02706L7.08018 7.06217L4.45957 11.9995L3.73736 10.6867C3.78388 10.6552 3.8244 10.6162 3.84954 10.5618Z" fill="#ED6362"/>
    <path d="M8.4495 5.18799L11.0701 10.1253L8.69036 9.90545L7.53857 11.9997L4.91797 7.06237L8.4495 5.18799Z" fill="#ED6362"/>
    <path d="M8.14898 10.5624C8.07545 10.4045 8.15236 10.2158 8.30618 10.134L8.457 10.0537C8.60782 9.96776 8.66523 9.7768 8.58306 9.62222C8.49977 9.46502 8.30393 9.405 8.14673 9.48828L7.72053 9.71452C7.58885 9.7843 7.42377 9.73365 7.35586 9.60121L7.34536 9.58095C7.26732 9.45602 7.31347 9.29094 7.44328 9.22229L8.7185 8.54547C8.87382 8.46293 8.94998 8.27497 8.87758 8.11664C8.79766 7.94819 8.59582 7.88178 8.43337 7.96807L7.25081 8.59574C7.11913 8.66552 6.95405 8.61488 6.88427 8.48319L6.87751 8.46593L6.87564 8.46218C6.80023 8.32412 6.85313 8.15078 6.99232 8.07687L7.65563 7.72496C7.81095 7.64242 7.88711 7.45446 7.81358 7.29426C7.73441 7.12768 7.53182 7.0594 7.36937 7.14569L6.6359 7.53549C6.49896 7.60828 6.33538 7.5475 6.26447 7.40944C6.26335 7.40756 6.26335 7.40756 6.2626 7.40568C6.26147 7.40381 6.26147 7.40381 6.26072 7.40193C6.18606 7.26574 6.22733 7.09616 6.36465 7.02375L7.15514 6.60431C7.30859 6.5229 7.38475 6.33493 7.31234 6.17661C7.23243 6.00815 7.03058 5.94175 6.86813 6.02804L4.91797 7.06315L7.53857 12.0005L8.26079 10.6877C8.21464 10.6558 8.17412 10.6168 8.14898 10.5624Z" fill="#E95454"/>
    <path d="M5.99977 8.75736C8.41805 8.75736 10.3785 6.79696 10.3785 4.37868C10.3785 1.9604 8.41805 0 5.99977 0C3.5815 0 1.62109 1.9604 1.62109 4.37868C1.62109 6.79696 3.5815 8.75736 5.99977 8.75736Z" fill="#FFCC5B"/>
    <path d="M6.59264 3.87628H3.81784C3.60211 3.87628 3.42503 3.69919 3.42503 3.48347L3.42803 3.45645V3.45045C3.42503 3.22272 3.61074 3.03663 3.83885 3.03663H5.762C6.01674 3.03663 6.24185 2.84792 6.25686 2.5928C6.26886 2.32605 6.05614 2.10094 5.78901 2.10094H3.75181C3.52708 2.10094 3.359 1.91223 3.362 1.68713C3.362 1.68412 3.362 1.68412 3.362 1.68112C3.362 1.67812 3.362 1.67812 3.362 1.67512C3.359 1.45039 3.5267 1.2613 3.75181 1.2613H5.88356C6.1353 1.2613 6.3604 1.07259 6.37541 0.820469C6.38742 0.550717 6.17469 0.328613 5.90757 0.328613H4.34646C2.75459 0.984796 1.63281 2.55003 1.63281 4.37864C1.63281 6.20724 2.75459 7.7721 4.34683 8.42753H6.32889C6.58063 8.42753 6.80574 8.23882 6.82074 7.9867C6.83275 7.71695 6.62003 7.49522 6.3529 7.49522L4.09809 7.49485C3.83209 7.49485 3.61787 7.27237 3.63212 7.00299C3.64526 6.75087 3.87186 6.56141 4.12436 6.56141H4.99852C5.24988 6.55428 5.45285 6.34831 5.45285 6.09507C5.45285 5.83732 5.24313 5.62722 4.98501 5.62722H3.65989C3.44416 5.62722 3.26708 5.45051 3.27008 5.23441V5.2014C3.25507 4.98867 3.42615 4.80859 3.63888 4.80859H6.56563C6.82037 4.80859 7.04548 4.61987 7.06048 4.36776C7.07249 4.09838 6.85939 3.87628 6.59264 3.87628Z" fill="#FDBC4B"/>
    <path d="M5.99668 7.50373C4.27313 7.50373 2.87109 6.10133 2.87109 4.37814C2.87109 2.65496 4.27313 1.25293 5.99668 1.25293C7.72024 1.25293 9.12227 2.65534 9.12227 4.37852C9.12227 6.1017 7.72024 7.50373 5.99668 7.50373Z" fill="#FFDB70"/>
    <path opacity="0.2" d="M9.12804 4.37879C9.12804 2.71601 7.82168 1.356 6.18179 1.26221H5.89065C5.69856 1.26221 5.52711 1.40627 5.51547 1.59836C5.50647 1.80396 5.66855 1.97354 5.87227 1.97354L7.59207 1.97392C7.79504 1.97392 7.95825 2.1435 7.94737 2.34909C7.93724 2.54156 7.76465 2.686 7.57181 2.686H6.90513C6.71341 2.69163 6.55846 2.84845 6.55846 3.04167C6.55846 3.23826 6.71866 3.39846 6.91526 3.39846H7.92598C8.09068 3.39846 8.22537 3.53352 8.22312 3.69785V3.72261C8.23438 3.88506 8.10419 4.022 7.94174 4.022H5.70982C5.51547 4.022 5.34402 4.16607 5.33239 4.35816C5.32338 4.56375 5.48546 4.73333 5.68918 4.73333H7.80517C7.96988 4.73333 8.10456 4.8684 8.10456 5.03272L8.10231 5.05336V5.05786C8.10456 5.23157 7.96275 5.37338 7.78904 5.37338H6.3221C6.12776 5.37338 5.95631 5.51745 5.94468 5.71179C5.93567 5.91514 6.09775 6.08697 6.30147 6.08697H7.85507C8.02653 6.08697 8.15446 6.23104 8.15221 6.40249C8.15221 6.40474 8.15221 6.40474 8.15221 6.40699C8.15221 6.40924 8.15221 6.40924 8.15221 6.4115C8.15446 6.58295 8.02653 6.72702 7.85507 6.72702H6.22943C6.03734 6.72702 5.86589 6.87109 5.85426 7.06318C5.84525 7.26915 6.00733 7.43835 6.21105 7.43835H6.63988C8.05917 7.14271 9.12804 5.88325 9.12804 4.37879Z" fill="white"/>
    <path d="M8.18345 3.68677H6.66324L6.19314 2.24085C6.13274 2.05513 5.86974 2.05513 5.80933 2.24085L5.33961 3.68677H3.8194C3.62394 3.68677 3.54252 3.93702 3.70085 4.05182L4.93067 4.94549L4.46095 6.39142C4.40055 6.57713 4.61327 6.7317 4.7716 6.6169L6.00143 5.72323L7.23125 6.6169C7.38958 6.7317 7.6023 6.57713 7.5419 6.39142L7.07218 4.94549L8.302 4.05182C8.45995 3.93702 8.37891 3.68677 8.18345 3.68677Z" fill="#EC9922"/>
  </g>
  <defs>
    <clipPath id="clip0_4957_16590">
      <rect width="12" height="12" fill="white"/>
    </clipPath>
  </defs>
</svg>