<svg xmlns="http://www.w3.org/2000/svg" width="14" height="14" viewBox="0 0 14 14" fill="none">
  <path d="M10.4517 5.90301C10.2592 5.85634 10.0551 5.83301 9.84505 5.83301C8.31672 5.83301 7.07422 7.07551 7.07422 8.60384C7.07422 9.12301 7.22005 9.61301 7.47672 10.033C7.69255 10.3947 7.99005 10.7038 8.35172 10.9255C8.78339 11.2113 9.29672 11.3747 9.84505 11.3747C10.8601 11.3747 11.7409 10.8322 12.2192 10.033C12.4759 9.61301 12.6159 9.12301 12.6159 8.60384C12.6159 7.28551 11.6942 6.17717 10.4517 5.90301ZM11.2276 8.24217L9.74588 9.60717C9.66422 9.68301 9.55339 9.72384 9.44839 9.72384C9.33755 9.72384 9.22672 9.68301 9.13922 9.59551L8.45672 8.91301C8.28755 8.74384 8.28755 8.46384 8.45672 8.29467C8.62589 8.12551 8.90589 8.12551 9.07505 8.29467L9.46005 8.67967L10.6326 7.60051C10.8134 7.43717 11.0876 7.44884 11.2509 7.62384C11.4142 7.80467 11.4026 8.07884 11.2276 8.24217Z" fill="#FE5C4D"/>
  <path d="M12.0061 2.34533V3.64033C12.0061 4.11283 11.7144 4.70199 11.4228 4.99949L11.3178 5.09283C11.2361 5.16866 11.1136 5.18616 11.0086 5.15116C10.8919 5.11033 10.7753 5.08116 10.6586 5.05199C10.4019 4.98783 10.1278 4.95866 9.84776 4.95866C7.83526 4.95866 6.20193 6.59199 6.20193 8.60449C6.20193 9.26949 6.38276 9.92283 6.72693 10.4828C7.01859 10.9728 7.42693 11.3812 7.87026 11.6553C8.00443 11.7428 8.05693 11.9295 7.94026 12.0345C7.89943 12.0695 7.85859 12.0987 7.81776 12.1278L7.00109 12.6587C6.24276 13.1312 5.19859 12.6003 5.19859 11.6553V8.53449C5.19859 8.12033 4.96526 7.58949 4.73193 7.29783L2.52109 4.94116C2.22943 4.64366 1.99609 4.11283 1.99609 3.76283V2.40366C1.99609 1.69783 2.52109 1.16699 3.15693 1.16699H10.8453C11.4811 1.16699 12.0061 1.69783 12.0061 2.34533Z" fill="#FE5C4D"/>
</svg>