<svg width="20" height="20" viewBox="0 0 20 20" fill="none" xmlns="http://www.w3.org/2000/svg">
<path d="M13.0993 3.96299C13.9292 3.82845 14.4929 3.0466 14.3584 2.21668C14.2239 1.38676 13.442 0.823035 12.6121 0.957572C11.7822 1.09211 11.2184 1.87396 11.353 2.70388C11.4875 3.5338 12.2694 4.09752 13.0993 3.96299Z" fill="#AAAAAA"/>
<path d="M14.8765 9.53799C15.5336 9.84874 15.9945 9.94683 16.247 9.83029C16.3211 9.79611 16.427 9.7235 16.4901 9.48947C16.5841 9.14042 15.7872 8.60707 15.2598 8.25421C14.8328 7.96862 14.4642 7.72195 14.2816 7.46228C14.0443 7.12483 14.0016 6.74817 13.9641 6.41589C13.9302 6.11672 13.901 5.85845 13.752 5.6412C12.9978 4.54097 10.4504 3.74461 9.17304 3.97559C7.91581 4.20245 6.63342 6.24778 6.07385 7.42064L5.99801 7.57579C5.81601 7.94345 5.56674 8.44689 5.75393 8.7334C5.83829 8.86277 5.97102 8.89312 6.04272 8.89968C6.17362 8.91097 6.30114 8.86613 6.38535 8.77765C6.68162 8.46749 6.93518 8.06474 7.20368 7.63848C7.60705 6.99805 8.02398 6.33595 8.64901 5.88469C8.71226 5.83949 8.78623 5.82467 8.85787 5.83064C8.6469 6.33546 8.3261 7.1024 8.32421 7.10683C7.6699 8.64491 7.46821 10.6915 8.49278 11.7966C8.88242 12.2167 9.52178 12.5016 10.086 12.753C10.1528 12.7825 10.2214 12.8071 10.2908 12.8299C10.5349 12.9107 10.904 13.0326 11.0194 13.4015C11.258 14.1628 11.0586 15.1342 10.866 16.0737C10.7477 16.6498 10.6361 17.1939 10.6361 17.6363C10.6361 17.6931 10.6336 17.7651 10.6307 17.8469C10.6106 18.4191 10.6417 18.7488 10.7233 18.8264C11.0378 19.0115 13.4091 19.1174 13.9197 19.033C13.9933 19.0209 14.0621 18.8525 14.0322 18.7796C13.9829 18.6596 13.7669 18.5882 13.614 18.5105C12.9627 18.1791 12.2245 17.8035 12.1697 17.254C12.1151 16.7065 12.3023 16.0903 12.5003 15.4378C12.7028 14.771 12.9121 14.0816 12.8016 13.5753C12.6745 12.9919 12.2742 12.5489 11.803 12.0709L11.7185 11.9861C11.4074 11.675 10.9811 11.2491 10.9111 10.7688C10.8222 10.1609 11.3149 9.34413 11.767 8.63438C12.1616 8.01476 12.6249 7.46026 12.9127 7.13881C12.6698 8.03777 13.2807 8.78272 14.8765 9.53799Z" fill="#AAAAAA"/>
<path d="M7.52264 11.4504C7.18794 11.8719 6.71209 12.209 6.18852 12.2358C5.76397 12.2636 5.35038 11.9087 4.913 11.5389C4.6088 11.2817 4.26388 10.99 4.01703 10.9382C3.00161 10.7244 2.46719 11.8619 2.00922 13.0457L1.99182 13.0906C1.73538 13.7482 1.7279 13.9663 1.74286 14.0361C1.84446 14.1258 1.90868 14.1237 1.92943 14.1219C2.14332 14.1123 2.455 13.7565 2.7055 13.4706C3.05668 13.07 3.38819 12.6917 3.81061 12.6823C4.27362 12.6613 4.66463 12.9379 5.00637 13.1726C5.15877 13.2772 5.30264 13.3759 5.43749 13.4401C6.6304 14.0081 8.20539 14.3634 9.11011 12.9834C8.71765 12.7809 8.32901 12.5367 8.03646 12.2215C7.82091 11.9889 7.65411 11.7281 7.52264 11.4504Z" fill="#AAAAAA"/>
<path d="M16.7116 19.0579C17.5662 19.0579 18.2591 18.3651 18.2591 17.5104C18.2591 16.6557 17.5662 15.9629 16.7116 15.9629C15.8569 15.9629 15.1641 16.6557 15.1641 17.5104C15.1641 18.3651 15.8569 19.0579 16.7116 19.0579Z" fill="#AAAAAA"/>
</svg>
