<svg xmlns="http://www.w3.org/2000/svg" width="42" height="42" viewBox="0 0 42 42" fill="none">
  <g clip-path="url(#clip0_2986_10906)">
    <path d="M20.9998 0.164063C17.917 0.163832 14.9096 1.11804 12.3909 2.89564C9.87211 4.67324 7.96546 7.18703 6.93278 10.0918C5.90009 12.9965 5.79203 16.1498 6.62343 19.1184C7.45482 22.087 9.1849 24.7254 11.5761 26.6713C12.293 27.2706 12.8749 28.015 13.2835 28.8554C13.692 29.6958 13.918 30.6132 13.9464 31.5472C13.9461 31.5532 13.9461 31.5591 13.9464 31.565C13.9461 31.5707 13.9461 31.5763 13.9464 31.582L14.1866 34.9453H13.7811C13.4765 34.9453 13.1844 35.0663 12.969 35.2817C12.7536 35.4971 12.6326 35.7892 12.6326 36.0938C12.6326 36.3983 12.7536 36.6904 12.969 36.9058C13.1844 37.1212 13.4765 37.2422 13.7811 37.2422H14.3526L14.4301 38.3316C14.5011 39.2823 14.9282 40.1712 15.626 40.8209C16.3238 41.4705 17.241 41.833 18.1943 41.8359H23.8053C24.7586 41.833 25.6758 41.4705 26.3736 40.8209C27.0714 40.1712 27.4985 39.2823 27.5695 38.3316L27.647 37.2422H28.2186C28.5231 37.2422 28.8153 37.1212 29.0306 36.9058C29.246 36.6904 29.367 36.3983 29.367 36.0938C29.367 35.7892 29.246 35.4971 29.0306 35.2817C28.8153 35.0663 28.5231 34.9453 28.2186 34.9453H27.811L28.0512 31.582C28.0515 31.5763 28.0515 31.5707 28.0512 31.565C28.0515 31.5591 28.0515 31.5532 28.0512 31.5472C28.0795 30.6132 28.3054 29.6957 28.7139 28.8553C29.1225 28.0148 29.7045 27.2705 30.4216 26.6713C32.8126 24.7256 34.5426 22.0873 35.3741 19.1189C36.2055 16.1504 36.0976 12.9974 35.0652 10.0927C34.0328 7.18805 32.1264 4.67424 29.608 2.89649C27.0895 1.11874 24.0825 0.164239 20.9998 0.164063ZM25.2792 38.1675C25.2511 38.5396 25.0838 38.8875 24.8106 39.1417C24.5374 39.3959 24.1784 39.5378 23.8053 39.5391H18.1943C17.8212 39.5378 17.4622 39.3959 17.189 39.1417C16.9158 38.8875 16.7485 38.5396 16.7204 38.1675L16.6548 37.2422H25.3448L25.2792 38.1675ZM25.5089 34.9453H16.4907L16.3273 32.6484H25.6723L25.5089 34.9453ZM28.9726 24.8909C27.3041 26.2694 26.2 28.2126 25.8698 30.3516H16.1298C15.7996 28.2126 14.6955 26.2694 13.027 24.8909C11.0036 23.2443 9.53948 21.0117 8.83584 18.4997C8.13221 15.9876 8.22353 13.3193 9.09728 10.8612C9.97102 8.40316 11.5843 6.27586 13.7156 4.7715C15.8469 3.26715 18.3917 2.45951 21.0005 2.45951C23.6092 2.45951 26.154 3.26715 28.2853 4.7715C30.4166 6.27586 32.0299 8.40316 32.9036 10.8612C33.7774 13.3193 33.8687 15.9876 33.1651 18.4997C32.4614 21.0117 30.9974 23.2443 28.9739 24.8909H28.9726Z" fill="black"/>
    <path d="M37.0353 8.38884C37.1715 8.66122 37.4104 8.86831 37.6994 8.96455C37.9884 9.06079 38.3037 9.0383 38.5761 8.90203L41.2011 7.58953C41.336 7.52217 41.4563 7.42889 41.5552 7.31502C41.654 7.20115 41.7294 7.06892 41.7772 6.92589C41.8249 6.78285 41.844 6.63182 41.8333 6.48141C41.8226 6.331 41.7824 6.18418 41.715 6.04931C41.5787 5.77693 41.3398 5.56985 41.0508 5.47361C40.7618 5.37737 40.4465 5.39985 40.1741 5.53612L37.5491 6.84862C37.4142 6.91598 37.2939 7.00926 37.195 7.12314C37.0962 7.23701 37.0208 7.36924 36.9731 7.51227C36.9253 7.6553 36.9063 7.80634 36.9169 7.95675C36.9276 8.10715 36.9678 8.25398 37.0353 8.38884Z" fill="black"/>
    <path d="M41.2011 21.2855L38.5761 19.973C38.3037 19.8367 37.9884 19.8142 37.6994 19.9105C37.4104 20.0067 37.1715 20.2138 37.0353 20.4862C36.9678 20.621 36.9276 20.7678 36.9169 20.9183C36.9063 21.0687 36.9253 21.2197 36.9731 21.3627C37.0208 21.5058 37.0962 21.638 37.195 21.7519C37.2939 21.8657 37.4142 21.959 37.5491 22.0264L40.1741 23.3389C40.4462 23.4723 40.7599 23.4929 41.0471 23.396C41.3342 23.2991 41.5714 23.0927 41.707 22.8217C41.8426 22.5507 41.8656 22.2371 41.7709 21.9492C41.6763 21.6613 41.4717 21.4225 41.2018 21.2848L41.2011 21.2855Z" fill="black"/>
    <path d="M4.45113 6.84792L1.82613 5.53542C1.55374 5.39915 1.23838 5.37666 0.94941 5.4729C0.660443 5.56915 0.421539 5.77623 0.285252 6.04861C0.217816 6.18347 0.177613 6.3303 0.166941 6.48071C0.156269 6.63111 0.175337 6.78215 0.223056 6.92518C0.270774 7.06822 0.346208 7.20045 0.445048 7.31432C0.543887 7.42819 0.664195 7.52147 0.799096 7.58883L3.4241 8.90133C3.69648 9.0376 4.01185 9.06009 4.30081 8.96385C4.58978 8.86761 4.82868 8.66052 4.96497 8.38814C5.03241 8.25328 5.07261 8.10645 5.08328 7.95604C5.09395 7.80564 5.07489 7.6546 5.02717 7.51157C4.97945 7.36853 4.90402 7.2363 4.80518 7.12243C4.70634 7.00856 4.58603 6.91528 4.45113 6.84792Z" fill="black"/>
    <path d="M4.96472 20.4862C4.82844 20.2138 4.58953 20.0067 4.30057 19.9105C4.0116 19.8142 3.69623 19.8367 3.42385 19.973L0.798848 21.2855C0.662774 21.3522 0.541261 21.4453 0.441315 21.5592C0.341369 21.6732 0.264967 21.8058 0.216514 21.9494C0.16806 22.093 0.148515 22.2448 0.159003 22.396C0.169492 22.5472 0.209807 22.6948 0.277625 22.8304C0.345443 22.9659 0.439422 23.0867 0.554143 23.1858C0.668864 23.2848 0.802059 23.3602 0.946047 23.4075C1.09003 23.4548 1.24197 23.4732 1.39309 23.4615C1.5442 23.4499 1.69152 23.4084 1.82654 23.3395L4.45154 22.027C4.58644 21.9597 4.70674 21.8664 4.80558 21.7525C4.90442 21.6386 4.97986 21.5064 5.02758 21.3634C5.07529 21.2204 5.09436 21.0693 5.08369 20.9189C5.07302 20.7685 5.03282 20.6217 4.96538 20.4868L4.96472 20.4862Z" fill="black"/>
    <path d="M27.2342 7.51603L25.8744 8.30353C25.4269 7.98059 24.948 7.70336 24.4451 7.476V5.90625C24.4452 5.75541 24.4156 5.60603 24.3579 5.46666C24.3002 5.32729 24.2156 5.20065 24.109 5.09399C24.0023 4.98733 23.8757 4.90274 23.7363 4.84506C23.5969 4.78737 23.4475 4.75773 23.2967 4.75781H18.7029C18.5521 4.75773 18.4027 4.78737 18.2634 4.84506C18.124 4.90274 17.9973 4.98733 17.8907 5.09399C17.784 5.20065 17.6994 5.32729 17.6417 5.46666C17.5841 5.60603 17.5544 5.75541 17.5545 5.90625V7.47338C17.0516 7.70073 16.5728 7.97796 16.1252 8.30091L14.7654 7.51341C14.6349 7.43795 14.4908 7.38896 14.3413 7.36924C14.1918 7.34951 14.0399 7.35943 13.8942 7.39843C13.7485 7.43744 13.612 7.50476 13.4924 7.59655C13.3727 7.68834 13.2724 7.80281 13.197 7.93341L10.9001 11.9129C10.8247 12.0435 10.7757 12.1876 10.756 12.3371C10.7362 12.4866 10.7462 12.6385 10.7852 12.7841C10.8242 12.9298 10.8915 13.0663 10.9833 13.186C11.0751 13.3056 11.1895 13.406 11.3201 13.4813L12.674 14.2623C12.6464 14.5386 12.6326 14.8155 12.6326 15.0911C12.6326 15.3667 12.6464 15.6437 12.674 15.92L11.3201 16.7009C11.1895 16.7763 11.0751 16.8766 10.9833 16.9963C10.8915 17.1159 10.8242 17.2524 10.7852 17.3981C10.7462 17.5438 10.7362 17.6957 10.756 17.8452C10.7757 17.9947 10.8247 18.1388 10.9001 18.2693L13.197 22.2488C13.3494 22.5125 13.6002 22.7048 13.8943 22.7836C14.1884 22.8623 14.5017 22.8211 14.7654 22.6688L16.1252 21.8813C16.5728 22.2043 17.0516 22.4815 17.5545 22.7089V24.2812C17.5544 24.4321 17.5841 24.5815 17.6417 24.7208C17.6994 24.8602 17.784 24.9869 17.8907 25.0935C17.9973 25.2002 18.124 25.2848 18.2634 25.3424C18.4027 25.4001 18.5521 25.4298 18.7029 25.4297H23.2967C23.4475 25.4298 23.5969 25.4001 23.7363 25.3424C23.8757 25.2848 24.0023 25.2002 24.109 25.0935C24.2156 24.9869 24.3002 24.8602 24.3579 24.7208C24.4156 24.5815 24.4452 24.4321 24.4451 24.2812V22.7141C24.948 22.4868 25.4269 22.2095 25.8744 21.8866L27.2342 22.6741C27.4979 22.8263 27.8113 22.8676 28.1054 22.7888C28.3995 22.71 28.6503 22.5177 28.8026 22.2541L31.0995 18.2746C31.2517 18.0109 31.293 17.6975 31.2142 17.4034C31.1355 17.1093 30.9431 16.8585 30.6795 16.7062L29.3257 15.9252C29.3532 15.6489 29.367 15.372 29.367 15.0964C29.367 14.8208 29.3532 14.5438 29.3257 14.2675L30.6795 13.4866C30.9431 13.3342 31.1355 13.0834 31.2142 12.7893C31.293 12.4952 31.2517 12.1819 31.0995 11.9182L28.8026 7.93866C28.7275 7.80784 28.6273 7.69312 28.5077 7.60107C28.3882 7.50902 28.2517 7.44143 28.106 7.40218C27.9604 7.36293 27.8084 7.35278 27.6588 7.37231C27.5092 7.39185 27.3649 7.44069 27.2342 7.51603ZM26.9494 13.8869C27.1104 14.683 27.1104 15.5032 26.9494 16.2993C26.9019 16.5348 26.9296 16.7793 27.0285 16.9983C27.1274 17.2173 27.2925 17.3998 27.5006 17.5199L28.5362 18.1171L27.3878 20.1068L26.3456 19.5051C26.1375 19.3845 25.8968 19.3323 25.6574 19.3558C25.418 19.3794 25.1921 19.4775 25.0115 19.6363C24.4059 20.1734 23.6984 20.5832 22.9312 20.8412C22.703 20.9177 22.5047 21.064 22.3642 21.2593C22.2237 21.4547 22.1482 21.6893 22.1483 21.9299V23.1328H19.8514V21.9332C19.8515 21.6926 19.7759 21.458 19.6355 21.2626C19.495 21.0672 19.2966 20.921 19.0685 20.8445C18.3012 20.5865 17.5938 20.1767 16.9882 19.6396C16.8075 19.4808 16.5816 19.3826 16.3422 19.3591C16.1028 19.3355 15.8621 19.3878 15.654 19.5083L14.6119 20.1101L13.4634 18.1204L14.4983 17.5225C14.7067 17.4025 14.872 17.22 14.971 17.0008C15.0699 16.7816 15.0974 16.5369 15.0496 16.3013C14.8895 15.5055 14.8895 14.6859 15.0496 13.8902C15.0974 13.6546 15.0698 13.41 14.9709 13.1909C14.872 12.9719 14.7066 12.7895 14.4983 12.6696L13.4634 12.0717L14.6119 10.082L15.654 10.6838C15.8621 10.8043 16.1028 10.8565 16.3422 10.833C16.5816 10.8094 16.8075 10.7113 16.9882 10.5525C17.5938 10.0154 18.3012 9.60564 19.0685 9.34763C19.2966 9.27113 19.495 9.12486 19.6355 8.92949C19.7759 8.73412 19.8515 8.49954 19.8514 8.25891V7.05469H22.1483V8.25431C22.1482 8.49495 22.2237 8.72953 22.3642 8.9249C22.5047 9.12026 22.703 9.26653 22.9312 9.34303C23.6984 9.60104 24.4059 10.0108 25.0115 10.5479C25.1921 10.7067 25.418 10.8049 25.6574 10.8284C25.8968 10.852 26.1375 10.7997 26.3456 10.6792L27.3878 10.0774L28.5362 12.0671L27.5006 12.6643C27.2922 12.7846 27.1268 12.9673 27.0279 13.1867C26.9289 13.4061 26.9015 13.6511 26.9494 13.8869Z" fill="black"/>
    <path d="M21 11.3203C20.2537 11.3203 19.5241 11.5416 18.9036 11.9563C18.2831 12.3709 17.7994 12.9602 17.5138 13.6497C17.2282 14.3392 17.1535 15.0979 17.2991 15.8299C17.4447 16.5619 17.8041 17.2342 18.3318 17.762C18.8595 18.2897 19.5319 18.6491 20.2638 18.7947C20.9958 18.9403 21.7545 18.8656 22.444 18.58C23.1335 18.2943 23.7229 17.8107 24.1375 17.1902C24.5521 16.5696 24.7734 15.8401 24.7734 15.0938C24.7722 14.0933 24.3743 13.1343 23.6669 12.4269C22.9595 11.7195 22.0004 11.3215 21 11.3203ZM21 16.5703C20.708 16.5703 20.4225 16.4837 20.1797 16.3215C19.9368 16.1592 19.7476 15.9286 19.6358 15.6588C19.5241 15.389 19.4948 15.0921 19.5518 14.8057C19.6088 14.5193 19.7494 14.2562 19.9559 14.0497C20.1624 13.8432 20.4255 13.7025 20.7119 13.6456C20.9984 13.5886 21.2953 13.6178 21.5651 13.7296C21.8349 13.8413 22.0655 14.0306 22.2277 14.2734C22.39 14.5162 22.4766 14.8017 22.4766 15.0938C22.4762 15.4853 22.3205 15.8606 22.0437 16.1375C21.7669 16.4143 21.3915 16.57 21 16.5703Z" fill="black"/>
  </g>
  <defs>
    <clipPath id="clip0_2986_10906">
      <rect width="42" height="42" fill="white"/>
    </clipPath>
  </defs>
</svg>