<svg width="14" height="14" viewBox="0 0 14 14" fill="none" xmlns="http://www.w3.org/2000/svg">
<g id="vuesax/linear/call">
<g id="call">
<g id="call_2">
<path id="Vector" d="M12.8171 10.6928C12.8171 10.9028 12.7705 11.1187 12.6713 11.3287C12.5721 11.5387 12.4438 11.737 12.2746 11.9237C11.9888 12.2387 11.6738 12.4662 11.318 12.612C10.968 12.7578 10.5888 12.8337 10.1805 12.8337C9.58547 12.8337 8.94963 12.6937 8.2788 12.4078C7.60797 12.122 6.93714 11.737 6.27214 11.2528C5.6013 10.7628 4.96547 10.2203 4.3588 9.61949C3.75797 9.01283 3.21547 8.37699 2.7313 7.71199C2.25297 7.04699 1.86797 6.38199 1.58797 5.72283C1.30797 5.05783 1.16797 4.42199 1.16797 3.81533C1.16797 3.41866 1.23797 3.03949 1.37797 2.68949C1.51797 2.33366 1.73964 2.00699 2.0488 1.71533C2.42214 1.34783 2.83047 1.16699 3.26214 1.16699C3.42547 1.16699 3.5888 1.20199 3.73464 1.27199C3.8863 1.34199 4.02047 1.44699 4.12547 1.59866L5.4788 3.50616C5.5838 3.65199 5.65964 3.78616 5.71214 3.91449C5.76464 4.03699 5.7938 4.15949 5.7938 4.27033C5.7938 4.41033 5.75297 4.55033 5.6713 4.68449C5.59547 4.81866 5.48464 4.95866 5.34464 5.09866L4.9013 5.55949C4.83714 5.62366 4.80797 5.69949 4.80797 5.79283C4.80797 5.83949 4.8138 5.88033 4.82547 5.92699C4.84297 5.97366 4.86047 6.00866 4.87214 6.04366C4.97714 6.23616 5.15797 6.48699 5.41464 6.79033C5.67714 7.09366 5.95713 7.40283 6.26047 7.71199C6.57547 8.02116 6.8788 8.30699 7.18797 8.56949C7.4913 8.82616 7.74213 9.00116 7.94047 9.10616C7.96963 9.11783 8.00464 9.13533 8.04547 9.15283C8.09214 9.17033 8.1388 9.17616 8.1913 9.17616C8.29047 9.17616 8.3663 9.14116 8.43047 9.07699L8.8738 8.63949C9.01964 8.49366 9.15964 8.38283 9.2938 8.31283C9.42797 8.23116 9.56213 8.19033 9.70797 8.19033C9.8188 8.19033 9.93547 8.21366 10.0638 8.26616C10.1921 8.31866 10.3263 8.39449 10.4721 8.49366L12.403 9.86449C12.5546 9.96949 12.6596 10.092 12.7238 10.2378C12.7821 10.3837 12.8171 10.5295 12.8171 10.6928Z" stroke="#222222" stroke-width="1.5" stroke-miterlimit="10"/>
</g>
</g>
</g>
</svg>
