<svg xmlns="http://www.w3.org/2000/svg" width="54" height="45" viewBox="0 0 54 45" fill="none">
  <path d="M41.4859 20.8965C42.5806 22.6262 43.4098 24.5648 43.8906 26.6406C43.6634 26.6305 43.4331 26.625 43.2 26.625C36.5733 26.625 30.7109 29.9177 27.002 34.9682C25.3497 32.7125 23.2707 30.8153 20.8804 29.4003C17.8119 27.5837 14.3383 26.6257 10.8003 26.625H10.8C10.5669 26.625 10.3366 26.6305 10.1094 26.6406C10.5902 24.5648 11.4194 22.6262 12.5141 20.8965L26.4226 26.6969L27 26.9377L27.5774 26.6969L41.4859 20.8965ZM27 1.625L50.1 11.25L26.9996 20.8752L7.43426 12.7339L5.53621 11.9441L5.53697 11.9251L4.57126 11.5241L3.90562 11.2477L27 1.625ZM5.40249 15.2551L6.53846 43.5H4.2618L5.40249 15.2551ZM27 6.9375C26.0699 6.9375 25.1483 7.12798 24.404 7.51299C23.729 7.86212 22.8 8.60806 22.8 9.84375C22.8 11.0794 23.729 11.8254 24.404 12.1745C25.1483 12.5595 26.0699 12.75 27 12.75C27.9301 12.75 28.8517 12.5595 29.596 12.1745C30.271 11.8254 31.2 11.0794 31.2 9.84375C31.2 8.60806 30.271 7.86212 29.596 7.51299C28.8517 7.12798 27.9301 6.9375 27 6.9375Z" stroke="black" stroke-width="3"/>
</svg>