<svg xmlns="http://www.w3.org/2000/svg" width="113" height="101" viewBox="0 0 113 101" fill="none">
  <path d="M97.7 30.6371V24.3047L14.9922 24.2695V30.6371L26.6397 35.6941L78.9156 41.8883L97.7 30.6371Z" fill="#622E26"/>
  <path d="M96.8128 29.9918C89.6501 27.3573 82.1993 25.4565 74.5281 24.2995C71.626 21.1362 67.8768 18.694 63.4911 17.3848C54.2827 14.6363 44.7566 17.6105 38.61 24.2514C30.818 25.4031 23.2507 27.3182 15.9816 29.9918L15.043 30.3369L15.1852 31.3381C19.4731 61.5181 34.6402 87.3156 55.7581 100.346L56.3971 100.741L57.0361 100.346C78.154 87.3158 93.3212 61.5184 97.609 31.3381L97.751 30.3369L96.8128 29.9918Z" fill="#622E26"/>
  <path d="M74.4771 24.5998C74.3269 24.4362 74.1649 24.2828 74.0103 24.123C69.7736 28.4741 65.7223 32.6422 65.7223 32.6422L51.5703 48.4298L56.3442 94.5926L56.4139 100.999L56.9851 100.647C78.1031 87.6161 93.2702 61.8186 97.558 31.6384L97.7001 30.6372L96.7619 30.2921C89.5994 27.6576 82.1484 25.7568 74.4771 24.5998Z" fill="#4B231C"/>
  <path d="M56.4964 18.1377C42.1797 18.1377 28.6223 20.6398 16.5 25.0986C20.8035 55.391 36.0046 80.5773 56.4964 93.2221C76.9882 80.5773 92.1893 55.391 96.4928 25.0986C84.3705 20.6398 70.8129 18.1377 56.4964 18.1377Z" fill="#FEE5A6"/>
  <path d="M56.4948 94.6789L55.8558 94.2844C34.7378 81.2537 19.5707 55.4562 15.2829 25.2762L15.1406 24.275L16.0793 23.9299C28.7716 19.2616 42.3693 16.8945 56.4948 16.8945C70.6203 16.8945 84.218 19.2616 96.9105 23.9299L97.8487 24.275L97.7067 25.2762C93.4188 55.4565 78.2517 81.2539 57.1337 94.2844L56.4948 94.6789ZM17.8607 25.9262C22.1888 54.6385 36.5619 79.1341 56.4948 91.7608C76.4276 79.1341 90.801 54.6387 95.1291 25.9262C82.9762 21.5832 69.984 19.382 56.4948 19.382C43.0061 19.382 30.0136 21.5834 17.8607 25.9262Z" fill="#F26722"/>
  <path d="M56.4997 90.5387L56.233 90.3644C46.9159 84.2642 38.6023 75.2612 32.1914 64.3285C25.7883 53.4101 21.2514 40.5132 19.0712 27.0325L19.0039 26.6165L19.3979 26.481C31.0951 22.4553 43.5776 20.4141 56.4999 20.4141C69.4222 20.4141 81.905 22.4553 93.6019 26.481L93.9961 26.6165L93.9291 27.0325C91.7484 40.5134 87.211 53.4098 80.8083 64.3283C74.3975 75.2612 66.0837 84.2642 56.7668 90.3644L56.4997 90.5387ZM20.1085 27.2885C24.534 54.0251 38.1073 77.1753 56.4997 89.3534C74.892 77.1756 88.4656 54.0256 92.8908 27.2885C81.4099 23.3873 69.1688 21.4096 56.4997 21.4096C43.8308 21.4094 31.5894 23.3873 20.1085 27.2885Z" fill="white"/>
  <path d="M74.0184 52.7962C83.6134 43.0766 83.6134 27.318 74.0184 17.5984C64.4234 7.87877 48.8668 7.87877 39.2718 17.5984C29.6767 27.318 29.6767 43.0766 39.2718 52.7962C48.8668 62.5158 64.4234 62.5158 74.0184 52.7962Z" fill="#622E26"/>
  <path d="M73.1708 51.9388C82.2984 42.6927 82.2984 27.7018 73.1708 18.4557C64.0432 9.20959 49.2444 9.20959 40.1168 18.4557C30.9892 27.7018 30.9892 42.6927 40.1168 51.9388C49.2444 61.1849 64.0432 61.1849 73.1708 51.9388Z" fill="white"/>
  <path d="M79.4321 40.4458C77.4074 45.33 74.4513 49.399 74.0701 49.8685L73.4755 50.1979L66.8136 50.4441L64.9818 40.1847L64.848 39.8728L70.5054 30.7571L70.7441 30.7329L77.9186 32.0169L78.1035 32.0721L79.7103 38.9971C80.3722 34.9064 79.9478 30.8326 78.6149 27.1212L78.055 31.2715L70.8236 29.9748L70.4779 30.0087L63.666 21.7391L63.733 21.4123L64.4899 14.8142L69.1324 15.1835C67.3455 14.0406 65.3792 13.1205 63.2518 12.4855C60.848 11.7679 58.4217 11.4648 56.0447 11.5263L63.7547 14.6356L62.9928 21.2907L62.9422 21.5376L53.1257 25.5236L52.8024 25.376L45.3388 21.8058L45.2368 21.7496L46.4778 15.5093L46.7761 15.2895L55.0395 11.5725C54.1647 11.6335 53.2993 11.7488 52.4446 11.9078L46.4351 14.611L45.6493 15.1881L43.3054 15.7619C40.0546 18.0485 37.358 21.1774 35.5742 24.9542L36.6216 28.7555L36.5111 38.2417L36.6609 39.0118L35.1016 44.3728C36.6766 48.1614 39.2146 51.5149 42.5013 54.0468L47.0587 53.593L47.423 53.8483L47.4688 53.8754C47.5563 53.9198 48.8282 54.5549 50.9962 55.2019C52.5046 55.6523 54.4475 56.1083 56.7259 56.3748C56.9308 56.3987 57.1372 56.4158 57.3443 56.4292L60.2272 58.5955C65.6854 57.7343 70.6946 54.9252 74.3165 50.6923L74.316 50.5992L74.4667 50.5157C76.5177 48.0703 78.1129 45.1649 79.0658 41.8888C79.2049 41.4086 79.3236 40.9274 79.4321 40.4458ZM44.3791 43.9669L37.3358 38.5802L37.2608 38.1962L37.3782 28.7643L37.439 28.6866L44.8495 22.402L44.9981 22.4839L52.4875 26.0668L52.67 26.1501L53.3806 36.8685L53.1612 37.1096L44.4493 43.8941L44.3791 43.9669ZM57.3451 55.6665C57.1664 55.6542 56.988 55.6398 56.8115 55.6193C51.6233 55.0121 48.137 53.3581 47.8262 53.2061L47.4478 52.9411L44.8078 44.6046L44.9277 44.4813L53.6441 37.6931L53.824 37.4962L64.1514 40.1351L64.2502 40.3644L66.0536 50.4649L66.0201 50.6955L57.3451 55.6665Z" fill="#622E26"/>
  <path opacity="0.1" d="M80.0097 34.5498C75.5788 45.7526 63.3784 51.9106 51.7191 48.4305C41.7537 45.4561 35.2278 36.3477 34.9601 26.3672C34.6855 27.0616 34.4376 27.7733 34.2247 28.5056C30.5763 41.0486 37.6563 54.2124 50.0385 57.9084C62.4207 61.6042 75.4159 54.4323 79.0645 41.8893C79.7765 39.4412 80.0745 36.9701 80.0097 34.5498Z" fill="#010101"/>
  <path opacity="0.1" d="M72.7153 18.0039C77.4022 29.0992 73.0741 42.1925 62.4002 48.0833C53.2772 53.118 42.3049 51.3521 35.1484 44.4862C35.439 45.174 35.7606 45.8548 36.1211 46.525C42.2967 58.0074 56.4921 62.2447 67.8276 55.9887C79.1628 49.733 83.3458 35.353 77.17 23.8705C75.9649 21.6296 74.4509 19.6687 72.7153 18.0039Z" fill="#010101"/>
  <path d="M54.8359 27.0366C55.4067 26.5837 56.0097 26.1983 56.6238 25.8366C57.2382 25.4753 57.8637 25.1373 58.5022 24.8266C59.1394 24.5135 59.7905 24.2297 60.4523 23.9681C61.1144 23.707 61.7879 23.4703 62.4939 23.3018C61.9234 23.7556 61.3206 24.1415 60.7065 24.5027C60.0919 24.8637 59.4666 25.2023 58.8277 25.5115C58.1897 25.8234 57.5389 26.1079 56.877 26.369C56.2149 26.6302 55.5417 26.8671 54.8359 27.0366Z" fill="white"/>
  <path d="M37.3359 40.6182C37.8833 40.8341 38.3867 41.1103 38.8745 41.4076C39.3621 41.7051 39.8344 42.0236 40.2889 42.3663C40.7449 42.707 41.182 43.0734 41.6042 43.46C42.0262 43.8469 42.4325 44.2555 42.7942 44.725C42.2461 44.5098 41.7426 44.234 41.2551 43.9365C40.7678 43.6386 40.2952 43.3208 39.8414 42.9769C39.3862 42.6352 38.9488 42.2693 38.5266 41.8824C38.1046 41.495 37.6981 41.0866 37.3359 40.6182Z" fill="white"/>
  <path d="M36.7148 25.2696C36.8839 24.5085 37.1754 23.7868 37.5166 23.095C37.8597 22.4033 38.2616 21.7404 38.7173 21.1169C39.1673 20.4889 39.6864 19.9105 40.2482 19.3815C40.8042 18.8468 41.4381 18.391 42.115 18.0283C41.6334 18.6389 41.1353 19.1944 40.6755 19.7877C40.2104 20.3734 39.7583 20.9647 39.3206 21.5692C38.8815 22.172 38.4461 22.7792 38.0179 23.3977C37.5908 24.0176 37.1662 24.6407 36.7148 25.2696Z" fill="white"/>
  <path d="M59.2109 56.0663C59.6589 55.6313 60.1431 55.2615 60.6401 54.9149C61.137 54.5686 61.6467 54.2449 62.1709 53.9477C62.6939 53.648 63.2326 53.3766 63.783 53.127C64.334 52.8776 64.8977 52.6519 65.4981 52.4922C65.0506 52.9279 64.5667 53.298 64.0697 53.6443C63.5723 53.9902 63.0631 54.3145 62.5381 54.6106C62.0144 54.9088 61.4763 55.1809 60.9255 55.4303C60.3746 55.6796 59.8108 55.9056 59.2109 56.0663Z" fill="white"/>
  <path d="M27.1537 30.2063C27.1537 31.1562 26.3935 31.9263 25.4558 31.9263C24.5181 31.9263 23.7578 31.1562 23.7578 30.2063C23.7578 29.2565 24.5181 28.4863 25.4558 28.4863C26.3935 28.4863 27.1537 29.2562 27.1537 30.2063Z" fill="#F26722"/>
  <path d="M89.2436 30.2063C89.2436 31.1562 88.4833 31.9263 87.5456 31.9263C86.6079 31.9263 85.8477 31.1562 85.8477 30.2063C85.8477 29.2565 86.6079 28.4863 87.5456 28.4863C88.4833 28.4863 89.2436 29.2562 89.2436 30.2063Z" fill="#F26722"/>
  <path d="M106.065 91.44C98.3693 88.6336 90.4994 86.501 82.5391 85.0431C83.7543 78.2358 84.9696 71.4283 86.1848 64.6211C95.2598 66.2835 104.232 68.7142 113.005 71.9139C110.019 74.5013 107.137 77.1628 104.361 79.8926C105.049 83.7493 105.617 87.6004 106.065 91.44Z" fill="#E49F3A"/>
  <path d="M94.1494 77.3464C90.0897 79.7584 86.2169 82.3308 82.5391 85.0432C83.1228 81.7654 83.7066 78.4878 84.2903 75.21C87.5929 75.8135 90.8811 76.5255 94.1494 77.3464Z" fill="#B37D2D"/>
  <path d="M6.9399 91.44C14.6355 88.6336 22.5054 86.501 30.4657 85.0431C29.2504 78.2358 28.0352 71.4283 26.82 64.6211C17.7449 66.2835 8.77313 68.7142 0 71.9139C2.98578 74.5013 5.86812 77.1628 8.64413 79.8926C7.95573 83.7493 7.3879 87.6004 6.9399 91.44Z" fill="#E49F3A"/>
  <path d="M18.8555 77.3464C22.9152 79.7584 26.7881 82.3308 30.4659 85.0432C29.8821 81.7654 29.2984 78.4878 28.7146 75.21C25.412 75.8135 22.1238 76.5255 18.8555 77.3464Z" fill="#B37D2D"/>
  <path d="M94.268 77.4421C69.5448 71.2216 43.6862 71.2228 18.9635 77.4453C17.3169 70.7316 15.6703 64.0181 14.0234 57.3044C41.9892 50.2656 71.2399 50.2644 99.2061 57.3008C97.5602 64.0147 95.9141 70.7284 94.268 77.4421Z" fill="#FCB145"/>
  <path d="M34.0217 62.9327H33.1216C33.1052 62.8147 33.0716 62.7099 33.0209 62.6184C32.9703 62.5254 32.9052 62.4463 32.8257 62.381C32.7463 62.3158 32.6545 62.2659 32.5504 62.2312C32.4476 62.1965 32.3359 62.1791 32.2154 62.1791C31.9976 62.1791 31.8078 62.2339 31.6462 62.3436C31.4845 62.4518 31.3591 62.61 31.2701 62.8182C31.181 63.025 31.1365 63.2762 31.1365 63.5718C31.1365 63.8757 31.181 64.131 31.2701 64.3378C31.3605 64.5446 31.4866 64.7007 31.6482 64.8062C31.8099 64.9117 31.9969 64.9644 32.2092 64.9644C32.3284 64.9644 32.4387 64.9484 32.5401 64.9165C32.6428 64.8846 32.7339 64.8381 32.8134 64.7771C32.8929 64.7146 32.9586 64.639 33.0107 64.5501C33.0641 64.4613 33.1011 64.36 33.1216 64.2462L34.0217 64.2504C33.9984 64.4461 33.9402 64.6348 33.8471 64.8166C33.7553 64.997 33.6313 65.1587 33.4751 65.3016C33.3203 65.4432 33.1353 65.5556 32.9203 65.6389C32.7065 65.7207 32.4647 65.7617 32.1948 65.7617C31.8195 65.7617 31.4838 65.6756 31.1879 65.5036C30.8933 65.3315 30.6604 65.0824 30.4892 64.7562C30.3193 64.4301 30.2344 64.0353 30.2344 63.5718C30.2344 63.1069 30.3207 62.7113 30.4933 62.3852C30.6659 62.0591 30.9002 61.8107 31.1961 61.64C31.492 61.4679 31.8249 61.3818 32.1948 61.3818C32.4387 61.3818 32.6647 61.4165 32.873 61.4859C33.0826 61.5553 33.2682 61.6566 33.4299 61.7898C33.5916 61.9217 33.7231 62.0834 33.8245 62.2749C33.9272 62.4664 33.993 62.6857 34.0217 62.9327Z" fill="#4B231C"/>
  <path d="M34.6598 65.7034V61.4401H35.5496V64.9602H37.3539V65.7034H34.6598Z" fill="#4B231C"/>
  <path d="M40.5427 61.4401H41.4326V64.2088C41.4326 64.5196 41.3593 64.7916 41.2127 65.0248C41.0675 65.2579 40.864 65.4397 40.6023 65.5702C40.3407 65.6992 40.0358 65.7638 39.6879 65.7638C39.3385 65.7638 39.033 65.6992 38.7713 65.5702C38.5097 65.4397 38.3062 65.2579 38.161 65.0248C38.0158 64.7916 37.9432 64.5196 37.9432 64.2088V61.4401H38.833V64.1317C38.833 64.2941 38.8679 64.4384 38.9378 64.5647C39.009 64.691 39.109 64.7902 39.2378 64.8624C39.3666 64.9346 39.5166 64.9706 39.6879 64.9706C39.8605 64.9706 40.0105 64.9346 40.1379 64.8624C40.2667 64.7902 40.366 64.691 40.4359 64.5647C40.5071 64.4384 40.5427 64.2941 40.5427 64.1317V61.4401Z" fill="#4B231C"/>
  <path d="M42.1646 65.7034V61.4401H43.8497C44.1594 61.4401 44.4176 61.4866 44.6245 61.5796C44.8313 61.6726 44.9868 61.8016 45.091 61.9668C45.1951 62.1305 45.2471 62.3193 45.2471 62.533C45.2471 62.6995 45.2143 62.8459 45.1485 62.9722C45.0827 63.0971 44.9923 63.1998 44.8772 63.2803C44.7635 63.3594 44.6334 63.4156 44.4868 63.4489V63.4906C44.6471 63.4975 44.7971 63.5433 44.9368 63.628C45.0779 63.7126 45.1923 63.8313 45.28 63.9839C45.3677 64.1352 45.4115 64.3156 45.4115 64.5252C45.4115 64.7514 45.3561 64.9533 45.2451 65.1309C45.1355 65.3072 44.9731 65.4467 44.7581 65.5494C44.543 65.652 44.2779 65.7034 43.9628 65.7034H42.1646ZM43.0545 64.9665H43.7799C44.0278 64.9665 44.2087 64.9186 44.3224 64.8228C44.4361 64.7257 44.493 64.5966 44.493 64.4357C44.493 64.3177 44.4649 64.2136 44.4087 64.1234C44.3525 64.0332 44.2724 63.9624 44.1683 63.9111C44.0655 63.8597 43.9429 63.8341 43.8004 63.8341H43.0545V64.9665ZM43.0545 63.2241H43.7141C43.836 63.2241 43.9443 63.2026 44.0388 63.1596C44.1347 63.1152 44.2101 63.0527 44.2649 62.9722C44.321 62.8917 44.3491 62.7953 44.3491 62.6829C44.3491 62.5288 44.295 62.4046 44.1868 62.3103C44.0799 62.2159 43.9278 62.1687 43.7306 62.1687H43.0545V63.2241Z" fill="#4B231C"/>
  <path d="M48.2736 62.6662C48.2572 62.4983 48.1866 62.3679 48.062 62.2749C47.9373 62.1819 47.7681 62.1354 47.5544 62.1354C47.4092 62.1354 47.2866 62.1562 47.1865 62.1979C47.0865 62.2381 47.0098 62.2943 46.9564 62.3665C46.9043 62.4386 46.8783 62.5205 46.8783 62.6121C46.8756 62.6884 46.8913 62.755 46.9256 62.8119C46.9612 62.8688 47.0098 62.9181 47.0715 62.9597C47.1331 63 47.2044 63.0354 47.2852 63.0659C47.366 63.0951 47.4523 63.12 47.5441 63.1409L47.9222 63.2324C48.1058 63.2741 48.2743 63.3296 48.4278 63.399C48.5812 63.4684 48.7141 63.5537 48.8264 63.655C48.9388 63.7563 49.0258 63.8757 49.0874 64.0131C49.1504 64.1505 49.1826 64.308 49.184 64.4856C49.1826 64.7465 49.1169 64.9727 48.9867 65.1642C48.8579 65.3544 48.6716 65.5022 48.4278 65.6076C48.1853 65.7117 47.8928 65.7638 47.5503 65.7638C47.2105 65.7638 46.9146 65.711 46.6625 65.6056C46.4118 65.5001 46.2159 65.344 46.0748 65.1372C45.935 64.929 45.8618 64.6716 45.8549 64.3649H46.7159C46.7255 64.5078 46.766 64.6272 46.8372 64.7229C46.9098 64.8173 47.0064 64.8888 47.1269 64.9373C47.2489 64.9845 47.3866 65.0081 47.54 65.0081C47.6907 65.0081 47.8215 64.9859 47.9325 64.9415C48.0448 64.8971 48.1318 64.8353 48.1935 64.7562C48.2551 64.6771 48.286 64.5862 48.286 64.4835C48.286 64.3878 48.2579 64.3073 48.2017 64.2421C48.1469 64.1768 48.0661 64.1213 47.9592 64.0755C47.8537 64.0297 47.7243 63.9881 47.5708 63.9506L47.1126 63.8341C46.7577 63.7466 46.4776 63.6099 46.2721 63.424C46.0666 63.238 45.9645 62.9875 45.9659 62.6725C45.9645 62.4143 46.0323 62.1888 46.1693 61.9959C46.3077 61.803 46.4974 61.6525 46.7386 61.5442C46.9797 61.436 47.2537 61.3818 47.5606 61.3818C47.8729 61.3818 48.1455 61.436 48.3784 61.5442C48.6127 61.6525 48.7949 61.803 48.9251 61.9959C49.0552 62.1888 49.1223 62.4123 49.1265 62.6662H48.2736Z" fill="#4B231C"/>
  <path d="M52.396 65.7658C52.1055 65.7658 51.8548 65.7131 51.6438 65.6076C51.4328 65.5022 51.2705 65.3592 51.1568 65.1788C51.0445 64.997 50.9883 64.7944 50.9883 64.571C50.9883 64.4044 51.0212 64.2566 51.0869 64.1276C51.1527 63.9985 51.2445 63.8798 51.3623 63.7716C51.4801 63.662 51.6171 63.553 51.7733 63.4448L52.5891 62.9015C52.6946 62.8335 52.772 62.762 52.8213 62.687C52.8707 62.6107 52.8953 62.5281 52.8953 62.4393C52.8953 62.3547 52.8617 62.2763 52.7946 62.2041C52.7275 62.1319 52.6323 62.0965 52.509 62.0979C52.4268 62.0979 52.3555 62.1167 52.2953 62.1541C52.235 62.1902 52.1877 62.2381 52.1535 62.2978C52.1206 62.3561 52.1041 62.4213 52.1041 62.4935C52.1041 62.5823 52.1288 62.6725 52.1781 62.7641C52.2274 62.8557 52.2932 62.9528 52.3754 63.0555C52.4576 63.1568 52.5473 63.2664 52.6446 63.3844L54.64 65.7034H53.7276L52.063 63.8257C51.9534 63.6994 51.8438 63.5676 51.7342 63.4302C51.626 63.2914 51.5356 63.1443 51.463 62.9889C51.3904 62.8321 51.3541 62.6621 51.3541 62.4789C51.3541 62.2721 51.4013 62.0861 51.4959 61.921C51.5918 61.7558 51.726 61.6254 51.8986 61.5296C52.0713 61.4325 52.2727 61.3839 52.5028 61.3839C52.7275 61.3839 52.9213 61.4304 53.0844 61.5234C53.2488 61.615 53.3748 61.7371 53.4625 61.8898C53.5515 62.041 53.5961 62.2076 53.5961 62.3894C53.5961 62.5906 53.5467 62.7731 53.4481 62.9368C53.3508 63.0992 53.2138 63.2449 53.0371 63.374L52.1781 64.0006C52.0617 64.0866 51.9754 64.1748 51.9192 64.265C51.8644 64.3538 51.837 64.4391 51.837 64.521C51.837 64.6223 51.8617 64.7132 51.911 64.7937C51.9603 64.8742 52.0302 64.938 52.1206 64.9852C52.211 65.031 52.3172 65.0539 52.4391 65.0539C52.5871 65.0539 52.733 65.0199 52.8768 64.9519C53.022 64.8825 53.1536 64.7847 53.2714 64.6584C53.3906 64.5307 53.4858 64.3795 53.557 64.2046C53.6283 64.0297 53.6639 63.8361 53.6639 63.6238H54.3893C54.3893 63.8847 54.3612 64.1199 54.305 64.3295C54.2489 64.5377 54.1708 64.7195 54.0708 64.8749C53.9708 65.0289 53.8564 65.1552 53.7276 65.2538C53.6865 65.2801 53.6468 65.3051 53.6084 65.3287C53.57 65.3523 53.5303 65.3773 53.4892 65.4036C53.333 65.5313 53.1584 65.6236 52.9652 65.6805C52.7734 65.7374 52.5836 65.7658 52.396 65.7658Z" fill="#4B231C"/>
  <path d="M56.3605 65.7034V61.4401H57.2504V64.9602H59.0546V65.7034H56.3605Z" fill="#4B231C"/>
  <path d="M59.6439 65.7034V61.4401H62.4798V62.1833H60.5337V63.1991H62.3339V63.9423H60.5337V64.9602H62.488V65.7034H59.6439Z" fill="#4B231C"/>
  <path d="M63.9127 65.7034H62.9591L64.412 61.4401H65.5587L67.0095 65.7034H66.056L65.0018 62.4143H64.9689L63.9127 65.7034ZM63.8531 64.0276H66.1053V64.7313H63.8531V64.0276Z" fill="#4B231C"/>
  <path d="M70.109 62.8182C70.0802 62.7169 70.0398 62.6274 69.9877 62.5497C69.9357 62.4706 69.872 62.4039 69.7966 62.3498C69.7226 62.2943 69.6377 62.252 69.5418 62.2228C69.4473 62.1937 69.3425 62.1791 69.2274 62.1791C69.0123 62.1791 68.8232 62.2332 68.6602 62.3415C68.4986 62.4497 68.3725 62.6072 68.2821 62.814C68.1917 63.0194 68.1465 63.2706 68.1465 63.5676C68.1465 63.8646 68.191 64.1172 68.28 64.3253C68.3691 64.5335 68.4951 64.6924 68.6582 64.802C68.8212 64.9103 69.0137 64.9644 69.2356 64.9644C69.437 64.9644 69.6089 64.9283 69.7514 64.8562C69.8953 64.7826 70.0049 64.6792 70.0802 64.546C70.1569 64.4128 70.1953 64.2552 70.1953 64.0734L70.3761 64.1005H69.2911V63.4219H71.0522V63.959C71.0522 64.3337 70.9741 64.6556 70.818 64.9248C70.6618 65.1927 70.4467 65.3995 70.1727 65.5452C69.8987 65.6895 69.585 65.7617 69.2315 65.7617C68.8369 65.7617 68.4903 65.6736 68.1917 65.4973C67.893 65.3197 67.6601 65.0678 67.493 64.7417C67.3272 64.4141 67.2443 64.0256 67.2443 63.5759C67.2443 63.2304 67.2936 62.9223 67.3923 62.6517C67.4923 62.3797 67.632 62.1493 67.8115 61.9605C67.991 61.7718 68.1999 61.6282 68.4383 61.5296C68.6766 61.4311 68.9349 61.3818 69.213 61.3818C69.4514 61.3818 69.6733 61.4172 69.8788 61.488C70.0843 61.5574 70.2665 61.6559 70.4254 61.7836C70.5857 61.9113 70.7166 62.0632 70.818 62.2395C70.9193 62.4143 70.9844 62.6072 71.0132 62.8182H70.109Z" fill="#4B231C"/>
  <path d="M74.3202 61.4401H75.21V64.2088C75.21 64.5196 75.1367 64.7916 74.9901 65.0248C74.8449 65.2579 74.6414 65.4397 74.3798 65.5702C74.1181 65.6992 73.8133 65.7638 73.4653 65.7638C73.116 65.7638 72.8104 65.6992 72.5488 65.5702C72.2871 65.4397 72.0837 65.2579 71.9384 65.0248C71.7932 64.7916 71.7206 64.5196 71.7206 64.2088V61.4401H72.6104V64.1317C72.6104 64.2941 72.6454 64.4384 72.7152 64.5647C72.7865 64.691 72.8865 64.7902 73.0153 64.8624C73.144 64.9346 73.2941 64.9706 73.4653 64.9706C73.6379 64.9706 73.7879 64.9346 73.9153 64.8624C74.0441 64.7902 74.1434 64.691 74.2133 64.5647C74.2846 64.4384 74.3202 64.2941 74.3202 64.1317V61.4401Z" fill="#4B231C"/>
  <path d="M75.9421 65.7034V61.4401H78.778V62.1833H76.8319V63.1991H78.6321V63.9423H76.8319V64.9602H78.7862V65.7034H75.9421Z" fill="#4B231C"/>
  <path d="M81.7685 62.6662C81.7521 62.4983 81.6815 62.3679 81.5568 62.2749C81.4322 62.1819 81.263 62.1354 81.0493 62.1354C80.904 62.1354 80.7814 62.1562 80.6814 62.1979C80.5814 62.2381 80.5047 62.2943 80.4513 62.3665C80.3992 62.4386 80.3732 62.5205 80.3732 62.6121C80.3704 62.6884 80.3862 62.755 80.4204 62.8119C80.4561 62.8688 80.5047 62.9181 80.5663 62.9597C80.628 63 80.6992 63.0354 80.7801 63.0659C80.8609 63.0951 80.9472 63.12 81.039 63.1409L81.4171 63.2324C81.6007 63.2741 81.7692 63.3296 81.9226 63.399C82.0761 63.4684 82.209 63.5537 82.3213 63.655C82.4336 63.7563 82.5206 63.8757 82.5823 64.0131C82.6453 64.1505 82.6775 64.308 82.6789 64.4856C82.6775 64.7465 82.6117 64.9727 82.4816 65.1642C82.3528 65.3544 82.1665 65.5022 81.9226 65.6076C81.6801 65.7117 81.3876 65.7638 81.0452 65.7638C80.7054 65.7638 80.4095 65.711 80.1574 65.6056C79.9067 65.5001 79.7108 65.344 79.5697 65.1372C79.4299 64.929 79.3566 64.6716 79.3498 64.3649H80.2108C80.2204 64.5078 80.2608 64.6272 80.3321 64.7229C80.4047 64.8173 80.5013 64.8888 80.6218 64.9373C80.7437 64.9845 80.8814 65.0081 81.0349 65.0081C81.1856 65.0081 81.3164 64.9859 81.4274 64.9415C81.5397 64.8971 81.6267 64.8353 81.6884 64.7562C81.75 64.6771 81.7808 64.5862 81.7808 64.4835C81.7808 64.3878 81.7528 64.3073 81.6966 64.2421C81.6418 64.1768 81.561 64.1213 81.4541 64.0755C81.3486 64.0297 81.2191 63.9881 81.0657 63.9506L80.6074 63.8341C80.2526 63.7466 79.9724 63.6099 79.7669 63.424C79.5614 63.238 79.4594 62.9875 79.4607 62.6725C79.4594 62.4143 79.5272 62.1888 79.6642 61.9959C79.8026 61.803 79.9923 61.6525 80.2334 61.5442C80.4745 61.436 80.7485 61.3818 81.0554 61.3818C81.3678 61.3818 81.6404 61.436 81.8733 61.5442C82.1076 61.6525 82.2898 61.803 82.4199 61.9959C82.5501 62.1888 82.6172 62.4123 82.6213 62.6662H81.7685Z" fill="#4B231C"/>
</svg>