<svg xmlns="http://www.w3.org/2000/svg" width="164" height="100" viewBox="0 0 164 100" fill="none">
  <path d="M161.591 24.9385H93.5898V27.1066H161.591V24.9385Z" fill="#C1B8B0"/>
  <path d="M160.686 20.5205H93.0742V21.4506H160.686V20.5205Z" fill="#C1B8B0"/>
  <path d="M163.302 24.2412H158.035V27.1069H163.302V24.2412Z" fill="#F5E6D9"/>
  <path d="M162.529 19.3584H158.812V24.2414H162.529V19.3584Z" fill="#E0D2C5"/>
  <path d="M163.459 18.8115H158.035V19.817H163.459V18.8115Z" fill="#F5E6D9"/>
  <path d="M153.091 24.2412H147.824V27.1069H153.091V24.2412Z" fill="#F5E6D9"/>
  <path d="M152.314 19.3584H148.598V24.2414H152.314V19.3584Z" fill="#E0D2C5"/>
  <path d="M153.248 18.8115H147.824V19.817H153.248V18.8115Z" fill="#F5E6D9"/>
  <path d="M142.872 24.2412H137.605V27.1069H142.872V24.2412Z" fill="#F5E6D9"/>
  <path d="M142.099 19.3584H138.383V24.2414H142.099V19.3584Z" fill="#E0D2C5"/>
  <path d="M143.029 18.8115H137.605V19.817H143.029V18.8115Z" fill="#F5E6D9"/>
  <path d="M132.661 24.2412H127.395V27.1069H132.661V24.2412Z" fill="#F5E6D9"/>
  <path d="M131.884 19.3584H128.168V24.2414H131.884V19.3584Z" fill="#E0D2C5"/>
  <path d="M132.818 18.8115H127.395V19.817H132.818V18.8115Z" fill="#F5E6D9"/>
  <path d="M122.438 24.2412H117.172V27.1069H122.438V24.2412Z" fill="#F5E6D9"/>
  <path d="M121.661 19.3584H117.945V24.2414H121.661V19.3584Z" fill="#E0D2C5"/>
  <path d="M122.595 18.8115H117.172V19.817H122.595V18.8115Z" fill="#F5E6D9"/>
  <path d="M111.935 24.2412H106.668V27.1069H111.935V24.2412Z" fill="#F5E6D9"/>
  <path d="M111.157 19.3584H107.441V24.2414H111.157V19.3584Z" fill="#E0D2C5"/>
  <path d="M112.091 18.8115H106.668V19.817H112.091V18.8115Z" fill="#F5E6D9"/>
  <path d="M115.231 89.1387H160.113V41.0632L115.231 41.0632V89.1387Z" fill="#D4C6BA"/>
  <path d="M114.211 41.0664L161.66 41.0664V39.5142L114.211 39.5142V41.0664Z" fill="#B5ABA1"/>
  <path d="M115.194 39.5166L160.113 39.5166V31.7617L115.194 31.7617V39.5166Z" fill="#E0D2C5"/>
  <path d="M115.19 31.7646L161.66 31.7646V30.2124L115.19 30.2124V31.7646Z" fill="#B5ABA1"/>
  <path d="M108.995 30.2109L163.211 30.2109V27.1065L108.995 27.1065V30.2109Z" fill="#8C8580"/>
  <path d="M160.682 51.5029H158.617V53.0552H160.682V51.5029Z" fill="#B5ABA1"/>
  <path d="M160.682 53.9854H157.273V55.5376H160.682V53.9854Z" fill="#B5ABA1"/>
  <path d="M160.684 56.4678H158.594V58.02H160.684V56.4678Z" fill="#B5ABA1"/>
  <path d="M160.682 58.9502H157.273V60.5024H160.682V58.9502Z" fill="#B5ABA1"/>
  <path d="M160.684 61.4326H158.594V62.9849H160.684V61.4326Z" fill="#B5ABA1"/>
  <path d="M160.682 63.9082H157.273V65.4604H160.682V63.9082Z" fill="#B5ABA1"/>
  <path d="M160.684 66.3906H158.594V67.9429H160.684V66.3906Z" fill="#B5ABA1"/>
  <path d="M160.682 68.873H157.273V70.4253H160.682V68.873Z" fill="#B5ABA1"/>
  <path d="M160.684 71.3555H158.594V72.9077H160.684V71.3555Z" fill="#B5ABA1"/>
  <path d="M160.682 73.8379H157.273V75.3901H160.682V73.8379Z" fill="#B5ABA1"/>
  <path d="M160.684 76.1875H158.594V77.7397H160.684V76.1875Z" fill="#B5ABA1"/>
  <path d="M160.682 78.6699H157.273V80.2222H160.682V78.6699Z" fill="#B5ABA1"/>
  <path d="M160.684 81.1523H158.594V82.7046H160.684V81.1523Z" fill="#B5ABA1"/>
  <path d="M160.684 86.1172H158.594V87.6694H160.684V86.1172Z" fill="#B5ABA1"/>
  <path d="M160.682 83.6348H157.273V85.187H160.682V83.6348Z" fill="#B5ABA1"/>
  <path d="M160.684 41.3721H158.594V42.9243H160.684V41.3721Z" fill="#B5ABA1"/>
  <path d="M160.682 43.8545H157.273V45.4067H160.682V43.8545Z" fill="#B5ABA1"/>
  <path d="M160.684 46.3369H158.594V47.8892H160.684V46.3369Z" fill="#B5ABA1"/>
  <path d="M160.682 48.8193H157.273V50.3716H160.682V48.8193Z" fill="#B5ABA1"/>
  <path d="M145.406 62.6602H154.621V59.9453H145.406V62.6602Z" fill="#E6E6E6"/>
  <path d="M146.597 59.1436H153.414V45.9589H146.597V59.1436Z" fill="#7A695D"/>
  <path d="M147.373 58.3711H152.797V46.7387H147.373V58.3711Z" fill="#5E5148"/>
  <path d="M148.072 57.5957H152.102V47.6727H148.072V57.5957Z" fill="#77E8D2"/>
  <path d="M147.373 50.9258H152.797V50.1528H147.373V50.9258Z" fill="#5E5148"/>
  <path d="M145.406 45.9658H154.621V44.2628H145.406V45.9658Z" fill="#C1B8B0"/>
  <path d="M149.047 45.9629H150.98V43.4806H149.047V45.9629Z" fill="#F5E6D9"/>
  <path d="M153.422 59.5449H154.621V45.9644H153.422V59.5449Z" fill="#C1B8B0"/>
  <path d="M145.407 59.1436H146.605V45.9589H145.407V59.1436Z" fill="#C1B8B0"/>
  <path d="M145.406 59.9492H154.621V59.1448H145.406V59.9492Z" fill="#F5E6D9"/>
  <path d="M152.684 61.498H153.77V59.9458H152.684V61.498Z" fill="#9C948E"/>
  <path d="M147.34 59.9492H146.254V61.5015H147.34V59.9492Z" fill="#9C948E"/>
  <path d="M145.406 49.2188H154.621V45.9634H145.406V49.2188Z" fill="#E6E6E6"/>
  <path d="M119.719 62.6592H128.934V59.9443H119.719V62.6592Z" fill="#E6E6E6"/>
  <path d="M120.917 59.1436H127.734V45.9589H120.917V59.1436Z" fill="#7A695D"/>
  <path d="M121.69 58.3701H127.113V46.7377H121.69V58.3701Z" fill="#5E5148"/>
  <path d="M122.384 57.5947H126.414V47.6717H122.384V57.5947Z" fill="#77E8D2"/>
  <path d="M121.69 50.9258H127.113V50.1528H121.69V50.9258Z" fill="#5E5148"/>
  <path d="M119.719 45.9648H128.934V44.2618H119.719V45.9648Z" fill="#C1B8B0"/>
  <path d="M123.36 45.9629H125.293V43.4806H123.36V45.9629Z" fill="#F5E6D9"/>
  <path d="M127.735 59.5449H128.934V45.9644H127.735V59.5449Z" fill="#C1B8B0"/>
  <path d="M119.719 59.1426H120.918V45.958H119.719V59.1426Z" fill="#C1B8B0"/>
  <path d="M119.719 59.9492H128.934V59.1448H119.719V59.9492Z" fill="#F5E6D9"/>
  <path d="M126.992 61.498H128.078V59.9458H126.992V61.498Z" fill="#9C948E"/>
  <path d="M121.656 59.9492H120.57V61.5015H121.656V59.9492Z" fill="#9C948E"/>
  <path d="M119.719 49.2178H128.934V45.9625H119.719V49.2178Z" fill="#E6E6E6"/>
  <path d="M132.559 62.6592H141.773V59.9443H132.559V62.6592Z" fill="#E6E6E6"/>
  <path d="M133.749 59.1436H140.566V45.9589H133.749V59.1436Z" fill="#7A695D"/>
  <path d="M134.526 58.3701H139.949V46.7377H134.526V58.3701Z" fill="#5E5148"/>
  <path d="M135.224 57.5957H139.254V47.6727H135.224V57.5957Z" fill="#77E8D2"/>
  <path d="M134.526 50.9258H139.949V50.1528H134.526V50.9258Z" fill="#5E5148"/>
  <path d="M132.559 45.9648H141.773V44.2618H132.559V45.9648Z" fill="#C1B8B0"/>
  <path d="M136.199 45.9629H138.133V43.4806H136.199V45.9629Z" fill="#F5E6D9"/>
  <path d="M140.575 59.5449H141.773V45.9644H140.575V59.5449Z" fill="#C1B8B0"/>
  <path d="M132.559 59.1436H133.758V45.9589H132.559V59.1436Z" fill="#C1B8B0"/>
  <path d="M132.559 59.9492H141.773V59.1448H132.559V59.9492Z" fill="#F5E6D9"/>
  <path d="M139.836 61.498H140.922V59.9458H139.836V61.498Z" fill="#9C948E"/>
  <path d="M134.492 59.9492H133.406V61.5015H134.492V59.9492Z" fill="#9C948E"/>
  <path d="M132.559 49.2178H141.773V45.9625H132.559V49.2178Z" fill="#E6E6E6"/>
  <path d="M145.406 85.4434H154.621V82.7285H145.406V85.4434Z" fill="#E6E6E6"/>
  <path d="M146.597 81.9268H153.414V68.7421H146.597V81.9268Z" fill="#7A695D"/>
  <path d="M147.373 81.1543H152.797V69.5219H147.373V81.1543Z" fill="#5E5148"/>
  <path d="M148.072 80.3789H152.102V70.4559H148.072V80.3789Z" fill="#77E8D2"/>
  <path d="M147.373 73.71H152.797V72.937H147.373V73.71Z" fill="#5E5148"/>
  <path d="M145.406 68.748H154.621V67.045H145.406V68.748Z" fill="#C1B8B0"/>
  <path d="M149.047 68.7461H150.98V66.2638H149.047V68.7461Z" fill="#F5E6D9"/>
  <path d="M153.422 82.3281H154.621V68.7476H153.422V82.3281Z" fill="#C1B8B0"/>
  <path d="M145.407 81.9268H146.605V68.7421H145.407V81.9268Z" fill="#C1B8B0"/>
  <path d="M145.406 82.7324H154.621V81.928H145.406V82.7324Z" fill="#F5E6D9"/>
  <path d="M152.684 84.2812H153.77V82.729H152.684V84.2812Z" fill="#9C948E"/>
  <path d="M147.34 82.7295H146.254V84.2817H147.34V82.7295Z" fill="#9C948E"/>
  <path d="M145.406 72.002H154.621V68.7466H145.406V72.002Z" fill="#E6E6E6"/>
  <path d="M119.719 85.4434H128.934V82.7285H119.719V85.4434Z" fill="#E6E6E6"/>
  <path d="M120.917 81.9268H127.734V68.7421H120.917V81.9268Z" fill="#7A695D"/>
  <path d="M121.69 81.1543H127.113V69.5219H121.69V81.1543Z" fill="#5E5148"/>
  <path d="M122.384 80.3789H126.414V70.4559H122.384V80.3789Z" fill="#77E8D2"/>
  <path d="M121.69 73.709H127.113V72.936H121.69V73.709Z" fill="#5E5148"/>
  <path d="M119.719 68.748H128.934V67.045H119.719V68.748Z" fill="#C1B8B0"/>
  <path d="M123.36 68.7461H125.293V66.2638H123.36V68.7461Z" fill="#F5E6D9"/>
  <path d="M127.735 82.3281H128.934V68.7476H127.735V82.3281Z" fill="#C1B8B0"/>
  <path d="M119.719 81.9258H120.918V68.7412H119.719V81.9258Z" fill="#C1B8B0"/>
  <path d="M119.719 82.7324H128.934V81.928H119.719V82.7324Z" fill="#F5E6D9"/>
  <path d="M126.992 84.2812H128.078V82.729H126.992V84.2812Z" fill="#9C948E"/>
  <path d="M121.656 82.7295H120.57V84.2817H121.656V82.7295Z" fill="#9C948E"/>
  <path d="M119.719 72.001H128.934V68.7457H119.719V72.001Z" fill="#E6E6E6"/>
  <path d="M132.559 85.4434H141.773V82.7285H132.559V85.4434Z" fill="#E6E6E6"/>
  <path d="M133.749 81.9268H140.566V68.7421H133.749V81.9268Z" fill="#7A695D"/>
  <path d="M134.526 81.1543H139.949V69.5219H134.526V81.1543Z" fill="#5E5148"/>
  <path d="M135.224 80.3789H139.254V70.4559H135.224V80.3789Z" fill="#77E8D2"/>
  <path d="M134.526 73.709H139.949V72.936H134.526V73.709Z" fill="#5E5148"/>
  <path d="M132.559 68.748H141.773V67.045H132.559V68.748Z" fill="#C1B8B0"/>
  <path d="M136.199 68.7461H138.133V66.2638H136.199V68.7461Z" fill="#F5E6D9"/>
  <path d="M140.575 82.3281H141.773V68.7476H140.575V82.3281Z" fill="#C1B8B0"/>
  <path d="M132.559 81.9268H133.758V68.7421H132.559V81.9268Z" fill="#C1B8B0"/>
  <path d="M132.559 82.7324H141.773V81.928H132.559V82.7324Z" fill="#F5E6D9"/>
  <path d="M139.836 84.2812H140.922V82.729H139.836V84.2812Z" fill="#9C948E"/>
  <path d="M134.492 82.7295H133.406V84.2817H134.492V82.7295Z" fill="#9C948E"/>
  <path d="M132.559 72.001H141.773V68.7457H132.559V72.001Z" fill="#E6E6E6"/>
  <path d="M162.416 89.7246H103.555V99.9996H162.416V89.7246Z" fill="#4F4B48"/>
  <path d="M163.24 89.0459H102.828V90.7364H163.24V89.0459Z" fill="#79726F"/>
  <path d="M162.646 91.207H158.102V93.9093H162.646V91.207Z" fill="#79726F"/>
  <path d="M157.689 91.207H153.145V93.9093H157.689V91.207Z" fill="#79726F"/>
  <path d="M152.732 91.207H148.188V93.9093H152.732V91.207Z" fill="#79726F"/>
  <path d="M147.779 91.207H143.234V93.9093H147.779V91.207Z" fill="#79726F"/>
  <path d="M142.818 91.207H138.273V93.9093H142.818V91.207Z" fill="#79726F"/>
  <path d="M122.842 91.207H118.297V93.9093H122.842V91.207Z" fill="#79726F"/>
  <path d="M117.885 91.207H113.34V93.9093H117.885V91.207Z" fill="#79726F"/>
  <path d="M112.931 91.207H108.387V93.9093H112.931V91.207Z" fill="#79726F"/>
  <path d="M107.97 91.207H103.426V93.9093H107.97V91.207Z" fill="#79726F"/>
  <path d="M137.826 91.207H133.281V93.9093H137.826V91.207Z" fill="#79726F"/>
  <path d="M132.873 91.207H128.328V93.9093H132.873V91.207Z" fill="#79726F"/>
  <path d="M127.912 91.207H123.367V93.9093H127.912V91.207Z" fill="#79726F"/>
  <path d="M162.65 97.291H158.105V99.9933H162.65V97.291Z" fill="#79726F"/>
  <path d="M157.693 97.291H153.148V99.9933H157.693V97.291Z" fill="#79726F"/>
  <path d="M152.732 97.291H148.188V99.9933H152.732V97.291Z" fill="#79726F"/>
  <path d="M147.779 97.291H143.234V99.9933H147.779V97.291Z" fill="#79726F"/>
  <path d="M142.822 97.291H138.277V99.9933H142.822V97.291Z" fill="#79726F"/>
  <path d="M137.826 97.291H133.281V99.9933H137.826V97.291Z" fill="#79726F"/>
  <path d="M132.873 97.291H128.328V99.9933H132.873V97.291Z" fill="#79726F"/>
  <path d="M127.912 97.291H123.367V99.9933H127.912V97.291Z" fill="#79726F"/>
  <path d="M122.861 97.291H118.316V99.9933H122.861V97.291Z" fill="#79726F"/>
  <path d="M117.9 97.291H113.355V99.9933H117.9V97.291Z" fill="#79726F"/>
  <path d="M112.912 97.291H108.367V99.9933H112.912V97.291Z" fill="#79726F"/>
  <path d="M107.955 97.291H103.41V99.9933H107.955V97.291Z" fill="#79726F"/>
  <path d="M162.651 94.249H160.586V96.9513H162.651V94.249Z" fill="#79726F"/>
  <path d="M160.174 94.249H155.629V96.9513H160.174V94.249Z" fill="#79726F"/>
  <path d="M155.213 94.249H150.668V96.9513H155.213V94.249Z" fill="#79726F"/>
  <path d="M150.26 94.249H145.715V96.9513H150.26V94.249Z" fill="#79726F"/>
  <path d="M145.302 94.249H140.758V96.9513H145.302V94.249Z" fill="#79726F"/>
  <path d="M140.306 94.249H135.762V96.9513H140.306V94.249Z" fill="#79726F"/>
  <path d="M135.353 94.249H130.809V96.9513H135.353V94.249Z" fill="#79726F"/>
  <path d="M130.392 94.249H125.848V96.9513H130.392V94.249Z" fill="#79726F"/>
  <path d="M125.467 94.249H120.922V96.9513H125.467V94.249Z" fill="#79726F"/>
  <path d="M120.513 94.249H115.969V96.9513H120.513V94.249Z" fill="#79726F"/>
  <path d="M115.513 94.249H110.969V96.9513H115.513V94.249Z" fill="#79726F"/>
  <path d="M110.556 94.249H106.012V96.9513H110.556V94.249Z" fill="#79726F"/>
  <path d="M105.604 94.249H103.332V96.9513H105.604V94.249Z" fill="#79726F"/>
  <path d="M162.419 90.7363H103.426V93.0678H162.419V90.7363Z" fill="#E5E5E5"/>
  <path d="M114.211 37.2686L160.109 37.2686V31.7634L114.211 31.7634V37.2686Z" fill="#E6E6E6"/>
  <path d="M114.565 49.5898L160.105 49.5898V41.0682L114.565 41.0682V49.5898Z" fill="#E6E6E6"/>
  <path d="M69.8718 24.9385H1.87109V27.1066H69.8718V24.9385Z" fill="#C1B8B0"/>
  <path d="M70.3849 20.5215H2.77344V21.4516H70.3849V20.5215Z" fill="#C1B8B0"/>
  <path d="M5.4228 24.2412H0.15625V27.1069H5.4228V24.2412Z" fill="#F5E6D9"/>
  <path d="M4.64578 19.3584H0.929688V24.2414H4.64578V19.3584Z" fill="#E0D2C5"/>
  <path d="M5.42348 18.8115H0V19.817H5.42348V18.8115Z" fill="#F5E6D9"/>
  <path d="M15.6416 24.2412H10.375V27.1069H15.6416V24.2412Z" fill="#F5E6D9"/>
  <path d="M14.8684 19.3584H11.1523V24.2414H14.8684V19.3584Z" fill="#E0D2C5"/>
  <path d="M15.6461 18.8115H10.2227V19.817H15.6461V18.8115Z" fill="#F5E6D9"/>
  <path d="M25.8564 24.2412H20.5898V27.1069H25.8564V24.2412Z" fill="#F5E6D9"/>
  <path d="M25.0794 19.3584H21.3633V24.2414H25.0794V19.3584Z" fill="#E0D2C5"/>
  <path d="M25.8571 18.8115H20.4336V19.817H25.8571V18.8115Z" fill="#F5E6D9"/>
  <path d="M36.0751 24.2412H30.8086V27.1069H36.0751V24.2412Z" fill="#F5E6D9"/>
  <path d="M35.2981 19.3584H31.582V24.2414H35.2981V19.3584Z" fill="#E0D2C5"/>
  <path d="M36.0758 18.8115H30.6523V19.817H36.0758V18.8115Z" fill="#F5E6D9"/>
  <path d="M46.2861 24.2412H41.0195V27.1069H46.2861V24.2412Z" fill="#F5E6D9"/>
  <path d="M45.513 19.3584H41.7969V24.2414H45.513V19.3584Z" fill="#E0D2C5"/>
  <path d="M46.2868 18.8115H40.8633V19.817H46.2868V18.8115Z" fill="#F5E6D9"/>
  <path d="M56.7939 24.2412H51.5273V27.1069H56.7939V24.2412Z" fill="#F5E6D9"/>
  <path d="M56.0208 19.3584H52.3047V24.2414H56.0208V19.3584Z" fill="#E0D2C5"/>
  <path d="M56.7985 18.8115H51.375V19.817H56.7985V18.8115Z" fill="#F5E6D9"/>
  <path d="M48.2373 41.0713H3.35547V89.1468H48.2373V41.0713Z" fill="#D4C6BA"/>
  <path d="M49.2539 39.5186H1.80469V41.0708H49.2539V39.5186Z" fill="#B5ABA1"/>
  <path d="M48.275 31.7637H3.35547V39.5186H48.275V31.7637Z" fill="#E0D2C5"/>
  <path d="M48.2746 30.2119H1.80469V31.7642H48.2746V30.2119Z" fill="#B5ABA1"/>
  <path d="M54.466 27.1133H0.25V30.2178H54.466V27.1133Z" fill="#8C8580"/>
  <path d="M4.85035 51.5029H2.78516V53.0552H4.85035V51.5029Z" fill="#B5ABA1"/>
  <path d="M6.19366 53.9854H2.78516V55.5376H6.19366V53.9854Z" fill="#B5ABA1"/>
  <path d="M4.87546 56.4678H2.78516V58.02H4.87546V56.4678Z" fill="#B5ABA1"/>
  <path d="M6.19366 58.9502H2.78516V60.5024H6.19366V58.9502Z" fill="#B5ABA1"/>
  <path d="M4.87546 61.4326H2.78516V62.9849H4.87546V61.4326Z" fill="#B5ABA1"/>
  <path d="M6.19366 63.9082H2.78516V65.4604H6.19366V63.9082Z" fill="#B5ABA1"/>
  <path d="M4.87546 66.3906H2.78516V67.9429H4.87546V66.3906Z" fill="#B5ABA1"/>
  <path d="M6.19366 68.873H2.78516V70.4253H6.19366V68.873Z" fill="#B5ABA1"/>
  <path d="M4.87546 71.3555H2.78516V72.9077H4.87546V71.3555Z" fill="#B5ABA1"/>
  <path d="M6.19366 73.8379H2.78516V75.3901H6.19366V73.8379Z" fill="#B5ABA1"/>
  <path d="M4.87546 76.1875H2.78516V77.7397H4.87546V76.1875Z" fill="#B5ABA1"/>
  <path d="M6.19366 78.6699H2.78516V80.2222H6.19366V78.6699Z" fill="#B5ABA1"/>
  <path d="M4.87546 81.1523H2.78516V82.7046H4.87546V81.1523Z" fill="#B5ABA1"/>
  <path d="M4.87546 86.1172H2.78516V87.6694H4.87546V86.1172Z" fill="#B5ABA1"/>
  <path d="M6.19366 83.6348H2.78516V85.187H6.19366V83.6348Z" fill="#B5ABA1"/>
  <path d="M4.87546 41.3721H2.78516V42.9243H4.87546V41.3721Z" fill="#B5ABA1"/>
  <path d="M6.19366 43.8545H2.78516V45.4067H6.19366V43.8545Z" fill="#B5ABA1"/>
  <path d="M4.87546 46.3369H2.78516V47.8892H4.87546V46.3369Z" fill="#B5ABA1"/>
  <path d="M6.19366 48.8193H2.78516V50.3716H6.19366V48.8193Z" fill="#B5ABA1"/>
  <path d="M18.0547 59.9492H8.83984V62.6641H18.0547V59.9492Z" fill="#E6E6E6"/>
  <path d="M16.86 45.9668H10.043V59.1514H16.86V45.9668Z" fill="#7A695D"/>
  <path d="M16.0797 46.7393H10.6562V58.3716H16.0797V46.7393Z" fill="#5E5148"/>
  <path d="M15.3854 47.6699H11.3555V57.593H15.3854V47.6699Z" fill="#77E8D2"/>
  <path d="M16.0797 50.1523H10.6562V50.9253H16.0797V50.1523Z" fill="#5E5148"/>
  <path d="M18.0508 44.2578H8.83594V45.9609H18.0508V44.2578Z" fill="#C1B8B0"/>
  <path d="M14.4099 43.4844H12.4766V45.9667H14.4099V43.4844Z" fill="#F5E6D9"/>
  <path d="M10.0349 45.9668H8.83594V59.5473H10.0349V45.9668Z" fill="#C1B8B0"/>
  <path d="M18.0505 45.9668H16.8516V59.1514H18.0505V45.9668Z" fill="#C1B8B0"/>
  <path d="M18.0508 59.1455H8.83594V59.9499H18.0508V59.1455Z" fill="#F5E6D9"/>
  <path d="M10.7774 59.9502H9.69141V61.5024H10.7774V59.9502Z" fill="#9C948E"/>
  <path d="M16.1172 61.499H17.2031V59.9468H16.1172V61.499Z" fill="#9C948E"/>
  <path d="M18.0547 45.9668H8.83984V49.2221H18.0547V45.9668Z" fill="#E6E6E6"/>
  <path d="M43.7422 59.9492H34.5273V62.6641H43.7422V59.9492Z" fill="#E6E6E6"/>
  <path d="M42.5436 45.9668H35.7266V59.1514H42.5436V45.9668Z" fill="#7A695D"/>
  <path d="M41.7711 46.7393H36.3477V58.3716H41.7711V46.7393Z" fill="#5E5148"/>
  <path d="M41.0768 47.6699H37.0469V57.593H41.0768V47.6699Z" fill="#77E8D2"/>
  <path d="M41.7711 50.1523H36.3477V50.9253H41.7711V50.1523Z" fill="#5E5148"/>
  <path d="M43.7422 44.2578H34.5273V45.9609H43.7422V44.2578Z" fill="#C1B8B0"/>
  <path d="M40.1013 43.4844H38.168V45.9667H40.1013V43.4844Z" fill="#F5E6D9"/>
  <path d="M35.7263 45.9668H34.5273V59.5473H35.7263V45.9668Z" fill="#C1B8B0"/>
  <path d="M43.7419 45.9668H42.543V59.1514H43.7419V45.9668Z" fill="#C1B8B0"/>
  <path d="M43.7422 59.1455H34.5273V59.9499H43.7422V59.1455Z" fill="#F5E6D9"/>
  <path d="M36.4688 59.9502H35.3828V61.5024H36.4688V59.9502Z" fill="#9C948E"/>
  <path d="M41.8008 61.499H42.8867V59.9468H41.8008V61.499Z" fill="#9C948E"/>
  <path d="M43.7422 45.9668H34.5273V49.2221H43.7422V45.9668Z" fill="#E6E6E6"/>
  <path d="M30.9024 59.9492H21.6875V62.6641H30.9024V59.9492Z" fill="#E6E6E6"/>
  <path d="M29.7037 45.9668H22.8867V59.1514H29.7037V45.9668Z" fill="#7A695D"/>
  <path d="M28.9313 46.7393H23.5078V58.3716H28.9313V46.7393Z" fill="#5E5148"/>
  <path d="M28.237 47.6699H24.207V57.593H28.237V47.6699Z" fill="#77E8D2"/>
  <path d="M28.9313 50.1523H23.5078V50.9253H28.9313V50.1523Z" fill="#5E5148"/>
  <path d="M30.9024 44.2578H21.6875V45.9609H30.9024V44.2578Z" fill="#C1B8B0"/>
  <path d="M27.2615 43.4844H25.3281V45.9667H27.2615V43.4844Z" fill="#F5E6D9"/>
  <path d="M22.8864 45.9668H21.6875V59.5473H22.8864V45.9668Z" fill="#C1B8B0"/>
  <path d="M30.9021 45.9668H29.7031V59.1514H30.9021V45.9668Z" fill="#C1B8B0"/>
  <path d="M30.9024 59.1455H21.6875V59.9499H30.9024V59.1455Z" fill="#F5E6D9"/>
  <path d="M23.6211 59.9502H22.5352V61.5024H23.6211V59.9502Z" fill="#9C948E"/>
  <path d="M28.9648 61.499H30.0508V59.9468H28.9648V61.499Z" fill="#9C948E"/>
  <path d="M30.9024 45.9668H21.6875V49.2221H30.9024V45.9668Z" fill="#E6E6E6"/>
  <path d="M18.0547 82.7295H8.83984V85.4443H18.0547V82.7295Z" fill="#E6E6E6"/>
  <path d="M16.86 68.7471H10.043V81.9317H16.86V68.7471Z" fill="#7A695D"/>
  <path d="M16.0797 69.5195H10.6562V81.1519H16.0797V69.5195Z" fill="#5E5148"/>
  <path d="M15.3854 70.4502H11.3555V80.3732H15.3854V70.4502Z" fill="#77E8D2"/>
  <path d="M16.0797 72.9326H10.6562V73.7056H16.0797V72.9326Z" fill="#5E5148"/>
  <path d="M18.0508 67.0371H8.83594V68.7402H18.0508V67.0371Z" fill="#C1B8B0"/>
  <path d="M14.4099 66.2646H12.4766V68.747H14.4099V66.2646Z" fill="#F5E6D9"/>
  <path d="M10.0349 68.7471H8.83594V82.3276H10.0349V68.7471Z" fill="#C1B8B0"/>
  <path d="M18.0505 68.7471H16.8516V81.9317H18.0505V68.7471Z" fill="#C1B8B0"/>
  <path d="M18.0508 81.9248H8.83594V82.7292H18.0508V81.9248Z" fill="#F5E6D9"/>
  <path d="M10.7774 82.7295H9.69141V84.2817H10.7774V82.7295Z" fill="#9C948E"/>
  <path d="M16.1172 84.2812H17.2031V82.729H16.1172V84.2812Z" fill="#9C948E"/>
  <path d="M18.0547 68.7471H8.83984V72.0024H18.0547V68.7471Z" fill="#E6E6E6"/>
  <path d="M43.7422 82.7295H34.5273V85.4443H43.7422V82.7295Z" fill="#E6E6E6"/>
  <path d="M42.5436 68.7471H35.7266V81.9317H42.5436V68.7471Z" fill="#7A695D"/>
  <path d="M41.7711 69.5205H36.3477V81.1529H41.7711V69.5205Z" fill="#5E5148"/>
  <path d="M41.0768 70.4502H37.0469V80.3732H41.0768V70.4502Z" fill="#77E8D2"/>
  <path d="M41.7711 72.9326H36.3477V73.7056H41.7711V72.9326Z" fill="#5E5148"/>
  <path d="M43.7422 67.0371H34.5273V68.7402H43.7422V67.0371Z" fill="#C1B8B0"/>
  <path d="M40.1013 66.2646H38.168V68.747H40.1013V66.2646Z" fill="#F5E6D9"/>
  <path d="M35.7263 68.7471H34.5273V82.3276H35.7263V68.7471Z" fill="#C1B8B0"/>
  <path d="M43.7419 68.7471H42.543V81.9317H43.7419V68.7471Z" fill="#C1B8B0"/>
  <path d="M43.7422 81.9248H34.5273V82.7292H43.7422V81.9248Z" fill="#F5E6D9"/>
  <path d="M36.4688 82.7295H35.3828V84.2817H36.4688V82.7295Z" fill="#9C948E"/>
  <path d="M41.8008 84.2812H42.8867V82.729H41.8008V84.2812Z" fill="#9C948E"/>
  <path d="M43.7422 68.7471H34.5273V72.0024H43.7422V68.7471Z" fill="#E6E6E6"/>
  <path d="M30.9024 82.7295H21.6875V85.4443H30.9024V82.7295Z" fill="#E6E6E6"/>
  <path d="M29.7037 68.7471H22.8867V81.9317H29.7037V68.7471Z" fill="#7A695D"/>
  <path d="M28.9313 69.5195H23.5078V81.1519H28.9313V69.5195Z" fill="#5E5148"/>
  <path d="M28.237 70.4502H24.207V80.3732H28.237V70.4502Z" fill="#77E8D2"/>
  <path d="M28.9313 72.9326H23.5078V73.7056H28.9313V72.9326Z" fill="#5E5148"/>
  <path d="M30.9024 67.0381H21.6875V68.7412H30.9024V67.0381Z" fill="#C1B8B0"/>
  <path d="M27.2615 66.2646H25.3281V68.747H27.2615V66.2646Z" fill="#F5E6D9"/>
  <path d="M22.8864 68.7471H21.6875V82.3276H22.8864V68.7471Z" fill="#C1B8B0"/>
  <path d="M30.9021 68.7471H29.7031V81.9317H30.9021V68.7471Z" fill="#C1B8B0"/>
  <path d="M30.9024 81.9248H21.6875V82.7292H30.9024V81.9248Z" fill="#F5E6D9"/>
  <path d="M23.6211 82.7295H22.5352V84.2817H23.6211V82.7295Z" fill="#9C948E"/>
  <path d="M28.9648 84.2812H30.0508V82.729H28.9648V84.2812Z" fill="#9C948E"/>
  <path d="M30.9024 68.7471H21.6875V72.0024H30.9024V68.7471Z" fill="#E6E6E6"/>
  <path d="M59.9119 89.7246H1.05078V99.9996H59.9119V89.7246Z" fill="#4F4B48"/>
  <path d="M60.6342 89.0459H0.222656V90.7364H60.6342V89.0459Z" fill="#79726F"/>
  <path d="M5.36499 91.207H0.820312V93.9093H5.36499V91.207Z" fill="#79726F"/>
  <path d="M10.3181 91.207H5.77344V93.9093H10.3181V91.207Z" fill="#79726F"/>
  <path d="M15.2791 91.207H10.7344V93.9093H15.2791V91.207Z" fill="#79726F"/>
  <path d="M20.2361 91.207H15.6914V93.9093H20.2361V91.207Z" fill="#79726F"/>
  <path d="M25.1892 91.207H20.6445V93.9093H25.1892V91.207Z" fill="#79726F"/>
  <path d="M45.1697 91.207H40.625V93.9093H45.1697V91.207Z" fill="#79726F"/>
  <path d="M50.1267 91.207H45.582V93.9093H50.1267V91.207Z" fill="#79726F"/>
  <path d="M55.0876 91.207H50.543V93.9093H55.0876V91.207Z" fill="#79726F"/>
  <path d="M60.0408 91.207H55.4961V93.9093H60.0408V91.207Z" fill="#79726F"/>
  <path d="M30.1853 91.207H25.6406V93.9093H30.1853V91.207Z" fill="#79726F"/>
  <path d="M35.1462 91.207H30.6016V93.9093H35.1462V91.207Z" fill="#79726F"/>
  <path d="M40.0994 91.207H35.5547V93.9093H40.0994V91.207Z" fill="#79726F"/>
  <path d="M5.36499 97.29H0.820312V99.9923H5.36499V97.29Z" fill="#79726F"/>
  <path d="M10.3181 97.29H5.77344V99.9923H10.3181V97.29Z" fill="#79726F"/>
  <path d="M15.2791 97.29H10.7344V99.9923H15.2791V97.29Z" fill="#79726F"/>
  <path d="M20.2361 97.29H15.6914V99.9923H20.2361V97.29Z" fill="#79726F"/>
  <path d="M25.1892 97.29H20.6445V99.9923H25.1892V97.29Z" fill="#79726F"/>
  <path d="M30.1853 97.29H25.6406V99.9923H30.1853V97.29Z" fill="#79726F"/>
  <path d="M35.1423 97.29H30.5977V99.9923H35.1423V97.29Z" fill="#79726F"/>
  <path d="M40.0994 97.29H35.5547V99.9923H40.0994V97.29Z" fill="#79726F"/>
  <path d="M45.1501 97.29H40.6055V99.9923H45.1501V97.29Z" fill="#79726F"/>
  <path d="M50.1111 97.29H45.5664V99.9923H50.1111V97.29Z" fill="#79726F"/>
  <path d="M55.1072 97.29H50.5625V99.9923H55.1072V97.29Z" fill="#79726F"/>
  <path d="M60.0603 97.29H55.5156V99.9923H60.0603V97.29Z" fill="#79726F"/>
  <path d="M2.8855 94.249H0.820312V96.9513H2.8855V94.249Z" fill="#79726F"/>
  <path d="M7.83765 94.249H3.29297V96.9513H7.83765V94.249Z" fill="#79726F"/>
  <path d="M12.7986 94.249H8.25391V96.9513H12.7986V94.249Z" fill="#79726F"/>
  <path d="M17.7556 94.249H13.2109V96.9513H17.7556V94.249Z" fill="#79726F"/>
  <path d="M22.7087 94.249H18.1641V96.9513H22.7087V94.249Z" fill="#79726F"/>
  <path d="M27.7048 94.249H23.1602V96.9513H27.7048V94.249Z" fill="#79726F"/>
  <path d="M32.6619 94.249H28.1172V96.9513H32.6619V94.249Z" fill="#79726F"/>
  <path d="M37.6189 94.249H33.0742V96.9513H37.6189V94.249Z" fill="#79726F"/>
  <path d="M42.5447 94.249H38V96.9513H42.5447V94.249Z" fill="#79726F"/>
  <path d="M47.5056 94.249H42.9609V96.9513H47.5056V94.249Z" fill="#79726F"/>
  <path d="M52.4939 94.249H47.9492V96.9513H52.4939V94.249Z" fill="#79726F"/>
  <path d="M57.4548 94.249H52.9102V96.9513H57.4548V94.249Z" fill="#79726F"/>
  <path d="M60.1434 94.249H57.8711V96.9513H60.1434V94.249Z" fill="#79726F"/>
  <path d="M60.0437 90.7363H1.05078V93.0678H60.0437V90.7363Z" fill="#E5E5E5"/>
  <path d="M49.2542 31.7637H3.35547V37.2688H49.2542V31.7637Z" fill="#E6E6E6"/>
  <path d="M48.8964 41.0713H3.35547V49.5929H48.8964V41.0713Z" fill="#E6E6E6"/>
  <path d="M82.1766 0.881836H81.6367V17.1647H82.1766V0.881836Z" fill="#582C22"/>
  <path d="M92.4774 6.312C88.6734 4.86659 85.4407 7.7574 81.6367 6.312C81.6367 3.95536 81.6367 2.77389 81.6367 0.417253C85.4407 1.86266 88.6734 -1.02815 92.4774 0.417253C92.4774 2.77389 92.4774 3.95536 92.4774 6.312Z" fill="#F7B719"/>
  <path d="M33.3263 99.9993H26.2205L25.6367 96.5303H33.91L33.3263 99.9993Z" fill="#582C22"/>
  <path d="M36.471 94.5758L33.8659 95.0785L34.6318 97.3661L32.0958 96.6371V96.5931H27.3L24.7452 97.2844L25.5675 95.0031L22.9688 94.4564L24.9461 92.8539L23.0001 91.2136L25.6114 90.7109L24.8394 88.4234L27.3816 89.1524L27.9905 86.8271L29.7858 88.5993L31.6124 86.8586L32.1711 89.1964L34.7259 88.5051L33.9099 90.78L36.5086 91.3331L34.525 92.9356L36.471 94.5758Z" fill="#55951E"/>
  <path d="M33.5889 94.4936L31.7999 94.7324L31.5426 96.3349L29.9984 95.4928L28.6488 96.5737L28.0775 95.034L26.2634 95.0843L26.9288 93.576L25.5039 92.5705L27.0983 91.7976L26.728 90.2076L28.4981 90.5344L29.3581 89.1016L30.4817 90.371L32.164 89.7677L32.1138 91.3891L33.8337 91.8981L32.6348 93.111L33.5889 94.4936Z" fill="#63A91B"/>
  <path d="M13.963 99.9993H6.85721L6.27344 96.5303H14.5468L13.963 99.9993Z" fill="#582C22"/>
  <path d="M17.1077 94.5758L14.4964 95.0785L15.2685 97.3661L12.7325 96.6371V96.5931H7.93672L5.38191 97.2844L6.20422 95.0031L3.60547 94.4564L5.58278 92.8539L3.63685 91.2136L6.24816 90.7109L5.47607 88.4234L8.01832 89.1524L8.62721 86.8271L10.4225 88.5993L12.2491 86.8586L12.8078 89.1964L15.3626 88.5051L14.5466 90.78L17.1453 91.3331L15.1618 92.9356L17.1077 94.5758Z" fill="#55951E"/>
  <path d="M14.2256 94.4936L12.4366 94.7324L12.1793 96.3349L10.6351 95.4928L9.28549 96.5737L8.70799 95.034L6.90016 95.0843L7.56554 93.576L6.14062 92.5705L7.73503 91.7976L7.36468 90.2076L9.13484 90.5344L9.98854 89.1016L11.1184 90.371L12.8007 89.7677L12.7505 91.3891L14.4704 91.8981L13.2715 93.111L14.2256 94.4936Z" fill="#63A91B"/>
  <path d="M130.132 99.9993H137.244L137.822 96.5303H129.555L130.132 99.9993Z" fill="#582C22"/>
  <path d="M126.987 94.5758L129.598 95.0785L128.826 97.3661L131.362 96.6371L131.368 96.5931H136.158L138.713 97.2844L137.89 95.0031L140.489 94.4564L138.512 92.8539L140.458 91.2136L137.846 90.7109L138.618 88.4234L136.076 89.1524L135.467 86.8271L133.678 88.5993L131.845 86.8586L131.287 89.1964L128.732 88.5051L129.548 90.78L126.949 91.3331L128.933 92.9356L126.987 94.5758Z" fill="#55951E"/>
  <path d="M129.866 94.4936L131.655 94.7324L131.912 96.3349L133.456 95.4928L134.806 96.5737L135.384 95.034L137.191 95.0843L136.526 93.576L137.951 92.5705L136.357 91.7976L136.727 90.2076L134.957 90.5344L134.103 89.1016L132.973 90.371L131.297 89.7677L131.341 91.3891L129.621 91.8981L130.82 93.111L129.866 94.4936Z" fill="#63A91B"/>
  <path d="M149.499 99.9993H156.611L157.189 96.5303H148.922L149.499 99.9993Z" fill="#582C22"/>
  <path d="M146.354 94.5758L148.965 95.0785L148.193 97.3661L150.729 96.6371L150.736 96.5931H155.525L158.08 97.2844L157.258 95.0031L159.856 94.4564L157.879 92.8539L159.825 91.2136L157.214 90.7109L157.986 88.4234L155.443 89.1524L154.835 86.8271L153.046 88.5993L151.213 86.8586L150.654 89.1964L148.099 88.5051L148.915 90.78L146.316 91.3331L148.3 92.9356L146.354 94.5758Z" fill="#55951E"/>
  <path d="M149.233 94.4936L151.022 94.7324L151.279 96.3349L152.824 95.4928L154.173 96.5737L154.751 95.034L156.559 95.0843L155.893 93.576L157.318 92.5705L155.724 91.7976L156.094 90.2076L154.324 90.5344L153.47 89.1016L152.34 90.371L150.664 89.7677L150.708 91.3891L148.988 91.8981L150.187 93.111L149.233 94.4936Z" fill="#63A91B"/>
  <path d="M115.81 41.0713H47.6523V89.1468H115.81V41.0713Z" fill="#E5DAD1"/>
  <path d="M117.362 39.5186H46.1094V41.0708H117.362V39.5186Z" fill="#C1B8B0"/>
  <path d="M58.4999 41.0713H50.7539V42.6235H58.4999V41.0713Z" fill="#9C948E"/>
  <path d="M56.9498 42.6172H52.3047V86.0359H56.9498V42.6172Z" fill="#C1B8B0"/>
  <path d="M58.4999 86.042H50.7539V89.1465H58.4999V86.042Z" fill="#9C948E"/>
  <path d="M69.0312 41.0713H61.2852V42.6235H69.0312V41.0713Z" fill="#9C948E"/>
  <path d="M67.4811 42.6172H62.8359V86.0359H67.4811V42.6172Z" fill="#C1B8B0"/>
  <path d="M69.0312 86.042H61.2852V89.1465H69.0312V86.042Z" fill="#9C948E"/>
  <path d="M104.965 42.6162H112.711V41.064H104.965V42.6162Z" fill="#9C948E"/>
  <path d="M106.519 86.043H111.164V42.6242H106.519V86.043Z" fill="#C1B8B0"/>
  <path d="M104.965 89.1406H112.711V86.0361H104.965V89.1406Z" fill="#9C948E"/>
  <path d="M94.4297 42.6162H102.176V41.064H94.4297V42.6162Z" fill="#9C948E"/>
  <path d="M95.9838 86.043H100.629V42.6242H95.9838V86.043Z" fill="#C1B8B0"/>
  <path d="M94.4297 89.1406H102.176V86.0361H94.4297V89.1406Z" fill="#9C948E"/>
  <path d="M118.673 88.9766H44.7969V90.5477H118.673V88.9766Z" fill="#C1B8B0"/>
  <path d="M118.673 90.5537H44.7969V92.1248H118.673V90.5537Z" fill="#9C948E"/>
  <path d="M118.673 92.125H44.7969V93.6961H118.673V92.125Z" fill="#C1B8B0"/>
  <path d="M118.673 93.7021H44.7969V95.2732H118.673V93.7021Z" fill="#9C948E"/>
  <path d="M118.673 95.2734H44.7969V96.8445H118.673V95.2734Z" fill="#C1B8B0"/>
  <path d="M118.673 96.8506H44.7969V98.4217H118.673V96.8506Z" fill="#9C948E"/>
  <path d="M118.673 98.4219H44.7969V99.993H118.673V98.4219Z" fill="#C1B8B0"/>
  <path d="M44.8719 87.2803H37.4648V99.9936H44.8719V87.2803Z" fill="#9C948E"/>
  <path d="M43.8112 86.2246H38.5195V87.2867H43.8112V86.2246Z" fill="#C1B8B0"/>
  <path d="M42.7572 78.8086H39.581L38.2063 82.2462C37.7543 83.3711 38.018 84.6594 38.8779 85.5203L39.581 86.2242H42.7572L43.4603 85.5203C44.3203 84.6594 44.5839 83.3773 44.1319 82.2462L42.7572 78.8086Z" fill="#9C948E"/>
  <path d="M118.593 100H126V87.2867H118.593V100Z" fill="#9C948E"/>
  <path d="M119.65 87.2822H124.941V86.2202H119.65V87.2822Z" fill="#C1B8B0"/>
  <path d="M120.706 78.8086H123.882L125.257 82.2462C125.709 83.3711 125.445 84.6594 124.585 85.5203L123.882 86.2242H120.706L120.003 85.5203C119.143 84.6594 118.879 83.3773 119.331 82.2462L120.706 78.8086Z" fill="#9C948E"/>
  <path d="M49.2566 51.5029H47.1914V53.0552H49.2566V51.5029Z" fill="#C1B8B0"/>
  <path d="M50.5999 53.9854H47.1914V55.5376H50.5999V53.9854Z" fill="#C1B8B0"/>
  <path d="M49.2817 56.4678H47.1914V58.02H49.2817V56.4678Z" fill="#C1B8B0"/>
  <path d="M50.5999 58.9502H47.1914V60.5024H50.5999V58.9502Z" fill="#C1B8B0"/>
  <path d="M49.2817 61.4326H47.1914V62.9849H49.2817V61.4326Z" fill="#C1B8B0"/>
  <path d="M50.5999 63.9082H47.1914V65.4604H50.5999V63.9082Z" fill="#C1B8B0"/>
  <path d="M49.2817 66.3906H47.1914V67.9429H49.2817V66.3906Z" fill="#C1B8B0"/>
  <path d="M50.5999 68.873H47.1914V70.4253H50.5999V68.873Z" fill="#C1B8B0"/>
  <path d="M49.2817 71.3555H47.1914V72.9077H49.2817V71.3555Z" fill="#C1B8B0"/>
  <path d="M50.5999 73.8379H47.1914V75.3901H50.5999V73.8379Z" fill="#C1B8B0"/>
  <path d="M49.2817 76.1875H47.1914V77.7397H49.2817V76.1875Z" fill="#C1B8B0"/>
  <path d="M50.5999 78.6699H47.1914V80.2222H50.5999V78.6699Z" fill="#C1B8B0"/>
  <path d="M49.2817 81.1523H47.1914V82.7046H49.2817V81.1523Z" fill="#C1B8B0"/>
  <path d="M49.2817 86.1172H47.1914V87.6694H49.2817V86.1172Z" fill="#C1B8B0"/>
  <path d="M50.5999 83.6348H47.1914V85.187H50.5999V83.6348Z" fill="#C1B8B0"/>
  <path d="M49.2817 41.3721H47.1914V42.9243H49.2817V41.3721Z" fill="#C1B8B0"/>
  <path d="M50.5999 43.8545H47.1914V45.4067H50.5999V43.8545Z" fill="#C1B8B0"/>
  <path d="M49.2817 46.3369H47.1914V47.8892H49.2817V46.3369Z" fill="#C1B8B0"/>
  <path d="M50.5999 48.8193H47.1914V50.3716H50.5999V48.8193Z" fill="#C1B8B0"/>
  <path d="M116.276 51.5029H114.211V53.0552H116.276V51.5029Z" fill="#C1B8B0"/>
  <path d="M116.276 53.9854H112.867V55.5376H116.276V53.9854Z" fill="#C1B8B0"/>
  <path d="M116.274 56.4678H114.184V58.02H116.274V56.4678Z" fill="#C1B8B0"/>
  <path d="M116.276 58.9502H112.867V60.5024H116.276V58.9502Z" fill="#C1B8B0"/>
  <path d="M116.274 61.4326H114.184V62.9849H116.274V61.4326Z" fill="#C1B8B0"/>
  <path d="M116.276 63.9082H112.867V65.4604H116.276V63.9082Z" fill="#C1B8B0"/>
  <path d="M116.274 66.3906H114.184V67.9429H116.274V66.3906Z" fill="#C1B8B0"/>
  <path d="M116.276 68.873H112.867V70.4253H116.276V68.873Z" fill="#C1B8B0"/>
  <path d="M116.274 71.3555H114.184V72.9077H116.274V71.3555Z" fill="#C1B8B0"/>
  <path d="M116.276 73.8379H112.867V75.3901H116.276V73.8379Z" fill="#C1B8B0"/>
  <path d="M116.274 76.1875H114.184V77.7397H116.274V76.1875Z" fill="#C1B8B0"/>
  <path d="M116.276 78.6699H112.867V80.2222H116.276V78.6699Z" fill="#C1B8B0"/>
  <path d="M116.274 81.1523H114.184V82.7046H116.274V81.1523Z" fill="#C1B8B0"/>
  <path d="M116.274 86.1172H114.184V87.6694H116.274V86.1172Z" fill="#C1B8B0"/>
  <path d="M116.276 83.6348H112.867V85.187H116.276V83.6348Z" fill="#C1B8B0"/>
  <path d="M116.274 41.3721H114.184V42.9243H116.274V41.3721Z" fill="#C1B8B0"/>
  <path d="M116.276 43.8545H112.867V45.4067H116.276V43.8545Z" fill="#C1B8B0"/>
  <path d="M116.274 46.3369H114.184V47.8892H116.274V46.3369Z" fill="#C1B8B0"/>
  <path d="M116.276 48.8193H112.867V50.3716H116.276V48.8193Z" fill="#C1B8B0"/>
  <path d="M93.2608 65.3535H70.3867V89.077H93.2608V65.3535Z" fill="#C1B8B0"/>
  <path d="M91.8926 66.1328H71.7617V89.0833H91.8926V66.1328Z" fill="#9C948E"/>
  <path d="M81.4911 66.9062H72.3516V88.977H81.4911V66.9062Z" fill="#7A695D"/>
  <path d="M80.8657 68.1445H72.9062V80.8892H80.8657V68.1445Z" fill="#77E8D2"/>
  <path d="M77.3795 67.2139H76.5195V88.3042H77.3795V67.2139Z" fill="#7A695D"/>
  <path d="M81.2324 76.6787H72.6641V77.4517H81.2324V76.6787Z" fill="#7A695D"/>
  <path d="M81.2324 72.1035H72.6641V72.8765H81.2324V72.1035Z" fill="#7A695D"/>
  <path d="M80.8657 81.668H72.9062V89.0835H80.8657V81.668Z" fill="#5E5148"/>
  <path d="M91.1669 66.9062H82.0273V88.977H91.1669V66.9062Z" fill="#7A695D"/>
  <path d="M90.5415 68.1445H82.582V80.8892H90.5415V68.1445Z" fill="#77E8D2"/>
  <path d="M87.0553 67.2139H86.1953V88.3042H87.0553V67.2139Z" fill="#7A695D"/>
  <path d="M90.9082 76.6787H82.3398V77.4517H90.9082V76.6787Z" fill="#7A695D"/>
  <path d="M90.9082 72.1035H82.3398V72.8765H90.9082V72.1035Z" fill="#7A695D"/>
  <path d="M90.5415 81.668H82.582V89.0835H90.5415V81.668Z" fill="#5E5148"/>
  <path d="M79.6016 59.9482H70.3867V62.6631H79.6016V59.9482Z" fill="#E6E6E6"/>
  <path d="M78.403 45.9658H71.5859V59.1504H78.403V45.9658Z" fill="#7A695D"/>
  <path d="M77.6305 46.7383H72.207V58.3707H77.6305V46.7383Z" fill="#5E5148"/>
  <path d="M76.9323 47.6689H72.9023V57.592H76.9323V47.6689Z" fill="#77E8D2"/>
  <path d="M77.6305 50.1514H72.207V50.9243H77.6305V50.1514Z" fill="#5E5148"/>
  <path d="M79.6016 44.2559H70.3867V45.9589H79.6016V44.2559Z" fill="#C1B8B0"/>
  <path d="M75.9607 43.4834H74.0273V45.9657H75.9607V43.4834Z" fill="#F5E6D9"/>
  <path d="M71.5857 45.9658H70.3867V59.5464H71.5857V45.9658Z" fill="#C1B8B0"/>
  <path d="M79.6013 45.9658H78.4023V59.1504H79.6013V45.9658Z" fill="#C1B8B0"/>
  <path d="M79.6016 59.1445H70.3867V59.9489H79.6016V59.1445Z" fill="#F5E6D9"/>
  <path d="M72.3242 59.9492H71.2383V61.5015H72.3242V59.9492Z" fill="#9C948E"/>
  <path d="M77.664 61.498H78.75V59.9458H77.664V61.498Z" fill="#9C948E"/>
  <path d="M79.6016 45.9658H70.3867V49.2211H79.6016V45.9658Z" fill="#E6E6E6"/>
  <path d="M93.2618 59.9482H84.0469V62.6631H93.2618V59.9482Z" fill="#E6E6E6"/>
  <path d="M92.0592 45.9658H85.2422V59.1504H92.0592V45.9658Z" fill="#7A695D"/>
  <path d="M91.2868 46.7383H85.8633V58.3707H91.2868V46.7383Z" fill="#5E5148"/>
  <path d="M90.5885 47.6689H86.5586V57.592H90.5885V47.6689Z" fill="#77E8D2"/>
  <path d="M91.2868 50.1514H85.8633V50.9243H91.2868V50.1514Z" fill="#5E5148"/>
  <path d="M93.2579 44.2559H84.043V45.9589H93.2579V44.2559Z" fill="#C1B8B0"/>
  <path d="M89.617 43.4834H87.6836V45.9657H89.617V43.4834Z" fill="#F5E6D9"/>
  <path d="M85.2419 45.9658H84.043V59.5464H85.2419V45.9658Z" fill="#C1B8B0"/>
  <path d="M93.2575 45.9658H92.0586V59.1504H93.2575V45.9658Z" fill="#C1B8B0"/>
  <path d="M93.2579 59.1436H84.043V59.948H93.2579V59.1436Z" fill="#F5E6D9"/>
  <path d="M85.9844 59.9482H84.8984V61.5005H85.9844V59.9482Z" fill="#9C948E"/>
  <path d="M91.3203 61.4971H92.4062V59.9448H91.3203V61.4971Z" fill="#9C948E"/>
  <path d="M93.2618 45.9658H84.0469V49.2211H93.2618V45.9658Z" fill="#E6E6E6"/>
  <path d="M115.81 33.624H47.6523V39.5188H115.81V33.624Z" fill="#E5DAD1"/>
  <path d="M67.2292 34.9622C67.1978 34.9685 67.1727 34.9748 67.1413 34.9999C67.1162 35.0251 67.1037 35.0502 67.1037 35.0879V36.9795C67.1037 37.256 67.0723 37.4885 67.0095 37.6771C66.9468 37.8719 66.8526 38.0227 66.727 38.1421C66.6015 38.2615 66.4446 38.3495 66.25 38.4061C66.0617 38.4563 65.8294 38.4878 65.5721 38.4878C65.095 38.4878 64.7372 38.3558 64.5049 38.1044C64.2727 37.8468 64.1534 37.476 64.1534 36.9795V35.0879C64.1534 35.0502 64.1409 35.0251 64.1157 34.9999C64.0906 34.9748 64.0592 34.9685 64.0279 34.9622L63.7266 34.9371V34.6543H65.3775V34.9371L65.0762 34.9622C65.0448 34.9685 65.0197 34.9748 64.9945 34.9999C64.9694 35.0251 64.9569 35.0502 64.9569 35.0879V37.0235C64.9569 37.3691 65.0322 37.6268 65.1766 37.7839C65.3272 37.941 65.5532 38.0227 65.8545 38.0227C65.9989 38.0227 66.1244 37.9976 66.2312 37.9536C66.3379 37.9033 66.4195 37.8405 66.4885 37.7525C66.5576 37.6645 66.6078 37.5577 66.6329 37.4383C66.6643 37.3189 66.6768 37.1806 66.6768 37.0298V35.0942C66.6768 35.0565 66.6643 35.0314 66.6392 35.0062C66.6141 34.9811 66.589 34.9748 66.5513 34.9685L66.2374 34.9434V34.6606H67.518V34.9434L67.2292 34.9622Z" fill="#9C948E"/>
  <path d="M71.6489 34.9627C71.6175 34.9689 71.5924 34.9752 71.5673 35.0004C71.5422 35.0255 71.5296 35.0506 71.5296 35.0883V38.4002H70.8517L68.9748 35.4466V37.9603C68.9748 37.998 68.9873 38.0294 69.0124 38.0483C69.0376 38.0671 69.0689 38.0797 69.1003 38.086L69.4079 38.1174V38.4002H68.1211V38.1111L68.4287 38.0797C68.4601 38.0734 68.4914 38.0609 68.5166 38.042C68.5417 38.0231 68.5542 37.9917 68.5542 37.954V35.0821C68.5542 35.0444 68.5417 35.0192 68.5166 34.9941C68.4914 34.9689 68.4663 34.9627 68.4287 34.9564L68.1274 34.9312V34.6484H69.5083V34.7993L71.1153 37.3193V35.0883C71.1153 35.0506 71.1028 35.0255 71.0776 35.0004C71.0525 34.9752 71.0211 34.9689 70.9898 34.9627L70.6696 34.9375V34.6547H71.9627V34.9375L71.6489 34.9627Z" fill="#9C948E"/>
  <path d="M72.5273 38.3939V38.1111L72.8726 38.0797C72.9103 38.0734 72.9354 38.0609 72.9605 38.042C72.9856 38.0231 72.9981 37.9917 72.9981 37.954V35.0821C72.9981 35.0444 72.9856 35.0192 72.9605 34.9941C72.9354 34.9689 72.9103 34.9627 72.8726 34.9564L72.5273 34.9312V34.6484H74.2661V34.9312L73.9209 34.9564C73.8895 34.9627 73.8581 34.9689 73.833 34.9941C73.8079 35.0192 73.7891 35.0444 73.7891 35.0821V37.954C73.7891 37.9917 73.8016 38.0231 73.833 38.042C73.8581 38.0609 73.8895 38.0734 73.9209 38.0797L74.2661 38.1111V38.3939H72.5273Z" fill="#9C948E"/>
  <path d="M78.2213 34.9811L76.9407 38.4878H76.4135L75.1078 34.9874L74.75 34.9371V34.6543H76.3381V34.9371L76.0243 34.9748C75.9929 34.9811 75.9741 34.9937 75.9678 35.0251C75.9615 35.0502 75.9615 35.0753 75.974 35.1005L76.8591 37.5263L77.7128 35.0942C77.7191 35.0691 77.7191 35.0439 77.7065 35.0188C77.7003 34.9937 77.6752 34.9811 77.6312 34.9748L77.3299 34.9371V34.6543H78.5791V34.9371L78.2213 34.9811Z" fill="#9C948E"/>
  <path d="M79.0625 38.3939V38.1111L79.3701 38.0797C79.4015 38.0734 79.4329 38.0609 79.458 38.042C79.4831 38.0231 79.4956 37.9917 79.4956 37.954V35.0821C79.4956 35.0444 79.4831 35.0129 79.458 34.9941C79.4329 34.9689 79.4015 34.9564 79.3701 34.9564L79.0625 34.9312V34.6484H81.9061V35.5408H81.5043L81.4164 35.0821C81.4102 35.0569 81.3976 35.0318 81.3788 35.0129C81.3599 34.9878 81.3411 34.9815 81.316 34.9815H80.2803V36.2887H80.9394C80.9645 36.2887 80.9833 36.2761 81.0021 36.251C81.021 36.2258 81.0273 36.207 81.0335 36.1881L81.0838 35.811H81.429V37.1245H81.0838L81.0335 36.7474C81.0273 36.7286 81.021 36.7034 81.0021 36.6846C80.9833 36.6594 80.9645 36.6469 80.9394 36.6469H80.2803V38.0671H81.4918C81.5169 38.0671 81.5357 38.0546 81.5545 38.0294C81.5734 38.0043 81.5859 37.9792 81.5922 37.9603L81.6738 37.3821H82.0818V38.4065H79.0625V38.3939Z" fill="#9C948E"/>
  <path d="M86.4679 38.3939C86.3424 38.4065 86.2356 38.4253 86.1478 38.4505C86.0599 38.4756 85.9783 38.4819 85.9155 38.4819C85.7335 38.4819 85.5828 38.4568 85.4635 38.4065C85.3443 38.3562 85.2438 38.2934 85.1685 38.2117C85.0869 38.13 85.0241 38.042 84.9739 37.9352C84.9237 37.8283 84.8798 37.7215 84.8421 37.6147C84.8044 37.5078 84.7668 37.401 84.7228 37.2942C84.6852 37.1936 84.635 37.0993 84.5785 37.0176C84.522 36.9359 84.4466 36.8731 84.3588 36.8228C84.2709 36.7726 84.1579 36.7474 84.0261 36.7474H83.9131V37.954C83.9131 37.9917 83.9256 38.0231 83.9507 38.042C83.9759 38.0609 84.001 38.0734 84.0386 38.0797L84.3462 38.1111V38.3939H82.6953V38.1111L82.9903 38.0797C83.0217 38.0734 83.0531 38.0609 83.0782 38.042C83.1033 38.0231 83.1159 37.9917 83.1159 37.954V35.0821C83.1159 35.0444 83.1033 35.0129 83.0782 34.9941C83.0531 34.9689 83.0217 34.9564 82.9903 34.9564L82.6953 34.9312V34.6484H84.5471C84.6161 34.6484 84.6915 34.6547 84.7793 34.661C84.8672 34.6673 84.9551 34.6861 85.043 34.7113C85.1309 34.7364 85.2187 34.7678 85.3066 34.8181C85.3945 34.8621 85.4698 34.9187 85.5389 34.9878C85.6079 35.0569 85.6581 35.1386 85.7021 35.2329C85.7397 35.3271 85.7649 35.4466 85.7649 35.5785C85.7649 35.7042 85.746 35.811 85.7146 35.9053C85.6832 35.9996 85.6393 36.0813 85.5828 36.1504C85.5263 36.2195 85.4635 36.2824 85.3945 36.3264C85.3255 36.3766 85.2564 36.4143 85.1811 36.4458C85.1057 36.4772 85.0367 36.5023 84.9739 36.5149C84.9049 36.5337 84.8484 36.5463 84.7982 36.5526C84.9174 36.5777 85.0241 36.6092 85.1058 36.6594C85.1936 36.7034 85.2627 36.76 85.3192 36.8228C85.3757 36.8857 85.4259 36.9548 85.4635 37.0239C85.5012 37.0993 85.5326 37.1748 85.5577 37.2502C85.5828 37.3256 85.6079 37.4073 85.6268 37.4827C85.6456 37.5581 85.6707 37.6335 85.7021 37.7026C85.7272 37.7718 85.7586 37.8346 85.7962 37.8912C85.8339 37.9477 85.8841 37.998 85.9406 38.0357C85.9971 38.0734 86.0724 38.1048 86.154 38.1174C86.2419 38.1363 86.3424 38.1363 86.4679 38.1174V38.3939ZM84.93 35.6854C84.93 35.4528 84.8609 35.2769 84.7166 35.1575C84.5785 35.0444 84.3713 34.9878 84.0951 34.9878C84.0826 34.9878 84.0637 34.9815 84.0449 34.9815H83.9884C83.9633 34.9815 83.9445 34.9815 83.9194 34.9878V36.4143C83.9633 36.4206 84.0072 36.4206 84.0324 36.4206C84.0637 36.4206 84.0826 36.4269 84.1014 36.4269C84.1893 36.4269 84.2834 36.4206 84.3776 36.4018C84.478 36.3829 84.5659 36.3515 84.6475 36.2949C84.7291 36.2447 84.7982 36.163 84.8484 36.0687C84.9049 35.9682 84.93 35.8425 84.93 35.6854Z" fill="#9C948E"/>
  <path d="M89.5448 37.3004C89.5448 37.4952 89.5008 37.6712 89.4192 37.8157C89.3376 37.9666 89.2309 38.086 89.0928 38.1865C88.9547 38.2871 88.7978 38.3562 88.6157 38.4065C88.4337 38.4567 88.2454 38.4819 88.0508 38.4819C87.9064 38.4819 87.7683 38.4693 87.6365 38.4505C87.5047 38.4316 87.3917 38.4002 87.2913 38.375C87.172 38.3436 87.0653 38.3059 86.9648 38.2682V37.2439H87.4042L87.4984 37.9163C87.5047 37.9414 87.511 37.9603 87.5298 37.9728C87.5486 37.9917 87.5612 37.998 87.5675 37.998C87.6114 38.0168 87.6553 38.0294 87.7056 38.0482C87.7495 38.0608 87.7934 38.0734 87.8436 38.0797C87.8939 38.086 87.9441 38.0922 88.0006 38.0922C88.0822 38.0922 88.1638 38.0797 88.2517 38.0608C88.3395 38.042 88.4149 38.0105 88.4839 37.9666C88.553 37.9226 88.6095 37.8723 88.6534 37.8032C88.6973 37.734 88.7162 37.6523 88.7162 37.5644C88.7162 37.4449 88.6911 37.3444 88.6346 37.2627C88.5781 37.181 88.509 37.1056 88.4212 37.0365C88.3333 36.9673 88.2328 36.9045 88.1261 36.8479C88.0194 36.7914 87.9064 36.7348 87.7934 36.672C87.693 36.6217 87.5988 36.5589 87.511 36.5023C87.4168 36.4457 87.3415 36.3703 87.2662 36.2949C87.1971 36.2195 87.1406 36.1252 87.0967 36.031C87.0527 35.9304 87.0339 35.8173 87.0339 35.6853C87.0339 35.5031 87.0716 35.3397 87.1406 35.2014C87.2097 35.0632 87.3101 34.9438 87.4356 34.8432C87.5612 34.749 87.6993 34.6735 87.8625 34.6233C88.0257 34.573 88.1952 34.5479 88.3772 34.5479C88.5216 34.5479 88.6534 34.5604 88.7789 34.5856C88.9045 34.6107 89.0175 34.6358 89.1179 34.661C89.2309 34.6924 89.3376 34.7301 89.4318 34.7741V35.6916H88.9987L88.9045 35.0946C88.9045 35.0883 88.8982 35.082 88.8919 35.0695C88.8857 35.0569 88.8731 35.0506 88.8668 35.038C88.8543 35.0317 88.8417 35.0192 88.8292 35.0129C88.8103 35.0003 88.7852 34.9815 88.7476 34.9689C88.7225 34.9563 88.6848 34.9438 88.6471 34.9375C88.6032 34.9249 88.553 34.9249 88.4965 34.9249C88.4023 34.9249 88.3144 34.9375 88.2328 34.9563C88.1512 34.9815 88.0759 35.0066 88.0131 35.0506C87.9504 35.0946 87.9001 35.1449 87.8625 35.2077C87.8248 35.2706 87.806 35.346 87.806 35.4277C87.806 35.5282 87.8248 35.6162 87.8688 35.6853C87.9127 35.7607 87.9692 35.8299 88.0382 35.8864C88.1073 35.943 88.1889 35.9995 88.2768 36.0498C88.3647 36.1001 88.4651 36.1504 88.5592 36.2006C88.6785 36.2572 88.7915 36.32 88.9045 36.3829C89.0175 36.4457 89.1242 36.5211 89.2184 36.6028C89.3125 36.6845 89.3878 36.7851 89.4443 36.8919C89.5134 37.0113 89.5448 37.1496 89.5448 37.3004Z" fill="#9C948E"/>
  <path d="M90.168 38.3939V38.1111L90.5132 38.0797C90.5509 38.0734 90.576 38.0609 90.6011 38.042C90.6262 38.0231 90.6388 37.9917 90.6388 37.954V35.0821C90.6388 35.0444 90.6262 35.0192 90.6011 34.9941C90.576 34.9689 90.5509 34.9627 90.5132 34.9564L90.168 34.9312V34.6484H91.9068V34.9312L91.5615 34.9564C91.5301 34.9627 91.4987 34.9689 91.4736 34.9941C91.4485 35.0192 91.4297 35.0444 91.4297 35.0821V37.954C91.4297 37.9917 91.4422 38.0231 91.4736 38.042C91.4987 38.0609 91.5301 38.0734 91.5615 38.0797L91.9068 38.1111V38.3939H90.168Z" fill="#9C948E"/>
  <path d="M95.2317 35.6722L95.1312 35.0501C95.125 35.0061 95.0999 34.9872 95.0496 34.9872H94.4282V37.9598C94.4282 37.9975 94.4408 38.0289 94.4659 38.0477C94.491 38.0666 94.5161 38.0792 94.5537 38.0854L94.8802 38.1169V38.3997H93.179V38.1106L93.5055 38.0792C93.5431 38.0729 93.5682 38.0603 93.5933 38.0415C93.6184 38.0226 93.631 37.9912 93.631 37.9535V34.981H93.0096C92.9593 34.981 92.928 35.0061 92.928 35.0438L92.8275 35.666H92.4258V34.6416H95.6397V35.666H95.2317V35.6722Z" fill="#9C948E"/>
  <path d="M99.336 34.981L98.3065 36.772V37.9535C98.3065 37.9912 98.3191 38.0226 98.3442 38.0415C98.3693 38.0603 98.3944 38.0729 98.4321 38.0792L98.771 38.1106V38.3934H97.0448V38.1106L97.3838 38.0792C97.4152 38.0729 97.4403 38.0603 97.4717 38.0415C97.4968 38.0226 97.5093 37.9912 97.5093 37.9535V36.9291L96.4359 34.981L96.0781 34.9307V34.6479H97.6662V34.9307L97.3712 34.9558C97.3524 34.9558 97.3336 34.9684 97.3273 34.9935C97.321 35.0187 97.321 35.0501 97.3398 35.0878L98.0429 36.4075L98.8024 35.0815C98.8212 35.0438 98.8275 35.0124 98.8212 34.9872C98.815 34.9621 98.7961 34.9433 98.771 34.9433L98.4321 34.9244V34.6416H99.6624V34.9244L99.336 34.981Z" fill="#9C948E"/>
  <path d="M60.7568 36.5716C60.7568 36.9549 60.443 37.2692 60.06 37.2692C59.6771 37.2692 59.3633 36.9549 59.3633 36.5716C59.3633 36.1882 59.6771 35.874 60.06 35.874C60.4492 35.874 60.7568 36.1882 60.7568 36.5716Z" fill="#9C948E"/>
  <path d="M102.4 37.2692C102.785 37.2692 103.097 36.9568 103.097 36.5716C103.097 36.1863 102.785 35.874 102.4 35.874C102.015 35.874 101.703 36.1863 101.703 36.5716C101.703 36.9568 102.015 37.2692 102.4 37.2692Z" fill="#9C948E"/>
  <path d="M115.81 41.0713H47.6523V48.8199H115.81V41.0713Z" fill="#E6E6E6"/>
  <path d="M46.1094 33.6241V30.526L81.7324 13.4639L117.362 30.526V33.6241H46.1094Z" fill="#9C948E"/>
  <path d="M115.814 32.0719H47.6562L81.7351 16.5684L115.814 32.0719Z" fill="#C1B8B0"/>
  <path d="M85.3847 28.9101C87.4021 26.8903 87.4021 23.6156 85.3847 21.5958C83.3672 19.576 80.0962 19.576 78.0787 21.5958C76.0613 23.6156 76.0613 26.8903 78.0787 28.9101C80.0962 30.9299 83.3672 30.9299 85.3847 28.9101Z" fill="#F2E7DD"/>
  <path d="M86.2272 25.2535C86.2272 27.7358 84.2185 29.7531 81.7327 29.7531C79.247 29.7531 77.2383 27.7421 77.2383 25.2535C77.2383 22.7712 79.247 20.7539 81.7327 20.7539C84.2185 20.7539 86.2272 22.7649 86.2272 25.2535Z" fill="#E5DAD1"/>
  <path d="M85.3848 25.2532C85.3848 27.2705 83.7527 28.9107 81.7314 28.9107C79.7165 28.9107 78.0781 27.2768 78.0781 25.2532C78.0781 23.2359 79.7102 21.5957 81.7314 21.5957C83.7464 21.5957 85.3848 23.2296 85.3848 25.2532Z" fill="#5E5148"/>
  <path d="M84.7362 25.2534C84.7362 26.9188 83.3866 28.2636 81.7294 28.2636C80.066 28.2636 78.7227 26.9125 78.7227 25.2534C78.7227 23.588 80.0722 22.2432 81.7294 22.2432C83.3929 22.2369 84.7362 23.588 84.7362 25.2534Z" fill="#77E8D2"/>
  <path d="M71.5569 27.4589C71.7468 26.3611 71.0119 25.3171 69.9155 25.1269C68.819 24.9367 67.7761 25.6724 67.5861 26.7702C67.3962 27.8679 68.1311 28.912 69.2275 29.1022C70.324 29.2923 71.3669 28.5566 71.5569 27.4589Z" fill="#E5DAD1"/>
  <path d="M94.2225 29.1032C95.3206 28.9229 96.0649 27.8855 95.8848 26.7861C95.7047 25.6867 94.6686 24.9416 93.5704 25.1218C92.4723 25.3021 91.728 26.3395 91.9081 27.4389C92.0881 28.5383 93.1243 29.2834 94.2225 29.1032Z" fill="#E5DAD1"/>
  <path d="M82.0433 22.2363H81.4219V28.263H82.0433V22.2363Z" fill="#5E5148"/>
  <path d="M84.7464 24.9395H78.7266V25.5616H84.7464V24.9395Z" fill="#5E5148"/>
</svg>