<svg xmlns="http://www.w3.org/2000/svg" width="234" height="234" viewBox="0 0 234 234" fill="none">
  <path d="M226.259 210.983C226.259 211.366 226.088 211.664 225.876 211.919C225.62 212.174 225.323 212.302 224.94 212.302H9.74469C9.02142 212.302 8.42578 211.706 8.42578 210.983C8.42578 210.6 8.59596 210.302 8.80869 210.047C9.06396 209.792 9.36178 209.664 9.74469 209.664H224.94C225.663 209.664 226.259 210.26 226.259 210.983Z" fill="#4A5B6B"/>
  <path d="M190.467 59.0608C180.6 54.0392 168.91 56.2996 158.58 63.9149C152.091 68.6988 144.089 70.3649 136.434 68.5687C136.33 68.5444 136.225 68.5191 136.119 68.4947C126.526 66.2418 118.828 58.7023 115.227 48.7339C111.679 38.9106 105.652 31.1586 97.3938 26.9551C75.4035 15.7633 45.941 33.962 31.5874 67.6027C17.2348 101.244 23.4264 137.587 45.4168 148.779C56.5992 154.47 69.7126 152.561 81.7898 144.886C93.2221 137.622 106.604 134.978 119.507 138.154C120.894 138.495 122.28 138.84 123.667 139.187C131.532 141.158 138.679 145.385 145.049 150.793C146.549 152.066 148.178 153.163 149.936 154.057C167.459 162.976 190.737 148.938 201.93 122.706C213.122 96.4737 207.99 67.979 190.467 59.0608Z" fill="#FEE4E8"/>
  <path d="M206.856 123.675C206.002 122.104 204.942 120.679 203.728 119.422L204.524 116.687L197.135 112.216L195.084 114.188C193.402 113.693 191.649 113.415 189.857 113.384L188.486 110.894L180.106 112.955L180.046 115.797C178.472 116.656 177.048 117.715 175.791 118.929L173.057 118.138L168.585 125.527L170.562 127.581C170.066 129.258 169.792 131.01 169.761 132.799L167.266 134.167L169.329 142.556L172.174 142.611C173.031 144.181 174.088 145.61 175.306 146.866L174.507 149.603L181.894 154.07L183.946 152.102C185.628 152.597 187.385 152.874 189.177 152.905L190.545 155.396L198.925 153.335L198.981 150.494C200.555 149.639 201.983 148.575 203.243 147.356L205.973 148.148L210.445 140.763L208.472 138.709C208.964 137.032 209.241 135.275 209.272 133.487L211.768 132.118L209.705 123.73L206.856 123.675ZM192.036 143.385C186.378 144.777 180.667 141.32 179.275 135.663C177.884 130.005 181.339 124.291 186.996 122.9C192.655 121.508 198.366 124.967 199.758 130.625C201.15 136.283 197.694 141.993 192.036 143.385Z" fill="#E3E3E3"/>
  <path d="M190.547 155.664C190.451 155.664 190.359 155.611 190.311 155.524L189.019 153.169C187.334 153.127 185.655 152.869 184.023 152.402L182.084 154.262C181.996 154.348 181.862 154.362 181.758 154.299L174.37 149.831C174.265 149.769 174.217 149.642 174.251 149.525L175.007 146.939C173.844 145.721 172.84 144.356 172.017 142.876L169.327 142.825C169.205 142.822 169.1 142.738 169.071 142.62L167.008 134.231C166.979 134.113 167.033 133.99 167.14 133.931L169.498 132.637C169.542 130.948 169.799 129.273 170.264 127.655L168.395 125.714C168.31 125.626 168.296 125.492 168.358 125.387L172.83 117.998C172.892 117.894 173.019 117.846 173.135 117.879L175.72 118.627C176.95 117.457 178.316 116.452 179.783 115.637L179.839 112.949C179.842 112.828 179.926 112.722 180.044 112.693L188.424 110.632C188.542 110.603 188.666 110.657 188.725 110.764L190.021 113.118C191.701 113.16 193.379 113.418 195.013 113.885L196.951 112.021C197.039 111.937 197.173 111.922 197.278 111.984L204.667 116.456C204.771 116.518 204.82 116.644 204.786 116.762L204.034 119.348C205.206 120.58 206.209 121.944 207.02 123.407L209.714 123.458C209.835 123.461 209.941 123.545 209.97 123.663L212.033 132.05C212.062 132.168 212.008 132.292 211.901 132.351L209.542 133.645C209.5 135.326 209.243 137.003 208.778 138.631L210.643 140.573C210.727 140.661 210.742 140.795 210.68 140.9L206.207 148.285C206.145 148.389 206.019 148.437 205.901 148.404L203.32 147.655C202.082 148.835 200.714 149.842 199.25 150.652L199.197 153.338C199.194 153.459 199.11 153.565 198.992 153.594L190.612 155.655C190.589 155.662 190.569 155.664 190.547 155.664ZM183.948 151.831C183.974 151.831 184 151.834 184.024 151.842C185.707 152.338 187.443 152.605 189.183 152.634C189.28 152.636 189.369 152.689 189.415 152.773L190.682 155.083L198.66 153.122L198.712 150.488C198.714 150.391 198.768 150.302 198.853 150.256C200.371 149.433 201.786 148.391 203.056 147.162C203.125 147.095 203.225 147.07 203.318 147.096L205.85 147.831L210.109 140.8L208.279 138.894C208.211 138.824 208.187 138.725 208.214 138.631C208.707 136.951 208.974 135.218 209.004 133.48C209.006 133.384 209.059 133.295 209.145 133.249L211.458 131.98L209.494 123.995L206.851 123.944C206.755 123.943 206.666 123.888 206.62 123.804C205.796 122.286 204.759 120.875 203.536 119.611C203.469 119.541 203.444 119.441 203.472 119.349L204.209 116.812L197.174 112.555L195.273 114.384C195.204 114.451 195.105 114.476 195.01 114.449C193.324 113.953 191.59 113.686 189.855 113.656C189.758 113.654 189.669 113.602 189.623 113.517L188.351 111.207L180.373 113.17L180.318 115.806C180.316 115.902 180.262 115.99 180.177 116.037C178.654 116.867 177.243 117.906 175.98 119.126C175.91 119.193 175.811 119.218 175.718 119.192L173.182 118.458L168.925 125.493L170.758 127.396C170.826 127.467 170.85 127.567 170.823 127.66C170.33 129.329 170.063 131.061 170.032 132.807C170.03 132.903 169.977 132.992 169.892 133.038L167.578 134.307L169.542 142.293L172.181 142.343C172.277 142.345 172.366 142.399 172.412 142.484C173.251 144.02 174.29 145.432 175.501 146.68C175.568 146.75 175.594 146.85 175.567 146.943L174.825 149.48L181.859 153.734L183.761 151.908C183.813 151.858 183.88 151.831 183.948 151.831ZM189.52 143.961C184.659 143.961 180.229 140.654 179.017 135.727C178.327 132.921 178.77 130.014 180.265 127.542C181.761 125.07 184.13 123.328 186.936 122.638C189.742 121.948 192.649 122.392 195.12 123.888C197.592 125.385 199.333 127.755 200.023 130.561C201.448 136.352 197.895 142.223 192.104 143.647C191.239 143.859 190.372 143.961 189.52 143.961ZM189.537 122.859C188.714 122.859 187.884 122.959 187.063 123.16C184.398 123.815 182.147 125.47 180.726 127.82C179.305 130.168 178.884 132.931 179.54 135.598C180.196 138.264 181.85 140.515 184.198 141.936C186.547 143.358 189.308 143.779 191.975 143.122C194.641 142.466 196.892 140.812 198.313 138.464C199.734 136.116 200.155 133.354 199.499 130.687C198.843 128.021 197.189 125.77 194.841 124.348C193.215 123.364 191.391 122.859 189.537 122.859Z" fill="#070706"/>
  <path d="M81.25 69.126V210.075H184.335V69.126C184.335 56.7549 174.307 46.7266 161.936 46.7266H103.649C91.2783 46.7275 81.25 56.7558 81.25 69.126Z" fill="white"/>
  <path d="M184.339 210.345H81.2539C81.1051 210.345 80.9844 210.224 80.9844 210.075V69.126C80.9844 56.6267 91.1531 46.457 103.653 46.457H161.941C174.44 46.457 184.61 56.6257 184.61 69.126V210.075C184.609 210.224 184.488 210.345 184.339 210.345ZM81.5235 209.806H184.07V69.126C184.07 56.9234 174.143 46.9962 161.94 46.9962H103.653C91.4507 46.9962 81.5235 56.9234 81.5235 69.126V209.806Z" fill="#070706"/>
  <path d="M172.23 162.875V174.042C172.23 175.181 171.306 176.105 170.167 176.105H96.1011C94.962 176.105 94.0391 175.181 94.0391 174.042V162.875C94.0391 161.735 94.9629 160.813 96.1011 160.813H170.167C171.307 160.812 172.23 161.735 172.23 162.875Z" fill="#FFE2C8"/>
  <path d="M170.168 176.373H96.102C94.816 176.373 93.7695 175.327 93.7695 174.041V162.874C93.7695 161.587 94.816 160.541 96.102 160.541H170.168C171.454 160.541 172.5 161.587 172.5 162.874V174.041C172.499 175.328 171.454 176.373 170.168 176.373ZM96.1011 161.081C95.1127 161.081 94.3077 161.885 94.3077 162.874V174.042C94.3077 175.03 95.1118 175.835 96.1011 175.835H170.167C171.155 175.835 171.96 175.031 171.96 174.042V162.874C171.96 161.886 171.156 161.081 170.167 161.081H96.1011Z" fill="#070706"/>
  <path d="M172.23 119.91V131.077C172.23 132.22 171.306 133.143 170.167 133.143H139.797C138.658 133.143 137.734 132.219 137.734 131.077V119.91C137.734 118.771 138.658 117.847 139.797 117.847H170.167C171.307 117.848 172.23 118.771 172.23 119.91Z" fill="#FFE2C8"/>
  <path d="M170.167 133.413H139.797C138.511 133.413 137.465 132.366 137.465 131.078V119.911C137.465 118.625 138.511 117.578 139.797 117.578H170.167C171.453 117.578 172.499 118.625 172.499 119.911V131.078C172.498 132.365 171.453 133.413 170.167 133.413ZM139.797 118.117C138.809 118.117 138.004 118.921 138.004 119.911V131.078C138.004 132.068 138.808 132.874 139.797 132.874H170.167C171.155 132.874 171.96 132.068 171.96 131.078V119.911C171.96 118.922 171.156 118.117 170.167 118.117H139.797Z" fill="#070706"/>
  <path d="M94.0391 131.078V119.911C94.0391 118.771 94.9629 117.848 96.1011 117.848H131.494C132.633 117.848 133.556 118.771 133.556 119.911V131.078C133.556 132.221 132.632 133.144 131.494 133.144H96.1011C94.9629 133.144 94.0391 132.22 94.0391 131.078Z" fill="#FFE2C8"/>
  <path d="M131.495 133.413H96.102C94.816 133.413 93.7695 132.366 93.7695 131.078V119.911C93.7695 118.625 94.816 117.578 96.102 117.578H131.495C132.781 117.578 133.828 118.625 133.828 119.911V131.078C133.828 132.365 132.781 133.413 131.495 133.413ZM96.102 118.117C95.1136 118.117 94.3087 118.921 94.3087 119.911V131.078C94.3087 132.068 95.1127 132.874 96.102 132.874H131.495C132.483 132.874 133.288 132.068 133.288 131.078V119.911C133.288 118.922 132.484 118.117 131.495 118.117H96.102Z" fill="#070706"/>
  <path d="M172.23 141.872V153.039C172.23 154.178 171.306 155.102 170.167 155.102H96.1011C94.962 155.102 94.0391 154.178 94.0391 153.039V141.872C94.0391 140.732 94.9629 139.809 96.1011 139.809H170.167C171.307 139.81 172.23 140.733 172.23 141.872Z" fill="#FFE2C8"/>
  <path d="M170.168 155.371H96.102C94.816 155.371 93.7695 154.324 93.7695 153.038V141.871C93.7695 140.585 94.816 139.539 96.102 139.539H170.168C171.454 139.539 172.5 140.586 172.5 141.871V153.038C172.499 154.325 171.454 155.371 170.168 155.371ZM96.1011 140.078C95.1127 140.078 94.3077 140.882 94.3077 141.871V153.038C94.3077 154.026 95.1118 154.831 96.1011 154.831H170.167C171.155 154.831 171.96 154.027 171.96 153.038V141.871C171.96 140.882 171.156 140.078 170.167 140.078H96.1011Z" fill="#070706"/>
  <path d="M156.875 184.842V197.723C156.875 199.071 155.783 200.166 154.435 200.166H111.831C110.483 200.166 109.391 199.07 109.391 197.723V184.842C109.391 183.494 110.483 182.401 111.831 182.401H154.435C155.783 182.402 156.875 183.495 156.875 184.842Z" fill="#FFB839"/>
  <path d="M154.435 200.436H111.831C110.337 200.436 109.121 199.219 109.121 197.724V184.843C109.121 183.349 110.337 182.133 111.831 182.133H154.435C155.929 182.133 157.144 183.349 157.144 184.843V197.724C157.144 199.219 155.929 200.436 154.435 200.436ZM111.831 182.672C110.635 182.672 109.66 183.645 109.66 184.843V197.724C109.66 198.923 110.634 199.897 111.831 199.897H154.435C155.632 199.897 156.605 198.922 156.605 197.724V184.843C156.605 183.645 155.632 182.672 154.435 182.672H111.831Z" fill="#070706"/>
  <path d="M149.867 55.1562H114.556C112.922 55.1562 111.459 54.149 110.875 52.6234L107.258 46.7266H157.165L153.549 52.6234C152.965 54.1481 151.501 55.1562 149.867 55.1562Z" fill="black"/>
  <path d="M144.978 51.646C144.796 51.8276 144.548 51.9371 144.271 51.9371H128.787C128.514 51.9371 128.263 51.8276 128.08 51.646C127.901 51.4673 127.789 51.2164 127.789 50.9431C127.789 50.3899 128.236 49.9453 128.787 49.9453H144.212C144.689 49.9453 145.133 50.2514 145.243 50.7138C145.328 51.0713 145.203 51.4205 144.978 51.646Z" fill="white"/>
  <path d="M125.87 50.9431C125.87 51.4925 125.422 51.9371 124.872 51.9371H120.204C119.727 51.9371 119.287 51.631 119.181 51.1687C119.101 50.812 119.221 50.4657 119.447 50.2364C119.629 50.0576 119.877 49.9453 120.154 49.9453H124.872C125.422 49.9453 125.87 50.389 125.87 50.9431Z" fill="white"/>
  <path d="M158.468 147.162H100.977V149.246H158.468V147.162Z" fill="white"/>
  <path d="M134.126 167.416H100.977V169.5H134.126V167.416Z" fill="white"/>
  <path d="M158.47 167.416H141.223V169.5H158.47V167.416Z" fill="white"/>
  <path d="M176.894 71.2725V101.06C176.894 104.782 173.879 107.797 170.156 107.797H96.1123C92.3899 107.797 89.375 104.782 89.375 101.06V71.2725C89.375 67.5538 92.3899 64.5352 96.1123 64.5352H170.156C173.879 64.5352 176.894 67.5538 176.894 71.2725Z" fill="#FFF0E1"/>
  <path d="M170.157 108.067H96.1124C92.2486 108.067 89.1055 104.924 89.1055 101.06V71.2725C89.1055 67.4087 92.2486 64.2656 96.1124 64.2656H170.157C174.02 64.2656 177.163 67.4087 177.163 71.2725V101.06C177.163 104.924 174.02 108.067 170.157 108.067ZM96.1124 64.8048C92.5462 64.8048 89.6446 67.7064 89.6446 71.2725V101.06C89.6446 104.626 92.5462 107.528 96.1124 107.528H170.157C173.723 107.528 176.624 104.626 176.624 101.06V71.2725C176.624 67.7064 173.723 64.8048 170.157 64.8048H96.1124Z" fill="#070706"/>
  <path d="M121.681 86.1666C121.681 89.0392 120.734 91.6853 119.132 93.8137C116.806 96.9091 113.103 98.9074 108.936 98.9074C104.769 98.9074 101.067 96.9044 98.744 93.8091C97.1463 91.6806 96.1953 89.0345 96.1953 86.1666C96.1953 79.1307 101.9 73.4258 108.936 73.4258C115.976 73.4258 121.681 79.1307 121.681 86.1666Z" fill="#FF571C"/>
  <path d="M108.938 87.6078C111.35 87.6078 113.305 85.6525 113.305 83.2404C113.305 80.8284 111.35 78.873 108.938 78.873C106.526 78.873 104.57 80.8284 104.57 83.2404C104.57 85.6525 106.526 87.6078 108.938 87.6078Z" fill="white"/>
  <path d="M118.023 94.7058C115.909 97.2601 112.544 98.9093 108.756 98.9093C104.968 98.9093 101.603 97.2564 99.4922 94.703C101.283 91.7321 104.762 89.7188 108.756 89.7188C112.753 89.7178 116.232 91.734 118.023 94.7058Z" fill="white"/>
  <path d="M108.932 99.177C104.801 99.177 101.007 97.2798 98.5249 93.971C96.8214 91.7031 95.9219 89.0046 95.9219 86.1667C95.9219 78.9931 101.759 73.1562 108.932 73.1562C116.108 73.1562 121.946 78.9931 121.946 86.1667C121.946 89.013 121.046 91.7134 119.343 93.9757C116.858 97.2817 113.064 99.177 108.932 99.177ZM108.932 73.6954C102.055 73.6954 96.461 79.2899 96.461 86.1667C96.461 88.8876 97.324 91.4738 98.9564 93.6481C101.336 96.8193 104.972 98.6388 108.932 98.6388C112.892 98.6388 116.531 96.8211 118.913 93.6528C120.545 91.485 121.407 88.896 121.407 86.1676C121.407 79.2908 115.811 73.6954 108.932 73.6954Z" fill="#070706"/>
  <path d="M144.396 76.6377H126.422V81.2849H144.396V76.6377Z" fill="#FFC0CC"/>
  <path d="M169.937 84.7969H126.422V86.7849H169.937V84.7969Z" fill="#FFC0CC"/>
  <path d="M169.937 89.252H126.422V91.24H169.937V89.252Z" fill="#FFC0CC"/>
  <path d="M143.163 93.708H126.422V95.6961H143.163V93.708Z" fill="#FFC0CC"/>
  <path d="M154.535 93.707H150.16V95.6951H154.535V93.707Z" fill="#FFC0CC"/>
  <path d="M164.074 93.707H159.438V95.6951H164.074V93.707Z" fill="#FFC0CC"/>
  <path d="M118.102 124.453H100.977V126.537H118.102V124.453Z" fill="white"/>
  <path d="M127.088 124.453H120.727V126.537H127.088V124.453Z" fill="white"/>
  <path d="M157.794 124.453H141.465V126.537H157.794V124.453Z" fill="white"/>
  <path d="M122.565 193.916C122.565 193.995 122.562 194.063 122.558 194.118C122.553 194.173 122.546 194.221 122.537 194.26C122.527 194.3 122.514 194.334 122.499 194.362C122.483 194.39 122.458 194.423 122.423 194.46C122.389 194.496 122.321 194.543 122.221 194.6C122.121 194.657 121.999 194.712 121.855 194.764C121.711 194.815 121.546 194.859 121.361 194.895C121.176 194.93 120.975 194.947 120.759 194.947C120.338 194.947 119.957 194.882 119.618 194.753C119.278 194.623 118.99 194.429 118.752 194.17C118.515 193.912 118.332 193.589 118.206 193.203C118.078 192.816 118.016 192.366 118.016 191.852C118.016 191.329 118.085 190.865 118.224 190.458C118.364 190.053 118.559 189.711 118.809 189.436C119.059 189.16 119.361 188.951 119.711 188.809C120.061 188.666 120.447 188.595 120.869 188.595C121.04 188.595 121.205 188.609 121.363 188.638C121.521 188.666 121.668 188.703 121.803 188.749C121.937 188.795 122.059 188.848 122.167 188.908C122.274 188.968 122.35 189.021 122.392 189.063C122.435 189.106 122.464 189.141 122.48 189.169C122.496 189.198 122.509 189.235 122.519 189.279C122.528 189.324 122.536 189.375 122.54 189.436C122.545 189.496 122.548 189.571 122.548 189.66C122.548 189.755 122.545 189.836 122.538 189.902C122.532 189.969 122.521 190.023 122.505 190.063C122.489 190.104 122.47 190.134 122.448 190.154C122.425 190.173 122.4 190.182 122.372 190.182C122.324 190.182 122.264 190.154 122.191 190.099C122.118 190.044 122.024 189.982 121.908 189.914C121.791 189.845 121.654 189.783 121.494 189.728C121.334 189.673 121.143 189.645 120.921 189.645C120.677 189.645 120.459 189.695 120.268 189.795C120.076 189.894 119.913 190.037 119.778 190.222C119.643 190.408 119.541 190.632 119.471 190.895C119.401 191.158 119.366 191.455 119.366 191.785C119.366 192.146 119.404 192.459 119.478 192.724C119.552 192.989 119.658 193.206 119.796 193.378C119.933 193.549 120.1 193.676 120.295 193.761C120.489 193.845 120.709 193.887 120.954 193.887C121.176 193.887 121.367 193.861 121.529 193.808C121.691 193.756 121.83 193.698 121.946 193.634C122.061 193.571 122.156 193.513 122.231 193.463C122.305 193.412 122.363 193.387 122.405 193.387C122.436 193.387 122.462 193.394 122.48 193.407C122.5 193.419 122.516 193.444 122.528 193.483C122.541 193.521 122.551 193.573 122.556 193.642C122.562 193.711 122.565 193.802 122.565 193.916Z" fill="white"/>
  <path d="M128.032 194.687C128.032 194.722 128.025 194.751 128.013 194.775C128.001 194.799 127.97 194.818 127.922 194.834C127.875 194.85 127.805 194.861 127.714 194.867C127.622 194.874 127.496 194.877 127.338 194.877C127.205 194.877 127.099 194.874 127.019 194.867C126.94 194.861 126.878 194.85 126.831 194.832C126.785 194.814 126.752 194.792 126.734 194.765C126.715 194.738 126.699 194.705 126.686 194.668L126.134 193.294C126.068 193.139 126.003 193.001 125.94 192.88C125.876 192.759 125.806 192.659 125.728 192.579C125.651 192.497 125.561 192.437 125.46 192.395C125.359 192.354 125.241 192.334 125.108 192.334H124.718V194.678C124.718 194.71 124.708 194.738 124.687 194.763C124.667 194.789 124.633 194.809 124.585 194.825C124.538 194.841 124.474 194.854 124.395 194.864C124.316 194.873 124.215 194.878 124.091 194.878C123.97 194.878 123.87 194.873 123.79 194.864C123.708 194.854 123.645 194.841 123.597 194.825C123.549 194.809 123.516 194.789 123.497 194.763C123.478 194.738 123.469 194.71 123.469 194.678V189.09C123.469 188.951 123.504 188.851 123.575 188.789C123.647 188.727 123.735 188.696 123.839 188.696H125.432C125.594 188.696 125.727 188.699 125.832 188.706C125.937 188.712 126.032 188.72 126.118 188.729C126.365 188.764 126.588 188.825 126.786 188.91C126.983 188.995 127.152 189.107 127.29 189.245C127.427 189.382 127.533 189.546 127.606 189.734C127.679 189.923 127.715 190.14 127.715 190.384C127.715 190.59 127.689 190.778 127.637 190.947C127.584 191.117 127.508 191.268 127.406 191.401C127.304 191.534 127.179 191.65 127.03 191.749C126.881 191.847 126.712 191.926 126.521 191.986C126.613 192.031 126.7 192.085 126.78 192.148C126.861 192.212 126.938 192.289 127.009 192.379C127.08 192.469 127.147 192.573 127.211 192.688C127.274 192.804 127.335 192.935 127.396 193.081L127.915 194.293C127.962 194.413 127.994 194.501 128.01 194.557C128.026 194.612 128.032 194.655 128.032 194.687ZM126.42 190.511C126.42 190.308 126.374 190.137 126.282 189.998C126.191 189.859 126.04 189.761 125.83 189.703C125.768 189.688 125.695 189.675 125.614 189.666C125.533 189.657 125.421 189.652 125.279 189.652H124.718V191.398H125.356C125.534 191.398 125.689 191.376 125.822 191.333C125.955 191.29 126.066 191.23 126.155 191.152C126.244 191.075 126.31 190.982 126.354 190.874C126.398 190.765 126.42 190.645 126.42 190.511Z" fill="white"/>
  <path d="M132.592 194.357C132.592 194.449 132.587 194.526 132.58 194.587C132.571 194.649 132.56 194.7 132.544 194.737C132.528 194.775 132.509 194.803 132.485 194.82C132.461 194.838 132.435 194.847 132.407 194.847H129.316C129.211 194.847 129.123 194.816 129.052 194.754C128.981 194.692 128.945 194.591 128.945 194.452V189.087C128.945 188.948 128.981 188.848 129.052 188.786C129.123 188.724 129.211 188.693 129.316 188.693H132.388C132.416 188.693 132.441 188.702 132.464 188.717C132.486 188.733 132.505 188.76 132.521 188.8C132.537 188.839 132.549 188.891 132.556 188.953C132.564 189.014 132.569 189.093 132.569 189.189C132.569 189.277 132.565 189.352 132.556 189.414C132.548 189.476 132.537 189.526 132.521 189.564C132.505 189.602 132.486 189.629 132.464 189.647C132.441 189.665 132.416 189.673 132.388 189.673H130.191V191.177H132.051C132.079 191.177 132.105 191.185 132.13 191.203C132.153 191.221 132.173 191.248 132.189 191.284C132.205 191.321 132.218 191.369 132.225 191.431C132.233 191.493 132.237 191.569 132.237 191.657C132.237 191.749 132.233 191.825 132.225 191.885C132.218 191.945 132.205 191.994 132.189 192.03C132.174 192.067 132.154 192.093 132.13 192.109C132.105 192.125 132.08 192.132 132.051 192.132H130.191V193.868H132.407C132.435 193.868 132.461 193.876 132.485 193.894C132.509 193.912 132.528 193.939 132.544 193.977C132.56 194.015 132.572 194.065 132.58 194.127C132.588 194.189 132.592 194.265 132.592 194.357Z" fill="white"/>
  <path d="M138.618 194.382C138.657 194.496 138.68 194.587 138.69 194.653C138.699 194.719 138.687 194.769 138.651 194.802C138.617 194.836 138.555 194.857 138.466 194.864C138.377 194.873 138.255 194.876 138.1 194.876C137.938 194.876 137.813 194.874 137.722 194.87C137.631 194.865 137.563 194.856 137.515 194.842C137.467 194.828 137.434 194.808 137.416 194.782C137.396 194.757 137.381 194.723 137.368 194.683L136.954 193.446H134.643L134.253 194.649C134.241 194.693 134.224 194.73 134.203 194.76C134.183 194.79 134.149 194.815 134.103 194.831C134.057 194.848 133.993 194.86 133.909 194.867C133.824 194.874 133.714 194.876 133.578 194.876C133.432 194.876 133.318 194.872 133.236 194.862C133.153 194.853 133.096 194.83 133.064 194.793C133.032 194.757 133.021 194.705 133.031 194.639C133.04 194.572 133.064 194.483 133.102 194.372L134.999 188.912C135.018 188.858 135.04 188.815 135.065 188.781C135.091 188.747 135.131 188.722 135.186 188.705C135.241 188.688 135.318 188.677 135.417 188.672C135.516 188.667 135.646 188.665 135.808 188.665C135.995 188.665 136.144 188.668 136.255 188.672C136.365 188.676 136.453 188.687 136.514 188.705C136.576 188.723 136.621 188.748 136.647 188.784C136.674 188.819 136.697 188.866 136.716 188.926L138.618 194.382ZM135.794 189.87H135.789L134.918 192.485H136.663L135.794 189.87Z" fill="white"/>
  <path d="M142.815 189.208C142.815 189.3 142.811 189.379 142.803 189.444C142.795 189.509 142.784 189.561 142.768 189.601C142.752 189.642 142.732 189.67 142.709 189.689C142.685 189.708 142.658 189.717 142.63 189.717H141.09V194.677C141.09 194.709 141.079 194.737 141.059 194.762C141.038 194.788 141.004 194.808 140.957 194.824C140.909 194.84 140.845 194.853 140.765 194.863C140.683 194.872 140.583 194.877 140.462 194.877C140.342 194.877 140.242 194.872 140.16 194.863C140.08 194.853 140.015 194.84 139.968 194.824C139.921 194.808 139.887 194.788 139.866 194.762C139.846 194.737 139.835 194.709 139.835 194.677V189.717H138.295C138.263 189.717 138.236 189.708 138.214 189.689C138.192 189.67 138.173 189.641 138.157 189.601C138.141 189.562 138.129 189.51 138.122 189.444C138.113 189.38 138.109 189.301 138.109 189.208C138.109 189.113 138.113 189.032 138.122 188.966C138.129 188.899 138.141 188.846 138.157 188.807C138.173 188.767 138.192 188.738 138.214 188.722C138.237 188.704 138.263 188.695 138.295 188.695H142.632C142.66 188.695 142.686 188.704 142.711 188.722C142.734 188.739 142.754 188.767 142.77 188.807C142.786 188.846 142.798 188.899 142.805 188.966C142.811 189.032 142.815 189.114 142.815 189.208Z" fill="white"/>
  <path d="M147.186 194.357C147.186 194.449 147.181 194.526 147.174 194.587C147.165 194.649 147.154 194.7 147.138 194.737C147.122 194.775 147.102 194.803 147.079 194.82C147.056 194.838 147.028 194.847 147 194.847H143.91C143.805 194.847 143.717 194.816 143.646 194.754C143.575 194.692 143.539 194.591 143.539 194.452V189.087C143.539 188.948 143.575 188.848 143.646 188.786C143.717 188.724 143.805 188.693 143.91 188.693H146.982C147.01 188.693 147.035 188.702 147.057 188.717C147.08 188.733 147.099 188.76 147.115 188.8C147.131 188.839 147.143 188.891 147.15 188.953C147.158 189.014 147.162 189.093 147.162 189.189C147.162 189.277 147.159 189.352 147.15 189.414C147.142 189.476 147.131 189.526 147.115 189.564C147.099 189.602 147.08 189.629 147.057 189.647C147.035 189.665 147.01 189.673 146.982 189.673H144.785V191.177H146.645C146.673 191.177 146.699 191.185 146.723 191.203C146.747 191.221 146.766 191.248 146.783 191.284C146.799 191.321 146.811 191.369 146.819 191.431C146.827 191.493 146.831 191.569 146.831 191.657C146.831 191.749 146.827 191.825 146.819 191.885C146.811 191.945 146.799 191.994 146.783 192.03C146.767 192.067 146.748 192.093 146.723 192.109C146.699 192.125 146.674 192.132 146.645 192.132H144.785V193.868H147C147.028 193.868 147.055 193.876 147.079 193.894C147.102 193.912 147.122 193.939 147.138 193.977C147.154 194.015 147.166 194.065 147.174 194.127C147.181 194.189 147.186 194.265 147.186 194.357Z" fill="white"/>
  <path d="M103.512 136.941C103.512 136.941 106.193 134.82 114.176 140.972C119.532 145.101 118.403 147.948 118.403 147.948L111.611 148.681L107.388 147.955L100.359 143.341L103.512 136.941Z" fill="#070706"/>
  <path d="M111.607 148.949C111.591 148.949 111.576 148.947 111.561 148.945L107.338 148.219C107.302 148.212 107.267 148.199 107.236 148.179L100.208 143.565C100.094 143.49 100.053 143.342 100.114 143.221L103.267 136.822C103.284 136.786 103.31 136.755 103.341 136.73C103.457 136.637 106.281 134.548 114.337 140.757C119.792 144.962 118.698 147.921 118.65 148.046C118.613 148.139 118.528 148.204 118.428 148.214L111.636 148.947C111.627 148.949 111.618 148.949 111.607 148.949ZM107.485 147.698L111.616 148.408L118.186 147.699C118.303 147.081 118.427 144.59 114.008 141.184C106.887 135.696 104.092 136.916 103.718 137.127L100.704 143.245L107.485 147.698Z" fill="#070706"/>
  <path d="M108.896 134.593C109.023 137.508 103.273 143.503 103.273 143.503C103.378 143.329 105.104 136.105 104.977 133.19C104.85 130.274 105.962 128.798 107.411 128.735C108.859 128.672 108.768 131.677 108.896 134.593Z" fill="#FC9FAD"/>
  <path d="M103.273 143.503C103.273 143.503 115.968 121.781 118.214 122.977C120.459 124.174 116.431 131.024 116.431 131.024C116.431 131.024 118.757 130.953 118.726 132.755C118.726 132.755 120.896 132.578 120.823 134.307C120.823 134.307 123.275 134.45 122.114 137.859C120.954 141.268 113.256 151.468 113.256 151.468L103.273 143.503Z" fill="#FC9FAD"/>
  <path d="M114.461 133.87C114.403 133.87 114.344 133.851 114.294 133.812C114.177 133.719 114.157 133.55 114.249 133.433L116.213 130.942C116.305 130.825 116.475 130.804 116.591 130.897C116.708 130.989 116.729 131.158 116.636 131.275L114.672 133.767C114.619 133.834 114.54 133.87 114.461 133.87Z" fill="#070706"/>
  <path d="M116.996 135.689C116.945 135.689 116.892 135.674 116.846 135.643C116.723 135.561 116.689 135.393 116.772 135.27L118.569 132.583C118.651 132.459 118.818 132.425 118.942 132.509C119.066 132.591 119.099 132.759 119.016 132.882L117.22 135.569C117.168 135.647 117.083 135.689 116.996 135.689Z" fill="#070706"/>
  <path d="M118.996 137.007C118.941 137.007 118.885 136.99 118.836 136.953C118.716 136.865 118.691 136.696 118.78 136.576L120.583 134.139C120.671 134.02 120.839 133.993 120.961 134.083C121.08 134.171 121.106 134.34 121.017 134.46L119.213 136.897C119.16 136.968 119.078 137.007 118.996 137.007Z" fill="#070706"/>
  <path d="M118.402 147.946C118.402 147.946 105.419 174.295 94.0707 175.307C77.0917 176.825 72.4023 152.028 72.4023 152.028L74.0282 131.403C74.2219 131.443 74.4185 131.485 74.6085 131.527C80.6335 132.914 85.5091 137.328 87.7097 143.101L92.5254 153.772L103.51 136.942C101.097 144.625 110.969 148.68 118.402 147.946Z" fill="#789AFE"/>
  <path d="M92.6276 175.642C86.2019 175.642 80.6964 171.771 76.6369 164.366C73.36 158.387 72.1535 152.14 72.1413 152.078C72.1142 151.932 72.2097 151.79 72.3557 151.762C72.5036 151.736 72.643 151.831 72.6711 151.977C72.716 152.215 77.2332 175.102 92.6163 175.102C93.0843 175.102 93.5617 175.081 94.0503 175.038C104.33 174.121 116.205 151.657 117.946 148.254C113.31 148.579 107.335 147.104 104.46 143.566C102.898 141.644 102.482 139.326 103.257 136.86C103.301 136.719 103.452 136.638 103.595 136.683C103.737 136.728 103.816 136.88 103.772 137.021C103.043 139.338 103.416 141.425 104.879 143.225C107.736 146.741 113.835 148.126 118.379 147.677C118.478 147.663 118.571 147.71 118.627 147.792C118.683 147.872 118.69 147.976 118.647 148.064C118.115 149.145 105.467 174.56 94.0989 175.575C93.6029 175.62 93.1124 175.642 92.6276 175.642Z" fill="#070706"/>
  <path d="M92.53 154.042C92.5235 154.042 92.516 154.042 92.5094 154.041C92.4112 154.034 92.325 153.973 92.2848 153.883L87.4691 143.212C87.4082 143.077 87.4681 142.917 87.6039 142.856C87.7396 142.795 87.8987 142.855 87.9605 142.991L92.574 153.213L103.289 136.794C103.371 136.67 103.537 136.634 103.662 136.716C103.786 136.797 103.822 136.964 103.741 137.089L92.7556 153.919C92.706 153.996 92.6208 154.042 92.53 154.042Z" fill="#070706"/>
  <path d="M52.3276 119.475C50.1402 122.332 46.5956 123.714 43.3196 125.204C40.0445 126.694 36.629 128.683 35.3261 132.038C34.0569 135.305 35.2466 139.205 37.7232 141.685C40.2008 144.166 43.7511 145.356 47.2508 145.56C50.7505 145.764 54.2389 145.069 57.6422 144.228C61.2842 143.33 65.0722 142.151 67.6266 139.405C70.8876 135.9 71.3893 130.528 70.2511 125.878C69.1972 121.574 66.8169 117.64 63.6158 114.592C61.9974 113.05 60.1648 111.731 58.1814 110.7C56.475 109.813 53.8823 108.612 54.0976 111.67C54.2979 114.524 54.15 117.094 52.3276 119.475Z" fill="#070706"/>
  <path d="M81.2535 139.32V210.074H35.5664C35.5664 210.074 36.8908 178.515 37.3317 171.004C37.9242 160.91 32.1041 145.207 39.4087 136.779C46.9884 128.031 65.0935 129.865 74.6921 131.515C78.4867 132.167 81.2535 135.468 81.2535 139.32Z" fill="#789AFE"/>
  <path d="M66.849 116.125L67.8393 130.137C75.4911 140.244 52.6462 141.787 53.8255 129.924C54.3665 126.755 54.6323 121.588 54.8589 116.124L66.849 116.125Z" fill="#FC9FAD"/>
  <path d="M67.7489 128.124C67.7489 128.124 63.8683 126.01 62.1133 123.469C60.3583 120.928 67.7489 121.311 67.7489 121.311V128.124Z" fill="#070706"/>
  <path d="M75.1666 107.91C79.3272 115.116 77.1912 122.235 72.66 124.596C67.5102 127.279 61.1164 125.63 56.9568 118.424C52.7962 111.219 52.566 101.406 57.5951 98.5025C62.6233 95.599 71.0061 100.705 75.1666 107.91Z" fill="#FC9FAD"/>
  <path d="M56.4878 110.272C56.4878 110.272 67.0693 103.91 68.1448 97.7185C68.1448 97.7185 59.7105 91.9986 52.8655 98.9765C46.8826 105.074 52.5323 115.425 52.5323 115.425L56.4878 110.272Z" fill="#070706"/>
  <path d="M55.1033 117.644C57.4212 117.644 59.3003 115.765 59.3003 113.447C59.3003 111.129 57.4212 109.25 55.1033 109.25C52.7853 109.25 50.9062 111.129 50.9062 113.447C50.9062 115.765 52.7853 117.644 55.1033 117.644Z" fill="#FC9FAD"/>
  <path d="M54.9675 115.771C54.9058 115.771 54.844 115.768 54.7822 115.759C54.1008 115.671 53.4915 115.128 53.2659 114.408C53.0777 113.808 53.1423 113.104 53.4465 112.427C53.6496 111.976 53.9155 111.647 54.2374 111.451C54.7831 111.119 55.5245 111.151 56.1263 111.532C56.5999 111.831 56.9855 112.332 57.242 112.985C57.2963 113.123 57.228 113.28 57.0894 113.334C56.9528 113.388 56.7946 113.321 56.7403 113.181C56.5906 112.802 56.3135 112.287 55.8389 111.987C55.4149 111.718 54.8842 111.688 54.5182 111.91C54.2908 112.049 54.0961 112.297 53.9379 112.647C53.688 113.204 53.6319 113.772 53.7807 114.246C53.9417 114.761 54.3816 115.163 54.8505 115.223C55.1884 115.269 55.6152 115.106 55.7425 114.76C55.8277 114.53 55.7566 114.247 55.5741 114.084C55.3925 113.921 55.1014 113.883 54.8842 113.994C54.7513 114.06 54.5894 114.008 54.522 113.876C54.4546 113.743 54.508 113.581 54.6399 113.514C55.0536 113.304 55.5853 113.372 55.9325 113.681C56.2798 113.99 56.409 114.511 56.248 114.946C56.0664 115.44 55.5357 115.771 54.9675 115.771Z" fill="#070706"/>
  <path d="M69.5071 118.993C69.1664 118.993 68.8342 118.926 68.5225 118.789C67.9655 118.546 67.228 117.972 66.8798 116.623C66.8423 116.479 66.9294 116.332 67.0735 116.295C67.2149 116.258 67.3646 116.344 67.4021 116.488C67.6351 117.39 68.0966 118.014 68.7387 118.295C69.3246 118.551 70.0116 118.495 70.6771 118.137C70.8072 118.065 70.972 118.115 71.0422 118.246C71.1124 118.377 71.0637 118.541 70.9327 118.611C70.4609 118.865 69.9761 118.993 69.5071 118.993Z" fill="#070706"/>
  <path d="M70.072 114.588C69.9794 114.588 69.8886 114.541 69.8389 114.454C69.7641 114.324 69.8081 114.16 69.9372 114.086C70.1319 113.972 70.3341 113.855 70.4829 113.704C70.6243 113.56 70.7019 113.391 70.6954 113.242C70.6879 113.056 70.5569 112.868 70.3996 112.659L68.7457 110.463C68.6558 110.345 68.6802 110.176 68.7991 110.086C68.917 109.995 69.0864 110.02 69.1763 110.14L70.8302 112.334C70.994 112.552 71.2195 112.85 71.2345 113.22C71.2467 113.521 71.1166 113.826 70.8695 114.079C70.6692 114.284 70.4249 114.426 70.2087 114.551C70.1637 114.577 70.1169 114.588 70.072 114.588Z" fill="#070706"/>
  <path d="M73.0597 107.647C72.9277 108.159 72.3203 108.337 71.7035 108.045C71.0848 107.75 70.6944 107.097 70.8264 106.585C70.9584 106.073 71.5659 105.895 72.1827 106.188C72.7967 106.481 73.1917 107.134 73.0597 107.647Z" fill="#070706"/>
  <path d="M71.7764 104.024C72.3745 104.463 71.2298 104.659 70.5727 105.468C69.8904 106.301 70.0944 107.031 69.7182 107.1C69.3906 107.229 68.7026 106.496 69.0854 105.18C69.4608 103.829 71.1961 103.533 71.7764 104.024Z" fill="#070706"/>
  <path d="M67.6417 111.954C67.5098 112.466 66.9023 112.644 66.2855 112.352C65.6668 112.057 65.2765 111.404 65.4085 110.892C65.5404 110.38 66.1479 110.202 66.7647 110.494C67.3787 110.788 67.7728 111.442 67.6417 111.954Z" fill="#070706"/>
  <path d="M66.1124 108.27C66.7105 108.709 65.5657 108.904 64.9087 109.714C64.2263 110.547 64.4304 111.276 64.0541 111.345C63.7265 111.475 63.0386 110.742 63.4214 109.426C63.7958 108.075 65.5311 107.779 66.1124 108.27Z" fill="#070706"/>
  <path d="M81.2578 166.921C81.109 166.921 80.9883 166.8 80.9883 166.651V151.906C80.9883 151.757 81.109 151.637 81.2578 151.637C81.4067 151.637 81.5274 151.757 81.5274 151.906V166.651C81.5274 166.8 81.4067 166.921 81.2578 166.921Z" fill="#070706"/>
  <path d="M66.7169 166.65C68.9951 168.269 71.5747 185.804 66.1 188.033C66.1 188.033 56.872 184.166 56.9497 183.971C57.0274 183.776 60.2594 170.188 60.2594 170.188L66.7169 166.65Z" fill="#070706"/>
  <path d="M66.0981 188.303C66.0625 188.303 66.027 188.297 65.9942 188.283C65.9708 188.273 63.6598 187.304 61.3872 186.324C56.5518 184.237 56.5715 184.189 56.6978 183.872C56.7942 183.562 59.1118 173.844 59.9963 170.125C60.0141 170.051 60.0618 169.988 60.1292 169.951L66.5867 166.414C66.6765 166.364 66.7879 166.371 66.8722 166.431C68.5092 167.594 70.1557 175.945 69.4649 181.905C69.0624 185.372 67.9336 187.577 66.201 188.283C66.1674 188.297 66.1327 188.303 66.0981 188.303ZM57.2538 183.866C58.1112 184.347 62.9728 186.431 66.0972 187.742C67.9673 186.893 68.6693 184.077 68.9286 181.843C69.6137 175.937 68.0197 168.31 66.6831 166.976L60.4933 170.367C59.7623 173.438 57.632 182.383 57.2538 183.866ZM57.2117 184.028C57.2052 184.05 57.2005 184.065 57.1986 184.072C57.2042 184.057 57.2089 184.042 57.2117 184.028Z" fill="#070706"/>
  <path d="M78.9845 167.948C78.8319 172.996 67.9678 172.545 67.9678 172.545L61.7031 172.319L63.6341 169.564C63.6332 169.564 79.1548 162.26 78.9845 167.948Z" fill="#FC9FAD"/>
  <path d="M72.5227 187.628L82.6802 188.698C84.628 188.903 86.3727 187.491 86.5777 185.543L88.4066 168.171C88.6116 166.223 87.1992 164.478 85.2513 164.273L75.0939 163.203C73.1461 162.998 71.4014 164.411 71.1964 166.359L69.3674 183.731C69.1624 185.679 70.5749 187.423 72.5227 187.628Z" fill="#34CEC3"/>
  <path d="M83.054 189.077C82.9183 189.077 82.7807 189.071 82.6422 189.056L72.4847 187.986C71.4476 187.876 70.5145 187.37 69.8583 186.56C69.2022 185.749 68.9008 184.731 69.0103 183.693L70.8392 166.321C71.0648 164.18 72.9902 162.616 75.1317 162.847L85.2892 163.917C87.4308 164.142 88.9892 166.068 88.7636 168.209L86.9338 185.581C86.7241 187.583 85.0262 189.077 83.054 189.077ZM74.7218 163.543C73.1128 163.543 71.7266 164.762 71.5544 166.396L69.7254 183.768C69.5419 185.516 70.814 187.087 72.5606 187.271L82.718 188.341C84.4712 188.52 86.0361 187.252 86.2205 185.506L88.0504 168.133C88.2339 166.386 86.9619 164.814 85.2153 164.63L75.0578 163.56C74.9445 163.549 74.8322 163.543 74.7218 163.543Z" fill="#070706"/>
  <path d="M62.4062 170.381C62.4062 170.381 77.6752 167.181 79.1747 169.748C79.9328 171.045 79.0277 172.649 79.0277 172.649C79.0277 172.649 81.1468 174.61 79.5528 176.177C79.5528 176.177 81.6251 177.908 80.0583 179.374C80.0583 179.374 82.1016 181.632 78.1105 183.638C74.1184 185.644 64.3082 186.109 64.3082 186.109L62.4062 170.381Z" fill="#FC9FAD"/>
  <path d="M75.0502 173.491C74.9163 173.491 74.8003 173.392 74.7834 173.256C74.7647 173.108 74.8695 172.973 75.0165 172.954L78.9205 172.459C79.0703 172.441 79.2041 172.545 79.2219 172.692C79.2406 172.84 79.1367 172.975 78.9889 172.993L75.0848 173.489C75.0726 173.491 75.0614 173.491 75.0502 173.491Z" fill="#070706"/>
  <path d="M75.7148 177.307C75.5904 177.307 75.478 177.22 75.4509 177.093C75.4209 176.947 75.5145 176.805 75.6596 176.775L79.5852 175.96C79.7312 175.931 79.8735 176.023 79.9034 176.169C79.9334 176.315 79.8398 176.457 79.6947 176.487L75.7691 177.302C75.7513 177.305 75.7336 177.307 75.7148 177.307Z" fill="#070706"/>
  <path d="M76.3317 180.207C76.2016 180.207 76.0865 180.112 76.0659 179.979C76.0425 179.832 76.1426 179.695 76.2905 179.67L80.0055 179.083C80.1553 179.06 80.291 179.16 80.3144 179.308C80.3378 179.456 80.2376 179.593 80.0898 179.617L76.3748 180.204C76.3598 180.206 76.3458 180.207 76.3317 180.207Z" fill="#070706"/>
  <path d="M41.4481 134.859C35.1011 138.047 14.3893 166.683 24.8734 181.285C35.8255 196.539 66.0948 188.034 66.0948 188.034C63.5966 186.632 62.0972 170.486 66.7117 166.652L40.0328 169.656L47.6013 154.965C49.6194 147.637 47.2213 139.803 41.4481 134.859Z" fill="#789AFE"/>
  <path d="M48.0708 190.656C44.1312 190.656 40.0053 190.259 36.2014 189.138C36.0582 189.096 35.9768 188.946 36.0189 188.803C36.061 188.66 36.2117 188.58 36.354 188.621C47.9726 192.046 62.6799 188.629 65.5319 187.904C64.4939 186.706 63.864 183.546 63.6084 180.756C63.1751 176.017 63.5682 169.793 65.97 167.007L40.0615 169.924C39.9604 169.935 39.8659 169.89 39.8097 169.809C39.7535 169.728 39.747 169.621 39.7919 169.533L47.3604 154.841C47.4288 154.709 47.5897 154.657 47.7236 154.725C47.8556 154.794 47.908 154.957 47.8397 155.088L40.5014 169.333L66.6804 166.385C66.8021 166.372 66.9116 166.437 66.9584 166.547C67.0052 166.657 66.9743 166.784 66.8826 166.86C64.3123 168.996 63.6552 175.355 64.1448 180.708C64.4808 184.384 65.3363 187.301 66.2255 187.8C66.321 187.853 66.3743 187.958 66.3612 188.067C66.3481 188.174 66.2714 188.264 66.1665 188.294C66.0477 188.328 57.6059 190.656 48.0708 190.656Z" fill="#070706"/>
  <path d="M49.1088 89.4735C56.1976 89.4735 61.9442 83.7269 61.9442 76.6381C61.9442 69.5493 56.1976 63.8027 49.1088 63.8027C42.02 63.8027 36.2734 69.5493 36.2734 76.6381C36.2734 83.7269 42.02 89.4735 49.1088 89.4735Z" fill="#34CEC3"/>
  <path d="M49.1088 89.7421C41.8829 89.7421 36.0039 83.8631 36.0039 76.6372C36.0039 69.4112 41.8829 63.5322 49.1088 63.5322C56.3348 63.5322 62.2138 69.4112 62.2138 76.6372C62.2138 83.8631 56.3348 89.7421 49.1088 89.7421ZM49.1088 64.0704C42.1796 64.0704 36.5421 69.708 36.5421 76.6372C36.5421 83.5664 42.1796 89.2039 49.1088 89.2039C56.0381 89.2039 61.6756 83.5664 61.6756 76.6372C61.6756 69.708 56.0381 64.0704 49.1088 64.0704Z" fill="#070706"/>
  <path d="M47.4005 81.0542C47.1243 81.0542 46.8492 80.9494 46.6386 80.7388L44.0112 78.1114C43.59 77.6912 43.59 77.0079 44.0112 76.5867C44.4324 76.1655 45.1148 76.1655 45.536 76.5867L47.4014 78.4521L53.3169 72.5366C53.7381 72.1154 54.4205 72.1154 54.8417 72.5366C55.2629 72.9569 55.2629 73.6402 54.8417 74.0614L48.1642 80.7388C47.9527 80.9484 47.6766 81.0542 47.4005 81.0542Z" fill="white"/>
  <path d="M103.512 136.941C103.512 136.941 106.193 134.82 114.176 140.972C119.532 145.101 118.403 147.948 118.403 147.948L111.611 148.681L107.388 147.955L100.359 143.341L103.512 136.941Z" fill="#070706"/>
  <path d="M111.607 148.949C111.591 148.949 111.576 148.947 111.561 148.945L107.338 148.219C107.302 148.212 107.267 148.199 107.236 148.179L100.208 143.565C100.094 143.49 100.053 143.342 100.114 143.221L103.267 136.822C103.284 136.786 103.31 136.755 103.341 136.73C103.457 136.637 106.281 134.548 114.337 140.757C119.792 144.962 118.698 147.921 118.65 148.046C118.613 148.139 118.528 148.204 118.428 148.214L111.636 148.947C111.627 148.949 111.618 148.949 111.607 148.949ZM107.485 147.698L111.616 148.408L118.186 147.699C118.303 147.081 118.427 144.59 114.008 141.184C106.887 135.696 104.092 136.916 103.718 137.127L100.704 143.245L107.485 147.698Z" fill="#070706"/>
  <path d="M108.896 134.593C109.023 137.508 103.273 143.503 103.273 143.503C103.378 143.329 105.104 136.105 104.977 133.19C104.85 130.274 105.962 128.798 107.411 128.735C108.859 128.672 108.768 131.677 108.896 134.593Z" fill="#FC9FAD"/>
  <path d="M103.273 143.503C103.273 143.503 115.968 121.781 118.214 122.977C120.459 124.174 116.431 131.024 116.431 131.024C116.431 131.024 118.757 130.953 118.726 132.755C118.726 132.755 120.896 132.578 120.823 134.307C120.823 134.307 123.275 134.45 122.114 137.859C120.954 141.268 113.256 151.468 113.256 151.468L103.273 143.503Z" fill="#FC9FAD"/>
  <path d="M114.461 133.87C114.403 133.87 114.344 133.851 114.294 133.812C114.177 133.719 114.157 133.55 114.249 133.433L116.213 130.942C116.305 130.825 116.475 130.804 116.591 130.897C116.708 130.989 116.729 131.158 116.636 131.275L114.672 133.767C114.619 133.834 114.54 133.87 114.461 133.87Z" fill="#070706"/>
  <path d="M116.996 135.689C116.945 135.689 116.892 135.674 116.846 135.643C116.723 135.561 116.689 135.393 116.772 135.27L118.569 132.583C118.651 132.459 118.818 132.425 118.942 132.509C119.066 132.591 119.099 132.759 119.016 132.882L117.22 135.569C117.168 135.647 117.083 135.689 116.996 135.689Z" fill="#070706"/>
  <path d="M118.996 137.007C118.941 137.007 118.885 136.99 118.836 136.953C118.716 136.865 118.691 136.696 118.78 136.576L120.583 134.139C120.671 134.02 120.839 133.993 120.961 134.083C121.08 134.171 121.106 134.34 121.017 134.46L119.213 136.897C119.16 136.968 119.078 137.007 118.996 137.007Z" fill="#070706"/>
  <path d="M118.402 147.946C118.402 147.946 105.419 174.295 94.0707 175.307C77.0917 176.825 72.4023 152.028 72.4023 152.028L74.0282 131.403C74.2219 131.443 74.4185 131.485 74.6085 131.527C80.6335 132.914 85.5091 137.328 87.7097 143.101L92.5254 153.772L103.51 136.942C101.097 144.625 110.969 148.68 118.402 147.946Z" fill="#789AFE"/>
  <path d="M92.6276 175.642C86.2019 175.642 80.6964 171.771 76.6369 164.366C73.36 158.387 72.1535 152.14 72.1413 152.078C72.1142 151.932 72.2097 151.79 72.3557 151.762C72.5036 151.736 72.643 151.831 72.6711 151.977C72.716 152.215 77.2332 175.102 92.6163 175.102C93.0843 175.102 93.5617 175.081 94.0503 175.038C104.33 174.121 116.205 151.657 117.946 148.254C113.31 148.579 107.335 147.104 104.46 143.566C102.898 141.644 102.482 139.326 103.257 136.86C103.301 136.719 103.452 136.638 103.595 136.683C103.737 136.728 103.816 136.88 103.772 137.021C103.043 139.338 103.416 141.425 104.879 143.225C107.736 146.741 113.835 148.126 118.379 147.677C118.478 147.663 118.571 147.71 118.627 147.792C118.683 147.872 118.69 147.976 118.647 148.064C118.115 149.145 105.467 174.56 94.0989 175.575C93.6029 175.62 93.1124 175.642 92.6276 175.642Z" fill="#070706"/>
  <path d="M92.53 154.042C92.5235 154.042 92.516 154.042 92.5094 154.041C92.4112 154.034 92.325 153.973 92.2848 153.883L87.4691 143.212C87.4082 143.077 87.4681 142.917 87.6039 142.856C87.7396 142.795 87.8987 142.855 87.9605 142.991L92.574 153.213L103.289 136.794C103.371 136.67 103.537 136.634 103.662 136.716C103.786 136.797 103.822 136.964 103.741 137.089L92.7556 153.919C92.706 153.996 92.6208 154.042 92.53 154.042Z" fill="#070706"/>
  <path d="M52.3276 119.475C50.1402 122.332 46.5956 123.714 43.3196 125.204C40.0445 126.694 36.629 128.683 35.3261 132.038C34.0569 135.305 35.2466 139.205 37.7232 141.685C40.2008 144.166 43.7511 145.356 47.2508 145.56C50.7505 145.764 54.2389 145.069 57.6422 144.228C61.2842 143.33 65.0722 142.151 67.6266 139.405C70.8876 135.9 71.3893 130.528 70.2511 125.878C69.1972 121.574 66.8169 117.64 63.6158 114.592C61.9974 113.05 60.1648 111.731 58.1814 110.7C56.475 109.813 53.8823 108.612 54.0976 111.67C54.2979 114.524 54.15 117.094 52.3276 119.475Z" fill="#070706"/>
  <path d="M81.2535 139.32V210.074H35.5664C35.5664 210.074 36.8908 178.515 37.3317 171.004C37.9242 160.91 32.1041 145.207 39.4087 136.779C46.9884 128.031 65.0935 129.865 74.6921 131.515C78.4867 132.167 81.2535 135.468 81.2535 139.32Z" fill="#789AFE"/>
  <path d="M66.849 116.125L67.8393 130.137C75.4911 140.244 52.6462 141.787 53.8255 129.924C54.3665 126.755 54.6323 121.588 54.8589 116.124L66.849 116.125Z" fill="#FC9FAD"/>
  <path d="M67.7489 128.124C67.7489 128.124 63.8683 126.01 62.1133 123.469C60.3583 120.928 67.7489 121.311 67.7489 121.311V128.124Z" fill="#070706"/>
  <path d="M75.1666 107.91C79.3272 115.116 77.1912 122.235 72.66 124.596C67.5102 127.279 61.1164 125.63 56.9568 118.424C52.7962 111.219 52.566 101.406 57.5951 98.5025C62.6233 95.599 71.0061 100.705 75.1666 107.91Z" fill="#FC9FAD"/>
  <path d="M56.4878 110.272C56.4878 110.272 67.0693 103.91 68.1448 97.7185C68.1448 97.7185 59.7105 91.9986 52.8655 98.9765C46.8826 105.074 52.5323 115.425 52.5323 115.425L56.4878 110.272Z" fill="#070706"/>
  <path d="M55.1033 117.644C57.4212 117.644 59.3003 115.765 59.3003 113.447C59.3003 111.129 57.4212 109.25 55.1033 109.25C52.7853 109.25 50.9062 111.129 50.9062 113.447C50.9062 115.765 52.7853 117.644 55.1033 117.644Z" fill="#FC9FAD"/>
  <path d="M54.9675 115.771C54.9058 115.771 54.844 115.768 54.7822 115.759C54.1008 115.671 53.4915 115.128 53.2659 114.408C53.0777 113.808 53.1423 113.104 53.4465 112.427C53.6496 111.976 53.9155 111.647 54.2374 111.451C54.7831 111.119 55.5245 111.151 56.1263 111.532C56.5999 111.831 56.9855 112.332 57.242 112.985C57.2963 113.123 57.228 113.28 57.0894 113.334C56.9528 113.388 56.7946 113.321 56.7403 113.181C56.5906 112.802 56.3135 112.287 55.8389 111.987C55.4149 111.718 54.8842 111.688 54.5182 111.91C54.2908 112.049 54.0961 112.297 53.9379 112.647C53.688 113.204 53.6319 113.772 53.7807 114.246C53.9417 114.761 54.3816 115.163 54.8505 115.223C55.1884 115.269 55.6152 115.106 55.7425 114.76C55.8277 114.53 55.7566 114.247 55.5741 114.084C55.3925 113.921 55.1014 113.883 54.8842 113.994C54.7513 114.06 54.5894 114.008 54.522 113.876C54.4546 113.743 54.508 113.581 54.6399 113.514C55.0536 113.304 55.5853 113.372 55.9325 113.681C56.2798 113.99 56.409 114.511 56.248 114.946C56.0664 115.44 55.5357 115.771 54.9675 115.771Z" fill="#070706"/>
  <path d="M69.5071 118.993C69.1664 118.993 68.8342 118.926 68.5225 118.789C67.9655 118.546 67.228 117.972 66.8798 116.623C66.8423 116.479 66.9294 116.332 67.0735 116.295C67.2149 116.258 67.3646 116.344 67.4021 116.488C67.6351 117.39 68.0966 118.014 68.7387 118.295C69.3246 118.551 70.0116 118.495 70.6771 118.137C70.8072 118.065 70.972 118.115 71.0422 118.246C71.1124 118.377 71.0637 118.541 70.9327 118.611C70.4609 118.865 69.9761 118.993 69.5071 118.993Z" fill="#070706"/>
  <path d="M70.072 114.588C69.9794 114.588 69.8886 114.541 69.8389 114.454C69.7641 114.324 69.8081 114.16 69.9372 114.086C70.1319 113.972 70.3341 113.855 70.4829 113.704C70.6243 113.56 70.7019 113.391 70.6954 113.242C70.6879 113.056 70.5569 112.868 70.3996 112.659L68.7457 110.463C68.6558 110.345 68.6802 110.176 68.7991 110.086C68.917 109.995 69.0864 110.02 69.1763 110.14L70.8302 112.334C70.994 112.552 71.2195 112.85 71.2345 113.22C71.2467 113.521 71.1166 113.826 70.8695 114.079C70.6692 114.284 70.4249 114.426 70.2087 114.551C70.1637 114.577 70.1169 114.588 70.072 114.588Z" fill="#070706"/>
  <path d="M73.0597 107.647C72.9277 108.159 72.3203 108.337 71.7035 108.045C71.0848 107.75 70.6944 107.097 70.8264 106.585C70.9584 106.073 71.5659 105.895 72.1827 106.188C72.7967 106.481 73.1917 107.134 73.0597 107.647Z" fill="#070706"/>
  <path d="M71.7764 104.024C72.3745 104.463 71.2298 104.659 70.5727 105.468C69.8904 106.301 70.0944 107.031 69.7182 107.1C69.3906 107.229 68.7026 106.496 69.0854 105.18C69.4608 103.829 71.1961 103.533 71.7764 104.024Z" fill="#070706"/>
  <path d="M67.6417 111.954C67.5098 112.466 66.9023 112.644 66.2855 112.352C65.6668 112.057 65.2765 111.404 65.4085 110.892C65.5404 110.38 66.1479 110.202 66.7647 110.494C67.3787 110.788 67.7728 111.442 67.6417 111.954Z" fill="#070706"/>
  <path d="M66.1124 108.27C66.7105 108.709 65.5657 108.904 64.9087 109.714C64.2263 110.547 64.4304 111.276 64.0541 111.345C63.7265 111.475 63.0386 110.742 63.4214 109.426C63.7958 108.075 65.5311 107.779 66.1124 108.27Z" fill="#070706"/>
  <path d="M81.2578 166.921C81.109 166.921 80.9883 166.8 80.9883 166.651V151.906C80.9883 151.757 81.109 151.637 81.2578 151.637C81.4067 151.637 81.5274 151.757 81.5274 151.906V166.651C81.5274 166.8 81.4067 166.921 81.2578 166.921Z" fill="#070706"/>
  <path d="M66.7169 166.65C68.9951 168.269 71.5747 185.804 66.1 188.033C66.1 188.033 56.872 184.166 56.9497 183.971C57.0274 183.776 60.2594 170.188 60.2594 170.188L66.7169 166.65Z" fill="#070706"/>
  <path d="M66.0981 188.303C66.0625 188.303 66.027 188.297 65.9942 188.283C65.9708 188.273 63.6598 187.304 61.3872 186.324C56.5518 184.237 56.5715 184.189 56.6978 183.872C56.7942 183.562 59.1118 173.844 59.9963 170.125C60.0141 170.051 60.0618 169.988 60.1292 169.951L66.5867 166.414C66.6765 166.364 66.7879 166.371 66.8722 166.431C68.5092 167.594 70.1557 175.945 69.4649 181.905C69.0624 185.372 67.9336 187.577 66.201 188.283C66.1674 188.297 66.1327 188.303 66.0981 188.303ZM57.2538 183.866C58.1112 184.347 62.9728 186.431 66.0972 187.742C67.9673 186.893 68.6693 184.077 68.9286 181.843C69.6137 175.937 68.0197 168.31 66.6831 166.976L60.4933 170.367C59.7623 173.438 57.632 182.383 57.2538 183.866ZM57.2117 184.028C57.2052 184.05 57.2005 184.065 57.1986 184.072C57.2042 184.057 57.2089 184.042 57.2117 184.028Z" fill="#070706"/>
  <path d="M78.9845 167.948C78.8319 172.996 67.9678 172.545 67.9678 172.545L61.7031 172.319L63.6341 169.564C63.6332 169.564 79.1548 162.26 78.9845 167.948Z" fill="#FC9FAD"/>
  <path d="M72.5227 187.628L82.6802 188.698C84.628 188.903 86.3727 187.491 86.5777 185.543L88.4066 168.171C88.6116 166.223 87.1992 164.478 85.2513 164.273L75.0939 163.203C73.1461 162.998 71.4014 164.411 71.1964 166.359L69.3674 183.731C69.1624 185.679 70.5749 187.423 72.5227 187.628Z" fill="#34CEC3"/>
  <path d="M83.054 189.077C82.9183 189.077 82.7807 189.071 82.6422 189.056L72.4847 187.986C71.4476 187.876 70.5145 187.37 69.8583 186.56C69.2022 185.749 68.9008 184.731 69.0103 183.693L70.8392 166.321C71.0648 164.18 72.9902 162.616 75.1317 162.847L85.2892 163.917C87.4308 164.142 88.9892 166.068 88.7636 168.209L86.9338 185.581C86.7241 187.583 85.0262 189.077 83.054 189.077ZM74.7218 163.543C73.1128 163.543 71.7266 164.762 71.5544 166.396L69.7254 183.768C69.5419 185.516 70.814 187.087 72.5606 187.271L82.718 188.341C84.4712 188.52 86.0361 187.252 86.2205 185.506L88.0504 168.133C88.2339 166.386 86.9619 164.814 85.2153 164.63L75.0578 163.56C74.9445 163.549 74.8322 163.543 74.7218 163.543Z" fill="#070706"/>
  <path d="M62.4062 170.381C62.4062 170.381 77.6752 167.181 79.1747 169.748C79.9328 171.045 79.0277 172.649 79.0277 172.649C79.0277 172.649 81.1468 174.61 79.5528 176.177C79.5528 176.177 81.6251 177.908 80.0583 179.374C80.0583 179.374 82.1016 181.632 78.1105 183.638C74.1184 185.644 64.3082 186.109 64.3082 186.109L62.4062 170.381Z" fill="#FC9FAD"/>
  <path d="M75.0502 173.491C74.9163 173.491 74.8003 173.392 74.7834 173.256C74.7647 173.108 74.8695 172.973 75.0165 172.954L78.9205 172.459C79.0703 172.441 79.2041 172.545 79.2219 172.692C79.2406 172.84 79.1367 172.975 78.9889 172.993L75.0848 173.489C75.0726 173.491 75.0614 173.491 75.0502 173.491Z" fill="#070706"/>
  <path d="M75.7148 177.307C75.5904 177.307 75.478 177.22 75.4509 177.093C75.4209 176.947 75.5145 176.805 75.6596 176.775L79.5852 175.96C79.7312 175.931 79.8735 176.023 79.9034 176.169C79.9334 176.315 79.8398 176.457 79.6947 176.487L75.7691 177.302C75.7513 177.305 75.7336 177.307 75.7148 177.307Z" fill="#070706"/>
  <path d="M76.3317 180.207C76.2016 180.207 76.0865 180.112 76.0659 179.979C76.0425 179.832 76.1426 179.695 76.2905 179.67L80.0055 179.083C80.1553 179.06 80.291 179.16 80.3144 179.308C80.3378 179.456 80.2376 179.593 80.0898 179.617L76.3748 180.204C76.3598 180.206 76.3458 180.207 76.3317 180.207Z" fill="#070706"/>
  <path d="M41.4481 134.859C35.1011 138.047 14.3893 166.683 24.8734 181.285C35.8255 196.539 66.0948 188.034 66.0948 188.034C63.5966 186.632 62.0972 170.486 66.7117 166.652L40.0328 169.656L47.6013 154.965C49.6194 147.637 47.2213 139.803 41.4481 134.859Z" fill="#789AFE"/>
  <path d="M48.0708 190.656C44.1312 190.656 40.0053 190.259 36.2014 189.138C36.0582 189.096 35.9768 188.946 36.0189 188.803C36.061 188.66 36.2117 188.58 36.354 188.621C47.9726 192.046 62.6799 188.629 65.5319 187.904C64.4939 186.706 63.864 183.546 63.6084 180.756C63.1751 176.017 63.5682 169.793 65.97 167.007L40.0615 169.924C39.9604 169.935 39.8659 169.89 39.8097 169.809C39.7535 169.728 39.747 169.621 39.7919 169.533L47.3604 154.841C47.4288 154.709 47.5897 154.657 47.7236 154.725C47.8556 154.794 47.908 154.957 47.8397 155.088L40.5014 169.333L66.6804 166.385C66.8021 166.372 66.9116 166.437 66.9584 166.547C67.0052 166.657 66.9743 166.784 66.8826 166.86C64.3123 168.996 63.6552 175.355 64.1448 180.708C64.4808 184.384 65.3363 187.301 66.2255 187.8C66.321 187.853 66.3743 187.958 66.3612 188.067C66.3481 188.174 66.2714 188.264 66.1665 188.294C66.0477 188.328 57.6059 190.656 48.0708 190.656Z" fill="#070706"/>
  <path d="M49.7078 181.271C48.5743 181.271 47.6523 180.349 47.6523 179.216C47.6523 178.082 48.5743 177.16 49.7078 177.16C50.8413 177.16 51.7633 178.082 51.7633 179.216C51.7633 180.349 50.8404 181.271 49.7078 181.271ZM49.7078 177.699C48.872 177.699 48.1915 178.38 48.1915 179.216C48.1915 180.051 48.872 180.732 49.7078 180.732C50.5436 180.732 51.2241 180.051 51.2241 179.216C51.2241 178.38 50.5436 177.699 49.7078 177.699Z" fill="white"/>
  <path d="M27.8777 174.144C25.9486 174.144 24.3789 172.574 24.3789 170.645C24.3789 168.716 25.9486 167.146 27.8777 167.146C29.8077 167.146 31.3764 168.716 31.3764 170.645C31.3764 172.574 29.8068 174.144 27.8777 174.144ZM27.8777 167.685C26.2453 167.685 24.918 169.013 24.918 170.645C24.918 172.278 26.2462 173.606 27.8777 173.606C29.5101 173.606 30.8382 172.278 30.8382 170.645C30.8382 169.013 29.5101 167.685 27.8777 167.685Z" fill="white"/>
  <path d="M37.9461 152.861C36.8744 152.861 36.0039 151.99 36.0039 150.919C36.0039 149.847 36.8753 148.977 37.9461 148.977C39.0169 148.977 39.8883 149.848 39.8883 150.919C39.8883 151.99 39.0169 152.861 37.9461 152.861ZM37.9461 149.515C37.172 149.515 36.5421 150.145 36.5421 150.919C36.5421 151.693 37.172 152.322 37.9461 152.322C38.7202 152.322 39.3492 151.692 39.3492 150.919C39.3492 150.145 38.7192 149.515 37.9461 149.515Z" fill="white"/>
  <path d="M65.9819 159.317C64.2737 159.317 62.8828 157.927 62.8828 156.218C62.8828 154.509 64.2728 153.119 65.9819 153.119C67.691 153.119 69.081 154.509 69.081 156.218C69.081 157.927 67.6901 159.317 65.9819 159.317ZM65.9819 153.658C64.5704 153.658 63.4219 154.807 63.4219 156.218C63.4219 157.63 64.5704 158.778 65.9819 158.778C67.3934 158.778 68.5419 157.63 68.5419 156.218C68.5419 154.807 67.3934 153.658 65.9819 153.658Z" fill="white"/>
  <path d="M36.758 182.297C35.9521 182.297 35.2969 181.642 35.2969 180.836C35.2969 180.03 35.9521 179.375 36.758 179.375C37.5639 179.375 38.2191 180.03 38.2191 180.836C38.22 181.642 37.5639 182.297 36.758 182.297ZM36.758 179.914C36.2497 179.914 35.836 180.328 35.836 180.836C35.836 181.345 36.2497 181.759 36.758 181.759C37.2672 181.759 37.6809 181.345 37.6809 180.836C37.6809 180.328 37.2672 179.914 36.758 179.914Z" fill="white"/>
  <path d="M53.3522 145.648C52.1803 145.648 51.2266 144.694 51.2266 143.522C51.2266 142.35 52.1803 141.396 53.3522 141.396C54.5241 141.396 55.4779 142.35 55.4779 143.522C55.4769 144.695 54.5241 145.648 53.3522 145.648ZM53.3522 141.936C52.4771 141.936 51.7657 142.648 51.7657 143.522C51.7657 144.397 52.478 145.109 53.3522 145.109C54.2274 145.109 54.9387 144.397 54.9387 143.522C54.9378 142.648 54.2264 141.936 53.3522 141.936Z" fill="white"/>
  <path d="M70.9455 200.437C69.6183 200.437 68.5391 199.357 68.5391 198.03C68.5391 196.703 69.6192 195.624 70.9455 195.624C72.2718 195.624 73.352 196.704 73.352 198.03C73.3529 199.358 72.2728 200.437 70.9455 200.437ZM70.9455 196.162C69.9159 196.162 69.0773 197 69.0773 198.03C69.0773 199.06 69.915 199.899 70.9455 199.899C71.9751 199.899 72.8138 199.061 72.8138 198.03C72.8138 197 71.9751 196.162 70.9455 196.162Z" fill="white"/>
  <path d="M54.9537 204.546C52.8983 204.546 51.2266 202.874 51.2266 200.819C51.2266 198.763 52.8983 197.092 54.9537 197.092C57.0092 197.092 58.6809 198.763 58.6809 200.819C58.6809 202.874 57.0092 204.546 54.9537 204.546ZM54.9537 197.63C53.195 197.63 51.7648 199.06 51.7648 200.819C51.7648 202.578 53.195 204.008 54.9537 204.008C56.7125 204.008 58.1427 202.578 58.1427 200.819C58.1427 199.06 56.7115 197.63 54.9537 197.63Z" fill="white"/>
  <path d="M99.8898 164.726C98.3136 164.726 97.0312 163.444 97.0312 161.867C97.0312 160.291 98.3136 159.009 99.8898 159.009C101.466 159.009 102.748 160.291 102.748 161.867C102.748 163.444 101.466 164.726 99.8898 164.726ZM99.8898 159.548C98.6112 159.548 97.5704 160.589 97.5704 161.867C97.5704 163.146 98.6112 164.187 99.8898 164.187C101.168 164.187 102.209 163.146 102.209 161.867C102.209 160.589 101.169 159.548 99.8898 159.548Z" fill="white"/>
  <path d="M88.8681 157.01C87.5755 157.01 86.5234 155.958 86.5234 154.665C86.5234 153.372 87.5755 152.32 88.8681 152.32C90.1607 152.32 91.2128 153.372 91.2128 154.665C91.2119 155.959 90.1607 157.01 88.8681 157.01ZM88.8681 152.86C87.8722 152.86 87.0626 153.67 87.0626 154.666C87.0626 155.662 87.8722 156.471 88.8681 156.471C89.864 156.471 90.6737 155.662 90.6737 154.666C90.6737 153.67 89.8631 152.86 88.8681 152.86Z" fill="white"/>
</svg>