<svg xmlns="http://www.w3.org/2000/svg" width="53" height="30" viewBox="0 0 53 30" fill="none">
  <path d="M11.4681 29.1408C10.8368 29.6762 9.8881 29.5994 9.34916 28.9694L0.566537 18.7024C0.0275938 18.0723 0.102469 17.1276 0.733778 16.5922C1.36508 16.0568 2.31377 16.1336 2.85271 16.7636L10.6595 25.8898L19.8042 18.1348C20.4355 17.5994 21.3842 17.6761 21.9231 18.3062C22.462 18.9362 22.3872 19.881 21.7559 20.4163L11.4681 29.1408ZM51.4333 5.58273C45.3237 3.43962 35.8808 2.47429 27.7837 5.35925C23.7631 6.79176 20.0994 9.16274 17.3061 12.7904C14.5139 16.4165 12.5244 21.3851 11.9906 28.1212L8.99393 27.8788C9.56584 20.6627 11.7204 15.1193 14.9193 10.9649C18.1171 6.81197 22.2918 4.13384 26.7655 2.53987C35.657 -0.628121 45.8271 0.444173 52.426 2.75894L51.4333 5.58273Z" fill="#222222"/>
</svg>