<svg xmlns="http://www.w3.org/2000/svg" width="21" height="21" viewBox="0 0 21 21" fill="none">
  <path d="M0.224963 8.46093C0.174573 8.76304 0.124181 9.01479 0.0737905 9.3169C-0.178161 11.3813 0.224964 13.4457 1.13199 15.208C2.29096 17.5242 4.30657 19.3872 6.87647 20.3439C7.38038 20.5453 7.93467 20.6963 8.43858 20.797C9.89989 21.0991 11.3108 21.0488 12.6714 20.7467C14.6366 20.3439 16.4002 19.3872 17.8112 17.9773C19.2725 16.5675 20.3307 14.7045 20.7842 12.5394C20.885 11.9855 20.9857 11.3813 20.9857 10.8274C21.0361 10.0218 20.9354 9.2162 20.7842 8.41058C20.1795 5.28879 18.1135 2.62017 15.2917 1.15998C14.435 0.757165 13.528 0.404708 12.5706 0.203302C11.9659 0.1026 11.3612 0.00189212 10.8069 0.00189212C8.08584 -0.0484593 5.56633 0.908223 3.60111 2.62017C1.93823 4.13071 0.728865 6.09441 0.224963 8.46093Z" fill="#D9C4A0"/>
  <path d="M13.1238 4.78516L17.0038 9.01468L14.2324 13.9995L8.63905 12.8917L7.93359 7.20202L13.1238 4.78516Z" fill="#2C2F3F"/>
  <path d="M0.225391 8.46131C0.175001 8.76342 0.124609 9.01517 0.0742188 9.31728L0.426957 9.56904L4.81091 5.94374L3.50076 2.6709C1.93866 4.13109 0.729294 6.09479 0.225391 8.46131Z" fill="#2C2F3F"/>
  <path d="M20.0781 9.11507L20.9859 10.827C21.0363 10.0214 20.9354 9.21578 20.7842 8.41016L20.0781 9.11507Z" fill="#2C2F3F"/>
  <path d="M10.7578 0.0527344L13.3781 2.31855L15.2929 1.16046C14.4363 0.757652 13.5293 0.405196 12.5719 0.20379C11.9672 0.103087 11.3625 0.0527344 10.7578 0.0527344Z" fill="#2C2F3F"/>
  <path d="M1.13281 15.208C2.29179 17.5242 4.3074 19.3872 6.8773 20.3438L5.81911 15.6612L1.13281 15.208Z" fill="#2C2F3F"/>
  <path d="M12.7227 20.7468C14.6879 20.344 16.4515 19.3873 17.8625 17.9775L15.2422 17.1719L12.7227 20.7468Z" fill="#2C2F3F"/>
  <path d="M14.1831 13.2943C14.5863 14.7041 14.9894 16.114 15.3925 17.5238C15.4429 17.7756 15.0902 17.8762 15.0398 17.6245C14.6367 16.2146 14.2335 14.8048 13.8304 13.395C13.7296 13.1432 14.0824 13.0425 14.1831 13.2943Z" fill="#2C2F3F"/>
  <path d="M16.653 8.8125C17.9127 8.9132 19.1725 8.96355 20.4322 9.06426C20.6842 9.06426 20.5834 9.46707 20.3819 9.46707C19.1221 9.36637 17.8623 9.31602 16.6026 9.21531C16.3506 9.21531 16.4514 8.8125 16.653 8.8125Z" fill="#2C2F3F"/>
  <path d="M13.5768 1.86431C13.4759 3.12309 13.3246 4.33152 13.2238 5.59031C13.2238 5.84207 12.8203 5.74136 12.8203 5.53995C12.9212 4.28117 13.0725 3.07274 13.1733 1.81395C13.2238 1.5622 13.5768 1.61255 13.5768 1.86431Z" fill="#2C2F3F"/>
  <path d="M3.90354 5.48966C5.51603 6.04352 7.12851 6.59739 8.79139 7.15126C9.04334 7.25196 8.94257 7.60441 8.74101 7.55406C7.12852 7.0002 5.51602 6.44634 3.85314 5.89247C3.60119 5.79177 3.65159 5.38896 3.90354 5.48966Z" fill="#2C2F3F"/>
  <path d="M8.99274 12.5903C7.78337 13.6981 6.67479 14.8561 5.5662 16.0646C5.41503 16.266 5.11269 16.0142 5.26386 15.8128C6.37244 14.6044 7.48103 13.4463 8.69039 12.3386C8.89196 12.1875 9.1943 12.4393 8.99274 12.5903Z" fill="#2C2F3F"/>
</svg>