<svg width="20" height="20" viewBox="0 0 20 20" fill="none" xmlns="http://www.w3.org/2000/svg">
<g clip-path="url(#clip0_4226_17631)">
<path d="M19.7785 5.47615C19.7747 5.47296 19.7696 5.47042 19.767 5.46724C19.5952 5.29794 19.3572 5.23111 19.137 5.26739L16.5899 5.30049C16.187 5.30621 15.8649 5.63653 15.87 6.03941C15.8751 6.44101 16.18 6.74079 16.6083 6.75861L17.4612 6.74779L16.2131 7.99588C15.471 7.44852 14.5774 7.15257 13.6373 7.15257C12.4752 7.15257 11.3824 7.60509 10.5607 8.42676C8.86518 10.1229 8.86518 12.8832 10.5607 14.5794C11.3824 15.401 12.4752 15.8536 13.6373 15.8536C14.7989 15.8536 15.8923 15.401 16.714 14.5794C18.216 13.0761 18.3898 10.7384 17.2301 9.04476L18.5406 7.73811V8.69216C18.5406 9.09504 18.8677 9.4209 19.27 9.4209C19.6741 9.4209 19.9993 9.0944 19.9993 8.69216V5.99359C19.9993 5.8001 19.9172 5.61299 19.7785 5.47615ZM15.6829 13.5483C14.5907 14.6405 12.6858 14.6405 11.5924 13.5483C10.4646 12.4212 10.4646 10.5856 11.5924 9.45782C12.1391 8.91174 12.8653 8.61069 13.638 8.61069C14.4113 8.61069 15.1362 8.91174 15.6842 9.45782C16.8113 10.585 16.8113 12.4212 15.6829 13.5483Z" fill="#AAAAAA"/>
<path d="M4.35272 3.52539C1.95328 3.52539 0 5.47677 0 7.87621C0 10.002 1.53704 11.7764 3.54888 12.1538V13.4687H2.40835C2.00547 13.4687 1.67961 13.7959 1.67961 14.1981C1.67961 14.6004 2.00547 14.9275 2.40835 14.9275H3.54888V15.7466C3.54888 16.1495 3.87602 16.476 4.2789 16.476C4.68177 16.476 5.00955 16.1482 5.00955 15.7466V14.9275H6.20736C6.61023 14.9275 6.93674 14.5991 6.93674 14.1981C6.93674 13.794 6.61023 13.4687 6.20736 13.4687H5.00955V12.1774C7.10412 11.8591 8.7029 10.0516 8.7029 7.87621C8.7029 5.47677 6.75216 3.52539 4.35272 3.52539ZM4.35272 10.7676C2.75713 10.7676 1.46003 9.46989 1.46003 7.87493C1.46003 6.27997 2.75713 4.98224 4.35272 4.98224C5.94705 4.98224 7.24478 6.27997 7.24478 7.87493C7.24478 9.46989 5.94768 10.7676 4.35272 10.7676Z" fill="#AAAAAA"/>
</g>
<defs>
<clipPath id="clip0_4226_17631">
<rect width="20.0006" height="20" fill="white"/>
</clipPath>
</defs>
</svg>
