<svg xmlns="http://www.w3.org/2000/svg" width="191" height="101" viewBox="0 0 191 101" fill="none">
  <path d="M63.0402 59.5908H56.6719V62.1927H63.0402V59.5908Z" fill="#CCCCCC"/>
  <path d="M57.4941 59.001H57.0234V62.4702H57.4941V59.001Z" fill="#ACB6BF"/>
  <path d="M58.6191 59.001H58.1484V62.4702H58.6191V59.001Z" fill="#ACB6BF"/>
  <path d="M60.0956 59.001H59.625V62.4702H60.0956V59.001Z" fill="#ACB6BF"/>
  <path d="M61.5644 59.001H61.0938V62.4702H61.5644V59.001Z" fill="#ACB6BF"/>
  <path d="M62.6894 59.001H62.2188V62.4702H62.6894V59.001Z" fill="#ACB6BF"/>
  <path opacity="0.4" d="M63.0402 59.2598H56.6719V60.1783H63.0402V59.2598Z" fill="#3E3E44"/>
  <path d="M63.7793 58.8875C63.7269 58.5902 63.6425 58.3044 63.529 58.0336C63.4431 57.8286 63.2441 57.6943 63.0233 57.6943H56.687C56.4663 57.6943 56.2668 57.8286 56.1813 58.0336C56.0678 58.3044 55.983 58.5906 55.9311 58.8875C55.8669 59.2537 56.1469 59.5907 56.5163 59.5907H63.1944C63.563 59.5907 63.8434 59.2537 63.7793 58.8875Z" fill="#ACB6BF"/>
  <path d="M66.5228 64.2083H53.1914C53.3125 64.0029 53.4634 63.8056 53.6395 63.6171C53.6689 63.5852 53.7018 63.5513 53.7312 63.5198C53.8855 63.3651 54.0582 63.2147 54.2453 63.0747C54.9322 62.5554 55.8284 62.1338 56.864 61.8542C57.7746 61.6084 58.7847 61.4707 59.8573 61.4707C60.9296 61.4707 61.9434 61.6084 62.8541 61.8542C63.8863 62.1338 64.7821 62.5554 65.4689 63.0747C65.6561 63.2144 65.8287 63.3651 65.9831 63.5198C66.0125 63.5517 66.0453 63.5856 66.0747 63.6171C66.2512 63.8056 66.4017 64.0025 66.5228 64.2083Z" fill="#ACB6BF"/>
  <path d="M68.6704 65.3795H51.0503C50.8284 65.3795 50.6484 65.1983 50.6484 64.9749V63.7836C50.6484 63.5601 50.8284 63.3789 51.0503 63.3789H68.6704C68.8924 63.3789 69.0723 63.5601 69.0723 63.7836V64.9749C69.0719 65.1983 68.8924 65.3795 68.6704 65.3795Z" fill="#54545B"/>
  <path d="M69.9452 65.1943H49.7695V88.1731H69.9452V65.1943Z" fill="#B1BAC3"/>
  <path d="M69.9452 68.9795H49.7695V80.0065H69.9452V68.9795Z" fill="#ACB6BF"/>
  <path d="M69.9452 66.292H49.7695V67.2636H69.9452V66.292Z" fill="#ACB6BF"/>
  <path d="M69.9914 66.7786H49.721C49.4887 66.7786 49.3008 66.5889 49.3008 66.3554V65.2014C49.3008 64.9676 49.4891 64.7783 49.721 64.7783H69.9914C70.2237 64.7783 70.4116 64.968 70.4116 65.2014V66.3554C70.412 66.5893 70.2237 66.7786 69.9914 66.7786Z" fill="#54545B"/>
  <path d="M70.1492 68.9793H49.5636C49.4184 68.9793 49.3008 68.8608 49.3008 68.7146V68.4619C49.3008 68.3157 49.4184 68.1973 49.5636 68.1973H70.1492C70.2944 68.1973 70.412 68.3157 70.412 68.4619V68.7146C70.412 68.8608 70.2944 68.9793 70.1492 68.9793Z" fill="#54545B"/>
  <path d="M69.9452 80.7168H49.7695V81.0222H69.9452V80.7168Z" fill="#D2D2DB"/>
  <path d="M69.9452 81.4863H49.7695V81.7918H69.9452V81.4863Z" fill="#D2D2DB"/>
  <path d="M69.9452 82.2549H49.7695V82.5603H69.9452V82.2549Z" fill="#D2D2DB"/>
  <path d="M69.9452 83.0244H49.7695V83.3298H69.9452V83.0244Z" fill="#D2D2DB"/>
  <path d="M69.9452 83.793H49.7695V84.0984H69.9452V83.793Z" fill="#D2D2DB"/>
  <path d="M69.9452 84.5625H49.7695V84.8679H69.9452V84.5625Z" fill="#D2D2DB"/>
  <path d="M69.9452 85.3311H49.7695V85.6365H69.9452V85.3311Z" fill="#D2D2DB"/>
  <path d="M69.9452 86.1006H49.7695V86.406H69.9452V86.1006Z" fill="#D2D2DB"/>
  <path d="M69.9452 86.8691H49.7695V87.1746H69.9452V86.8691Z" fill="#D2D2DB"/>
  <path d="M69.9452 87.6387H49.7695V87.9441H69.9452V87.6387Z" fill="#D2D2DB"/>
  <path d="M55.3798 70.498H53.3086V78.5982H55.3798V70.498Z" fill="#CCCCCC"/>
  <path d="M55.2319 81.499H53.4609V84.739H55.2319V81.499Z" fill="#052A45"/>
  <path d="M60.6337 70.498H58.5625V78.5982H60.6337V70.498Z" fill="#CCCCCC"/>
  <path d="M60.4819 81.499H58.7109V84.739H60.4819V81.499Z" fill="#052A45"/>
  <path d="M65.8837 70.498H63.8125V78.5982H65.8837V70.498Z" fill="#CCCCCC"/>
  <path d="M65.7319 81.499H63.9609V84.739H65.7319V81.499Z" fill="#052A45"/>
  <path opacity="0.4" d="M71.7801 63.3789H64.707V88.1729H71.7801V63.3789Z" fill="#3E3E44"/>
  <path opacity="0.4" d="M54.5887 63.3789H47.5156V88.1729H54.5887V63.3789Z" fill="#3E3E44"/>
  <path d="M51.0559 62.6564H11.2194C10.9688 62.6564 10.7656 62.4517 10.7656 62.1994V60.8535C10.7656 60.6011 10.9688 60.3965 11.2194 60.3965H51.0559C51.3065 60.3965 51.5097 60.6011 51.5097 60.8535V62.1994C51.5097 62.4517 51.3065 62.6564 51.0559 62.6564Z" fill="#54545B"/>
  <path d="M52.5045 62.4473H9.78125V88.1733H52.5045V62.4473Z" fill="#B1BAC3"/>
  <path d="M52.5045 66.7236H9.78125V79.1808H52.5045V66.7236Z" fill="#ACB6BF"/>
  <path d="M52.5045 63.6875H9.78125V64.7853H52.5045V63.6875Z" fill="#ACB6BF"/>
  <path d="M52.7327 66.724H9.54681C9.38294 66.724 9.25 66.5901 9.25 66.4251V66.1397C9.25 65.9747 9.38294 65.8408 9.54681 65.8408H52.7327C52.8966 65.8408 53.0295 65.9747 53.0295 66.1397V66.4251C53.0295 66.5901 52.8966 66.724 52.7327 66.724Z" fill="#54545B"/>
  <path d="M52.5041 79.7598H9.78125V80.0652H52.5041V79.7598Z" fill="#D2D2DB"/>
  <path d="M52.5041 80.6289H9.78125V80.9343H52.5041V80.6289Z" fill="#D2D2DB"/>
  <path d="M52.5041 81.498H9.78125V81.8035H52.5041V81.498Z" fill="#D2D2DB"/>
  <path d="M52.5041 82.3662H9.78125V82.6716H52.5041V82.3662Z" fill="#D2D2DB"/>
  <path d="M52.5041 83.2354H9.78125V83.5408H52.5041V83.2354Z" fill="#D2D2DB"/>
  <path d="M52.5041 84.1035H9.78125V84.4089H52.5041V84.1035Z" fill="#D2D2DB"/>
  <path d="M52.5041 84.9727H9.78125V85.2781H52.5041V84.9727Z" fill="#D2D2DB"/>
  <path d="M52.5041 85.8408H9.78125V86.1462H52.5041V85.8408Z" fill="#D2D2DB"/>
  <path d="M52.5041 86.71H9.78125V87.0154H52.5041V86.71Z" fill="#D2D2DB"/>
  <path d="M52.5041 87.5781H9.78125V87.8835H52.5041V87.5781Z" fill="#D2D2DB"/>
  <path d="M36.8391 71.499H34.332V76.7619H36.8391V71.499Z" fill="#CCCCCC"/>
  <path d="M36.8391 68.5908H34.332V70.3599H36.8391V68.5908Z" fill="#CCCCCC"/>
  <path d="M35.5854 80.332C34.52 80.332 33.6562 81.2017 33.6562 82.2746V88.1737H37.5144V82.2746C37.5144 81.2017 36.6507 80.332 35.5854 80.332Z" fill="#052A45"/>
  <path d="M45.7219 71.498H43.2148V76.7609H45.7219V71.498Z" fill="#CCCCCC"/>
  <path d="M45.7219 68.5898H43.2148V70.3589H45.7219V68.5898Z" fill="#CCCCCC"/>
  <path d="M44.4682 80.3311C43.4028 80.3311 42.5391 81.2008 42.5391 82.2736V88.1727H46.3973V82.2736C46.3973 81.2008 45.5336 80.3311 44.4682 80.3311Z" fill="#052A45"/>
  <path d="M19.0657 71.499H16.5586V76.7619H19.0657V71.499Z" fill="#CCCCCC"/>
  <path d="M19.0657 68.5908H16.5586V70.3599H19.0657V68.5908Z" fill="#CCCCCC"/>
  <path d="M17.8119 80.332C16.7465 80.332 15.8828 81.2017 15.8828 82.2746V88.1737H19.741V82.2746C19.741 81.2017 18.8773 80.332 17.8119 80.332Z" fill="#052A45"/>
  <path d="M27.9485 71.499H25.4414V76.7619H27.9485V71.499Z" fill="#CCCCCC"/>
  <path d="M27.9485 68.5908H25.4414V70.3599H27.9485V68.5908Z" fill="#CCCCCC"/>
  <path d="M26.6947 80.332C25.6293 80.332 24.7656 81.2017 24.7656 82.2746V88.1737H28.6238V82.2746C28.6238 81.2017 27.7601 80.332 26.6947 80.332Z" fill="#052A45"/>
  <path d="M52.7682 79.1814H9.51129C9.36689 79.1814 9.25 79.0637 9.25 78.9183V78.2856C9.25 78.1402 9.36689 78.0225 9.51129 78.0225H52.7686C52.913 78.0225 53.0299 78.1402 53.0299 78.2856V78.9183C53.0295 79.0634 52.9126 79.1814 52.7682 79.1814Z" fill="#C8D2DB"/>
  <path d="M52.555 64.2364H9.72483C9.46277 64.2364 9.25 64.0226 9.25 63.7583V62.4547C9.25 62.1908 9.46239 61.9766 9.72483 61.9766H52.555C52.8171 61.9766 53.0299 62.1904 53.0299 62.4547V63.7583C53.0299 64.0222 52.8175 64.2364 52.555 64.2364Z" fill="#C8D2DB"/>
  <path d="M15.0537 63.4248H11.7578V78.6012H15.0537V63.4248Z" fill="#C8D2DB"/>
  <path d="M23.9209 63.4248H20.625V78.6012H23.9209V63.4248Z" fill="#C8D2DB"/>
  <path d="M32.7881 63.4248H29.4922V78.6012H32.7881V63.4248Z" fill="#C8D2DB"/>
  <path d="M41.6553 63.4248H38.3594V78.6012H41.6553V63.4248Z" fill="#C8D2DB"/>
  <path d="M50.5225 63.4248H47.2266V78.6012H50.5225V63.4248Z" fill="#C8D2DB"/>
  <path d="M31.1367 53.6087C33.1586 52.8547 35.1806 54.3626 37.2025 53.6087C37.2025 53.429 37.2025 53.2494 37.2025 53.0701C35.1806 53.8245 33.1586 52.3162 31.1367 53.0701C31.1367 53.2494 31.1367 53.429 31.1367 53.6087Z" fill="#C7402D"/>
  <path d="M31.1367 54.1478C33.1586 53.3938 35.1806 54.9017 37.2025 54.1478C37.2025 53.9681 37.2025 53.7885 37.2025 53.6092C35.1806 54.3632 33.1586 52.8553 31.1367 53.6092C31.1367 53.7885 31.1367 53.9681 31.1367 54.1478Z" fill="#F4EDD7"/>
  <path d="M31.1367 54.6859C33.1586 53.9315 35.1806 55.4398 37.2025 54.6859C37.2025 54.5062 37.2025 54.3266 37.2025 54.1473C35.1806 54.9013 33.1586 53.3934 31.1367 54.1473C31.1367 54.327 31.1367 54.5066 31.1367 54.6859Z" fill="#C7402D"/>
  <path d="M31.1367 55.2249C33.1586 54.4709 35.1806 55.9792 37.2025 55.2249C37.2025 55.0452 37.2025 54.8656 37.2025 54.6864C35.1806 55.4407 33.1586 53.9324 31.1367 54.6864C31.1367 54.8656 31.1367 55.0452 31.1367 55.2249Z" fill="#F4EDD7"/>
  <path d="M31.1367 55.763C33.1586 55.009 35.1806 56.5173 37.2025 55.763C37.2025 55.5833 37.2025 55.4037 37.2025 55.2244C35.1806 55.9788 33.1586 54.4705 31.1367 55.2244C31.1367 55.4037 31.1367 55.5833 31.1367 55.763Z" fill="#C7402D"/>
  <path d="M31.1367 56.302C33.1586 55.5481 35.1806 57.0563 37.2025 56.302C37.2025 56.1224 37.2025 55.9428 37.2025 55.7635C35.1806 56.5178 33.1586 55.0096 31.1367 55.7635C31.1367 55.9431 31.1367 56.1224 31.1367 56.302Z" fill="#F4EDD7"/>
  <path d="M31.1367 56.8411C33.1586 56.0872 35.1806 57.595 37.2025 56.8411C37.2025 56.6614 37.2025 56.4818 37.2025 56.3026C35.1806 57.0569 33.1586 55.5486 31.1367 56.3026C31.1367 56.4818 31.1367 56.6614 31.1367 56.8411Z" fill="#C7402D"/>
  <path d="M34.1087 55.213C33.1182 55.0284 32.1272 54.8549 31.1367 55.2246C31.1367 54.5064 31.1367 53.7883 31.1367 53.0701C32.1272 52.7008 33.1182 52.8743 34.1087 53.0589C34.1087 53.7767 34.1087 54.4949 34.1087 55.213Z" fill="#0F3D57"/>
  <path d="M33.7733 53.3673C33.748 53.3631 33.7246 53.3477 33.7069 53.3254C33.6893 53.3042 33.6797 53.2761 33.6797 53.25C33.6797 53.2238 33.69 53.1992 33.7069 53.1831C33.7415 53.1515 33.8048 53.1627 33.8393 53.2065C33.8562 53.2288 33.8661 53.2558 33.8661 53.2831C33.8661 53.3104 33.8569 53.3338 33.8393 53.3488C33.822 53.3646 33.7986 53.3715 33.7733 53.3673Z" fill="#F4EDD7"/>
  <path d="M33.2194 53.1796C33.2194 53.1242 33.2611 53.0842 33.3134 53.0915C33.3646 53.0988 33.4062 53.1504 33.4062 53.2061C33.4062 53.2619 33.3646 53.3007 33.3134 53.2934C33.2614 53.2857 33.2194 53.235 33.2194 53.1796ZM32.7625 53.1338C32.7625 53.0784 32.8042 53.0353 32.8554 53.0396C32.9066 53.0434 32.9482 53.0934 32.9482 53.1488C32.9482 53.2046 32.9066 53.2457 32.8554 53.2415C32.8046 53.2373 32.7625 53.1892 32.7625 53.1338ZM32.3057 53.1238C32.3057 53.0684 32.3473 53.0215 32.3985 53.0215C32.4497 53.0211 32.4913 53.0676 32.4913 53.123C32.4913 53.1784 32.4497 53.2234 32.3985 53.2238C32.3477 53.2234 32.3057 53.1792 32.3057 53.1238ZM31.8477 53.1611C31.8477 53.1057 31.8897 53.0542 31.9416 53.048C31.9928 53.0423 32.0345 53.0838 32.0345 53.1392C32.0345 53.1946 31.9924 53.2438 31.9416 53.25C31.8897 53.2561 31.8477 53.2169 31.8477 53.1611Z" fill="#F4EDD7"/>
  <path d="M31.4842 53.3338C31.4589 53.3404 31.4359 53.3354 31.4179 53.3211C31.4002 53.3077 31.3906 53.285 31.3906 53.2581C31.3906 53.245 31.3933 53.2311 31.3983 53.2177C31.4029 53.2031 31.4094 53.1904 31.4179 53.1788C31.4271 53.1673 31.4374 53.1573 31.4486 53.1484C31.4708 53.1323 31.4969 53.1257 31.5195 53.1304C31.5249 53.1319 31.5307 53.1338 31.5364 53.1365C31.541 53.1384 31.546 53.1423 31.5506 53.1454C31.5591 53.1523 31.5656 53.1623 31.5702 53.1742C31.5748 53.1854 31.5779 53.1977 31.5779 53.2108C31.5779 53.2377 31.5686 53.2654 31.551 53.2877C31.533 53.3108 31.5096 53.3277 31.4842 53.3338Z" fill="#F4EDD7"/>
  <path d="M33.5972 53.7414C33.5718 53.7372 33.5488 53.7222 33.5308 53.7014C33.5224 53.6899 33.5158 53.6779 33.5112 53.6649C33.5066 53.6518 33.5036 53.6383 33.5039 53.6252C33.5039 53.6122 33.5066 53.5995 33.5112 53.5879C33.5158 53.5756 33.5224 53.5664 33.5308 53.5579C33.54 53.5506 33.5504 53.5448 33.5615 53.5406C33.5672 53.5395 33.5726 53.5383 33.5791 53.5383C33.6091 53.536 33.6417 53.5529 33.6632 53.5798C33.6716 53.5914 33.6781 53.6025 33.6835 53.6168C33.6881 53.6295 33.69 53.6429 33.69 53.6564C33.69 53.6695 33.6881 53.6822 33.6835 53.6937C33.6789 53.7052 33.6712 53.7149 33.6632 53.7237C33.6539 53.731 33.6444 53.7368 33.6325 53.7399C33.6213 53.7426 33.6102 53.7437 33.5972 53.7414Z" fill="#F4EDD7"/>
  <path d="M33.0163 53.5596C33.0163 53.5042 33.0572 53.4626 33.1091 53.4688C33.1603 53.4749 33.202 53.5257 33.202 53.5815C33.202 53.6373 33.1603 53.6769 33.1091 53.6711C33.0572 53.6646 33.0163 53.6149 33.0163 53.5596ZM32.5296 53.5269C32.5296 53.4715 32.5713 53.4268 32.6225 53.4288C32.6737 53.4307 32.7153 53.4788 32.7153 53.5342C32.7153 53.5899 32.6737 53.6326 32.6225 53.6307C32.5717 53.6288 32.5296 53.5826 32.5296 53.5269ZM32.043 53.5419C32.043 53.4861 32.0846 53.4368 32.1358 53.4338C32.1877 53.4303 32.2294 53.4742 32.2294 53.5299C32.2294 53.5853 32.1874 53.6326 32.1358 53.6361C32.085 53.6388 32.043 53.5973 32.043 53.5419Z" fill="#F4EDD7"/>
  <path d="M31.6518 53.6991C31.6269 53.7041 31.6035 53.6979 31.5854 53.6825C31.5678 53.6683 31.5586 53.6448 31.5586 53.6179C31.5586 53.6048 31.5605 53.5914 31.5651 53.5779C31.5709 53.5637 31.5774 53.5517 31.5854 53.5398C31.6069 53.5117 31.6395 53.494 31.6695 53.4952C31.676 53.4948 31.6814 53.496 31.6871 53.4971C31.6929 53.499 31.6982 53.501 31.7028 53.504C31.7086 53.5064 31.7132 53.5102 31.7178 53.5137C31.7263 53.5221 31.7328 53.5314 31.7374 53.5437C31.742 53.5548 31.7447 53.5675 31.7451 53.5806C31.7451 53.6067 31.7358 53.6344 31.7178 53.656C31.7086 53.6675 31.6982 53.6768 31.6871 53.6837C31.676 53.6914 31.6637 53.6964 31.6518 53.6991Z" fill="#F4EDD7"/>
  <path d="M33.7733 54.1751C33.748 54.1709 33.7246 54.1555 33.7069 54.1344C33.6893 54.1121 33.6797 54.0851 33.6797 54.0582C33.6797 54.032 33.69 54.0074 33.7069 53.9913C33.7115 53.9882 33.7161 53.9836 33.7207 53.9817C33.7265 53.9786 33.7319 53.9767 33.7376 53.9747C33.743 53.9736 33.7487 53.9724 33.7553 53.9728C33.7852 53.9709 33.817 53.9878 33.8393 54.0151C33.8562 54.0374 33.8661 54.0644 33.8661 54.0917C33.8661 54.119 33.8569 54.1424 33.8393 54.1586C33.822 54.1724 33.7986 54.1794 33.7733 54.1751Z" fill="#F4EDD7"/>
  <path d="M33.2194 53.9872C33.2194 53.9318 33.2611 53.8918 33.3134 53.8991C33.3646 53.9064 33.4062 53.9584 33.4062 54.0137C33.4062 54.0691 33.3646 54.1084 33.3134 54.1011C33.2614 54.0937 33.2194 54.043 33.2194 53.9872ZM32.7625 53.9414C32.7625 53.886 32.8042 53.843 32.8554 53.8472C32.9066 53.8514 32.9482 53.9006 32.9482 53.9564C32.9482 54.0122 32.9066 54.0534 32.8554 54.0491C32.8046 54.0453 32.7625 53.9968 32.7625 53.9414ZM32.3057 53.9314C32.3057 53.876 32.3473 53.8295 32.3985 53.8291C32.4497 53.8287 32.4913 53.8749 32.4913 53.9307C32.4913 53.986 32.4497 54.0311 32.3985 54.0314C32.3477 54.0314 32.3057 53.9868 32.3057 53.9314ZM31.8477 53.9691C31.8477 53.9137 31.8897 53.8618 31.9416 53.856C31.9928 53.8499 32.0345 53.8918 32.0345 53.9472C32.0345 54.0026 31.9924 54.0518 31.9416 54.058C31.8897 54.0637 31.8477 54.0245 31.8477 53.9691Z" fill="#F4EDD7"/>
  <path d="M31.4842 54.1415C31.4589 54.148 31.4359 54.143 31.4179 54.1295C31.4094 54.1218 31.4029 54.1126 31.3983 54.1018C31.3937 54.0911 31.391 54.0788 31.3906 54.0657C31.3906 54.0526 31.3933 54.0384 31.3983 54.0253C31.4029 54.0111 31.4094 53.998 31.4179 53.9864C31.4271 53.9749 31.4374 53.9637 31.4486 53.956C31.4708 53.9399 31.4969 53.9334 31.5195 53.938C31.5249 53.9395 31.5307 53.9414 31.5364 53.9441C31.541 53.946 31.546 53.9491 31.5506 53.953C31.5591 53.9603 31.5656 53.9699 31.5702 53.9818C31.5748 53.993 31.5779 54.0053 31.5779 54.0184C31.5779 54.0457 31.5686 54.073 31.551 54.0961C31.533 54.1184 31.5096 54.1349 31.4842 54.1415Z" fill="#F4EDD7"/>
  <path d="M33.7733 54.9818C33.748 54.9772 33.7246 54.9622 33.7069 54.9399C33.6893 54.9176 33.6797 54.8907 33.6797 54.8645C33.6797 54.8514 33.6816 54.8384 33.687 54.8276C33.6916 54.8153 33.6981 54.8064 33.7065 54.7976C33.728 54.778 33.7606 54.7726 33.7906 54.7849C33.7971 54.7872 33.8028 54.7899 33.8082 54.7934C33.8201 54.8014 33.8297 54.8103 33.8389 54.8211C33.8473 54.8326 33.8539 54.8441 33.8585 54.858C33.8631 54.8711 33.8658 54.8845 33.8658 54.8976C33.8658 54.9249 33.8566 54.9484 33.8389 54.9634C33.8297 54.9718 33.8193 54.9772 33.8082 54.9799C33.7975 54.983 33.7856 54.9841 33.7733 54.9818Z" fill="#F4EDD7"/>
  <path d="M33.2194 54.7948C33.2194 54.7394 33.2611 54.699 33.3134 54.7067C33.3646 54.714 33.4062 54.766 33.4062 54.8214C33.4062 54.8771 33.3646 54.916 33.3134 54.9087C33.2614 54.901 33.2194 54.8502 33.2194 54.7948ZM32.7625 54.7491C32.7625 54.6937 32.8042 54.6506 32.8554 54.6548C32.9066 54.659 32.9482 54.7087 32.9482 54.7641C32.9482 54.8194 32.9066 54.861 32.8554 54.8568C32.8046 54.8525 32.7625 54.8044 32.7625 54.7491ZM32.3057 54.739C32.3057 54.6833 32.3473 54.6367 32.3985 54.6367C32.4497 54.6363 32.4913 54.6825 32.4913 54.7383C32.4913 54.7937 32.4497 54.8387 32.3985 54.8387C32.3477 54.8387 32.3057 54.7944 32.3057 54.739ZM31.8477 54.7764C31.8477 54.721 31.8897 54.669 31.9416 54.6633C31.9928 54.6571 32.0345 54.699 32.0345 54.7544C32.0345 54.8102 31.9924 54.8591 31.9416 54.8652C31.8897 54.8714 31.8477 54.8321 31.8477 54.7764Z" fill="#F4EDD7"/>
  <path d="M31.4842 54.9493C31.4589 54.9558 31.4359 54.9508 31.4179 54.9366C31.4002 54.9231 31.3906 54.8997 31.3906 54.8735C31.3906 54.8474 31.401 54.8181 31.4179 54.7943C31.4271 54.7827 31.4374 54.7727 31.4486 54.7646C31.4708 54.7485 31.4969 54.7419 31.5195 54.7466C31.5249 54.7469 31.5307 54.7489 31.5364 54.7516C31.541 54.7535 31.546 54.7573 31.5506 54.7604C31.5591 54.7677 31.5656 54.7773 31.5702 54.7893C31.5748 54.8004 31.5779 54.8127 31.5779 54.8258C31.5779 54.8389 31.5759 54.8523 31.5713 54.8658C31.566 54.8793 31.5591 54.8916 31.551 54.9027C31.533 54.9262 31.5096 54.9431 31.4842 54.9493Z" fill="#F4EDD7"/>
  <path d="M33.5975 54.5497C33.5733 54.5459 33.5488 54.5317 33.5311 54.5097C33.5143 54.4878 33.5039 54.4609 33.5039 54.4336C33.5039 54.4074 33.5143 54.3828 33.5311 54.3663C33.5664 54.3343 33.629 54.3447 33.6635 54.3882C33.6812 54.4101 33.6907 54.4382 33.6907 54.4643C33.6907 54.4917 33.6812 54.5151 33.6635 54.5313C33.6459 54.5478 33.6225 54.554 33.5975 54.5497Z" fill="#F4EDD7"/>
  <path d="M33.0163 54.3678C33.0163 54.3124 33.0572 54.2712 33.1091 54.277C33.1603 54.2828 33.202 54.3339 33.202 54.3893C33.202 54.4451 33.1603 54.4847 33.1091 54.4789C33.0572 54.4732 33.0163 54.4235 33.0163 54.3678ZM32.5296 54.3355C32.5296 54.2801 32.5713 54.2354 32.6225 54.2374C32.6737 54.2393 32.7153 54.2874 32.7153 54.3431C32.7153 54.3989 32.6737 54.4416 32.6225 54.4397C32.5717 54.4374 32.5296 54.3908 32.5296 54.3355ZM32.043 54.3501C32.043 54.2947 32.0846 54.2451 32.1358 54.242C32.1877 54.2385 32.2294 54.2824 32.2294 54.3378C32.2294 54.3931 32.1874 54.4405 32.1358 54.4439C32.085 54.4474 32.043 54.4058 32.043 54.3501Z" fill="#F4EDD7"/>
  <path d="M31.6518 54.5073C31.6269 54.5123 31.6035 54.5061 31.5854 54.4908C31.5678 54.4761 31.5586 54.4534 31.5586 54.4261C31.5586 54.4 31.5678 54.3715 31.5854 54.3484C31.5939 54.3377 31.6042 54.3281 31.6154 54.3207C31.6499 54.2973 31.6917 54.2984 31.7178 54.3219C31.7347 54.3381 31.7451 54.3627 31.7451 54.3888C31.7451 54.415 31.7358 54.4431 31.7178 54.4642C31.7086 54.4758 31.6982 54.485 31.6871 54.4919C31.676 54.4996 31.6637 54.505 31.6518 54.5073Z" fill="#F4EDD7"/>
  <path d="M31.1392 60.5403C30.9719 60.5403 30.8359 60.4037 30.8359 60.2348V52.8621C30.8359 52.6932 30.9715 52.5566 31.1392 52.5566C31.3066 52.5566 31.4426 52.6932 31.4426 52.8621V60.2348C31.4426 60.4037 31.3069 60.5403 31.1392 60.5403Z" fill="#54545B"/>
  <path d="M134.333 59.5908H127.965V62.1927H134.333V59.5908Z" fill="#CCCCCC"/>
  <path d="M133.982 59.001H133.512V62.4702H133.982V59.001Z" fill="#ACB6BF"/>
  <path d="M132.861 59.001H132.391V62.4702H132.861V59.001Z" fill="#ACB6BF"/>
  <path d="M131.385 59.001H130.914V62.4702H131.385V59.001Z" fill="#ACB6BF"/>
  <path d="M129.908 59.001H129.438V62.4702H129.908V59.001Z" fill="#ACB6BF"/>
  <path d="M128.787 59.001H128.316V62.4702H128.787V59.001Z" fill="#ACB6BF"/>
  <path opacity="0.4" d="M134.333 59.2598H127.965V60.1783H134.333V59.2598Z" fill="#3E3E44"/>
  <path d="M127.228 58.8875C127.28 58.5902 127.365 58.3044 127.478 58.0336C127.564 57.8286 127.763 57.6943 127.984 57.6943H134.32C134.541 57.6943 134.74 57.8286 134.826 58.0336C134.939 58.3044 135.024 58.5906 135.076 58.8875C135.14 59.2537 134.86 59.5907 134.491 59.5907H127.813C127.444 59.5907 127.164 59.2537 127.228 58.8875Z" fill="#ACB6BF"/>
  <path d="M124.484 64.2083H137.816C137.695 64.0029 137.544 63.8056 137.368 63.6171C137.338 63.5852 137.305 63.5513 137.276 63.5198C137.122 63.3651 136.949 63.2147 136.762 63.0747C136.075 62.5554 135.179 62.1338 134.143 61.8542C133.233 61.6084 132.223 61.4707 131.15 61.4707C130.078 61.4707 129.064 61.6084 128.153 61.8542C127.121 62.1338 126.225 62.5554 125.538 63.0747C125.351 63.2144 125.178 63.3651 125.024 63.5198C124.995 63.5517 124.962 63.5856 124.932 63.6171C124.756 63.8056 124.605 64.0025 124.484 64.2083Z" fill="#ACB6BF"/>
  <path d="M122.339 65.3795H139.959C140.181 65.3795 140.361 65.1983 140.361 64.9749V63.7836C140.361 63.5601 140.181 63.3789 139.959 63.3789H122.339C122.117 63.3789 121.938 63.5601 121.938 63.7836V64.9749C121.938 65.1983 122.117 65.3795 122.339 65.3795Z" fill="#54545B"/>
  <path d="M141.238 65.1943H121.062V88.1731H141.238V65.1943Z" fill="#B1BAC3"/>
  <path d="M141.238 68.9805H121.062V80.0075H141.238V68.9805Z" fill="#ACB6BF"/>
  <path d="M141.238 66.293H121.062V67.2646H141.238V66.293Z" fill="#ACB6BF"/>
  <path d="M121.014 66.7786H141.284C141.517 66.7786 141.705 66.5889 141.705 66.3554V65.2014C141.705 64.9676 141.516 64.7783 141.284 64.7783H121.014C120.782 64.7783 120.594 64.968 120.594 65.2014V66.3554C120.593 66.5893 120.782 66.7786 121.014 66.7786Z" fill="#54545B"/>
  <path d="M120.857 68.9803H141.442C141.587 68.9803 141.705 68.8618 141.705 68.7156V68.4629C141.705 68.3167 141.587 68.1982 141.442 68.1982H120.857C120.711 68.1982 120.594 68.3167 120.594 68.4629V68.7156C120.594 68.8618 120.711 68.9803 120.857 68.9803Z" fill="#54545B"/>
  <path d="M141.238 80.7168H121.062V81.0222H141.238V80.7168Z" fill="#D2D2DB"/>
  <path d="M141.238 81.4863H121.062V81.7918H141.238V81.4863Z" fill="#D2D2DB"/>
  <path d="M141.238 82.2549H121.062V82.5603H141.238V82.2549Z" fill="#D2D2DB"/>
  <path d="M141.238 83.0244H121.062V83.3298H141.238V83.0244Z" fill="#D2D2DB"/>
  <path d="M141.238 83.793H121.062V84.0984H141.238V83.793Z" fill="#D2D2DB"/>
  <path d="M141.238 84.5625H121.062V84.8679H141.238V84.5625Z" fill="#D2D2DB"/>
  <path d="M141.238 85.3311H121.062V85.6365H141.238V85.3311Z" fill="#D2D2DB"/>
  <path d="M141.238 86.1006H121.062V86.406H141.238V86.1006Z" fill="#D2D2DB"/>
  <path d="M141.238 86.8691H121.062V87.1746H141.238V86.8691Z" fill="#D2D2DB"/>
  <path d="M141.238 87.6387H121.062V87.9441H141.238V87.6387Z" fill="#D2D2DB"/>
  <path d="M137.696 70.499H135.625V78.5992H137.696V70.499Z" fill="#CCCCCC"/>
  <path d="M137.544 81.5H135.773V84.74H137.544V81.5Z" fill="#052A45"/>
  <path d="M132.446 70.499H130.375V78.5992H132.446V70.499Z" fill="#CCCCCC"/>
  <path d="M132.294 81.5H130.523V84.74H132.294V81.5Z" fill="#052A45"/>
  <path d="M127.188 70.499H125.117V78.5992H127.188V70.499Z" fill="#CCCCCC"/>
  <path d="M127.037 81.5H125.266V84.74H127.037V81.5Z" fill="#052A45"/>
  <path opacity="0.4" d="M126.3 63.3789H119.227V88.1729H126.3V63.3789Z" fill="#3E3E44"/>
  <path opacity="0.4" d="M143.495 63.3789H136.422V88.1729H143.495V63.3789Z" fill="#3E3E44"/>
  <path d="M139.95 62.6573H179.786C180.037 62.6573 180.24 62.4527 180.24 62.2004V60.8544C180.24 60.6021 180.037 60.3975 179.786 60.3975H139.95C139.699 60.3975 139.496 60.6021 139.496 60.8544V62.2004C139.496 62.4527 139.699 62.6573 139.95 62.6573Z" fill="#54545B"/>
  <path d="M181.231 62.4473H138.508V88.1733H181.231V62.4473Z" fill="#B1BAC3"/>
  <path d="M181.231 66.7246H138.508V79.1818H181.231V66.7246Z" fill="#ACB6BF"/>
  <path d="M181.231 63.6885H138.508V64.7863H181.231V63.6885Z" fill="#ACB6BF"/>
  <path d="M138.273 66.725H181.459C181.623 66.725 181.756 66.5911 181.756 66.4261V66.1407C181.756 65.9757 181.623 65.8418 181.459 65.8418H138.273C138.11 65.8418 137.977 65.9757 137.977 66.1407V66.4261C137.977 66.5911 138.11 66.725 138.273 66.725Z" fill="#54545B"/>
  <path d="M181.231 79.7607H138.508V80.0662H181.231V79.7607Z" fill="#D2D2DB"/>
  <path d="M181.231 80.6299H138.508V80.9353H181.231V80.6299Z" fill="#D2D2DB"/>
  <path d="M181.231 81.499H138.508V81.8044H181.231V81.499Z" fill="#D2D2DB"/>
  <path d="M181.231 82.3672H138.508V82.6726H181.231V82.3672Z" fill="#D2D2DB"/>
  <path d="M181.231 83.2363H138.508V83.5418H181.231V83.2363Z" fill="#D2D2DB"/>
  <path d="M181.231 84.1045H138.508V84.4099H181.231V84.1045Z" fill="#D2D2DB"/>
  <path d="M181.231 84.9736H138.508V85.279H181.231V84.9736Z" fill="#D2D2DB"/>
  <path d="M181.231 85.8418H138.508V86.1472H181.231V85.8418Z" fill="#D2D2DB"/>
  <path d="M181.231 86.7109H138.508V87.0163H181.231V86.7109Z" fill="#D2D2DB"/>
  <path d="M181.231 87.5791H138.508V87.8845H181.231V87.5791Z" fill="#D2D2DB"/>
  <path d="M156.675 71.499H154.168V76.7619H156.675V71.499Z" fill="#CCCCCC"/>
  <path d="M156.675 68.5908H154.168V70.3599H156.675V68.5908Z" fill="#CCCCCC"/>
  <path d="M155.421 80.332C156.487 80.332 157.35 81.2017 157.35 82.2746V88.1737H153.492V82.2746C153.492 81.2017 154.356 80.332 155.421 80.332Z" fill="#052A45"/>
  <path d="M147.796 71.499H145.289V76.7619H147.796V71.499Z" fill="#CCCCCC"/>
  <path d="M147.796 68.5908H145.289V70.3599H147.796V68.5908Z" fill="#CCCCCC"/>
  <path d="M146.542 80.332C147.608 80.332 148.471 81.2017 148.471 82.2746V88.1737H144.613V82.2746C144.613 81.2017 145.477 80.332 146.542 80.332Z" fill="#052A45"/>
  <path d="M174.452 71.499H171.945V76.7619H174.452V71.499Z" fill="#CCCCCC"/>
  <path d="M174.452 68.5908H171.945V70.3599H174.452V68.5908Z" fill="#CCCCCC"/>
  <path d="M173.195 80.332C174.26 80.332 175.124 81.2017 175.124 82.2746V88.1737H171.266V82.2746C171.266 81.2017 172.129 80.332 173.195 80.332Z" fill="#052A45"/>
  <path d="M165.566 71.499H163.059V76.7619H165.566V71.499Z" fill="#CCCCCC"/>
  <path d="M165.566 68.5908H163.059V70.3599H165.566V68.5908Z" fill="#CCCCCC"/>
  <path d="M164.312 80.332C165.377 80.332 166.241 81.2017 166.241 82.2746V88.1737H162.383V82.2746C162.383 81.2017 163.247 80.332 164.312 80.332Z" fill="#052A45"/>
  <path d="M138.238 79.1824H181.495C181.64 79.1824 181.756 79.0647 181.756 78.9193V78.2866C181.756 78.1412 181.64 78.0234 181.495 78.0234H138.238C138.093 78.0234 137.977 78.1412 137.977 78.2866V78.9193C137.977 79.0643 138.093 79.1824 138.238 79.1824Z" fill="#C8D2DB"/>
  <path d="M138.451 64.2374H181.282C181.544 64.2374 181.756 64.0236 181.756 63.7593V62.4557C181.756 62.1918 181.544 61.9775 181.282 61.9775H138.451C138.189 61.9775 137.977 62.1914 137.977 62.4557V63.7593C137.977 64.0232 138.189 64.2374 138.451 64.2374Z" fill="#C8D2DB"/>
  <path d="M179.249 63.4258H175.953V78.6021H179.249V63.4258Z" fill="#C8D2DB"/>
  <path d="M170.382 63.4258H167.086V78.6021H170.382V63.4258Z" fill="#C8D2DB"/>
  <path d="M161.515 63.4258H158.219V78.6021H161.515V63.4258Z" fill="#C8D2DB"/>
  <path d="M152.647 63.4258H149.352V78.6021H152.647V63.4258Z" fill="#C8D2DB"/>
  <path d="M143.78 63.4258H140.484V78.6021H143.78V63.4258Z" fill="#C8D2DB"/>
  <path d="M159.867 53.6087C161.889 52.8547 163.911 54.3626 165.933 53.6087C165.933 53.429 165.933 53.2494 165.933 53.0701C163.911 53.8245 161.889 52.3162 159.867 53.0701C159.867 53.2494 159.867 53.429 159.867 53.6087Z" fill="#C7402D"/>
  <path d="M159.867 54.1478C161.889 53.3938 163.911 54.9017 165.933 54.1478C165.933 53.9681 165.933 53.7885 165.933 53.6092C163.911 54.3632 161.889 52.8553 159.867 53.6092C159.867 53.7885 159.867 53.9681 159.867 54.1478Z" fill="#F4EDD7"/>
  <path d="M159.867 54.6859C161.889 53.9315 163.911 55.4398 165.933 54.6859C165.933 54.5062 165.933 54.3266 165.933 54.1473C163.911 54.9013 161.889 53.3934 159.867 54.1473C159.867 54.327 159.867 54.5066 159.867 54.6859Z" fill="#C7402D"/>
  <path d="M159.867 55.2249C161.889 54.4709 163.911 55.9792 165.933 55.2249C165.933 55.0452 165.933 54.8656 165.933 54.6864C163.911 55.4407 161.889 53.9324 159.867 54.6864C159.867 54.8656 159.867 55.0452 159.867 55.2249Z" fill="#F4EDD7"/>
  <path d="M159.867 55.763C161.889 55.009 163.911 56.5173 165.933 55.763C165.933 55.5833 165.933 55.4037 165.933 55.2244C163.911 55.9788 161.889 54.4705 159.867 55.2244C159.867 55.4037 159.867 55.5833 159.867 55.763Z" fill="#C7402D"/>
  <path d="M159.867 56.302C161.889 55.5481 163.911 57.0563 165.933 56.302C165.933 56.1224 165.933 55.9428 165.933 55.7635C163.911 56.5178 161.889 55.0096 159.867 55.7635C159.867 55.9431 159.867 56.1224 159.867 56.302Z" fill="#F4EDD7"/>
  <path d="M159.867 56.8411C161.889 56.0872 163.911 57.595 165.933 56.8411C165.933 56.6614 165.933 56.4818 165.933 56.3026C163.911 57.0569 161.889 55.5486 159.867 56.3026C159.867 56.4818 159.867 56.6614 159.867 56.8411Z" fill="#C7402D"/>
  <path d="M162.839 55.214C161.848 55.0294 160.858 54.8559 159.867 55.2256C159.867 54.5074 159.867 53.7892 159.867 53.0711C160.858 52.7018 161.849 52.8753 162.839 53.0599C162.839 53.7777 162.839 54.4959 162.839 55.214Z" fill="#0F3D57"/>
  <path d="M162.499 53.3663C162.474 53.3621 162.451 53.3467 162.433 53.3244C162.415 53.3032 162.406 53.2752 162.406 53.249C162.406 53.2229 162.417 53.1982 162.433 53.1821C162.468 53.1505 162.531 53.1617 162.565 53.2055C162.582 53.2279 162.592 53.2548 162.592 53.2821C162.592 53.3094 162.583 53.3329 162.565 53.3479C162.548 53.3636 162.525 53.3706 162.499 53.3663Z" fill="#F4EDD7"/>
  <path d="M161.946 53.1786C161.946 53.1232 161.988 53.0832 162.04 53.0905C162.091 53.0978 162.133 53.1494 162.133 53.2052C162.133 53.2609 162.091 53.2998 162.04 53.2925C161.988 53.2848 161.946 53.234 161.946 53.1786ZM161.489 53.1328C161.489 53.0774 161.531 53.0344 161.582 53.0386C161.633 53.0424 161.675 53.0924 161.675 53.1478C161.675 53.2036 161.633 53.2448 161.582 53.2405C161.531 53.2363 161.489 53.1882 161.489 53.1328ZM161.032 53.1228C161.032 53.0674 161.074 53.0205 161.125 53.0205C161.176 53.0201 161.218 53.0667 161.218 53.1221C161.218 53.1775 161.176 53.2225 161.125 53.2228C161.074 53.2225 161.032 53.1782 161.032 53.1228ZM160.574 53.1601C160.574 53.1048 160.616 53.0532 160.668 53.0471C160.719 53.0413 160.761 53.0828 160.761 53.1382C160.761 53.1936 160.719 53.2428 160.668 53.249C160.616 53.2552 160.574 53.2159 160.574 53.1601Z" fill="#F4EDD7"/>
  <path d="M160.21 53.3329C160.185 53.3394 160.162 53.3344 160.144 53.3202C160.126 53.3067 160.117 53.284 160.117 53.2571C160.118 53.244 160.12 53.2302 160.124 53.2167C160.129 53.2021 160.136 53.1894 160.144 53.1778C160.153 53.1663 160.164 53.1563 160.175 53.1475C160.197 53.1313 160.223 53.1248 160.246 53.1294C160.251 53.1309 160.257 53.1328 160.263 53.1355C160.268 53.1375 160.272 53.1413 160.277 53.1444C160.285 53.1513 160.292 53.1613 160.296 53.1732C160.301 53.1844 160.304 53.1967 160.304 53.2098C160.303 53.2367 160.294 53.2644 160.277 53.2867C160.259 53.3098 160.236 53.3267 160.21 53.3329Z" fill="#F4EDD7"/>
  <path d="M162.324 53.7414C162.299 53.7372 162.275 53.7222 162.258 53.7014C162.249 53.6899 162.243 53.6779 162.238 53.6649C162.233 53.6518 162.231 53.6383 162.23 53.6252C162.23 53.6122 162.233 53.5995 162.238 53.5879C162.243 53.5756 162.249 53.5664 162.258 53.5579C162.267 53.5506 162.277 53.5448 162.288 53.5406C162.294 53.5395 162.3 53.5383 162.306 53.5383C162.336 53.536 162.369 53.5529 162.39 53.5798C162.399 53.5914 162.405 53.6025 162.411 53.6168C162.415 53.6295 162.417 53.6433 162.417 53.6564C162.417 53.6695 162.415 53.6822 162.411 53.6937C162.406 53.7049 162.399 53.7149 162.39 53.7237C162.381 53.731 162.371 53.7368 162.359 53.7399C162.348 53.7422 162.337 53.7437 162.324 53.7414Z" fill="#F4EDD7"/>
  <path d="M161.743 53.5596C161.743 53.5042 161.784 53.4626 161.836 53.4688C161.887 53.4749 161.929 53.5257 161.929 53.5815C161.929 53.6369 161.887 53.6773 161.836 53.6711C161.784 53.6646 161.743 53.6149 161.743 53.5596ZM161.256 53.5269C161.256 53.4715 161.298 53.4268 161.349 53.4288C161.4 53.4307 161.442 53.4788 161.442 53.5342C161.442 53.5899 161.4 53.6326 161.349 53.6307C161.298 53.6288 161.256 53.5826 161.256 53.5269ZM160.77 53.5419C160.77 53.4861 160.811 53.4368 160.862 53.4338C160.914 53.4303 160.956 53.4742 160.956 53.5299C160.956 53.5853 160.915 53.6326 160.862 53.6361C160.811 53.6388 160.77 53.5973 160.77 53.5419Z" fill="#F4EDD7"/>
  <path d="M160.378 53.6991C160.353 53.7041 160.33 53.6979 160.312 53.6825C160.295 53.6683 160.286 53.6448 160.285 53.6179C160.285 53.6048 160.287 53.5914 160.292 53.5779C160.297 53.5637 160.304 53.5517 160.312 53.5398C160.334 53.5117 160.366 53.494 160.396 53.4952C160.403 53.4948 160.409 53.496 160.414 53.4971C160.42 53.499 160.425 53.501 160.43 53.504C160.435 53.5064 160.44 53.5102 160.445 53.5137C160.453 53.5221 160.46 53.5314 160.464 53.5437C160.469 53.5548 160.472 53.5675 160.472 53.5806C160.472 53.6067 160.462 53.6344 160.445 53.656C160.436 53.6675 160.425 53.6768 160.414 53.6837C160.403 53.6914 160.39 53.6968 160.378 53.6991Z" fill="#F4EDD7"/>
  <path d="M162.499 54.1751C162.474 54.1709 162.451 54.1555 162.433 54.1344C162.415 54.1121 162.406 54.0851 162.406 54.0582C162.406 54.032 162.417 54.0074 162.433 53.9913C162.438 53.9882 162.443 53.9836 162.447 53.9817C162.453 53.9786 162.458 53.9767 162.464 53.9747C162.469 53.9736 162.475 53.9724 162.481 53.9728C162.511 53.9709 162.543 53.9878 162.565 54.0151C162.582 54.037 162.592 54.0644 162.592 54.0917C162.592 54.119 162.583 54.1424 162.565 54.1586C162.548 54.1724 162.525 54.1794 162.499 54.1751Z" fill="#F4EDD7"/>
  <path d="M161.946 53.9872C161.946 53.9318 161.988 53.8918 162.04 53.8991C162.091 53.9064 162.133 53.9584 162.133 54.0137C162.133 54.0691 162.091 54.1084 162.04 54.1011C161.988 54.0937 161.946 54.043 161.946 53.9872ZM161.489 53.9414C161.489 53.886 161.531 53.843 161.582 53.8472C161.633 53.8514 161.675 53.9006 161.675 53.9564C161.675 54.0122 161.633 54.0534 161.582 54.0491C161.531 54.0453 161.489 53.9968 161.489 53.9414ZM161.032 53.9314C161.032 53.876 161.074 53.8295 161.125 53.8291C161.176 53.8287 161.218 53.8749 161.218 53.9307C161.218 53.986 161.176 54.0311 161.125 54.0314C161.074 54.0314 161.032 53.9868 161.032 53.9314ZM160.574 53.9691C160.574 53.9137 160.616 53.8618 160.668 53.856C160.719 53.8499 160.761 53.8918 160.761 53.9472C160.761 54.0026 160.719 54.0518 160.668 54.058C160.616 54.0641 160.574 54.0245 160.574 53.9691Z" fill="#F4EDD7"/>
  <path d="M160.21 54.1415C160.185 54.148 160.162 54.143 160.144 54.1295C160.136 54.1218 160.129 54.1126 160.125 54.1018C160.12 54.0911 160.117 54.0788 160.117 54.0657C160.118 54.0526 160.12 54.0384 160.125 54.0253C160.129 54.0111 160.136 53.998 160.144 53.9864C160.153 53.9749 160.164 53.9637 160.175 53.956C160.197 53.9399 160.223 53.9334 160.246 53.938C160.251 53.9395 160.257 53.9414 160.263 53.9441C160.268 53.946 160.272 53.9491 160.277 53.953C160.285 53.9603 160.292 53.9699 160.296 53.9818C160.301 53.993 160.304 54.0053 160.304 54.0184C160.303 54.0457 160.294 54.073 160.277 54.0961C160.259 54.1184 160.236 54.1349 160.21 54.1415Z" fill="#F4EDD7"/>
  <path d="M162.499 54.9818C162.474 54.9772 162.451 54.9622 162.433 54.9399C162.415 54.9176 162.406 54.8907 162.406 54.8645C162.406 54.8514 162.408 54.8384 162.414 54.8276C162.419 54.8153 162.425 54.8064 162.433 54.7976C162.455 54.778 162.488 54.7726 162.518 54.7849C162.524 54.7872 162.53 54.7903 162.535 54.7934C162.547 54.8014 162.557 54.8103 162.566 54.8211C162.574 54.8326 162.581 54.8441 162.585 54.858C162.59 54.8711 162.593 54.8845 162.593 54.8976C162.593 54.9249 162.584 54.9484 162.566 54.9634C162.557 54.9718 162.546 54.9768 162.535 54.9799C162.524 54.983 162.511 54.9841 162.499 54.9818Z" fill="#F4EDD7"/>
  <path d="M161.946 54.7948C161.946 54.7394 161.988 54.699 162.04 54.7067C162.091 54.714 162.133 54.766 162.133 54.8214C162.133 54.8771 162.091 54.916 162.04 54.9087C161.988 54.901 161.946 54.8502 161.946 54.7948ZM161.489 54.7491C161.489 54.6937 161.531 54.6506 161.582 54.6548C161.633 54.659 161.675 54.7087 161.675 54.7641C161.675 54.8194 161.633 54.861 161.582 54.8568C161.531 54.8525 161.489 54.8044 161.489 54.7491ZM161.032 54.739C161.032 54.6833 161.074 54.6367 161.125 54.6367C161.176 54.6363 161.218 54.6825 161.218 54.7383C161.218 54.7937 161.176 54.8387 161.125 54.8387C161.074 54.8387 161.032 54.7944 161.032 54.739ZM160.574 54.7764C160.574 54.721 160.616 54.669 160.668 54.6633C160.719 54.6571 160.761 54.699 160.761 54.7544C160.761 54.8102 160.719 54.8591 160.668 54.8652C160.616 54.8714 160.574 54.8321 160.574 54.7764Z" fill="#F4EDD7"/>
  <path d="M160.21 54.9493C160.185 54.9558 160.162 54.9508 160.144 54.9366C160.126 54.9231 160.117 54.8997 160.117 54.8735C160.117 54.8474 160.128 54.8181 160.144 54.7943C160.153 54.7827 160.164 54.7727 160.175 54.7646C160.197 54.7485 160.223 54.7419 160.246 54.7466C160.251 54.7469 160.257 54.7489 160.263 54.7516C160.268 54.7535 160.272 54.7573 160.277 54.7604C160.285 54.7677 160.292 54.7773 160.296 54.7893C160.301 54.8004 160.304 54.8127 160.304 54.8258C160.304 54.8389 160.302 54.8523 160.297 54.8658C160.292 54.8793 160.285 54.8916 160.277 54.9027C160.259 54.9262 160.236 54.9431 160.21 54.9493Z" fill="#F4EDD7"/>
  <path d="M162.324 54.5497C162.299 54.5455 162.275 54.5317 162.257 54.5097C162.24 54.4878 162.23 54.4609 162.23 54.4336C162.23 54.4074 162.24 54.3828 162.257 54.3663C162.293 54.3343 162.355 54.3447 162.39 54.3882C162.407 54.4101 162.417 54.4382 162.417 54.4643C162.417 54.4917 162.407 54.5151 162.39 54.5313C162.372 54.5478 162.349 54.554 162.324 54.5497Z" fill="#F4EDD7"/>
  <path d="M161.743 54.3678C161.743 54.3124 161.784 54.2712 161.836 54.277C161.887 54.2831 161.929 54.3339 161.929 54.3897C161.929 54.4451 161.887 54.4851 161.836 54.4793C161.784 54.4732 161.743 54.4235 161.743 54.3678ZM161.256 54.3355C161.256 54.2801 161.298 54.2354 161.349 54.2374C161.4 54.2393 161.442 54.2874 161.442 54.3431C161.442 54.3989 161.4 54.4416 161.349 54.4397C161.298 54.4374 161.256 54.3908 161.256 54.3355ZM160.77 54.3501C160.77 54.2947 160.811 54.2451 160.862 54.242C160.914 54.2385 160.956 54.2824 160.956 54.3378C160.956 54.3931 160.915 54.4405 160.862 54.4439C160.811 54.4474 160.77 54.4058 160.77 54.3501Z" fill="#F4EDD7"/>
  <path d="M160.378 54.5073C160.353 54.5123 160.33 54.5061 160.312 54.4908C160.295 54.4761 160.286 54.4534 160.285 54.4261C160.285 54.4 160.294 54.3715 160.312 54.3484C160.32 54.3373 160.331 54.3284 160.342 54.3207C160.377 54.2973 160.419 54.2984 160.445 54.3219C160.462 54.3381 160.472 54.3627 160.472 54.3888C160.472 54.415 160.462 54.4431 160.445 54.4642C160.436 54.4758 160.425 54.485 160.414 54.4919C160.403 54.4996 160.39 54.505 160.378 54.5073Z" fill="#F4EDD7"/>
  <path d="M159.866 60.5403C159.698 60.5403 159.562 60.4037 159.562 60.2348V52.8621C159.562 52.6932 159.698 52.5566 159.866 52.5566C160.034 52.5566 160.169 52.6932 160.169 52.8621V60.2348C160.169 60.4037 160.034 60.5403 159.866 60.5403Z" fill="#54545B"/>
  <path d="M97.79 10.655C97.7785 10.2884 97.6853 9.94222 97.523 9.63834C97.4657 9.52987 97.3992 9.42717 97.3258 9.33023C97.1081 9.04251 96.8235 8.80902 96.4973 8.65054C96.4954 8.64785 96.4908 8.64169 96.4908 8.64169C96.4908 8.64169 96.7525 6.83071 96.9007 6.25757C97.0485 5.68443 97.094 5.19167 97.2876 4.89356C97.4813 4.59545 97.1284 3.73613 97.0371 3.59842C96.9461 3.46071 96.8892 2.60138 96.7979 2.16556C96.707 1.73013 96.1378 1.69551 95.922 1.68435C95.7062 1.67281 95.7394 1.56972 95.7394 1.56972C95.7394 1.56972 95.9331 1.47817 95.9216 1.12275C95.9101 0.767323 95.7054 0.343428 95.341 0.343428C95.341 0.343428 95.307 -0.275488 94.92 0.148407C94.533 0.572302 94.9085 1.51241 94.92 1.70705C94.9315 1.90207 94.5445 1.98208 94.556 2.33751C94.5674 2.69293 94.2714 3.27723 93.9642 3.64419C93.6567 4.01116 93.7595 4.3435 93.6797 4.73316C93.6002 5.12282 93.8504 5.06551 93.8844 5.19168C93.9184 5.31785 94.5105 7.79352 94.6243 8.26318C94.6568 8.39705 94.6824 8.4936 94.7004 8.56899C94.6431 8.59053 94.5858 8.61246 94.5304 8.63861C94.1942 8.79709 93.9024 9.03558 93.6797 9.32984C93.6063 9.42678 93.5398 9.52948 93.4825 9.63795C93.3202 9.94222 93.227 10.2884 93.2155 10.6546C93.2144 10.67 93.2109 10.6846 93.2109 10.7004V14.8409C93.2109 15.224 93.5192 15.5344 93.8997 15.5344H97.1058C97.4863 15.5344 97.7946 15.224 97.7946 14.8409V10.7004C97.7946 10.685 97.7911 10.6704 97.79 10.655Z" fill="#052A45"/>
  <path d="M99.5243 16.8037H91.4844V23.1294H99.5243V16.8037Z" fill="#CCCCCC"/>
  <path d="M92.5198 16.0605H91.9258V23.4818H92.5198V16.0605Z" fill="#ACB6BF"/>
  <path d="M93.9417 16.0605H93.3477V23.4818H93.9417V16.0605Z" fill="#ACB6BF"/>
  <path d="M95.8049 16.0605H95.2109V23.4818H95.8049V16.0605Z" fill="#ACB6BF"/>
  <path d="M97.6643 16.0605H97.0703V23.4818H97.6643V16.0605Z" fill="#ACB6BF"/>
  <path d="M99.0823 16.0605H98.4883V23.4818H99.0823V16.0605Z" fill="#ACB6BF"/>
  <path opacity="0.4" d="M99.5243 16.3867H91.4844V17.5465H99.5243V16.3867Z" fill="#3E3E44"/>
  <path d="M100.459 15.9165C100.393 15.5414 100.286 15.1802 100.143 14.8383C100.035 14.5794 99.7836 14.4102 99.5047 14.4102H91.5053C91.2264 14.4102 90.9751 14.5794 90.8666 14.8383C90.7233 15.1802 90.6164 15.5414 90.5507 15.9165C90.4697 16.3785 90.8234 16.8039 91.2894 16.8039H99.7206C100.187 16.8039 100.54 16.3785 100.459 15.9165Z" fill="#ACB6BF"/>
  <path d="M78.8281 37.8092C78.8281 34.9416 79.5432 32.2397 80.8042 29.8775C81.2221 29.0886 81.7038 28.3404 82.2382 27.6365C83.8568 25.4966 85.978 23.7614 88.424 22.609C90.5731 21.5897 92.9671 21.0234 95.4975 21.0234C98.0278 21.0234 100.426 21.5939 102.575 22.609C105.017 23.7618 107.138 25.497 108.757 27.6365C109.291 28.3404 109.773 29.0886 110.191 29.8775C111.452 32.2397 112.168 34.9416 112.168 37.8092" fill="#B1BAC3"/>
  <path d="M112.774 38.5176H78.2266V47.9413H112.774V38.5176Z" fill="#B1BAC3"/>
  <path d="M115.586 47.9248H75.4219V63.3943H115.586V47.9248Z" fill="#B1BAC3"/>
  <path d="M81.558 39.2266H79.8516V45.8331H81.558V39.2266Z" fill="#CCCCCC"/>
  <path d="M84.847 39.2266H83.1406V45.8331H84.847V39.2266Z" fill="#CCCCCC"/>
  <path d="M88.1361 39.2266H86.4297V45.8331H88.1361V39.2266Z" fill="#CCCCCC"/>
  <path d="M91.4251 39.2266H89.7188V45.8331H91.4251V39.2266Z" fill="#CCCCCC"/>
  <path d="M94.7103 39.2266H93.0039V45.8331H94.7103V39.2266Z" fill="#CCCCCC"/>
  <path d="M97.9994 39.2266H96.293V45.8331H97.9994V39.2266Z" fill="#CCCCCC"/>
  <path d="M101.285 39.2266H99.5781V45.8331H101.285V39.2266Z" fill="#CCCCCC"/>
  <path d="M104.574 39.2266H102.867V45.8331H104.574V39.2266Z" fill="#CCCCCC"/>
  <path d="M107.863 39.2266H106.156V45.8331H107.863V39.2266Z" fill="#CCCCCC"/>
  <path d="M86.1398 30.209H83.9922V35.6715H86.1398V30.209Z" fill="#052A45"/>
  <path d="M93.0968 30.209H90.9492V35.6715H93.0968V30.209Z" fill="#052A45"/>
  <path d="M100.054 30.209H97.9062V35.6715H100.054V30.209Z" fill="#052A45"/>
  <path d="M107.007 30.209H104.859V35.6715H107.007V30.209Z" fill="#052A45"/>
  <path d="M111.152 39.2266H109.445V45.8331H111.152V39.2266Z" fill="#CCCCCC"/>
  <path d="M80.2703 48.748H78.2266V61.2737H80.2703V48.748Z" fill="#CCCCCC"/>
  <path d="M85.726 48.748H82.8789V61.2737H85.726V48.748Z" fill="#CCCCCC"/>
  <path d="M92.791 48.748H89.1406V61.2737H92.791V48.748Z" fill="#CCCCCC"/>
  <path d="M101.861 48.748H98.2109V61.2737H101.861V48.748Z" fill="#CCCCCC"/>
  <path d="M108.12 48.748H105.273V61.2737H108.12V48.748Z" fill="#CCCCCC"/>
  <path d="M112.77 48.748H110.727V61.2737H112.77V48.748Z" fill="#CCCCCC"/>
  <path d="M110.69 64.3729H80.3092C80.0651 64.3729 79.8672 64.1736 79.8672 63.9278V62.6169C79.8672 62.3711 80.0651 62.1719 80.3092 62.1719H110.69C110.934 62.1719 111.132 62.3711 111.132 62.6169V63.9278C111.132 64.1732 110.934 64.3729 110.69 64.3729Z" fill="#54545B"/>
  <path d="M123.707 63.0674H67.2969V88.173H123.707V63.0674Z" fill="#C8D2DB"/>
  <path d="M78.9043 63.0674H67.2969V88.173H78.9043V63.0674Z" fill="#B1BAC3"/>
  <path d="M78.9043 64.8994H67.2969V66.0826H78.9043V64.8994Z" fill="#ACB6BF"/>
  <path d="M80.3531 65.2508H67.0751C66.9731 65.2508 66.8906 65.1678 66.8906 65.0651V64.5588C66.8906 64.4561 66.9731 64.373 67.0751 64.373H80.3531C80.4551 64.373 80.5376 64.4561 80.5376 64.5588V65.0651C80.5372 65.1678 80.4547 65.2508 80.3531 65.2508Z" fill="#54545B"/>
  <path d="M112.099 67.2334H78.9062V79.3675H112.099V67.2334Z" fill="#ACB6BF"/>
  <path d="M112.099 67.2334H78.9062V68.1981H112.099V67.2334Z" fill="#54545B"/>
  <path d="M123.705 63.0674H112.102V88.173H123.705V63.0674Z" fill="#B1BAC3"/>
  <path d="M123.705 64.8994H112.102V66.0826H123.705V64.8994Z" fill="#ACB6BF"/>
  <path d="M110.653 65.2508H123.931C124.033 65.2508 124.116 65.1678 124.116 65.0651V64.5588C124.116 64.4561 124.033 64.373 123.931 64.373H110.653C110.551 64.373 110.469 64.4561 110.469 64.5588V65.0651C110.469 65.1678 110.552 65.2508 110.653 65.2508Z" fill="#54545B"/>
  <path d="M112.105 64.2773H78.9062V65.3467H112.105V64.2773Z" fill="#ACB6BF"/>
  <path d="M74.4414 65.8799H74.0625V80.0804H74.4414V65.8799Z" fill="#ACB6BF"/>
  <path d="M77.4727 65.8799H77.0938V80.0804H77.4727V65.8799Z" fill="#ACB6BF"/>
  <path d="M68.5469 65.8945H68.168V80.095H68.5469V65.8945Z" fill="#ACB6BF"/>
  <path d="M71.5821 65.8945H71.2031V80.095H71.5821V65.8945Z" fill="#ACB6BF"/>
  <path d="M119.801 65.8799H119.422V80.0804H119.801V65.8799Z" fill="#ACB6BF"/>
  <path d="M122.832 65.8799H122.453V80.0804H122.832V65.8799Z" fill="#ACB6BF"/>
  <path d="M113.91 65.8945H113.531V80.095H113.91V65.8945Z" fill="#ACB6BF"/>
  <path d="M116.941 65.8945H116.562V80.095H116.941V65.8945Z" fill="#ACB6BF"/>
  <path d="M123.707 79.9766H67.2969V80.282H123.707V79.9766Z" fill="#D2D2DB"/>
  <path d="M123.707 80.8232H67.2969V81.1287H123.707V80.8232Z" fill="#D2D2DB"/>
  <path d="M123.707 81.6699H67.2969V81.9753H123.707V81.6699Z" fill="#D2D2DB"/>
  <path d="M123.707 82.5146H67.2969V82.8201H123.707V82.5146Z" fill="#D2D2DB"/>
  <path d="M123.707 83.3613H67.2969V83.6668H123.707V83.3613Z" fill="#D2D2DB"/>
  <path d="M123.707 84.208H67.2969V84.5134H123.707V84.208Z" fill="#D2D2DB"/>
  <path d="M123.707 85.0537H67.2969V85.3591H123.707V85.0537Z" fill="#D2D2DB"/>
  <path d="M123.707 85.9004H67.2969V86.2058H123.707V85.9004Z" fill="#D2D2DB"/>
  <path d="M123.707 86.7461H67.2969V87.0515H123.707V86.7461Z" fill="#D2D2DB"/>
  <path d="M123.707 87.5928H67.2969V87.8982H123.707V87.5928Z" fill="#D2D2DB"/>
  <path d="M73.4538 74.2529H72.1875V77.8183H73.4538V74.2529Z" fill="#052A45"/>
  <path d="M73.4538 69.0615H72.1875V70.2601H73.4538V69.0615Z" fill="#052A45"/>
  <path d="M73.7962 81.0098H71.8477V84.5752H73.7962V81.0098Z" fill="#052A45"/>
  <path d="M84.571 74.2529H83.3047V77.8183H84.571V74.2529Z" fill="#052A45"/>
  <path d="M84.571 69.0615H83.3047V70.2601H84.571V69.0615Z" fill="#052A45"/>
  <path d="M84.9134 81.0098H82.9648V84.5752H84.9134V81.0098Z" fill="#052A45"/>
  <path d="M92.282 74.2529H91.0156V77.8183H92.282V74.2529Z" fill="#052A45"/>
  <path d="M92.282 69.0615H91.0156V70.2601H92.282V69.0615Z" fill="#052A45"/>
  <path d="M92.6205 81.0098H90.6719V84.5752H92.6205V81.0098Z" fill="#052A45"/>
  <path d="M99.989 74.2529H98.7227V77.8183H99.989V74.2529Z" fill="#052A45"/>
  <path d="M99.989 69.0615H98.7227V70.2601H99.989V69.0615Z" fill="#052A45"/>
  <path d="M100.331 81.0098H98.3828V84.5752H100.331V81.0098Z" fill="#052A45"/>
  <path d="M107.704 74.2529H106.438V77.8183H107.704V74.2529Z" fill="#052A45"/>
  <path d="M107.704 69.0615H106.438V70.2601H107.704V69.0615Z" fill="#052A45"/>
  <path d="M108.042 81.0098H106.094V84.5752H108.042V81.0098Z" fill="#052A45"/>
  <path d="M118.813 74.2529H117.547V77.8183H118.813V74.2529Z" fill="#052A45"/>
  <path d="M118.813 69.0615H117.547V70.2601H118.813V69.0615Z" fill="#052A45"/>
  <path d="M119.156 81.0098H117.207V84.5752H119.156V81.0098Z" fill="#052A45"/>
  <path d="M81.4034 65.8799H78.9062V79.6226H81.4034V65.8799Z" fill="#C8D2DB"/>
  <path d="M89.0401 65.8799H86.543V79.6226H89.0401V65.8799Z" fill="#C8D2DB"/>
  <path d="M96.751 65.8799H94.2539V79.6226H96.751V65.8799Z" fill="#C8D2DB"/>
  <path d="M104.458 65.8799H101.961V79.6226H104.458V65.8799Z" fill="#C8D2DB"/>
  <path d="M112.099 65.8799H109.602V79.6226H112.099V65.8799Z" fill="#C8D2DB"/>
  <path opacity="0.4" d="M115.586 48.04H75.4219V49.7206H115.586V48.04Z" fill="#3E3E44"/>
  <path d="M115.621 48.7478H75.3825C75.0593 48.7478 74.7969 48.4839 74.7969 48.1581V46.4217C74.7969 46.0963 75.0589 45.832 75.3825 45.832H115.621C115.944 45.832 116.206 46.0959 116.206 46.4217V48.1581C116.206 48.4839 115.944 48.7478 115.621 48.7478Z" fill="#B1BAC3"/>
  <path opacity="0.4" d="M112.774 38.5176H78.2266V40.2616H112.774V38.5176Z" fill="#3E3E44"/>
  <path d="M112.756 39.2262H78.2453C77.9393 39.2262 77.6914 38.9765 77.6914 38.6684V36.7501C77.6914 36.442 77.9393 36.1924 78.2453 36.1924H112.756C113.062 36.1924 113.31 36.442 113.31 36.7501V38.6684C113.31 38.9765 113.062 39.2262 112.756 39.2262Z" fill="#B1BAC3"/>
  <path d="M95.5 55.9612C97.5219 55.2073 99.5438 56.7155 101.565 55.9612C101.565 55.7816 101.565 55.6023 101.565 55.4227C99.5435 56.177 97.5215 54.6687 95.5 55.4227C95.5 55.6023 95.5 55.7816 95.5 55.9612Z" fill="#C7402D"/>
  <path d="M95.5 56.5003C97.5219 55.7463 99.5438 57.2542 101.565 56.5003C101.565 56.3206 101.565 56.141 101.565 55.9617C99.5435 56.7161 97.5215 55.2078 95.5 55.9617C95.5 56.141 95.5 56.3206 95.5 56.5003Z" fill="#F4EDD7"/>
  <path d="M95.5 57.0384C97.5219 56.2841 99.5438 57.7923 101.565 57.0384C101.565 56.8588 101.565 56.6791 101.565 56.4999C99.5435 57.2538 97.5215 55.7459 95.5 56.4999C95.5 56.6791 95.5 56.8588 95.5 57.0384Z" fill="#C7402D"/>
  <path d="M95.5 57.5776C97.5219 56.8233 99.5438 58.3315 101.565 57.5776C101.565 57.398 101.565 57.2183 101.565 57.0391C99.5435 57.793 97.5215 56.2848 95.5 57.0391C95.5 57.2187 95.5 57.3984 95.5 57.5776Z" fill="#F4EDD7"/>
  <path d="M95.5 58.1167C97.5219 57.3627 99.5438 58.871 101.565 58.1167C101.565 57.937 101.565 57.7574 101.565 57.5781C99.5435 58.3321 97.5215 56.8238 95.5 57.5781C95.5 57.7574 95.5 57.937 95.5 58.1167Z" fill="#C7402D"/>
  <path d="M95.5 58.6546C97.5219 57.9006 99.5438 59.4089 101.565 58.6546C101.565 58.4749 101.565 58.2953 101.565 58.116C99.5435 58.8704 97.5215 57.3621 95.5 58.116C95.5 58.2953 95.5 58.4749 95.5 58.6546Z" fill="#F4EDD7"/>
  <path d="M95.5 59.1926C97.5219 58.4387 99.5438 59.947 101.565 59.1926C101.565 59.013 101.565 58.8334 101.565 58.6541C99.5435 59.4084 97.5215 57.9002 95.5 58.6541C95.5 58.8338 95.5 59.013 95.5 59.1926Z" fill="#C7402D"/>
  <path d="M98.472 57.5657C97.4814 57.3811 96.4905 57.2076 95.5 57.5773C95.5 56.8591 95.5 56.141 95.5 55.4228C96.4905 55.0531 97.4814 55.227 98.472 55.4116C98.472 56.1294 98.472 56.8476 98.472 57.5657Z" fill="#0F3D57"/>
  <path d="M98.1288 55.7189C98.1034 55.7146 98.08 55.6992 98.0624 55.6769C98.0448 55.6558 98.0355 55.6277 98.0352 55.6015C98.0352 55.5754 98.0455 55.5508 98.0624 55.5346C98.0969 55.5031 98.1602 55.5142 98.1948 55.5581C98.2116 55.58 98.2216 55.6073 98.2216 55.6346C98.2216 55.6619 98.212 55.6854 98.1948 55.7004C98.1775 55.7162 98.1541 55.7231 98.1288 55.7189Z" fill="#F4EDD7"/>
  <path d="M97.5788 55.5311C97.5788 55.4758 97.6208 55.4358 97.6728 55.4431C97.724 55.4504 97.7656 55.5023 97.7656 55.5577C97.7656 55.6135 97.724 55.6523 97.6728 55.645C97.6208 55.6377 97.5788 55.5869 97.5788 55.5311ZM97.1219 55.4854C97.1219 55.4296 97.1636 55.3869 97.2147 55.3911C97.2659 55.3954 97.3076 55.4446 97.3076 55.5004C97.3076 55.5558 97.2659 55.5973 97.2147 55.5931C97.1639 55.5892 97.1219 55.5411 97.1219 55.4854ZM96.6651 55.4754C96.6651 55.42 96.7067 55.373 96.7579 55.373C96.8091 55.3727 96.8507 55.4188 96.8507 55.4746C96.8507 55.53 96.8091 55.575 96.7579 55.5754C96.7071 55.5754 96.6651 55.5311 96.6651 55.4754ZM96.207 55.5131C96.207 55.4577 96.2491 55.4061 96.301 55.4C96.3522 55.3938 96.3938 55.4358 96.3938 55.4911C96.3938 55.5465 96.3518 55.5958 96.301 55.6019C96.2491 55.6081 96.207 55.5688 96.207 55.5131Z" fill="#F4EDD7"/>
  <path d="M95.8432 55.6854C95.8179 55.6919 95.7945 55.6869 95.7769 55.6727C95.7592 55.6592 95.7496 55.6369 95.75 55.6096C95.75 55.5965 95.7527 55.5827 95.7577 55.5692C95.7623 55.555 95.7688 55.5419 95.7773 55.5304C95.7865 55.5188 95.7968 55.5088 95.8079 55.5C95.8302 55.4838 95.8563 55.4773 95.8789 55.4819C95.8843 55.4835 95.89 55.4854 95.8958 55.4881C95.9004 55.49 95.905 55.4938 95.91 55.4969C95.9184 55.5042 95.925 55.5138 95.9296 55.5258C95.9342 55.5369 95.9372 55.5492 95.9372 55.5623C95.9372 55.5896 95.928 55.6169 95.9104 55.6392C95.8916 55.6623 95.8682 55.6789 95.8432 55.6854Z" fill="#F4EDD7"/>
  <path d="M97.9604 56.0939C97.9351 56.0897 97.9117 56.0747 97.894 56.0539C97.8856 56.0423 97.8791 56.0304 97.8745 56.0173C97.8699 56.0046 97.8672 55.9908 97.8672 55.9777C97.8672 55.9646 97.8699 55.9519 97.8745 55.9404C97.8791 55.9281 97.8856 55.9189 97.894 55.9104C97.9033 55.9027 97.9136 55.8973 97.9247 55.8931C97.9301 55.8919 97.9359 55.8908 97.9424 55.8908C97.9723 55.8889 98.0049 55.905 98.0264 55.9323C98.0349 55.9439 98.0414 55.955 98.0467 55.9693C98.0514 55.9823 98.0533 55.9954 98.0533 56.0089C98.0533 56.022 98.0514 56.035 98.0467 56.0462C98.0421 56.0573 98.0345 56.0673 98.0264 56.0762C98.0172 56.0839 98.0076 56.0893 97.9957 56.0923C97.9846 56.0947 97.9735 56.0958 97.9604 56.0939Z" fill="#F4EDD7"/>
  <path d="M97.3796 55.9117C97.3796 55.8563 97.4205 55.8148 97.4724 55.8213C97.5236 55.8275 97.5652 55.8782 97.5652 55.9336C97.5652 55.989 97.5236 56.0294 97.4724 56.0233C97.4205 56.0171 97.3796 55.9675 97.3796 55.9117ZM96.8929 55.8794C96.8929 55.824 96.9346 55.7794 96.9857 55.7813C97.0369 55.7836 97.0786 55.8313 97.0786 55.8867C97.0786 55.9425 97.0369 55.9852 96.9857 55.9833C96.9349 55.9813 96.8929 55.9352 96.8929 55.8794ZM96.4062 55.894C96.4062 55.8386 96.4479 55.789 96.4991 55.7859C96.551 55.7825 96.5927 55.8263 96.5927 55.8821C96.5927 55.9375 96.5507 55.9848 96.4991 55.9883C96.4483 55.9913 96.4066 55.9498 96.4062 55.894Z" fill="#F4EDD7"/>
  <path d="M96.0151 56.0512C95.9902 56.0562 95.9668 56.05 95.9487 56.0347C95.9311 56.0204 95.9219 55.9973 95.9219 55.97C95.9219 55.957 95.9238 55.9435 95.9284 55.93C95.9342 55.9158 95.9403 55.9039 95.9487 55.8923C95.9702 55.8642 96.0028 55.8466 96.0328 55.8477C96.0393 55.8477 96.045 55.8485 96.0504 55.8496C96.0558 55.8516 96.0615 55.8535 96.0661 55.8566C96.0719 55.8585 96.0765 55.8627 96.0811 55.8662C96.0895 55.8746 96.0961 55.8839 96.1007 55.8962C96.1053 55.9073 96.1083 55.92 96.1083 55.9331C96.1083 55.9593 96.0987 55.9873 96.0811 56.0085C96.0719 56.0204 96.0615 56.0293 96.0504 56.0362C96.0393 56.0431 96.027 56.0485 96.0151 56.0512Z" fill="#F4EDD7"/>
  <path d="M98.1288 56.527C98.1034 56.5224 98.08 56.5074 98.0624 56.4863C98.0448 56.4639 98.0355 56.437 98.0352 56.4101C98.0352 56.3839 98.0455 56.3593 98.0624 56.3432C98.067 56.3401 98.0716 56.3355 98.0762 56.3335C98.082 56.3305 98.0873 56.3282 98.0931 56.3262C98.0988 56.3251 98.1042 56.3243 98.1107 56.3243C98.1407 56.3228 98.1721 56.3393 98.1948 56.3666C98.2116 56.3889 98.2216 56.4159 98.2216 56.4432C98.2216 56.4705 98.212 56.494 98.1948 56.5101C98.1775 56.5247 98.1541 56.5316 98.1288 56.527Z" fill="#F4EDD7"/>
  <path d="M97.5788 56.3397C97.5788 56.284 97.6208 56.2443 97.6728 56.2516C97.724 56.2589 97.7656 56.3109 97.7656 56.3663C97.7656 56.4217 97.724 56.4609 97.6728 56.4536C97.6208 56.4463 97.5788 56.3951 97.5788 56.3397ZM97.1219 56.294C97.1219 56.2382 97.1636 56.1955 97.2147 56.1997C97.2659 56.2039 97.3076 56.2536 97.3076 56.309C97.3076 56.3644 97.2659 56.4059 97.2147 56.4017C97.1639 56.3974 97.1219 56.3493 97.1219 56.294ZM96.6651 56.284C96.6651 56.2286 96.7067 56.1816 96.7579 56.1816C96.8091 56.1816 96.8507 56.2278 96.8507 56.2832C96.8507 56.339 96.8091 56.3836 96.7579 56.384C96.7071 56.3836 96.6651 56.3393 96.6651 56.284ZM96.207 56.3217C96.207 56.2663 96.2491 56.2143 96.301 56.2086C96.3522 56.2024 96.3938 56.2443 96.3938 56.2997C96.3938 56.3551 96.3518 56.4044 96.301 56.4105C96.2491 56.4163 96.207 56.377 96.207 56.3217Z" fill="#F4EDD7"/>
  <path d="M95.8436 56.494C95.8183 56.5001 95.7949 56.4955 95.7772 56.4821C95.7688 56.474 95.7623 56.4648 95.7577 56.4544C95.7531 56.4432 95.75 56.4313 95.75 56.4182C95.75 56.4051 95.7527 56.3913 95.7577 56.3778C95.7623 56.3632 95.7688 56.3505 95.7772 56.339C95.7864 56.3274 95.7968 56.3163 95.8079 56.3086C95.8302 56.2924 95.8563 56.2859 95.8789 56.2905C95.8843 56.292 95.89 56.294 95.8958 56.2967C95.9004 56.2986 95.905 56.3017 95.91 56.3055C95.9184 56.3124 95.9249 56.3221 95.9296 56.3344C95.9342 56.3455 95.9372 56.3578 95.9372 56.3709C95.9372 56.3982 95.928 56.4255 95.9104 56.4486C95.892 56.4713 95.8686 56.4878 95.8436 56.494Z" fill="#F4EDD7"/>
  <path d="M98.1288 57.3344C98.1034 57.3298 98.08 57.3148 98.0624 57.2924C98.0448 57.2701 98.0355 57.2432 98.0352 57.2171C98.0352 57.204 98.0371 57.1909 98.0428 57.1801C98.0474 57.1678 98.054 57.159 98.0624 57.1501C98.0839 57.1305 98.1165 57.1251 98.1464 57.1374C98.1529 57.1397 98.1587 57.1428 98.1641 57.1459C98.176 57.154 98.1855 57.1628 98.1948 57.1736C98.2032 57.1851 98.2097 57.1963 98.2143 57.2105C98.2189 57.2236 98.222 57.2371 98.222 57.2501C98.222 57.2775 98.2124 57.3009 98.1951 57.3159C98.1859 57.3244 98.1756 57.3294 98.1645 57.3325C98.1533 57.3355 98.141 57.3363 98.1288 57.3344Z" fill="#F4EDD7"/>
  <path d="M97.5788 57.1477C97.5788 57.092 97.6208 57.0523 97.6728 57.0596C97.724 57.067 97.7656 57.1189 97.7656 57.1743C97.7656 57.2297 97.724 57.2689 97.6728 57.2616C97.6208 57.2539 97.5788 57.2031 97.5788 57.1477ZM97.1219 57.1016C97.1219 57.0462 97.1636 57.0031 97.2147 57.0073C97.2659 57.0116 97.3076 57.0608 97.3076 57.1166C97.3076 57.172 97.2659 57.2135 97.2147 57.2093C97.1639 57.2054 97.1219 57.1574 97.1219 57.1016ZM96.6651 57.0916C96.6651 57.0362 96.7067 56.9893 96.7579 56.9893C96.8091 56.9889 96.8507 57.035 96.8507 57.0908C96.8507 57.1462 96.8091 57.1908 96.7579 57.1912C96.7071 57.1916 96.6651 57.1474 96.6651 57.0916ZM96.207 57.1293C96.207 57.0739 96.2491 57.0219 96.301 57.0162C96.3522 57.01 96.3938 57.052 96.3938 57.1073C96.3938 57.1627 96.3518 57.212 96.301 57.2181C96.2491 57.2243 96.207 57.1847 96.207 57.1293Z" fill="#F4EDD7"/>
  <path d="M95.8432 57.3018C95.8179 57.308 95.7945 57.3034 95.7769 57.2891C95.7592 57.2757 95.7496 57.2522 95.75 57.226C95.75 57.1999 95.7604 57.1703 95.7769 57.1468C95.7861 57.1353 95.7964 57.1253 95.8076 57.1172C95.8298 57.101 95.8559 57.0945 95.8785 57.0991C95.8839 57.0999 95.8897 57.1014 95.8954 57.1041C95.9 57.106 95.9046 57.1103 95.9096 57.113C95.9181 57.1203 95.9246 57.1299 95.9292 57.1418C95.9338 57.153 95.9369 57.1653 95.9369 57.1783C95.9369 57.1914 95.9349 57.2049 95.9303 57.2183C95.9246 57.2318 95.9184 57.2441 95.91 57.2553C95.8916 57.2787 95.8682 57.2953 95.8432 57.3018Z" fill="#F4EDD7"/>
  <path d="M97.9604 56.9011C97.9363 56.8973 97.9117 56.8831 97.894 56.8611C97.8772 56.8392 97.8672 56.8123 97.8672 56.785C97.8672 56.7584 97.8772 56.7342 97.894 56.7176C97.9293 56.6861 97.9919 56.6961 98.0264 56.7396C98.0441 56.7619 98.0537 56.7896 98.0533 56.8157C98.0533 56.843 98.0441 56.8665 98.0264 56.8827C98.0088 56.8992 97.9857 56.9054 97.9604 56.9011Z" fill="#F4EDD7"/>
  <path d="M97.3796 56.7197C97.3796 56.6643 97.4205 56.6228 97.4724 56.6289C97.5236 56.6351 97.5652 56.6859 97.5652 56.7416C97.5652 56.7974 97.5236 56.837 97.4724 56.8313C97.4205 56.8247 97.3796 56.7751 97.3796 56.7197ZM96.8929 56.687C96.8929 56.6316 96.9346 56.587 96.9857 56.5889C97.0369 56.5909 97.0786 56.6389 97.0786 56.6947C97.0786 56.7501 97.0369 56.7932 96.9857 56.7913C96.9349 56.7893 96.8929 56.7428 96.8929 56.687ZM96.4062 56.702C96.4062 56.6462 96.4479 56.5974 96.4991 56.5939C96.551 56.5905 96.5927 56.6343 96.5927 56.6901C96.5927 56.7455 96.5507 56.7928 96.4991 56.7963C96.4483 56.799 96.4066 56.7578 96.4062 56.702Z" fill="#F4EDD7"/>
  <path d="M96.0151 56.8589C95.9902 56.8639 95.9668 56.8577 95.9487 56.8423C95.9311 56.8281 95.9219 56.805 95.9219 56.7777C95.9219 56.7515 95.9311 56.7231 95.9487 56.7C95.9572 56.6888 95.9675 56.68 95.9787 56.6723C96.0132 56.6488 96.055 56.65 96.0811 56.6735C96.098 56.6896 96.1083 56.7142 96.1083 56.7404C96.1083 56.7665 96.0987 56.7946 96.0811 56.8158C96.0719 56.8273 96.0615 56.8366 96.0504 56.8435C96.0393 56.8508 96.027 56.8566 96.0151 56.8589Z" fill="#F4EDD7"/>
  <path d="M95.5025 62.8928C95.3352 62.8928 95.1992 62.7562 95.1992 62.5874V55.2146C95.1992 55.0457 95.3348 54.9092 95.5025 54.9092C95.6702 54.9092 95.8058 55.0457 95.8058 55.2146V62.5874C95.8058 62.7562 95.6698 62.8928 95.5025 62.8928Z" fill="#54545B"/>
  <path d="M112.15 64.8118H78.8532C78.5977 64.8118 78.3906 64.6033 78.3906 64.3459V63.0762C78.3906 62.8188 78.5977 62.6104 78.8532 62.6104H112.15C112.406 62.6104 112.613 62.8188 112.613 63.0762V64.3459C112.613 64.6033 112.406 64.8118 112.15 64.8118Z" fill="#C8D2DB"/>
  <path d="M181.225 88.1729H9.77344V90.3104H181.225V88.1729Z" fill="#CCCCCC"/>
  <path d="M8.73975 90.3115C8.03993 90.3115 7.47266 90.8827 7.47266 91.5874V92.4495V94.587V96.7246V98.8621H183.523V96.7246V94.587V92.4495V91.5874C183.523 90.8827 182.955 90.3115 182.256 90.3115H8.73975Z" fill="#ACB6BF"/>
  <path d="M171.355 96.1914C171.315 96.0475 171.271 95.9056 171.221 95.7664C170.637 94.1612 169.363 92.8953 167.76 92.3313C167.171 92.119 166.538 92.0067 165.878 92.0067C165.54 92.0067 165.21 92.0382 164.889 92.0948C164.123 91.1804 162.979 90.5973 161.696 90.5973C161.601 90.5973 161.506 90.6015 161.413 90.6081C160.124 89.7564 158.552 89.3164 156.896 89.4606C156.756 89.4722 156.616 89.491 156.476 89.5103C153.175 89.9999 150.687 92.7379 150.436 96.0248C149.003 96.1683 147.883 97.3792 147.883 98.8617H150.775H153.558H154.766H160.191H160.299H160.57H162.825H163.001H164.097H164.252H167.514H171.459H173.19C173.189 97.6389 172.427 96.5995 171.355 96.1914Z" fill="#63813A"/>
  <path d="M151.987 95.9849C151.484 95.9399 150.994 95.983 150.529 96.098C150.23 94.6278 149.002 93.4646 147.438 93.3269C147.401 93.323 147.362 93.3211 147.325 93.3192C146.974 91.0105 144.994 89.2422 142.603 89.2422C140.774 89.2422 139.185 90.2781 138.383 91.799L138.381 91.7986C137.828 91.6294 137.241 91.5371 136.631 91.5371C133.333 91.5371 130.66 94.2289 130.66 97.5516C130.66 98.0017 130.709 98.4402 130.802 98.8618H141.361H142.46H142.577C142.586 98.8618 142.594 98.8625 142.603 98.8625C142.611 98.8625 142.62 98.8618 142.628 98.8618H144.348H147.431H148.063H149.926H155.768C155.18 97.3023 153.747 96.1391 151.987 95.9849Z" fill="#B7C54C"/>
  <path d="M23.5974 95.6136C24.165 95.5624 24.7178 95.6113 25.2434 95.7409C25.5811 94.0811 26.9674 92.7679 28.7318 92.6129C28.7738 92.6086 28.8185 92.6063 28.8606 92.6044C29.2563 89.9983 31.4918 88.002 34.1906 88.002C36.2557 88.002 38.0488 89.1713 38.9545 90.8881C38.9553 90.8881 38.9557 90.8877 38.9564 90.8873C39.581 90.6961 40.2438 90.5919 40.9318 90.5919C44.6543 90.5919 47.6721 93.6307 47.6721 97.3815C47.6721 97.8892 47.6171 98.3847 47.5117 98.8605H35.5925H34.3518H34.2196C34.2097 98.8605 34.2005 98.8613 34.1906 98.8613C34.1807 98.8613 34.1711 98.8605 34.1616 98.8605H32.2202H28.7402H28.027H25.923H19.3281C19.9928 97.1011 21.6094 95.7878 23.5974 95.6136Z" fill="#63813A"/>
  <path d="M61.0634 94.8909C60.9465 94.5693 60.8055 94.2597 60.647 93.9608C60.6756 93.7669 60.6955 93.5692 60.6955 93.3661C60.6955 92.8891 60.6107 92.4349 60.4575 92.0125C60.1477 91.1593 59.5518 90.4485 58.7889 89.9892C57.7747 87.8301 55.5939 86.333 53.0616 86.333C50.4621 86.333 48.2308 87.9097 47.2545 90.165C47.238 90.2042 47.2258 90.2454 47.2094 90.2846C46.5256 90.1158 45.8032 90.0557 45.0641 90.1196C44.933 90.13 44.802 90.1484 44.6733 90.165C41.3736 90.6554 38.9437 93.5577 39.0357 96.9154C39.0357 96.9773 39.0418 97.035 39.046 97.0946C38.7962 96.9792 38.5219 96.9111 38.2293 96.9111C38.2049 96.9111 38.18 96.9111 38.1556 96.9154C37.12 96.9546 36.293 97.8078 36.293 98.8614H47.0531H52.837H61.3682C61.4584 98.3959 61.5073 97.9113 61.5073 97.4154C61.5069 96.5265 61.3491 95.6783 61.0634 94.8909Z" fill="#B7C54C"/>
  <path d="M57.7895 92.4481H54.7568V94.586H51.7241V96.7236H48.6914V98.8615H61.849V96.7236H64.8817V94.586H67.9144V92.4481H70.9475V90.3105H57.7895V92.4481Z" fill="#CCCCCC"/>
  <path d="M139.27 96.7236V94.586H136.238V92.4481H133.204V90.3105H120.047V92.4481H123.08V94.586H126.113V96.7236H129.145V98.8615H142.303V96.7236H139.27Z" fill="#CCCCCC"/>
  <path opacity="0.4" d="M100.879 92.9385C100.074 92.9385 99.4219 93.5955 99.4219 94.406V98.8626H102.337V94.406C102.337 93.5955 101.684 92.9385 100.879 92.9385Z" fill="#3E3E44"/>
  <path opacity="0.4" d="M111.633 92.9385C110.828 92.9385 110.176 93.5955 110.176 94.406V98.8626H113.09V94.406C113.09 93.5955 112.438 92.9385 111.633 92.9385Z" fill="#3E3E44"/>
  <path opacity="0.4" d="M79.3675 92.9385C78.5626 92.9385 77.9102 93.5955 77.9102 94.406V98.8626H80.8248V94.406C80.8248 93.5955 80.1724 92.9385 79.3675 92.9385Z" fill="#3E3E44"/>
  <path opacity="0.4" d="M90.1214 92.9385C89.3165 92.9385 88.6641 93.5955 88.6641 94.406V98.8626H91.5787V94.406C91.5787 93.5955 90.9263 92.9385 90.1214 92.9385Z" fill="#3E3E44"/>
  <path d="M191 101H0C0 99.8193 0.950416 98.8623 2.12277 98.8623H188.877C190.05 98.8623 191 99.8193 191 101Z" fill="#3E3E44"/>
</svg>