<svg xmlns="http://www.w3.org/2000/svg" width="16" height="16" viewBox="0 0 16 16" fill="none">
  <g clip-path="url(#clip0_4614_4337)">
    <mask id="mask0_4614_4337" style="mask-type:luminance" maskUnits="userSpaceOnUse" x="0" y="0" width="16" height="16">
      <path d="M0 0H16V16H0V0Z" fill="white"/>
    </mask>
    <g mask="url(#mask0_4614_4337)">
      <path fill-rule="evenodd" clip-rule="evenodd" d="M4.82673 3.89055L4.86129 3.89414C5.00665 3.90924 5.15149 3.92431 5.29557 3.92284C5.94352 3.91622 6.5638 3.65928 7.02667 3.2058C7.12953 3.10496 7.22133 2.99189 7.31347 2.87842L7.33533 2.85145C7.46107 2.69676 7.53987 2.60002 7.60187 2.52878C7.6544 2.46842 7.67453 2.45036 7.6762 2.44884C7.86393 2.2957 8.13347 2.2957 8.3212 2.44884C8.32287 2.45032 8.34293 2.46836 8.39553 2.52878C8.45753 2.60002 8.53633 2.69676 8.66207 2.85145L8.684 2.87843C8.77607 2.99189 8.86787 3.10497 8.97073 3.2058C9.4336 3.65928 10.0539 3.91622 10.7018 3.92284C10.8459 3.92431 10.9907 3.90925 11.1361 3.89414L11.1707 3.89055C11.3689 3.87007 11.4931 3.85738 11.5873 3.85084C11.6671 3.8453 11.6941 3.84676 11.6964 3.8469C11.9374 3.87134 12.128 4.06193 12.1525 4.30295C12.1526 4.30513 12.1541 4.33208 12.1485 4.41206C12.1419 4.50626 12.1293 4.6304 12.1088 4.82868L12.1052 4.8632C12.0901 5.00856 12.0751 5.15344 12.0765 5.29752C12.0831 5.94547 12.3401 6.56575 12.7935 7.02858C12.8944 7.13152 13.0075 7.22325 13.1209 7.31538L13.1479 7.33732C13.3026 7.46305 13.3993 7.54185 13.4706 7.60378C13.5307 7.65618 13.5489 7.67632 13.5505 7.67812C13.7037 7.86585 13.7037 8.13545 13.5505 8.32318C13.5489 8.32498 13.5307 8.34512 13.4706 8.39752C13.3993 8.45945 13.3026 8.53825 13.1479 8.66398L13.1209 8.68592C13.0075 8.77805 12.8944 8.86978 12.7935 8.97272C12.3401 9.43552 12.0831 10.0559 12.0765 10.7038C12.0751 10.8478 12.0901 10.9927 12.1052 11.1381L12.1088 11.1726C12.1293 11.3709 12.1419 11.495 12.1485 11.5892C12.1541 11.6693 12.1526 11.6962 12.1525 11.6984C12.128 11.9394 11.9374 12.13 11.6964 12.1544C11.6943 12.1545 11.6674 12.156 11.5873 12.1505C11.4931 12.1439 11.3689 12.1312 11.1707 12.1108L11.1361 12.1072C10.9907 12.092 10.8459 12.077 10.7018 12.0784C10.0539 12.0851 9.4336 12.342 8.97073 12.7955C8.86787 12.8963 8.77607 13.0094 8.684 13.1229L8.66207 13.1499C8.53633 13.3045 8.45753 13.4013 8.39553 13.4725C8.3432 13.5327 8.323 13.5508 8.3212 13.5525C8.13347 13.7056 7.86393 13.7056 7.6762 13.5525C7.6744 13.5508 7.6542 13.5327 7.60187 13.4725C7.53987 13.4013 7.46107 13.3045 7.33533 13.1499L7.31347 13.1229C7.22133 13.0094 7.1296 12.8963 7.02667 12.7955C6.5638 12.342 5.94351 12.0851 5.29557 12.0784C5.1515 12.077 5.00665 12.092 4.8613 12.1072L4.82673 12.1108C4.62845 12.1312 4.50431 12.1439 4.41011 12.1505C4.3301 12.156 4.30316 12.1545 4.30099 12.1544C4.05998 12.13 3.86939 11.9394 3.84494 11.6983C3.84481 11.696 3.84335 11.669 3.84889 11.5892C3.85543 11.495 3.86812 11.3709 3.88859 11.1726L3.89218 11.1381C3.90729 10.9927 3.92235 10.8478 3.92089 10.7038C3.91426 10.0559 3.65733 9.43552 3.20385 8.97272C3.10302 8.86978 2.98995 8.77805 2.87649 8.68592L2.8495 8.66398C2.69481 8.53825 2.59806 8.45945 2.52683 8.39752C2.46642 8.34492 2.44837 8.32478 2.44689 8.32312C2.29375 8.13545 2.29375 7.86585 2.44689 7.67818C2.44837 7.67652 2.46641 7.65638 2.52683 7.60378C2.59806 7.54185 2.69481 7.46305 2.8495 7.33732L2.87647 7.31538C2.98994 7.22332 3.10301 7.13152 3.20385 7.02858C3.65733 6.56575 3.91426 5.94547 3.92089 5.29752C3.92235 5.15344 3.90729 5.0086 3.89218 4.86324L3.88859 4.82868C3.86812 4.6304 3.85543 4.50626 3.84889 4.41206C3.84335 4.33223 3.84481 4.30524 3.84494 4.30296C3.86939 4.06194 4.05999 3.87134 4.30101 3.8469C4.30329 3.84676 4.33029 3.8453 4.41011 3.85084C4.50431 3.85738 4.62845 3.87007 4.82673 3.89055ZM2.44689 8.32312C2.44685 8.32312 2.4469 8.32312 2.44689 8.32312V8.32312ZM4.30099 12.1544C4.30091 12.1544 4.30101 12.1544 4.30099 12.1544V12.1544ZM8.3212 13.5525C8.32107 13.5526 8.32133 13.5523 8.3212 13.5525V13.5525ZM11.6964 3.8469C11.6964 3.84689 11.6965 3.8469 11.6964 3.8469V3.8469ZM6.55933 2.22072C6.80226 1.92187 6.92373 1.77242 7.0426 1.67517C7.59887 1.22026 8.39853 1.22026 8.9548 1.67517C9.07367 1.77242 9.19513 1.92185 9.43807 2.2207C9.5524 2.36133 9.60953 2.43167 9.6706 2.4915C9.94907 2.76433 10.3222 2.9189 10.7121 2.92289C10.7975 2.92376 10.8877 2.91446 11.0679 2.89584C11.4511 2.85628 11.6426 2.8365 11.7955 2.85181C12.5104 2.92344 13.0759 3.48893 13.1475 4.20391C13.1629 4.35676 13.1431 4.54831 13.1035 4.9314C13.0849 5.11167 13.0756 5.2018 13.0765 5.2873C13.0805 5.67712 13.235 6.0503 13.5079 6.32876C13.5677 6.38982 13.638 6.44697 13.7786 6.56126C14.0775 6.80416 14.2269 6.92565 14.3242 7.04458C14.7791 7.60078 14.7791 8.40052 14.3242 8.95672C14.2269 9.07565 14.0775 9.19712 13.7786 9.43998C13.638 9.55425 13.5677 9.61145 13.5079 9.67252C13.235 9.95098 13.0805 10.3242 13.0765 10.714C13.0756 10.7995 13.0849 10.8897 13.1035 11.0699C13.1431 11.453 13.1629 11.6445 13.1475 11.7974C13.0759 12.5124 12.5104 13.0779 11.7955 13.1495C11.6426 13.1648 11.4511 13.1451 11.0679 13.1054C10.8877 13.0869 10.7975 13.0775 10.7121 13.0784C10.3222 13.0824 9.94907 13.237 9.6706 13.5098C9.60953 13.5697 9.5524 13.6399 9.43807 13.7805C9.19513 14.0794 9.07367 14.2288 8.9548 14.3261C8.39853 14.781 7.59887 14.781 7.0426 14.3261C6.92373 14.2288 6.80227 14.0795 6.55934 13.7806C6.44509 13.6401 6.38786 13.5697 6.3268 13.5098C6.04835 13.237 5.67517 13.0824 5.28535 13.0784C5.19985 13.0775 5.10972 13.0869 4.92945 13.1054C4.54636 13.1451 4.35481 13.1648 4.20196 13.1495C3.48698 13.0779 2.92149 12.5124 2.84986 11.7974C2.83455 11.6445 2.85433 11.453 2.89389 11.0699C2.9125 10.8897 2.92181 10.7995 2.92093 10.714C2.91695 10.3242 2.76238 9.95098 2.48955 9.67252C2.42972 9.61145 2.35941 9.55432 2.21878 9.44005C1.91993 9.19718 1.77047 9.07565 1.67322 8.95672C1.2183 8.40052 1.2183 7.60078 1.67322 7.04458C1.77047 6.92565 1.9199 6.80418 2.21875 6.5613C2.35939 6.44699 2.42971 6.38983 2.48955 6.32876C2.76238 6.0503 2.91695 5.67712 2.92093 5.2873C2.92181 5.20181 2.9125 5.11167 2.89389 4.93141C2.85433 4.54832 2.83455 4.35676 2.84986 4.20391C2.92149 3.48893 3.48698 2.92344 4.20196 2.85181C4.35481 2.8365 4.54635 2.85628 4.92943 2.89584C5.1097 2.91446 5.19985 2.92376 5.28535 2.92289C5.67517 2.9189 6.04835 2.76433 6.3268 2.4915C6.38787 2.43167 6.44503 2.36135 6.55933 2.22072ZM10.3523 7.02085C10.5476 6.82558 10.5476 6.50902 10.3523 6.31376C10.1571 6.1185 9.84053 6.1185 9.64527 6.31376L7.33213 8.62685L6.35235 7.64712C6.15709 7.45185 5.84051 7.45185 5.64525 7.64712C5.44999 7.84238 5.44999 8.15892 5.64525 8.35418L6.9786 9.68752C7.17387 9.88278 7.4904 9.88278 7.68567 9.68752L10.3523 7.02085Z" fill="#505050"/>
    </g>
  </g>
  <defs>
    <clipPath id="clip0_4614_4337">
      <rect width="16" height="16" fill="white"/>
    </clipPath>
  </defs>
</svg>