<svg xmlns="http://www.w3.org/2000/svg" width="42" height="42" viewBox="0 0 42 42" fill="none">
  <g clip-path="url(#clip0_2986_10895)">
    <path d="M12.3828 10.3236C12.3828 15.7554 16.8019 20.1745 22.2336 20.1745C27.6654 20.1745 32.0844 15.7554 32.0844 10.3236C32.0844 4.8466 27.6654 0.390747 22.2336 0.390747C16.8019 0.390747 12.3828 4.8466 12.3828 10.3236ZM24.6553 9.0923H19.8119C19.9437 7.0957 20.8736 2.85345 22.2336 2.85345C23.6905 2.85345 24.5459 7.43531 24.6553 9.0923ZM22.2336 17.7118C21.4461 17.7118 20.0613 15.404 19.8105 11.555L24.6568 11.5542C24.406 15.4031 23.021 17.7118 22.2336 17.7118ZM18.3917 3.94517C17.8152 5.40029 17.4535 7.18625 17.3443 9.0923H14.9464C15.305 6.91568 16.5972 5.05429 18.3917 3.94517ZM14.9486 11.555H17.3445C17.4529 13.4341 17.8081 15.1906 18.3743 16.6212C16.5926 15.5253 15.3092 13.6948 14.9486 11.555ZM26.0928 16.6212C26.6591 15.1906 27.0143 13.4333 27.1227 11.5542L29.5185 11.555C29.1579 13.6948 27.8745 15.5253 26.0928 16.6212ZM29.5208 9.0923H27.1229C27.0136 7.18625 26.652 5.40029 26.0754 3.94517C27.87 5.05429 29.1622 6.91568 29.5208 9.0923Z" fill="black"/>
    <path d="M15.8701 34.8686H25.6924C28.6615 34.8686 31.5453 33.6877 33.6045 31.6289C35.8821 29.3516 39.083 26.1514 41.1285 24.1076L41.9999 23.2369L41.1289 22.3659C38.7291 19.9661 34.8256 19.9644 32.4239 22.3608L28.3131 26.3897L28.3043 26.3984C27.9687 26.7341 27.5794 26.9964 27.1564 27.179V22.5551H12.4748C10.8303 22.5551 9.28422 23.1955 8.12158 24.3582C8.10853 24.3711 0.0132165 32.4667 0 32.4799L9.12948 41.6092C9.48461 41.2541 11.9575 38.7811 15.8701 34.8686ZM9.86279 26.0996C10.5605 25.402 11.4881 25.0178 12.4748 25.0178H24.6937V27.4805H14.7608V29.9432H25.6922C27.3344 29.9432 28.8786 29.3044 30.0411 28.1445L34.1516 24.1159L34.1604 24.1072C35.2961 22.9714 36.9936 22.7308 38.3673 23.3854C36.3773 25.3741 33.7901 27.9608 31.8633 29.8874C30.2625 31.4879 28.0134 32.4059 25.6925 32.4059H14.85L12.6118 34.644L6.9651 28.9963L9.86279 26.0996ZM3.48259 32.4796L5.2238 30.7377L10.8705 36.3854L9.1294 38.1264L3.48259 32.4796Z" fill="black"/>
  </g>
  <defs>
    <clipPath id="clip0_2986_10895">
      <rect width="42" height="42" fill="white"/>
    </clipPath>
  </defs>
</svg>