<svg xmlns="http://www.w3.org/2000/svg" width="10" height="10" viewBox="0 0 10 10" fill="none">
  <g clip-path="url(#clip0_4614_4625)">
    <path d="M9.54546 10C9.52033 10 9.49524 9.99795 9.47046 9.99377L6.99973 9.5805C6.37012 9.85954 5.68868 10.0025 5 10C4.0111 10 3.0444 9.70676 2.22215 9.15735C1.39991 8.60794 0.759043 7.82705 0.380605 6.91342C0.00216644 5.99979 -0.0968503 4.99446 0.0960758 4.02455C0.289002 3.05465 0.765206 2.16373 1.46447 1.46447C2.16373 0.765206 3.05465 0.289002 4.02455 0.0960758C4.99446 -0.0968503 5.99979 0.00216644 6.91342 0.380605C7.82705 0.759043 8.60794 1.39991 9.15735 2.22215C9.70676 3.0444 10 4.0111 10 5C10.0025 5.68868 9.85959 6.37013 9.5805 6.99973L9.99377 9.47046C10.0047 9.53559 10.0012 9.60231 9.98373 9.66599C9.96622 9.72966 9.93505 9.78876 9.89238 9.83916C9.84971 9.88956 9.79657 9.93006 9.73665 9.95784C9.67674 9.98561 9.6115 10 9.54546 10ZM5 0.909093C3.91503 0.909093 2.87449 1.3401 2.10729 2.10729C1.3401 2.87449 0.909093 3.91503 0.909093 5C0.909093 6.08498 1.3401 7.12552 2.10729 7.89271C2.87449 8.65991 3.91503 9.09091 5 9.09091C5.60188 9.09365 6.19654 8.95979 6.73918 8.69941C6.82375 8.65886 6.91876 8.64537 7.01127 8.66078L8.99191 8.99214L8.66078 7.0115C8.64535 6.91905 8.65885 6.82409 8.69941 6.73959C8.95969 6.19676 9.09355 5.602 9.09091 5C9.08971 3.91539 8.65832 2.87555 7.89138 2.10862C7.12445 1.34169 6.08461 0.910296 5 0.909093Z" fill="#222222"/>
  </g>
  <defs>
    <clipPath id="clip0_4614_4625">
      <rect width="10" height="10" fill="white"/>
    </clipPath>
  </defs>
</svg>