<svg width="30" height="30" viewBox="0 0 30 30" fill="none" xmlns="http://www.w3.org/2000/svg">
<circle cx="15" cy="15" r="14.5" fill="white" stroke="#505050"/>
<path d="M19.4363 10.4192C18.9081 9.99059 18.2386 9.77497 17.5595 9.81472C16.8803 9.85446 16.2406 10.1467 15.7659 10.634L14.651 11.7491C14.5286 11.8746 14.4606 12.0434 14.4617 12.2187C14.4628 12.3941 14.5329 12.5619 14.6569 12.6859C14.7809 12.8099 14.9488 12.88 15.1241 12.8811C15.2995 12.8822 15.4682 12.8142 15.5937 12.6918L16.7259 11.5597C16.9704 11.3181 17.2945 11.1738 17.6376 11.1537C17.9807 11.1336 18.3195 11.2391 18.5905 11.4505C18.7531 11.5915 18.8791 11.7699 18.9576 11.9703C19.036 12.1708 19.0646 12.3873 19.0408 12.6012C18.9992 12.9213 18.8493 13.2176 18.616 13.4409L16.7724 15.2844C16.574 15.4737 16.3235 15.5992 16.0531 15.6446C15.7827 15.69 15.5048 15.6533 15.2555 15.5393C15.1318 15.4813 14.9932 15.4626 14.8585 15.4858C14.7239 15.509 14.5996 15.5729 14.5023 15.669L14.4954 15.6759C14.4209 15.749 14.3646 15.8388 14.3314 15.9378C14.2981 16.0369 14.2887 16.1424 14.304 16.2457C14.3193 16.3491 14.3588 16.4474 14.4193 16.5325C14.4798 16.6177 14.5595 16.6874 14.6521 16.7359C15.0708 16.9414 15.536 17.0335 16.0014 17.003C16.6773 16.9478 17.31 16.6484 17.7814 16.1609L19.5353 14.407C20.0203 13.9379 20.3189 13.309 20.3758 12.6367C20.405 12.2192 20.3351 11.8007 20.1718 11.4153C20.0086 11.03 19.7565 10.6887 19.4363 10.4192Z" fill="#505050"/>
<path d="M14.413 17.6416L13.2809 18.7737C13.0364 19.0153 12.7123 19.1596 12.3691 19.1797C12.026 19.1998 11.6873 19.0943 11.4162 18.8829C11.2536 18.7419 11.1276 18.5636 11.0492 18.3631C10.9707 18.1627 10.9422 17.9462 10.9659 17.7322C11.0076 17.4121 11.1575 17.1158 11.3907 16.8926L13.2343 15.049C13.4327 14.8597 13.6833 14.7343 13.9537 14.6888C14.2241 14.6434 14.5019 14.6801 14.7512 14.7941C14.875 14.8521 15.0135 14.8708 15.1482 14.8476C15.2829 14.8244 15.4072 14.7605 15.5044 14.6645L15.5113 14.6576C15.5859 14.5844 15.6421 14.4946 15.6754 14.3956C15.7086 14.2965 15.718 14.191 15.7027 14.0877C15.6875 13.9843 15.648 13.8861 15.5875 13.8009C15.527 13.7157 15.4472 13.646 15.3546 13.5976C14.936 13.392 14.4707 13.2999 14.0053 13.3304C13.3294 13.3857 12.6967 13.685 12.2253 14.1725C11.7463 14.6515 10.9512 15.4466 10.4723 15.9255C9.9849 16.3968 9.68564 17.0294 9.63041 17.7052C9.59592 18.246 9.72695 18.7845 10.0061 19.2489C10.2852 19.7134 10.6991 20.0819 11.1928 20.3054C11.6865 20.5288 12.2366 20.5965 12.7697 20.4996C13.3029 20.4027 13.7939 20.1458 14.1774 19.7629L15.3559 18.5844C15.4783 18.4588 15.5463 18.2901 15.5452 18.1147C15.5441 17.9394 15.4739 17.7715 15.3499 17.6476C15.2259 17.5236 15.0581 17.4534 14.8827 17.4523C14.7074 17.4512 14.5386 17.5192 14.413 17.6416Z" fill="#505050"/>
</svg>
