<svg width="14" height="14" viewBox="0 0 14 14" fill="none" xmlns="http://www.w3.org/2000/svg">
<g id="vuesax/linear/message">
<g id="message">
<path id="Vector" d="M4.95964 11.0837H4.66797C2.33464 11.0837 1.16797 10.5003 1.16797 7.58366V4.66699C1.16797 2.33366 2.33464 1.16699 4.66797 1.16699H9.33464C11.668 1.16699 12.8346 2.33366 12.8346 4.66699V7.58366C12.8346 9.91699 11.668 11.0837 9.33464 11.0837H9.04297C8.86214 11.0837 8.68714 11.1712 8.5763 11.317L7.7013 12.4837C7.3163 12.997 6.6863 12.997 6.3013 12.4837L5.4263 11.317C5.33297 11.1887 5.11714 11.0837 4.95964 11.0837Z" stroke="white" stroke-width="1.5" stroke-miterlimit="10" stroke-linecap="round" stroke-linejoin="round"/>
<path id="Vector_2" d="M9.33143 6.41667H9.33667" stroke="white" stroke-width="2" stroke-linecap="round" stroke-linejoin="round"/>
<path id="Vector_3" d="M6.99549 6.41667H7.00073" stroke="white" stroke-width="2" stroke-linecap="round" stroke-linejoin="round"/>
<path id="Vector_4" d="M4.66346 6.41667H4.6687" stroke="white" stroke-width="2" stroke-linecap="round" stroke-linejoin="round"/>
</g>
</g>
</svg>
