<svg width="30" height="30" viewBox="0 0 30 30" fill="none" xmlns="http://www.w3.org/2000/svg">
<g clip-path="url(#clip0_4226_18567)">
<path d="M30 15C30 6.71573 23.2843 0 15 0C6.71573 0 0 6.71573 0 15C0 23.2843 6.71573 30 15 30C23.2843 30 30 23.2843 30 15Z" fill="url(#paint0_linear_4226_18567)"/>
<path opacity="0.1" d="M26.2893 5.13139C24.1025 9.14587 21.0097 13.2867 17.1452 17.1511C13.2808 21.0156 9.13996 24.1024 5.13141 26.2893C4.8801 26.0709 4.63602 25.8432 4.39917 25.6064C2.96758 24.2226 1.8258 22.5676 1.04043 20.738C0.255058 18.9083 -0.158195 16.9406 -0.175232 14.9496C-0.192269 12.9586 0.18725 10.9842 0.941197 9.14135C1.69514 7.29854 2.80843 5.62427 4.21614 4.21617C5.62384 2.80807 7.2978 1.69431 9.1404 0.939853C10.983 0.185392 12.9574 -0.194678 14.9484 -0.178197C16.9394 -0.161716 18.9072 0.250988 20.7371 1.03585C22.5669 1.82071 24.2222 2.96202 25.6064 4.39323C25.8433 4.63008 26.0709 4.87613 26.2893 5.13139Z" fill="white"/>
<path d="M18.5528 7.10498H11.4476C10.296 7.10498 9.19154 7.56245 8.37724 8.37675C7.56294 9.19106 7.10547 10.2955 7.10547 11.4471V18.5523C7.10547 19.7039 7.56294 20.8084 8.37724 21.6227C9.19154 22.437 10.296 22.8945 11.4476 22.8945H18.5528C19.7044 22.8945 20.8089 22.437 21.6232 21.6227C22.4375 20.8084 22.8949 19.7039 22.8949 18.5523V11.4471C22.8949 10.2955 22.4375 9.19106 21.6232 8.37675C20.8089 7.56245 19.7044 7.10498 18.5528 7.10498ZM21.5134 17.9287C21.5134 18.8793 21.1357 19.7909 20.4636 20.4631C19.7914 21.1353 18.8797 21.5129 17.9292 21.5129H12.0713C11.1207 21.5129 10.209 21.1353 9.53684 20.4631C8.86467 19.7909 8.48705 18.8793 8.48705 17.9287V12.0708C8.48705 11.1202 8.86467 10.2085 9.53684 9.53635C10.209 8.86418 11.1207 8.48656 12.0713 8.48656H17.9292C18.8797 8.48656 19.7914 8.86418 20.4636 9.53635C21.1357 10.2085 21.5134 11.1202 21.5134 12.0708V17.9287Z" fill="white"/>
<path d="M17.8786 12.1495L17.8411 12.112L17.8096 12.0804C17.0633 11.3368 16.0526 10.9194 14.999 10.9199C14.467 10.9235 13.9409 11.0319 13.4508 11.2389C12.9607 11.4459 12.5162 11.7475 12.1426 12.1263C11.7691 12.5052 11.4738 12.9539 11.2738 13.4469C11.0737 13.9399 10.9728 14.4675 10.9767 14.9995C10.9759 16.0792 11.4015 17.1156 12.1609 17.8831C12.5329 18.2596 12.9761 18.5582 13.4648 18.7615C13.9534 18.9649 14.4777 19.0688 15.0069 19.0673C15.8008 19.0506 16.5727 18.8033 17.2285 18.3555C17.8842 17.9077 18.3955 17.2788 18.6999 16.5454C19.0044 15.812 19.0888 15.0059 18.943 14.2253C18.7972 13.4448 18.4273 12.7235 17.8786 12.1495ZM14.999 17.6758C14.4682 17.6833 13.9471 17.5327 13.5021 17.2431C13.0571 16.9536 12.7082 16.5383 12.4999 16.05C12.2915 15.5616 12.2332 15.0224 12.3322 14.5008C12.4312 13.9792 12.683 13.4988 13.0558 13.1207C13.4285 12.7427 13.9053 12.4841 14.4255 12.3777C14.9456 12.2714 15.4856 12.3221 15.9769 12.5235C16.4681 12.725 16.8883 13.0679 17.1841 13.5088C17.4798 13.9497 17.6378 14.4686 17.6379 14.9995C17.6405 15.3486 17.5743 15.6947 17.443 16.0181C17.3118 16.3416 17.1181 16.636 16.873 16.8845C16.628 17.1331 16.3363 17.3309 16.0148 17.4667C15.6932 17.6024 15.3481 17.6735 14.999 17.6758Z" fill="white"/>
<path d="M20.2169 10.7327C20.218 10.8594 20.194 10.985 20.1465 11.1024C20.0989 11.2198 20.0287 11.3266 19.9397 11.4168C19.8508 11.507 19.745 11.5788 19.6283 11.628C19.5116 11.6773 19.3864 11.703 19.2597 11.7038C19.1341 11.7037 19.0098 11.6787 18.8939 11.6303C18.7781 11.5819 18.673 11.5109 18.5847 11.4215C18.451 11.2859 18.36 11.114 18.3231 10.9271C18.2862 10.7402 18.305 10.5466 18.377 10.3703C18.4491 10.194 18.5714 10.0427 18.7286 9.93522C18.8859 9.82773 19.0712 9.76876 19.2617 9.76563C19.4846 9.76558 19.7004 9.84382 19.8716 9.98668L19.8913 10.0064C19.9231 10.0323 19.9522 10.0614 19.9781 10.0933L19.9998 10.1169C20.1411 10.291 20.2178 10.5086 20.2169 10.7327Z" fill="white"/>
</g>
<defs>
<linearGradient id="paint0_linear_4226_18567" x1="4.39342" y1="4.39342" x2="25.6066" y2="25.6066" gradientUnits="userSpaceOnUse">
<stop stop-color="#FAE100"/>
<stop offset="0.15" stop-color="#FCB720"/>
<stop offset="0.3" stop-color="#FF7950"/>
<stop offset="0.5" stop-color="#FF1C74"/>
<stop offset="1" stop-color="#6C1CD1"/>
</linearGradient>
<clipPath id="clip0_4226_18567">
<rect width="30" height="30" fill="white"/>
</clipPath>
</defs>
</svg>
