<svg xmlns="http://www.w3.org/2000/svg" width="14" height="14" viewBox="0 0 14 14" fill="none">
  <g clip-path="url(#clip0_4614_4556)">
    <path d="M6.53425 10.5265C6.59519 10.5875 6.66754 10.6358 6.74716 10.6688C6.82678 10.7018 6.91212 10.7187 6.9983 10.7187C7.08449 10.7187 7.16982 10.7018 7.24945 10.6688C7.32907 10.6358 7.40141 10.5875 7.46235 10.5265L9.93721 8.05167C10.0603 7.9286 10.1294 7.76168 10.1294 7.58763C10.1294 7.41358 10.0603 7.24666 9.93721 7.12359C9.81414 7.00052 9.64722 6.93138 9.47317 6.93138C9.29912 6.93138 9.13221 7.00052 9.00913 7.12359L7.65455 8.47818V1.3125C7.65455 1.13845 7.58541 0.971532 7.46234 0.848461C7.33927 0.72539 7.17235 0.65625 6.9983 0.65625C6.82425 0.65625 6.65733 0.72539 6.53426 0.848461C6.41119 0.971532 6.34205 1.13845 6.34205 1.3125V8.47818L4.98747 7.12359C4.8644 7.00052 4.69748 6.93138 4.52343 6.93138C4.34939 6.93138 4.18247 7.00052 4.0594 7.12359C3.93633 7.24666 3.86719 7.41358 3.86719 7.58763C3.86719 7.76168 3.93633 7.9286 4.0594 8.05167L6.53425 10.5265Z" fill="#222222"/>
    <path d="M12.6875 6.34375C12.5135 6.34375 12.3465 6.41289 12.2235 6.53596C12.1004 6.65903 12.0312 6.82595 12.0312 7V12.0312H1.96875V7C1.96875 6.82595 1.89961 6.65903 1.77654 6.53596C1.65347 6.41289 1.48655 6.34375 1.3125 6.34375C1.13845 6.34375 0.971532 6.41289 0.848461 6.53596C0.72539 6.65903 0.65625 6.82595 0.65625 7V12.25C0.65625 12.5401 0.771484 12.8183 0.976602 13.0234C1.18172 13.2285 1.45992 13.3438 1.75 13.3438H12.25C12.5401 13.3438 12.8183 13.2285 13.0234 13.0234C13.2285 12.8183 13.3438 12.5401 13.3438 12.25V7C13.3438 6.82595 13.2746 6.65903 13.1515 6.53596C13.0285 6.41289 12.8615 6.34375 12.6875 6.34375Z" fill="#222222"/>
  </g>
  <defs>
    <clipPath id="clip0_4614_4556">
      <rect width="14" height="14" fill="white"/>
    </clipPath>
  </defs>
</svg>