<svg width="20" height="20" viewBox="0 0 20 20" fill="none" xmlns="http://www.w3.org/2000/svg">
<g id="vuesax/bold/home-2">
<g id="home-2">
<path id="Vector" d="M16.4256 5.85463L11.8222 2.63026C10.5674 1.75016 8.64136 1.79817 7.43457 2.73428L3.43057 5.86263C2.63137 6.4867 2 7.76684 2 8.77496V14.2956C2 16.3358 3.65435 18 5.69231 18H14.3077C16.3457 18 18 16.3438 18 14.3036V8.87897C18 7.79885 17.3047 6.4707 16.4256 5.85463ZM10.5994 14.7996C10.5994 15.1277 10.3277 15.3997 10 15.3997C9.67233 15.3997 9.4006 15.1277 9.4006 14.7996V12.3994C9.4006 12.0713 9.67233 11.7993 10 11.7993C10.3277 11.7993 10.5994 12.0713 10.5994 12.3994V14.7996Z" fill="#FE5C4D"/>
</g>
</g>
</svg>
