<svg xmlns="http://www.w3.org/2000/svg" width="20" height="20" viewBox="0 0 20 20" fill="none">
  <path d="M10.0003 2C5.58234 2 2 5.58163 2 9.99999C2 14.4183 5.58198 18 10.0003 18C14.419 18 18.0007 14.4183 18.0007 9.99999C18.0007 5.58163 14.419 2 10.0003 2ZM10.0003 4.39209C11.4622 4.39209 12.6469 5.57706 12.6469 7.03825C12.6469 8.49979 11.4622 9.68442 10.0003 9.68442C8.53915 9.68442 7.35453 8.49979 7.35453 7.03825C7.35453 5.57706 8.53915 4.39209 10.0003 4.39209ZM9.99858 15.9083C8.54056 15.9083 7.20518 15.3774 6.17517 14.4985C5.92426 14.2845 5.77948 13.9706 5.77948 13.6414C5.77948 12.1594 6.97886 10.9734 8.46114 10.9734H11.5402C13.0229 10.9734 14.2177 12.1594 14.2177 13.6414C14.2177 13.971 14.0736 14.2841 13.8223 14.4981C12.7927 15.3774 11.457 15.9083 9.99858 15.9083Z" fill="#222222"/>
</svg>