<svg xmlns="http://www.w3.org/2000/svg" width="20" height="20" viewBox="0 0 20 20" fill="none">
  <path d="M10 2C5.58177 2 2 5.58177 2 10C2 14.4182 5.58177 18 10 18C14.4182 18 18 14.4182 18 10C17.9951 5.58385 14.4161 2.00495 10 2ZM10.2855 4.30638L13.0667 3.19466C13.3823 3.3375 13.6876 3.50208 13.9805 3.68724L13.9878 3.6918C14.2755 3.87409 14.5505 4.07578 14.8109 4.29544L14.8333 4.31497C14.9501 4.41445 15.0637 4.51745 15.1741 4.6237C15.188 4.63737 15.2026 4.65039 15.2165 4.66432C15.3323 4.77734 15.4444 4.89388 15.5529 5.0138C15.5618 5.02396 15.5704 5.03464 15.5794 5.04479C15.6746 5.15143 15.7661 5.26185 15.8549 5.37409C15.8763 5.40078 15.8977 5.42747 15.9184 5.45417C16.0147 5.57891 16.1079 5.70586 16.196 5.83685L15.6415 8.19362L12.9138 9.103L10.2862 7.00052L10.2855 4.30638ZM4.08138 5.45573C4.10208 5.42904 4.12318 5.40234 4.14453 5.37578C4.23229 5.26445 4.32305 5.15586 4.4168 5.04987C4.42695 5.03867 4.43633 5.02721 4.44635 5.01602C4.55417 4.89583 4.66576 4.77943 4.78138 4.66667C4.79466 4.65365 4.80794 4.63997 4.82188 4.628C4.93138 4.5224 5.04401 4.42005 5.15977 4.32109L5.18646 4.2987C5.44453 4.0806 5.71693 3.88021 6.00182 3.6987L6.01224 3.69206C6.30339 3.50729 6.60677 3.34297 6.92057 3.2L9.71445 4.30638V6.99974L7.08672 9.10182L4.35898 8.19414L3.80456 5.83737C3.89336 5.70664 3.98555 5.57995 4.08138 5.45573ZM3.76003 14.0921C3.68164 13.9725 3.60664 13.8508 3.53516 13.7267L3.51784 13.6967C3.44674 13.5733 3.37943 13.4478 3.31602 13.3203L3.3138 13.3163C3.18021 13.048 3.06289 12.772 2.96263 12.4896V12.487C2.91523 12.3536 2.87201 12.2171 2.83203 12.0797L2.81758 12.029C2.78099 11.9 2.74779 11.7695 2.7181 11.6376C2.71549 11.6247 2.71224 11.6125 2.70964 11.5997C2.64414 11.3018 2.59714 11.0003 2.56875 10.6965L4.19674 8.74297L6.9056 9.64583L7.6918 12.7904L6.4 14.5091L3.76003 14.0921ZM11.7758 17.2514C11.6424 17.2845 11.5056 17.313 11.3688 17.3387C11.3496 17.3424 11.3301 17.3456 11.3109 17.3491C11.1944 17.3699 11.0766 17.3878 10.9585 17.4023C10.927 17.4064 10.8957 17.4107 10.8643 17.4145C10.7547 17.4272 10.644 17.4368 10.5331 17.4448C10.4982 17.4471 10.4637 17.4507 10.4288 17.4529C10.287 17.4616 10.144 17.4667 10 17.4667C9.8681 17.4667 9.73698 17.4632 9.60664 17.4563C9.59089 17.4563 9.57578 17.4536 9.56003 17.4525C9.44401 17.4458 9.32852 17.4371 9.21328 17.4259L9.2 17.4234C8.94753 17.3961 8.69648 17.356 8.44805 17.3035L6.8707 14.8339L8.14219 13.1384H11.8578L13.1501 14.8451L11.7758 17.2514ZM17.2923 11.6C17.2896 11.6128 17.2865 11.6251 17.2837 11.6379C17.2539 11.7697 17.2207 11.9001 17.1842 12.0293L17.1699 12.0799C17.1298 12.2173 17.0867 12.3534 17.0392 12.4872V12.4898C16.9389 12.7723 16.8217 13.0483 16.688 13.3165L16.6858 13.3206C16.622 13.4482 16.5548 13.5737 16.484 13.697L16.4667 13.727C16.3956 13.8514 16.3207 13.9729 16.2422 14.0918L13.6112 14.5066L12.3104 12.7893L13.0962 9.64557L15.8051 8.74271L17.4331 10.6962C17.4048 11.0001 17.3578 11.302 17.2923 11.6Z" fill="#222222"/>
</svg>