<svg xmlns="http://www.w3.org/2000/svg" width="20" height="20" viewBox="0 0 20 20" fill="none">
  <path d="M17 18.3185C15.9158 18.3353 14.9644 18.352 14.13 18.3688C14.2735 18.3129 14.2948 18.2514 14.2948 18.2514C14.2948 18.2514 14.3585 18.1619 14.13 18.0612C13.9015 17.9605 13.6783 17.692 13.5401 17.7088C13.4072 17.7255 13.2743 17.7759 13.1893 17.7759C13.1893 17.7759 13.3594 17.692 13.4444 17.6081C13.4444 17.6081 13.0139 17.7479 12.7641 17.636C12.7641 17.636 12.9448 17.5521 13.1096 17.4403C13.1096 17.4403 13.0883 17.2836 12.897 17.3228C12.7056 17.3563 12.594 17.457 12.408 17.4682C12.222 17.4794 12.1263 17.4458 12.1263 17.4458C12.1263 17.4458 12.3655 17.2948 12.5409 17.2277C12.6844 17.1718 12.9235 17.1438 12.9235 17.1438C12.9661 17.1214 13.1096 16.7019 13.8483 15.4489C13.9759 15.2363 14.2044 14.8951 14.3692 14.6434C14.5286 14.3972 14.6615 14.0952 14.6402 13.905C14.619 13.7036 14.4064 12.859 14.0078 12.5681C13.6145 12.2772 13.4125 12.115 13.4125 12.115C13.4125 12.115 13.7208 12.2157 13.944 12.3723C14.1672 12.5289 14.332 12.5289 14.332 12.5289C14.332 12.5289 14.1832 12.2381 14.13 12.115C14.0769 11.9919 13.5454 11.7122 13.37 11.6675C13.1999 11.6227 12.5303 12.0479 12.3921 12.2716C12.4133 12.1821 12.4505 12.0982 12.493 12.0367C12.6365 11.8409 13.0724 11.578 13.0724 11.578C13.0724 11.578 12.206 11.8521 11.9137 12.2548C11.9137 12.2548 12.2858 11.6004 12.9289 11.3319C13.3115 11.1696 13.6942 11.192 13.6942 11.192C13.4922 10.8452 12.8385 10.0117 12.8332 10.0117C12.2592 9.88867 11.0953 10.1236 11.0953 10.1236C11.2919 9.97817 11.9084 9.8607 12.2379 9.80477C12.3655 9.78239 12.4558 9.7712 12.4558 9.7712C12.4558 9.7712 12.4558 9.73764 12.4505 9.67611C12.4293 9.4188 12.2858 8.27767 12.0944 7.71829C11.8287 6.93516 11.5417 6.32544 11.5417 6.32544C11.5417 6.32544 11.9084 6.71141 12.2805 7.2596C12.5303 7.62879 12.6897 8.28326 12.6897 8.28326C12.5781 7.01348 11.648 5.54791 11.648 5.54791C12.1423 5.95066 12.5887 6.57157 12.881 7.09738C12.8173 5.93947 12.5037 4.9326 12.0891 4.64172C12.2326 4.73681 12.5834 4.97734 12.7747 5.2906C12.7747 5.2906 13.1202 4.79275 13.2903 4.59137C13.5241 4.31728 13.758 4.14387 13.758 4.14387C13.758 4.14387 13.7473 4.1159 13.7261 4.07115C13.7633 4.032 13.8005 3.98725 13.843 3.9425C14.0715 3.71875 14.1194 3.59009 14.1194 3.59009C14.0025 3.674 13.7952 3.72434 13.7952 3.72434C13.7952 3.72434 14.0131 3.56212 14.1513 3.39431C14.2895 3.23209 14.3745 3.12581 14.3745 3.12581C14.316 3.28243 14.2788 3.44465 14.2788 3.44465C14.3851 3.38872 14.6615 3.26565 14.8794 2.91884C15.0973 2.56643 15.4374 2.08537 15.5756 1.90077C15.7138 1.71618 15.8839 1.41971 15.8839 1.41971C15.8839 1.53159 15.9052 1.72177 15.9052 1.72177C15.953 1.66584 16.1762 1.47565 16.2028 1.45327C16.2825 1.40293 16.4738 1.38055 16.5057 1.35818C16.5589 1.31343 16.5642 1.21274 16.5642 1.21274C16.527 1.26308 16.4366 1.27427 16.4366 1.27427C16.4632 1.22393 16.5323 1.22393 16.5164 1.09527C16.5057 1.02255 16.4473 0.966615 16.4473 0.966615C16.4473 0.966615 16.4791 1.22952 16.3835 1.23512L16.1549 1.26308C16.1549 1.26308 16.2931 1.20715 16.325 1.14002C16.3569 1.07849 16.3144 0.893896 16.2772 0.849146C16.2347 0.809989 16.1018 0.765239 16.1231 0.759645C16.1443 0.754051 16.325 0.69252 16.3941 0.681333C16.4632 0.670145 16.5164 0.619801 16.4473 0.580645C16.3782 0.541488 16.1284 0.547082 16.1284 0.547082C16.0114 0.524707 15.852 0.681333 15.7829 0.776427C15.7138 0.871521 15.7457 1.02815 15.7138 1.21274C15.6819 1.40293 15.363 1.72177 15.363 1.72177C15.4162 1.6043 15.4428 1.41971 15.4428 1.41971C15.4428 1.41971 15.1026 1.76093 14.72 1.88959C14.3373 2.01824 13.8377 2.51049 13.6038 2.779C13.4922 2.90765 13.3328 3.00275 13.168 3.08665C13.3859 3.19293 13.4869 3.51737 13.5294 3.66281C13.5401 3.70197 13.5454 3.72993 13.5507 3.73553C13.5507 3.73553 13.3753 3.495 13.1946 3.38312C13.0777 3.3104 12.9661 3.26006 12.8757 3.23209C12.8066 3.20971 12.7535 3.19293 12.7216 3.18734L11.935 3.45584C11.9084 3.4055 11.85 3.36634 11.85 3.36634C11.8446 3.51737 11.733 3.95928 11.5098 4.20541C11.4673 4.25575 11.4035 4.30609 11.3451 4.35084C11.2653 4.38441 11.1909 4.25575 11.2069 4.211C11.2175 4.18303 11.3344 4.16066 11.3344 4.16066C11.3344 4.16066 11.276 4.13269 11.2281 4.13269C11.1643 4.13269 11.1006 4.12709 11.1006 4.12709C11.1006 4.12709 11.2069 4.06556 11.2866 4.05997C11.3663 4.05437 11.4832 4.02641 11.4832 4.02641C11.4832 4.02641 11.3982 3.99284 11.3238 3.97047C11.2441 3.94809 11.1218 3.9369 11.1218 3.9369C11.1218 3.9369 11.1218 3.93691 11.1697 3.88656C11.2175 3.83622 11.3451 3.75231 11.3451 3.75231L11.2016 3.29362C11.2016 3.29362 11.1431 3.24887 11.074 3.23768C11.0049 3.2265 10.7923 3.14259 10.7923 3.14259L11.0846 3.14818L10.973 2.5944C10.973 2.5944 11.1803 2.63356 11.3025 2.60559C11.4195 2.58321 11.7011 2.39862 11.7011 2.39862L11.8712 2.81256C11.8712 2.81256 11.8606 2.57203 11.8446 2.47134C11.8287 2.37065 11.7383 1.99587 11.6958 1.91756C11.6214 1.79449 11.462 1.72177 11.462 1.72177C11.0208 1.53159 10.3246 1.59312 10.0748 2.05181C10.0004 2.19165 9.93663 2.39862 10.0323 2.72865C10.0961 2.93562 10.1386 2.99715 10.1386 2.99715C10.1386 2.99715 9.97383 3.01393 9.96852 3.08106C9.96321 3.15378 10.0004 3.36075 10.0908 3.46143C10.1811 3.56212 10.3087 3.65722 10.3087 3.65722C10.3087 3.65722 10.3087 3.65722 10.3618 3.81944C10.3778 3.86419 10.399 3.92012 10.4256 3.97606C10.3299 4.08794 10.1705 4.25016 10.011 4.33966C9.75593 4.4795 9.38921 4.72003 9.36795 4.73681C9.26165 4.80394 9.17661 4.86547 9.12878 4.92141C9.2776 4.85988 9.44767 4.80394 9.59117 4.75359C9.75593 4.69766 9.88348 4.6585 9.88348 4.6585C9.88348 4.6585 9.83565 4.69766 9.75593 4.75919C9.66026 4.83191 9.52208 4.927 9.34669 5.03328C9.04374 5.21228 8.67702 5.57588 8.50163 5.80522C8.26247 6.14085 8.04988 6.43732 8.04988 6.43732C8.04988 6.43732 8.13491 6.47647 8.24121 6.53801C8.1668 6.76735 8.00204 7.28198 7.91169 7.42741C7.79477 7.61201 7.66721 7.84135 7.66721 7.84135L7.80008 7.80779C7.97016 7.8022 8.11897 7.91407 8.11897 7.91407C8.11897 7.91407 7.6991 8.12104 7.4493 8.47904C7.19951 8.83704 7.19419 9.29573 7.19419 9.29573C7.13042 9.22861 6.96566 9.06639 6.88062 8.97689C6.87531 8.99367 6.86999 9.01045 6.86468 9.02723C6.85936 9.03842 6.85405 9.04961 6.85405 9.0608C6.89125 9.22861 6.95503 9.5027 7.01349 9.60898C7.16231 9.87189 7.4493 10.0677 7.4493 10.0677C7.4493 10.0677 6.84873 9.78798 6.67866 9.54745C6.67866 9.54745 6.76901 9.84952 6.91782 10.0509C6.89125 10.0453 6.86468 10.0341 6.8381 10.0229C6.73712 9.98377 6.63614 9.90545 6.5511 9.81595C6.54047 9.98377 6.57768 10.0677 6.6574 10.1236C6.75307 10.1907 6.76901 10.2523 6.86999 10.2635C6.97097 10.2746 6.92845 10.2746 7.06132 10.3585C7.19419 10.4369 7.14105 10.2914 7.27923 10.3306C7.41742 10.3753 7.42805 10.2858 7.42805 10.2858C7.42805 10.2858 7.53434 10.3585 7.58217 10.297C7.62469 10.2299 7.61406 10.1292 7.64595 9.93902C7.67784 9.74883 7.63001 9.75442 7.53966 9.64255C7.45462 9.53067 7.35895 9.39642 7.35895 9.39642C7.35895 9.39642 7.39616 9.20623 7.54497 9.03283C7.69379 8.85383 7.95421 8.68601 8.10302 8.53498C8.26778 8.37276 8.2731 8.22173 8.36876 8.07629C8.46975 7.85254 8.44317 7.7966 8.54415 7.58404C8.5601 7.54488 8.82052 7.29316 8.78332 7.20926C8.68234 7.00229 8.57073 6.81769 8.47506 6.67785C8.50695 6.70022 8.53884 6.72819 8.56541 6.75057C8.76206 6.92398 8.96402 7.14213 8.96402 7.14213C8.96402 7.14213 9.12878 6.94076 9.27228 6.78413C9.27228 6.78413 9.54865 6.52682 10.0429 5.92829C10.0429 5.92829 9.80908 6.5436 9.68684 6.84007C9.68684 6.84566 9.68152 6.85126 9.68152 6.85685C9.89411 6.69463 10.1173 6.49885 10.1173 6.49885C10.1173 6.49885 9.58585 7.39385 9.46361 7.91967C9.45298 8.10985 9.53802 8.70279 9.47956 9.04961C9.51145 9.03283 9.53802 9.02164 9.56991 9.01045C9.9632 8.85942 10.5 8.87061 10.5 8.87061C10.3618 8.89298 10.1917 8.94892 10.0164 9.02164C9.69215 9.15589 9.35732 9.35726 9.21913 9.52508L9.20319 9.53627C9.12347 9.65933 9.05969 9.7712 9.0278 9.84392C9.0278 9.84392 9.2085 9.6873 9.52208 9.5922L9.51676 9.5978C9.68152 9.54745 10.0004 9.46914 10.3884 9.4132C10.8614 9.35167 11.4673 9.46355 11.6746 9.5083C11.7224 9.51948 11.749 9.52508 11.749 9.52508C11.733 9.52508 11.7224 9.52508 11.7065 9.52508C11.1006 9.48592 10.6754 9.5027 10.0695 9.6873C9.89411 9.74323 9.64432 9.85511 9.41578 9.96699L9.41047 9.96139C9.41047 9.96139 9.24039 10.0453 9.065 10.1404C8.98528 10.1795 8.90556 10.2243 8.8471 10.2635C8.80458 10.2914 8.76737 10.3138 8.7408 10.3306C8.66108 10.3921 8.56541 10.7277 8.49632 10.9962C8.22527 11.4214 7.90638 11.908 7.90638 11.908C7.90638 11.908 7.50245 12.473 7.42273 12.6464C7.42273 12.6464 7.2314 12.7303 6.93377 12.9261C6.93377 12.9261 7.13042 12.624 7.40679 12.5233C7.40679 12.5233 7.15168 12.4506 7.02944 12.5233C7.02944 12.5233 7.09321 12.3164 7.35895 12.2604C7.35895 12.2604 7.16231 11.9584 6.91782 11.8129C6.83279 11.7626 6.7637 11.6899 6.69992 11.6116C6.6574 11.4381 6.75838 11.4102 6.81684 11.2647C6.88594 11.0746 6.82747 10.9459 6.66271 10.8788C6.49796 10.8172 6.01962 10.9403 6.01962 10.9403C6.01962 10.9403 6.26942 10.7725 6.46075 10.7557C6.46075 10.7557 5.97711 10.711 5.50409 10.5823C5.11079 10.476 4.79722 10.4872 4.50491 10.6047C4.26043 10.6998 4.40392 10.9851 4.54211 11.0913C4.68029 11.1976 4.861 11.2871 4.861 11.2871C4.861 11.2871 4.79191 11.0857 5.02044 10.9851C5.02044 10.9851 4.93009 11.2032 4.97792 11.371L5.0789 11.4326C5.0789 11.4326 5.03107 11.1641 5.27555 11.0466C5.27555 11.0466 5.15331 11.3375 5.19583 11.4997L5.37122 11.5668C5.37122 11.5668 5.38185 11.1696 5.62633 11.0746C5.62633 11.0746 5.49346 11.427 5.58913 11.6004C5.63696 11.6843 5.72199 11.729 5.85486 11.7514C5.89207 11.7961 5.92927 11.8353 5.95585 11.8745C6.0462 12.0255 6.09403 12.6016 6.30662 13.0156C6.51922 13.4239 6.88062 14.0392 7.25797 14.1567C7.63532 14.2686 8.05519 14.0281 8.39534 13.7148L8.70891 13.4016C8.70891 13.4016 8.41128 13.3009 8.20932 13.0436C8.20932 13.0436 8.41128 13.0883 8.53352 13.1275C8.65576 13.1722 8.96934 13.2002 8.96934 13.2002C8.96934 13.2002 8.52289 12.8701 8.37408 12.7415C8.28904 12.6688 8.21995 12.3891 8.17743 12.1709C8.46975 12.4618 8.9215 12.9037 9.11815 13.038C9.4955 13.2953 9.66026 13.2673 9.66026 13.2673C9.66026 13.2673 10.3778 12.3779 10.6169 12.1821C10.6169 12.1821 9.926 12.2884 9.39452 12.3052C9.39452 12.3052 10.1811 12.0367 10.585 11.8409C10.585 11.8409 10.011 11.757 9.7453 11.8241C9.7453 11.8241 10.4362 11.6451 10.9199 11.4102C11.4035 11.1808 12.3123 10.8508 12.594 10.8564C12.594 10.8564 11.5895 11.1417 11.2494 11.5556C11.2494 11.5556 11.6108 11.4885 11.8128 11.5221C11.8128 11.5221 11.1218 12.0311 11.0315 12.1653C11.0315 12.1653 11.5842 12.7751 11.8978 13.1051C12.2114 13.4351 12.6791 13.5302 12.6791 13.5302C12.6791 13.5302 12.5515 13.368 12.4293 12.9876C12.3814 12.8422 12.3602 12.6967 12.3549 12.5625C12.3868 12.7023 12.4718 12.859 12.5728 13.0324C12.7003 13.2393 13.1999 13.7931 13.2424 13.8714C13.5347 13.6365 13.7527 13.6365 13.7527 13.6365C13.6198 13.726 13.3275 14.0281 13.3275 14.0281C13.3275 14.0281 12.8438 14.649 12.6897 15.007C12.5356 15.3706 12.3442 16.1201 12.2486 16.3103C12.2486 16.3103 12.8757 15.3482 13.0883 14.9846C13.0883 14.9846 12.7375 15.846 12.4612 16.3886C12.2007 16.9033 12.0413 17.2053 11.9669 17.3396C11.9137 17.4347 11.8659 17.5242 11.7915 17.6696C11.7862 17.6696 11.7862 17.6752 11.7809 17.6808C11.7437 17.7479 11.7065 17.8206 11.6799 17.8822C11.6693 17.9045 11.6586 17.9269 11.6533 17.9493C11.6427 17.9829 11.4832 18.2793 11.7011 18.3856C8.13491 18.4471 8.11897 18.4471 7.86917 18.4527C7.63001 18.7716 7.26329 18.9729 6.84342 18.9729C6.59894 18.9729 6.36509 18.9002 6.16844 18.7772C6.3332 18.8611 6.5139 18.9058 6.70523 18.9058C7.08258 18.9058 7.41742 18.7324 7.64595 18.4583C7.8426 18.2234 7.96484 17.9157 7.96484 17.5745C7.96484 17.127 7.75756 16.7354 7.43868 16.4949C7.42805 16.4949 6.55642 16.4558 6.12592 17.127C6.12592 17.127 6.17907 16.618 6.48733 16.3271C6.50859 16.3047 6.52984 16.2879 6.5511 16.2712C6.50327 16.2935 6.46075 16.3215 6.41292 16.3495C5.99836 16.618 5.71137 17.0934 5.71137 17.8822C5.71137 17.8822 5.56787 17.4794 5.70074 16.9704C5.73262 16.8473 5.78046 16.7187 5.84955 16.59C5.59975 16.8305 5.44031 17.1829 5.44031 17.5689C5.44031 18.0444 5.67948 18.4583 6.03557 18.6933L4 19.454L17 18.3185Z" fill="#222222"/>
  <path d="M11.8561 3.08691C11.8561 3.08691 11.771 3.1429 11.6487 3.18208C11.521 3.22687 11.3242 3.26046 11.3242 3.26046C11.3242 3.26046 11.3721 3.36683 11.4997 3.38922C11.5689 3.40042 11.771 3.33324 11.771 3.33324C11.7232 3.33324 11.6593 3.29965 11.6593 3.29965C11.7285 3.27166 11.8561 3.08691 11.8561 3.08691Z" fill="#222222"/>
</svg>