<svg xmlns="http://www.w3.org/2000/svg" width="234" height="234" viewBox="0 0 234 234" fill="none">
  <path d="M117.004 200.134C115.046 200.134 113.43 198.517 113.43 196.56C113.43 194.603 115.046 192.986 117.004 192.986C118.961 192.986 120.577 194.603 120.577 196.56C120.577 198.517 118.961 200.134 117.004 200.134ZM117.004 193.412C115.259 193.412 113.855 194.816 113.855 196.56C113.855 198.305 115.259 199.709 117.004 199.709C118.748 199.709 120.152 198.305 120.152 196.56C120.152 194.816 118.748 193.412 117.004 193.412Z" fill="#464AE4"/>
  <path d="M225.919 198.56C225.919 198.943 225.748 199.241 225.536 199.496C225.28 199.751 224.983 199.879 224.6 199.879H9.40485C8.68157 199.879 8.08594 199.283 8.08594 198.56C8.08594 198.177 8.25612 197.879 8.46885 197.624C8.72412 197.369 9.02194 197.241 9.40485 197.241H224.6C225.323 197.241 225.919 197.837 225.919 198.56Z" fill="#4A5B6B"/>
  <path fill-rule="evenodd" clip-rule="evenodd" d="M163.169 54.5866V188.222C163.169 193.2 159.085 197.284 154.107 197.284H89.5231C84.5453 197.284 80.4609 193.2 80.4609 188.222V54.5866C80.4609 49.6088 84.5453 45.5244 89.5231 45.5244H154.107C159.085 45.5244 163.169 49.6088 163.169 54.5866Z" fill="#5B6F8B"/>
  <path fill-rule="evenodd" clip-rule="evenodd" d="M159.722 54.5872V188.223C159.722 191.328 157.17 193.839 154.106 193.839H89.5222C86.4164 193.839 83.9062 191.286 83.9062 188.223V54.5872C83.9062 51.4814 86.459 48.9712 89.5222 48.9712H97.691C98.7972 48.9712 99.7332 49.6945 100.031 50.673V51.609C100.031 52.9705 101.137 54.0767 102.499 54.0767H141.087C142.449 54.0767 143.555 52.9705 143.555 51.609V50.673C143.895 49.6945 144.831 48.9712 145.895 48.9712H154.064C157.212 48.9287 159.722 51.4814 159.722 54.5872Z" fill="white"/>
  <path fill-rule="evenodd" clip-rule="evenodd" d="M128.667 50.9702C129.177 50.9702 129.603 50.5448 129.603 50.0342C129.603 49.5237 129.177 49.0982 128.667 49.0982H111.01C110.5 49.0982 110.074 49.5237 110.074 50.0342C110.074 50.5448 110.5 50.9702 111.01 50.9702H128.667ZM131.815 49.0557C131.304 49.0557 130.879 49.4811 130.879 49.9917C130.879 50.5022 131.304 50.9277 131.815 50.9277H132.623C133.134 50.9277 133.559 50.5022 133.559 49.9917C133.559 49.4811 133.134 49.0557 132.623 49.0557H131.815Z" fill="white"/>
  <path fill-rule="evenodd" clip-rule="evenodd" d="M175.128 73.9863V159.247C175.128 161.928 172.958 164.098 170.278 164.098H93.483C90.8026 164.098 88.6328 161.928 88.6328 159.247V73.9863H175.128Z" fill="#F0F4F9"/>
  <path fill-rule="evenodd" clip-rule="evenodd" d="M175.128 64.7115V73.9864H88.6328V64.7115C88.6328 62.0312 90.8026 59.8613 93.483 59.8613H170.32C172.958 59.8613 175.128 62.0312 175.128 64.7115Z" fill="#3D84F2"/>
  <path fill-rule="evenodd" clip-rule="evenodd" d="M169.85 80.5384V135.592C169.85 136.23 169.34 136.741 168.702 136.741H95.0979C94.4598 136.741 93.9492 136.23 93.9492 135.592V80.5384C93.9492 79.9002 94.4598 79.3896 95.0979 79.3896H168.702C169.297 79.3896 169.85 79.9002 169.85 80.5384Z" fill="white"/>
  <path fill-rule="evenodd" clip-rule="evenodd" d="M104.29 159.674C100.461 159.674 97.3125 156.525 97.3125 152.696C97.3125 148.867 100.461 145.719 104.29 145.719C108.119 145.719 111.267 148.867 111.267 152.696C111.267 156.525 108.119 159.674 104.29 159.674Z" fill="#3D84F2"/>
  <path fill-rule="evenodd" clip-rule="evenodd" d="M105.396 151.675C105.693 151.377 105.864 150.994 105.864 150.611C105.864 150.186 105.693 149.803 105.396 149.505C105.14 149.25 104.715 149.037 104.332 149.037C103.907 149.037 103.524 149.207 103.226 149.505C102.928 149.803 102.758 150.186 102.758 150.611C102.758 151.037 102.928 151.42 103.226 151.717C103.524 151.973 103.864 152.143 104.289 152.143C104.715 152.143 105.098 151.973 105.396 151.675Z" fill="white"/>
  <path fill-rule="evenodd" clip-rule="evenodd" d="M100.078 156.313C100.291 155.504 100.674 154.781 101.184 154.185C101.993 153.334 103.056 152.781 104.29 152.781C105.481 152.781 106.588 153.334 107.396 154.185C107.949 154.781 108.332 155.504 108.502 156.313H100.078Z" fill="white"/>
  <path fill-rule="evenodd" clip-rule="evenodd" d="M115.183 146.611H165.599C165.854 146.611 166.067 146.824 166.067 147.079V147.59C166.067 147.845 165.854 148.058 165.599 148.058H115.183C114.928 148.058 114.715 147.845 114.715 147.59V147.079C114.715 146.824 114.928 146.611 115.183 146.611Z" fill="#5B6F8B"/>
  <path fill-rule="evenodd" clip-rule="evenodd" d="M115.183 151.376H148.241C148.496 151.376 148.709 151.589 148.709 151.844V152.355C148.709 152.61 148.496 152.823 148.241 152.823H115.183C114.928 152.823 114.715 152.61 114.715 152.355V151.844C114.715 151.589 114.928 151.376 115.183 151.376Z" fill="#5B6F8B"/>
  <path fill-rule="evenodd" clip-rule="evenodd" d="M152.366 151.377H156.493C156.749 151.377 156.961 151.59 156.961 151.845V152.356C156.961 152.611 156.749 152.824 156.493 152.824H152.366C152.111 152.824 151.898 152.611 151.898 152.356V151.845C151.898 151.59 152.111 151.377 152.366 151.377Z" fill="#5B6F8B"/>
  <path fill-rule="evenodd" clip-rule="evenodd" d="M140.583 156.354H123.437C123.181 156.354 122.969 156.566 122.969 156.822V157.332C122.969 157.587 123.181 157.8 123.437 157.8H140.583C140.838 157.8 141.051 157.587 141.051 157.332V156.822C141.051 156.566 140.838 156.354 140.583 156.354Z" fill="#5B6F8B"/>
  <path fill-rule="evenodd" clip-rule="evenodd" d="M119.31 156.354H115.183C114.928 156.354 114.715 156.567 114.715 156.822V157.333C114.715 157.588 114.928 157.801 115.183 157.801H119.31C119.565 157.801 119.778 157.588 119.778 157.333V156.822C119.735 156.567 119.565 156.354 119.31 156.354Z" fill="#5B6F8B"/>
  <path d="M135.899 112.915L117.179 136.741H95.1409C94.5027 136.741 93.9922 136.23 93.9922 135.592V132.401L131.219 106.448C131.219 106.448 135.219 92.2383 142.409 99.5561C149.557 106.916 135.899 112.915 135.899 112.915Z" fill="#FFBE9D"/>
  <path fill-rule="evenodd" clip-rule="evenodd" d="M134.664 87.7709L131.005 89.8131C130.239 90.2385 129.941 91.2171 130.367 91.9829L141.131 111.341C141.556 112.107 142.535 112.405 143.3 111.979L146.959 109.937C147.725 109.512 148.023 108.533 147.598 107.767L136.834 88.4091C136.408 87.6007 135.43 87.3454 134.664 87.7709Z" fill="#292561"/>
  <path fill-rule="evenodd" clip-rule="evenodd" d="M115.861 85.3464C115.095 85.7719 115.819 88.4522 117.435 91.3879C119.052 94.2809 120.967 96.3231 121.732 95.8977L134.283 90.0264L130.922 83.9424L127.561 77.8584L115.861 85.3464Z" fill="#FA5814"/>
  <path fill-rule="evenodd" clip-rule="evenodd" d="M118.63 80.5808C117.523 81.1764 118.544 85.1332 120.927 89.4302C123.31 93.6848 126.118 96.663 127.224 96.0673L145.603 87.4306L140.668 78.4961L135.733 69.5615L118.63 80.5808Z" fill="#F0F4F9"/>
  <path fill-rule="evenodd" clip-rule="evenodd" d="M135.688 69.5611C135.688 69.5611 147.047 62.0731 157.684 40.7578L171.639 61.3073L181.679 84.0265C157.939 81.7716 145.601 87.4302 145.601 87.4302C144.495 88.0258 141.389 84.5371 138.666 79.6018C135.901 74.6665 134.582 70.1567 135.688 69.5611Z" fill="#FA5814"/>
  <path fill-rule="evenodd" clip-rule="evenodd" d="M158.957 39.3544C155.128 41.4817 157.51 53.1391 164.275 65.3922C171.082 77.6453 179.676 85.8566 183.548 83.6868C187.377 81.5595 184.995 69.902 178.23 57.649C171.423 45.3959 162.786 37.2271 158.957 39.3544Z" fill="#F0F4F9"/>
  <path fill-rule="evenodd" clip-rule="evenodd" d="M160.535 41.3961C157.514 43.0979 159.982 53.3513 166.066 64.3706C172.15 75.3899 179.553 82.9204 182.616 81.2612C185.637 79.5593 183.169 69.3059 177.085 58.2866C171.001 47.2673 163.556 39.7368 160.535 41.3961Z" fill="#292561"/>
  <path fill-rule="evenodd" clip-rule="evenodd" d="M168.662 68.7111L173.64 64.882L171.64 61.3082L169.641 57.7344L163.77 59.9042C164.45 61.3507 165.259 62.8824 166.067 64.3715C166.918 65.9031 167.811 67.3496 168.662 68.7111Z" fill="white"/>
  <path fill-rule="evenodd" clip-rule="evenodd" d="M169.594 57.7341C168.956 58.0745 169.339 59.9465 170.445 61.9461C171.551 63.9458 172.955 65.2647 173.551 64.9243C174.189 64.584 173.806 62.712 172.7 60.7123C171.594 58.7127 170.232 57.3938 169.594 57.7341Z" fill="#FA5814"/>
  <path d="M146.748 105.215C144.153 106.661 140.749 105.385 139.09 102.407C137.431 99.4286 138.196 95.8547 140.749 94.4082C143.302 93.0042 149.301 103.768 146.748 105.215Z" fill="#FFBE9D"/>
  <path fill-rule="evenodd" clip-rule="evenodd" d="M200.184 64.1591L208.353 62.9678C208.48 62.9678 208.608 62.9678 208.693 63.0529C208.778 63.138 208.821 63.2231 208.821 63.3507L208.863 68.754C208.863 68.8816 208.821 69.0093 208.736 69.0944C208.651 69.1794 208.523 69.222 208.395 69.1795L197.674 67.5627C197.504 67.5202 197.376 67.3925 197.333 67.2224L196.993 65.4355L190.399 64.7973C190.186 64.7973 190.016 64.6271 190.016 64.4144C190.016 64.2016 190.143 64.0314 190.313 63.9889L199.248 61.6915C199.376 61.6489 199.461 61.6915 199.588 61.734C199.673 61.8191 199.759 61.9042 199.759 61.9893L200.184 64.1591Z" fill="#FDD333"/>
  <path fill-rule="evenodd" clip-rule="evenodd" d="M186.012 43.3118L188.735 35.526C188.778 35.3984 188.778 35.2707 188.693 35.1856C188.65 35.058 188.522 35.0155 188.395 34.9729L183.119 33.9093C182.992 33.8667 182.864 33.9093 182.779 33.9944C182.694 34.0795 182.609 34.1645 182.609 34.2922L182.141 45.0987C182.141 45.2689 182.226 45.4391 182.396 45.5242L184.098 46.2049L183.46 52.7995C183.46 53.0122 183.587 53.1824 183.757 53.2675C183.97 53.31 184.183 53.2249 184.268 53.0547L188.225 44.7584C188.267 44.6307 188.267 44.5456 188.225 44.418C188.182 44.2904 188.097 44.2053 187.969 44.1627L186.012 43.3118Z" fill="#FDD333"/>
  <path fill-rule="evenodd" clip-rule="evenodd" d="M201.206 47.2685L212.438 39.4401C212.608 39.3125 212.735 39.1848 212.735 39.0572C212.778 38.9296 212.735 38.8019 212.565 38.7594L206.992 36.0365C206.864 35.9514 206.694 35.9514 206.481 36.0365C206.268 36.079 206.098 36.2067 205.971 36.3343L194.611 48.1619C194.398 48.3747 194.398 48.5874 194.526 48.6725L196.015 49.9063L188.612 57.0114C188.399 57.2241 188.357 57.4794 188.57 57.607C188.782 57.7347 189.123 57.6921 189.42 57.5219L202.695 49.4808C202.865 49.3958 202.992 49.2681 203.035 49.0979C203.078 48.9703 203.078 48.8427 202.992 48.7576L201.206 47.2685Z" fill="#FDD333"/>
  <path d="M128.459 185.286C128.501 185.499 128.288 185.712 128.076 185.584L126.544 184.903C126.459 184.861 126.374 184.861 126.289 184.903C125.31 185.414 124.417 185.669 123.608 185.669C120.29 185.712 117.567 183.031 117.567 179.713C117.524 176.394 120.205 173.671 123.523 173.671C126.842 173.629 129.565 176.309 129.565 179.628C129.565 181.074 129.097 182.436 128.161 183.542C128.118 183.627 128.076 183.712 128.118 183.797L128.459 185.286Z" fill="#48DBC5"/>
  <path d="M110.844 175.883C110.503 174.267 108.929 173.033 107.27 173.075C105.653 173.16 104.164 174.479 103.951 176.096C103.696 174.479 102.207 173.16 100.59 173.118C98.9308 173.075 97.3566 174.352 97.0588 175.968C96.8461 177.16 97.229 178.351 97.9097 179.372C98.5904 180.351 99.4839 181.159 100.377 181.967C101.611 183.073 102.802 184.137 104.036 185.243C105.27 184.095 106.334 183.073 107.568 181.925C108.461 181.116 109.354 180.308 109.993 179.287C110.673 178.266 111.099 177.032 110.844 175.883Z" fill="#FA5814"/>
  <path d="M144.66 186.137L142.746 180.308C142.703 180.181 142.576 180.053 142.448 180.01L136.619 178.096C136.236 177.968 136.236 177.415 136.619 177.245L149.213 172.99C149.553 172.863 149.893 173.203 149.766 173.543L145.511 186.137C145.341 186.52 144.788 186.52 144.66 186.137Z" fill="#A3CAED"/>
  <path d="M106.282 62.2871V84.666C106.282 85.5169 105.558 86.2402 104.708 86.2402H47.4414C46.5905 86.2402 45.8672 85.5169 45.8672 84.666V62.2871C45.8672 61.4362 46.5905 60.7129 47.4414 60.7129H104.708C105.558 60.7129 106.282 61.4362 106.282 62.2871Z" fill="#C8E1FF"/>
  <path d="M105.002 62.9253V84.0278C105.002 84.5384 104.577 84.9638 104.066 84.9638H48.0766C47.5661 84.9638 47.1406 84.5384 47.1406 84.0278V62.9253C47.1406 62.4147 47.5661 61.9893 48.0766 61.9893H104.066C104.577 61.9893 105.002 62.4147 105.002 62.9253Z" fill="white"/>
  <path d="M47.2695 84.7939H47.3546V84.9216L47.2695 84.7939Z" fill="#1A2E35"/>
  <path d="M47.3546 62.1172V62.2448H47.2695L47.3546 62.1172Z" fill="#1A2E35"/>
  <path d="M50.0699 65.9116L49.9844 80.9727L68.832 81.0797L68.9176 66.0186L50.0699 65.9116Z" fill="#48DBC5"/>
  <path d="M66.6241 79.3484L52.2012 79.2633C51.9884 79.2633 51.8608 79.008 51.9884 78.8804L56.9237 72.1582C57.0088 72.0306 57.2215 72.0306 57.3492 72.1582L60.2848 76.2851C60.3699 76.4128 60.5826 76.4128 60.6677 76.3277L62.5397 74.2855C62.6248 74.1579 62.795 74.1579 62.9226 74.2855L66.7942 78.923C66.9219 79.1357 66.8368 79.3484 66.6241 79.3484Z" fill="white"/>
  <path d="M62.242 70.9235C62.242 71.6894 61.6038 72.285 60.838 72.285C60.0722 72.285 59.4766 71.6468 59.4766 70.881C59.4766 70.1152 60.1147 69.5195 60.8806 69.5195C61.6038 69.5195 62.242 70.1577 62.242 70.9235Z" fill="white"/>
  <path d="M102.58 69.8182C102.58 70.116 102.367 70.3713 102.069 70.3713H72.2875C71.9896 70.3713 71.7344 70.1585 71.7344 69.8607C71.7344 69.5629 71.9896 69.3076 72.2875 69.3076H102.069C102.325 69.3076 102.58 69.5203 102.58 69.8182Z" fill="#F0F4F9"/>
  <path d="M102.58 73.4773C102.58 73.7752 102.367 74.0304 102.069 74.0304H72.2875C71.9896 74.0304 71.7344 73.8177 71.7344 73.5199C71.7344 73.2221 71.9896 72.9668 72.2875 72.9668H102.069C102.325 72.9668 102.58 73.1795 102.58 73.4773Z" fill="#F0F4F9"/>
  <path d="M92.7944 77.1363C92.7944 77.4341 92.5816 77.6894 92.2838 77.6894H72.2875C71.9896 77.6894 71.7344 77.4767 71.7344 77.1788C71.7344 76.881 71.9896 76.6257 72.2875 76.6257H92.2838C92.5816 76.5832 92.7944 76.8385 92.7944 77.1363Z" fill="#F0F4F9"/>
  <path fill-rule="evenodd" clip-rule="evenodd" d="M197.499 96.834C200.52 96.834 203.413 98.0253 205.583 100.195C207.71 102.322 208.944 105.215 208.944 108.279C208.944 111.299 207.753 114.193 205.583 116.362C203.456 118.49 200.563 119.723 197.499 119.723C194.479 119.723 191.586 118.532 189.416 116.362C187.289 114.235 186.055 111.342 186.055 108.279C186.055 105.258 187.246 102.365 189.416 100.195C191.586 98.0253 194.436 96.834 197.499 96.834ZM186.821 108.619C186.906 110.661 187.544 112.576 188.65 114.278C189.799 113.639 191.118 113.171 192.394 112.874L192.522 112.831C192.224 111.427 192.096 110.023 192.096 108.619H186.821ZM192.819 108.619C192.819 109.981 192.99 111.342 193.245 112.703C194.521 112.448 195.798 112.363 197.117 112.321V108.619H192.819ZM197.882 108.619V112.321C199.159 112.321 200.478 112.448 201.754 112.703C202.009 111.385 202.179 109.981 202.179 108.619H197.882ZM206.306 114.278C207.455 112.618 208.093 110.661 208.136 108.619H202.86C202.86 110.023 202.69 111.47 202.435 112.831L202.562 112.874C203.839 113.171 205.158 113.597 206.306 114.278ZM208.178 107.896C208.136 106.024 207.583 104.237 206.604 102.663C205.413 103.429 203.966 103.897 202.605 104.237H202.562C202.775 105.428 202.903 106.662 202.903 107.896H208.178ZM202.137 107.896C202.137 106.705 202.009 105.556 201.797 104.407C200.478 104.662 199.159 104.79 197.84 104.79V107.896H202.137ZM193.16 104.365C192.947 105.513 192.862 106.705 192.819 107.853H197.117V104.747C195.798 104.747 194.479 104.62 193.16 104.365ZM192.096 107.896C192.096 106.662 192.224 105.428 192.437 104.237H192.394C191.033 103.939 189.586 103.429 188.395 102.663C187.416 104.237 186.906 106.024 186.821 107.896H192.096ZM193.287 103.641C194.564 103.897 195.84 103.982 197.117 104.024V97.5998C195.755 97.8551 194.777 99.4293 194.266 100.578C193.841 101.557 193.5 102.62 193.287 103.641ZM197.117 113.044C195.883 113.044 194.649 113.171 193.415 113.384C193.628 114.235 193.883 115.086 194.266 115.852C194.777 117.001 195.755 118.575 197.117 118.83V113.044ZM197.882 118.873C199.244 118.617 200.222 117.043 200.733 115.894C201.116 115.086 201.371 114.235 201.584 113.427C200.35 113.214 199.116 113.086 197.882 113.086V118.873ZM197.882 104.024C199.159 104.024 200.435 103.897 201.711 103.641C201.499 102.62 201.158 101.557 200.733 100.578C200.222 99.4293 199.244 97.8551 197.882 97.5998V104.024ZM206.179 102.067C205.838 101.599 205.455 101.131 205.03 100.706C203.583 99.2591 201.711 98.238 199.669 97.8125C200.393 98.4933 200.946 99.4293 201.371 100.28C201.839 101.301 202.179 102.407 202.392 103.471C203.711 103.216 205.03 102.748 206.179 102.067ZM192.564 103.514C192.777 102.407 193.117 101.301 193.585 100.323C194.011 99.4293 194.564 98.4933 195.287 97.8551C193.245 98.2805 191.415 99.3016 189.926 100.748C189.501 101.174 189.118 101.599 188.778 102.11C189.926 102.748 191.288 103.216 192.564 103.514ZM189.118 114.873C189.373 115.214 189.671 115.511 189.969 115.809C191.415 117.256 193.287 118.277 195.33 118.702C194.606 118.022 194.053 117.086 193.628 116.235C193.245 115.384 192.947 114.49 192.734 113.597L192.607 113.639C191.373 113.852 190.182 114.278 189.118 114.873ZM199.712 118.702C201.754 118.277 203.583 117.256 205.073 115.809C205.37 115.511 205.626 115.214 205.923 114.873C204.86 114.278 203.626 113.852 202.477 113.597L202.35 113.554C202.137 114.448 201.839 115.341 201.456 116.192C200.988 117.086 200.435 118.022 199.712 118.702Z" fill="#D9E9FD"/>
  <path d="M48.4575 196.262C48.4575 196.475 48.4149 196.688 48.3724 196.815C48.3299 196.985 48.2022 197.113 48.032 197.113H36.5448C36.3746 197.113 36.247 196.943 36.2895 196.815L36.715 194.943L38.0764 189.242C38.1189 189.072 38.2891 188.944 38.4593 188.944L42.416 189.37C42.5862 189.37 42.7139 189.54 42.7564 189.71C42.7989 190.433 43.1819 192.305 46.0324 193.156C48.2448 193.752 48.5426 195.284 48.4575 196.262Z" fill="#292561"/>
  <path d="M26.295 196.603C26.1674 196.773 26.0398 196.943 25.9547 197.029C25.827 197.156 25.6569 197.199 25.4867 197.071L15.6587 191.2C15.531 191.115 15.4885 190.945 15.6161 190.817L16.935 189.455L21.0194 185.243C21.147 185.116 21.3598 185.116 21.4874 185.201L24.6358 187.583C24.7634 187.711 24.8059 187.881 24.7209 188.051C24.3805 188.69 23.7423 190.519 25.7419 192.689C27.4012 194.348 26.8481 195.795 26.295 196.603Z" fill="#292561"/>
  <path d="M43.1022 169.246L37.8691 175.841L31.8702 183.414L31.6149 183.754L26.9349 189.668L16.4688 182.648C17.4047 177.16 18.7662 175.585 21.1913 173.586C22.3826 172.607 23.8291 171.501 25.5735 169.799C25.7437 169.629 25.9138 169.459 26.084 169.289C27.3178 168.055 28.7218 166.481 30.296 164.439C30.9342 163.63 31.1044 162.481 30.9767 161.12C30.9767 161.035 30.9342 160.907 30.9342 160.78C30.764 159.418 30.3811 157.887 29.828 156.142C29.7855 156.057 29.7855 155.929 29.7429 155.844C29.3175 154.525 28.8495 153.121 28.3389 151.675C28.2964 151.59 28.2538 151.462 28.2538 151.377C27.956 150.484 27.6582 149.548 27.3604 148.654C27.1902 148.144 27.02 147.591 26.8924 147.037C26.8498 146.952 26.8498 146.825 26.8073 146.74C26.3393 145.165 25.9564 143.549 25.7011 141.975C25.7011 141.889 25.6586 141.762 25.6586 141.677C25.4033 139.932 25.2757 138.188 25.4033 136.529C25.4033 136.444 25.4033 136.359 25.4458 136.273C25.4458 136.231 25.4458 136.231 25.4458 136.231C25.6586 133.933 26.4244 131.891 27.2753 130.275C27.5306 129.764 27.8284 129.296 28.0837 128.871C28.9771 127.424 29.7429 126.573 29.7429 126.573L29.9131 126.445L32.9764 124.488L34.7633 123.34L36.0397 122.531L36.4651 122.276L37.5713 121.553C37.5713 121.553 37.6138 121.851 37.6989 122.361C37.7415 122.531 37.7415 122.744 37.784 122.957C37.784 122.999 37.784 123.042 37.784 123.042C37.9117 123.765 38.0818 124.659 38.252 125.68C38.3797 126.488 38.5498 127.381 38.6775 128.232C39.2306 131.551 39.8262 134.869 39.8262 134.997C39.8262 135.167 40.8473 145.761 41.7407 155.121C41.8258 155.844 41.8684 156.568 41.9535 157.248C41.9535 157.291 41.9535 157.333 41.9535 157.376C42.5917 163.843 43.1022 169.246 43.1022 169.246Z" fill="#FCC800"/>
  <path d="M43.1046 169.247L37.8715 175.841C36.6803 175.501 35.5315 174.99 34.3828 174.437C32.6384 173.586 30.809 172.267 30.7239 170.31C30.6388 168.481 32.1279 167.034 33.0639 165.46C34.9784 162.227 34.5104 158.1 33.4043 154.526C32.2981 151.037 30.6814 147.761 29.3624 144.358C28.0435 140.954 27.0224 137.338 27.2352 133.721C27.3628 131.679 28.2563 128.446 29.8304 126.361C30.6814 125.297 31.7024 124.531 32.8937 124.404C33.6595 124.319 34.4679 124.489 35.3614 124.999C36.3399 125.552 37.1483 126.403 37.8715 127.254C38.1268 127.552 38.3821 127.85 38.6799 128.19C39.233 131.509 39.8286 134.827 39.8286 134.955C39.8286 135.125 40.8497 145.719 41.7432 155.079C41.8283 155.802 41.8708 156.526 41.9559 157.206C41.9559 157.249 41.9559 157.291 41.9559 157.334C42.5941 163.843 43.1046 169.247 43.1046 169.247Z" fill="#E3B400"/>
  <path d="M51.3095 162.608C51.3095 162.736 51.3095 162.906 51.3095 163.076C51.2244 164.778 51.0116 166.693 50.7138 168.777C50.6713 168.948 50.6713 169.075 50.6287 169.245C50.3735 171.16 50.0331 173.117 49.6927 175.117C49.6502 175.244 49.6502 175.414 49.6076 175.542C49.2673 177.499 48.9695 179.456 48.7142 181.286C48.7142 181.413 48.6716 181.541 48.6716 181.669C48.3738 183.668 48.1611 185.54 48.1186 187.157C48.1186 187.285 48.1186 187.37 48.1186 187.497C48.076 189.029 48.1611 190.305 48.4589 191.199H34.6317C33.7807 190.178 33.1851 187.412 33.6106 183.285C33.6106 183.2 33.6531 183.073 33.6531 182.988C33.6531 182.902 33.6956 182.775 33.6956 182.69C33.8658 181.286 34.1637 179.754 34.5891 178.052C34.6317 177.967 34.6316 177.84 34.6742 177.754C34.9295 176.733 35.2698 175.627 35.6527 174.478C35.7804 174.053 35.908 173.628 36.0356 173.202C36.0782 173.117 36.0782 172.989 36.1207 172.904C36.4611 171.373 36.6313 169.713 36.5887 168.012C36.5887 167.884 36.5887 167.756 36.5887 167.629C36.5462 165.842 36.3335 163.97 35.9931 162.055C35.9506 161.928 35.9506 161.8 35.908 161.63C35.5677 159.673 35.0571 157.673 34.504 155.716C34.4615 155.588 34.4189 155.461 34.4189 155.333C33.8658 153.418 33.2702 151.504 32.6746 149.717C32.632 149.632 32.5895 149.504 32.5895 149.419C32.0364 147.675 31.4833 146.016 30.9727 144.441C30.9302 144.356 30.9302 144.229 30.8876 144.144C30.3771 142.527 29.9091 140.995 29.5687 139.634C29.5262 139.506 29.5262 139.421 29.4837 139.293C29.3986 138.996 29.356 138.74 29.3135 138.485C29.0157 137.038 28.9306 135.677 29.0156 134.443C29.0156 134.316 29.0157 134.188 29.0582 134.018C29.5687 128.444 33.2702 125.594 33.2702 125.594H45.6935C45.6935 125.594 46.672 130.699 47.7782 137.124C47.7782 137.209 47.8207 137.336 47.8207 137.421C48.076 138.996 48.3738 140.612 48.6716 142.272C48.6716 142.357 48.7142 142.484 48.7142 142.612C48.9695 144.186 49.2673 145.803 49.48 147.377C49.48 147.505 49.5226 147.59 49.5226 147.717C49.7778 149.334 50.0331 150.908 50.2458 152.397C50.2458 152.525 50.2884 152.653 50.2884 152.738C50.5436 154.397 50.7564 155.971 50.9266 157.375C50.9266 157.503 50.9691 157.63 50.9691 157.758C51.0967 158.779 51.1818 159.673 51.2244 160.438C51.3095 161.119 51.3095 161.842 51.3095 162.608Z" fill="#FCC800"/>
  <path d="M48.3374 184.223H33.5316C33.2763 187.796 33.8294 190.179 34.6378 191.115H48.4225C47.9545 189.626 47.997 187.201 48.3374 184.223Z" fill="#E3B400"/>
  <path d="M46.8479 129.508C46.8905 130.997 26.8516 131.465 26.8516 129.976C26.8516 129.976 26.8941 129.253 26.9367 128.019C26.9792 127.423 27.0217 126.743 27.0643 125.934C27.4897 118.957 28.7236 105.087 31.7443 102.662C34.2119 100.662 40.3385 100.79 44.125 106.831C44.5079 107.427 44.8483 108.065 45.1461 108.788C45.1887 108.916 45.2737 109.086 45.3163 109.214C45.7417 110.405 46.0821 112.149 46.3374 114.107C46.7628 117.638 46.8905 121.892 46.933 125.041C46.8905 127.721 46.8479 129.508 46.8479 129.508Z" fill="#48DBC5"/>
  <path d="M46.8479 129.509C46.8905 130.998 26.8516 131.466 26.8516 129.977C26.8516 129.977 26.8941 129.254 26.9367 128.02C30.5105 129.339 34.3821 129.807 38.1687 129.296C39.8705 129.084 41.6148 128.616 42.8912 127.467C44.7207 125.893 45.2737 123 44.1676 120.872C42.721 118.064 38.977 116.703 38.1261 113.682C37.6581 112.066 38.2963 110.236 39.5301 109.087C40.1683 108.492 40.9341 108.236 41.6999 107.854C42.4657 107.471 43.2741 107.088 44.0825 106.875C44.4654 107.471 44.8057 108.109 45.1036 108.832C45.1461 108.96 45.2312 109.13 45.2737 109.258C45.6992 110.449 46.0396 112.193 46.2948 114.15C46.7203 117.682 46.8479 121.936 46.8905 125.084C46.8905 127.722 46.8479 129.509 46.8479 129.509Z" fill="#2AB19F"/>
  <path d="M37.4019 107.384C36.8914 112.617 49.3997 118.361 53.2288 117.935C56.675 117.553 64.8012 101.258 64.8012 101.258L61.0146 98.4922L51.9524 108.788C51.9524 108.831 38.2954 98.4496 37.4019 107.384Z" fill="#48DBC5"/>
  <path d="M44.9736 98.493C44.6758 99.7269 41.0595 99.0036 40.8893 98.961L40.8467 100.79L40.6765 103.258C40.5915 104.322 35.7413 102.705 35.8264 101.641C35.8264 101.641 36.5922 98.6207 35.486 96.9614C34.4224 95.3021 32.1249 87.176 39.4427 85.8145C46.5478 84.4956 45.2715 97.2167 44.9736 98.493Z" fill="#FFD1C4"/>
  <path d="M40.8869 98.9606L40.8443 100.79C40.036 100.194 38.5469 97.2588 38.5469 97.2588C39.8658 98.6202 40.8869 98.9606 40.8869 98.9606Z" fill="#F1C0BA"/>
  <path d="M21.235 116.32C22.3412 117.426 23.9154 118.192 25.447 118.192C26.7234 118.192 28.6805 117.468 30.2121 116.49C31.8714 115.469 33.2328 114.022 34.5517 112.576C36.0408 110.874 37.5299 109.087 38.4659 107.045C39.4445 105.002 39.8699 102.62 39.2317 100.408C38.6361 98.2803 37.1045 96.2806 37.5725 94.1534C37.7001 93.5152 38.083 92.877 38.7212 92.7494C39.3594 92.5792 39.3168 93.4726 39.8274 93.813C40.7634 94.4512 41.4441 92.1963 42.2525 91.3879C43.231 90.4094 44.5925 88.5799 44.7201 87.2185C44.8903 85.5166 43.1034 84.7934 41.5717 84.0701C39.2317 82.9639 36.3386 83.0916 34.1263 84.4956C31.9139 85.8996 30.5525 88.4523 30.5525 91.0476C30.5525 92.5792 31.063 94.1108 30.9779 95.685C30.8928 97.8974 29.7015 99.897 28.2125 101.556C26.7234 103.216 24.979 104.534 23.4048 106.109C21.8306 107.683 20.4692 109.512 20.0012 111.682C19.7885 113.299 20.0863 115.128 21.235 116.32Z" fill="#7C3A3A"/>
  <path d="M47.825 137.465C46.7614 137.848 45.6978 138.06 44.5916 138.06C43.145 138.06 41.6985 137.72 40.337 137.039C39.4436 136.571 38.5501 135.976 37.7418 135.38C37.1887 134.997 36.593 134.572 36.04 134.189C34.2956 133.125 32.7214 132.742 31.4025 133.125C30.5516 133.338 29.7858 133.891 29.0625 134.444C29.0625 134.316 29.0625 134.189 29.105 134.019C29.7858 133.508 30.509 133.04 31.3174 132.827C32.7214 132.444 34.3807 132.785 36.2101 133.933C36.8058 134.316 37.4014 134.699 37.9545 135.125C38.7629 135.72 39.6138 136.316 40.5072 136.741C42.8047 137.89 45.4425 138.018 47.7825 137.124C47.7825 137.252 47.7825 137.337 47.825 137.465Z" fill="#E3B400"/>
  <path d="M48.7192 142.655C48.5065 142.782 48.2513 142.867 48.0385 142.952C46.9323 143.378 45.7836 143.633 44.5923 143.633C43.1458 143.633 41.6993 143.293 40.3378 142.612C39.4443 142.144 38.5509 141.548 37.7425 140.953C37.1894 140.57 36.5938 140.144 36.0407 139.762C34.2963 138.698 32.7222 138.315 31.4033 138.698C30.7651 138.868 30.1694 139.208 29.6163 139.591C29.5738 139.464 29.5738 139.379 29.5312 139.251C30.0843 138.868 30.68 138.528 31.3182 138.358C32.7222 137.975 34.3814 138.315 36.2109 139.464C36.8065 139.847 37.4022 140.23 37.9552 140.655C38.7636 141.251 39.6145 141.846 40.508 142.314C42.848 143.506 45.5283 143.591 47.9534 142.655C48.2087 142.57 48.464 142.442 48.7192 142.314C48.6767 142.399 48.6767 142.527 48.7192 142.655Z" fill="#E3B400"/>
  <path d="M49.5255 147.718C49.015 148.016 48.547 148.271 47.9939 148.484C46.8877 148.91 45.739 149.165 44.5477 149.165C43.1012 149.165 41.6546 148.824 40.2932 148.144C39.3997 147.676 38.5063 147.08 37.6979 146.484C37.1448 146.102 36.5492 145.676 35.9961 145.293C34.2517 144.23 32.6775 143.847 31.3586 144.23C31.231 144.272 31.1034 144.315 30.9757 144.357C30.9332 144.272 30.9332 144.144 30.8906 144.059C31.0183 144.017 31.1459 143.974 31.2735 143.932C32.6775 143.549 34.3368 143.889 36.1663 145.038C36.7619 145.421 37.3575 145.804 37.9106 146.229C38.719 146.825 39.5699 147.42 40.4634 147.846C42.8034 149.037 45.4837 149.122 47.9088 148.186C48.4619 147.974 48.9724 147.676 49.483 147.378C49.5255 147.506 49.5255 147.633 49.5255 147.718Z" fill="#E3B400"/>
  <path d="M50.3321 152.781C49.6089 153.335 48.8431 153.76 48.0347 154.1C46.9285 154.526 45.7798 154.781 44.5885 154.781C43.142 154.781 41.6954 154.441 40.334 153.76C39.4405 153.292 38.5471 152.696 37.7387 152.101C37.1856 151.718 36.59 151.292 36.0369 150.952C34.8456 150.229 33.7394 149.803 32.7609 149.761C32.7183 149.676 32.6758 149.548 32.6758 149.463C33.782 149.505 34.9732 149.931 36.2496 150.697C36.8452 151.08 37.4409 151.463 37.994 151.888C38.8023 152.484 39.6532 153.079 40.5467 153.505C42.8867 154.696 45.5671 154.824 47.9921 153.845C48.8431 153.505 49.6089 153.037 50.3747 152.484C50.2896 152.526 50.2896 152.654 50.3321 152.781Z" fill="#E3B400"/>
  <path d="M50.9721 157.759C50.0786 158.567 49.0575 159.205 47.9939 159.631C46.8877 160.056 45.739 160.311 44.5477 160.311C43.1011 160.311 41.6546 159.971 40.2931 159.29C39.3997 158.822 38.5062 158.227 37.6979 157.631C37.1448 157.248 36.5491 156.823 35.9961 156.44C35.4855 156.142 35.0175 155.887 34.507 155.674C34.4644 155.546 34.4219 155.419 34.4219 155.291C34.975 155.504 35.5706 155.802 36.1662 156.142C36.7619 156.525 37.3575 156.908 37.9106 157.333C38.719 157.929 39.5699 158.524 40.4633 158.95C42.8033 160.141 45.4837 160.226 47.9088 159.29C49.015 158.865 50.0361 158.184 50.9721 157.333C50.9721 157.546 50.9721 157.674 50.9721 157.759Z" fill="#E3B400"/>
  <path d="M51.312 162.609C51.312 162.737 51.312 162.907 51.312 163.077C50.3335 164.013 49.2273 164.736 48.036 165.204C46.9299 165.63 45.7811 165.885 44.5899 165.885C43.1433 165.885 41.6968 165.545 40.3353 164.864C39.4419 164.396 38.5484 163.8 37.74 163.205C37.1869 162.822 36.5913 162.396 36.0382 162.013C35.9957 161.886 35.9957 161.758 35.9531 161.588C36.0382 161.63 36.1233 161.673 36.2084 161.716C36.804 162.098 37.3997 162.481 37.9528 162.907C38.7611 163.502 39.612 164.098 40.5055 164.524C42.8455 165.715 45.5259 165.842 47.9509 164.864C49.1422 164.438 50.2909 163.63 51.312 162.609Z" fill="#E3B400"/>
  <path d="M50.672 168.778C50.6294 168.948 50.6294 169.076 50.5869 169.246C49.7785 169.884 48.9276 170.437 47.9916 170.778C46.8854 171.203 45.7367 171.459 44.5454 171.459C43.0989 171.459 41.6523 171.118 40.2909 170.437C39.3974 169.969 38.504 169.374 37.6956 168.778C37.3127 168.523 36.9298 168.225 36.5469 167.97C36.5469 167.842 36.5469 167.715 36.5469 167.587C37.0149 167.885 37.4403 168.183 37.8658 168.48C38.6741 169.076 39.5251 169.672 40.4185 170.097C42.7585 171.288 45.4389 171.416 47.864 170.437C48.8851 170.097 49.8211 169.501 50.672 168.778Z" fill="#E3B400"/>
  <path d="M49.6922 175.118C49.6497 175.245 49.6497 175.415 49.6072 175.543C49.0966 175.883 48.5435 176.139 48.033 176.351C46.9268 176.777 45.7781 177.032 44.5868 177.032C43.1402 177.032 41.6937 176.692 40.3322 176.011C39.4388 175.543 38.5453 174.947 37.737 174.352C37.1839 173.969 36.6308 173.543 36.0352 173.203C36.0777 173.118 36.0777 172.99 36.1202 172.905C36.1202 172.905 36.1628 172.905 36.1628 172.948C36.7584 173.331 37.3541 173.714 37.9072 174.139C38.7155 174.735 39.5664 175.33 40.4599 175.798C42.7999 176.99 45.4802 177.075 47.9053 176.139C48.501 175.798 49.0966 175.501 49.6922 175.118Z" fill="#E3B400"/>
  <path d="M48.7154 181.244C48.7154 181.372 48.6728 181.499 48.6728 181.627C48.4601 181.712 48.2474 181.84 48.0346 181.925C46.9284 182.35 45.7797 182.606 44.5884 182.606C43.1419 182.606 41.6954 182.265 40.3339 181.585C39.4404 181.117 38.547 180.521 37.7386 179.925C37.1855 179.542 36.5899 179.117 36.0368 178.734C35.5688 178.436 35.1008 178.181 34.6328 178.011C34.6754 177.926 34.6754 177.798 34.7179 177.713C35.1859 177.926 35.6964 178.181 36.207 178.479C36.8026 178.862 37.3983 179.245 37.9514 179.67C38.7597 180.266 39.6106 180.861 40.5041 181.287C42.8441 182.478 45.5244 182.563 47.9495 181.627C48.1623 181.499 48.4601 181.372 48.7154 181.244Z" fill="#E3B400"/>
  <path d="M35.9961 162.014C34.2517 160.95 32.6775 160.61 31.3586 160.95C31.231 160.993 31.0608 161.035 30.9332 161.078C30.9332 160.993 30.8906 160.865 30.8906 160.737C31.0183 160.695 31.1459 160.652 31.2735 160.61C32.635 160.227 34.1666 160.567 35.911 161.546C35.9535 161.758 35.9961 161.886 35.9961 162.014Z" fill="#E3B400"/>
  <path d="M36.1239 172.862C36.0813 172.947 36.0813 173.075 36.0388 173.16C36.0388 173.16 35.9962 173.16 35.9962 173.118C34.2519 172.054 32.6777 171.671 31.3588 172.054C30.4228 172.309 29.6144 172.947 28.8061 173.543C28.4232 173.841 27.9977 174.139 27.6148 174.394C25.2748 175.841 22.4242 176.138 19.9141 175.117L20.0417 174.819C22.4242 175.798 25.2322 175.543 27.4446 174.139C27.8275 173.883 28.253 173.586 28.6359 173.288C29.4868 172.692 30.3377 172.054 31.3162 171.756C32.6777 171.416 34.337 171.756 36.1239 172.862Z" fill="#E3B400"/>
  <path d="M30.9776 144.399C30.2118 144.697 29.4885 145.25 28.8078 145.761C28.4249 146.059 27.9994 146.356 27.6165 146.612C27.3613 146.782 27.106 146.91 26.8507 147.037C26.8082 146.952 26.8082 146.824 26.7656 146.739C27.0209 146.612 27.2336 146.484 27.4464 146.356C27.8293 146.101 28.2547 145.803 28.6376 145.506C29.3609 144.995 30.0842 144.442 30.8925 144.102C30.9351 144.187 30.9776 144.314 30.9776 144.399Z" fill="#E3B400"/>
  <path d="M34.6773 177.67C34.6348 177.755 34.6348 177.883 34.5922 177.968C33.401 177.457 32.3373 177.372 31.3588 177.627C30.4228 177.883 29.6144 178.521 28.8061 179.116C28.4232 179.414 27.9977 179.712 27.6148 179.967C25.2748 181.414 22.4242 181.712 19.9141 180.691L20.0417 180.393C22.4242 181.371 25.2322 181.116 27.4446 179.712C27.8275 179.457 28.253 179.159 28.6359 178.861C29.4868 178.265 30.3377 177.627 31.3162 177.329C32.2948 177.074 33.4435 177.202 34.6773 177.67Z" fill="#E3B400"/>
  <path d="M34.5498 155.717C33.4011 155.249 32.3375 155.164 31.4015 155.419C30.8484 155.589 30.3378 155.844 29.8273 156.185C29.7847 156.1 29.7847 155.972 29.7422 155.887C30.2527 155.547 30.7633 155.291 31.3164 155.121C32.2524 154.866 33.316 154.951 34.4647 155.376C34.4647 155.461 34.5073 155.589 34.5498 155.717Z" fill="#E3B400"/>
  <path d="M29.613 139.591C29.3577 139.762 29.1024 139.974 28.8472 140.144C28.4643 140.442 28.0388 140.74 27.6559 140.995C27.0177 141.378 26.3795 141.676 25.6988 141.889C25.6988 141.804 25.6562 141.676 25.6562 141.591C26.2944 141.378 26.9326 141.08 27.4857 140.74C27.8686 140.485 28.2941 140.187 28.677 139.889C28.9748 139.676 29.2726 139.464 29.5704 139.251C29.5279 139.379 29.5704 139.506 29.613 139.591Z" fill="#E3B400"/>
  <path d="M36.5896 167.97C36.3769 167.842 36.2067 167.715 35.9939 167.587C34.2496 166.524 32.6754 166.141 31.3565 166.524C30.4205 166.779 29.6121 167.417 28.8038 168.013C28.4209 168.31 27.9954 168.608 27.6125 168.864C26.9743 169.246 26.2936 169.587 25.5703 169.8C25.7405 169.629 25.9107 169.459 26.0809 169.289C26.5489 169.119 27.0169 168.863 27.4423 168.608C27.8252 168.353 28.2507 168.055 28.6336 167.757C29.4845 167.162 30.3354 166.524 31.3139 166.226C32.7179 165.843 34.3772 166.183 36.2067 167.332C36.3343 167.417 36.5045 167.502 36.6321 167.587C36.5896 167.715 36.5896 167.842 36.5896 167.97Z" fill="#E3B400"/>
  <path d="M32.7208 149.718C32.2528 149.675 31.7848 149.718 31.3593 149.845C30.4233 150.1 29.6149 150.739 28.8066 151.334C28.6364 151.462 28.4662 151.59 28.296 151.717C28.2535 151.632 28.2109 151.504 28.2109 151.419C28.3386 151.334 28.5088 151.207 28.6364 151.122C29.4873 150.526 30.3382 149.888 31.3168 149.59C31.7422 149.462 32.1677 149.42 32.6357 149.462C32.6357 149.505 32.6782 149.59 32.7208 149.718Z" fill="#E3B400"/>
  <path d="M29.0643 134.019C29.0643 134.146 29.0218 134.274 29.0218 134.444C28.9367 134.487 28.8516 134.572 28.809 134.614C28.4261 134.912 28.0007 135.21 27.6178 135.465C26.8945 135.933 26.1287 136.273 25.3203 136.486C25.3203 136.401 25.3203 136.316 25.3629 136.231C25.3629 136.188 25.3629 136.188 25.3629 136.188C26.0861 135.976 26.8094 135.678 27.4476 135.252C27.8305 134.997 28.256 134.699 28.6389 134.401C28.7665 134.274 28.9367 134.146 29.0643 134.019Z" fill="#E3B400"/>
  <path d="M48.0792 187.115C48.0792 187.243 48.0792 187.328 48.0792 187.456C48.0366 187.456 48.0366 187.456 48.0366 187.498C46.9304 187.924 45.7817 188.179 44.5904 188.179C43.1439 188.179 41.6973 187.838 40.3359 187.158C39.4424 186.69 38.549 186.094 37.7406 185.498C37.1875 185.116 36.5919 184.69 36.0388 184.35C35.1879 183.839 34.3795 183.499 33.6562 183.286C33.6562 183.201 33.6988 183.073 33.6988 182.988C34.5072 183.158 35.3155 183.541 36.209 184.094C36.8046 184.477 37.4002 184.86 37.9533 185.286C38.7617 185.881 39.6126 186.477 40.5061 186.902C42.8461 188.094 45.5264 188.221 47.9515 187.243C47.9515 187.158 48.0366 187.115 48.0792 187.115Z" fill="#E3B400"/>
  <path d="M31.6149 183.754L26.9349 189.668L16.4688 182.648C17.4048 177.16 18.7662 175.586 21.1913 173.586L31.6149 183.754Z" fill="#E3B400"/>
  <path d="M61.8203 99.0889C61.8203 99.0889 61.8203 90.9202 66.8832 93.3027C71.9461 95.6853 64.5007 101.046 64.5007 101.046L61.8203 99.0889Z" fill="#FFD1C4"/>
  <path fill-rule="evenodd" clip-rule="evenodd" d="M200.736 140.528C194.822 135.848 190.823 142.103 191.631 148.272C192.439 154.1 199.289 174.054 198.523 182.521L200.863 182.436C206.097 171.459 208.309 146.527 200.736 140.528Z" fill="#327F17"/>
  <path fill-rule="evenodd" clip-rule="evenodd" d="M200.013 182.479C204.863 165.248 196.907 141.805 196.907 141.72C196.865 141.593 196.695 141.508 196.482 141.55C196.312 141.593 196.184 141.72 196.269 141.89C196.312 141.976 204.268 165.418 199.333 182.521L200.013 182.479Z" fill="white"/>
  <path fill-rule="evenodd" clip-rule="evenodd" d="M187.037 151.59C180.911 149.08 179.592 154.951 182.145 159.674C184.272 163.588 193.334 175.118 196.865 182.563L199.929 182.478C199.801 172.054 194.27 154.526 187.037 151.59Z" fill="#44922B"/>
  <path fill-rule="evenodd" clip-rule="evenodd" d="M198.825 182.521C196.272 168.438 184.36 153.42 184.317 153.377C184.232 153.292 184.062 153.25 183.934 153.292C183.806 153.377 183.764 153.505 183.849 153.59C183.892 153.632 195.719 168.566 198.272 182.521H198.825Z" fill="white"/>
  <path fill-rule="evenodd" clip-rule="evenodd" d="M212.778 157.589C218.522 155.292 219.671 160.78 217.245 165.162C215.586 168.141 209.587 175.841 205.545 182.308L200.695 182.436C202.014 172.778 206.822 159.929 212.778 157.589Z" fill="#44922B"/>
  <path fill-rule="evenodd" clip-rule="evenodd" d="M202.48 182.436C206.182 170.608 215.287 159.334 215.329 159.291C215.414 159.206 215.584 159.163 215.67 159.249C215.797 159.334 215.84 159.461 215.755 159.546C215.712 159.589 206.692 170.778 203.034 182.436H202.48Z" fill="white"/>
  <path d="M210.821 180.521L210.012 190.136C209.672 194.178 206.311 197.241 202.269 197.241H197.802C193.76 197.241 190.399 194.135 190.059 190.136L189.25 180.521C189.165 179.797 189.761 179.159 190.484 179.159H209.587C210.31 179.159 210.906 179.797 210.821 180.521Z" fill="#E58C5C"/>
  <path d="M210.651 182.69L210.821 180.521C210.906 179.797 210.31 179.159 209.587 179.159H190.484C189.761 179.159 189.165 179.797 189.25 180.521L189.42 182.69H210.651Z" fill="#CB6E39"/>
</svg>