<svg width="30" height="30" viewBox="0 0 30 30" fill="none" xmlns="http://www.w3.org/2000/svg">
<g clip-path="url(#clip0_4226_18542)">
<path d="M15 30C23.2843 30 30 23.2843 30 15C30 6.71573 23.2843 0 15 0C6.71573 0 0 6.71573 0 15C0 23.2843 6.71573 30 15 30Z" fill="#2AA81A"/>
<path d="M20.2943 9.70859C19.0461 8.44627 17.3877 7.6718 15.6186 7.52501C13.8494 7.37821 12.0861 7.86877 10.6469 8.90811C9.20777 9.94746 8.18762 11.4671 7.77066 13.1927C7.35371 14.9182 7.56742 16.736 8.37322 18.3178L7.58375 22.1507C7.5753 22.189 7.57497 22.2286 7.58279 22.267C7.59061 22.3054 7.6064 22.3418 7.62914 22.3737C7.66172 22.4221 7.70828 22.4593 7.76259 22.4805C7.81691 22.5016 7.8764 22.5057 7.93309 22.4921L11.6831 21.602C13.2606 22.3867 15.0653 22.5862 16.776 22.1649C18.4868 21.7437 19.9926 20.729 21.0253 19.3016C22.0581 17.8742 22.5509 16.1266 22.4159 14.37C22.281 12.6133 21.527 10.9615 20.2884 9.70859H20.2943ZM19.1219 19.0579C18.2587 19.9196 17.147 20.4891 15.9434 20.6863C14.7397 20.8835 13.5045 20.6985 12.4114 20.1573L11.8864 19.8967L9.58309 20.4415V20.4119L10.0686 18.0889L9.81204 17.5836C9.25313 16.4875 9.05579 15.2426 9.24833 14.0275C9.44087 12.8123 10.0134 11.6894 10.8837 10.8198C11.9766 9.72807 13.4581 9.11485 15.0028 9.11485C16.5475 9.11485 18.0291 9.72807 19.1219 10.8198L19.1476 10.8553C20.2262 11.9505 20.8283 13.4275 20.8228 14.9647C20.8172 16.5018 20.2045 17.9745 19.118 19.0619L19.1219 19.0579Z" fill="white"/>
<path d="M18.9187 17.3683C18.6364 17.8124 18.1884 18.3552 17.6298 18.4913C16.643 18.7282 15.141 18.4913 13.2601 16.7525L13.2364 16.7308C11.6002 15.2032 11.166 13.9302 11.2627 12.9216C11.32 12.3473 11.7976 11.8302 12.2002 11.4907C12.2643 11.4367 12.34 11.3985 12.4215 11.379C12.5029 11.3595 12.5878 11.3594 12.6693 11.3785C12.7508 11.3977 12.8267 11.4357 12.8909 11.4894C12.9551 11.5432 13.0058 11.6112 13.0391 11.6881L13.645 13.0578C13.6845 13.146 13.6994 13.2432 13.6879 13.3392C13.6764 13.4351 13.6391 13.5262 13.5798 13.6025L13.272 13.9973C13.208 14.0792 13.1698 14.1784 13.1625 14.2821C13.1551 14.3858 13.1788 14.4893 13.2305 14.5795C13.523 15.0106 13.8729 15.3997 14.2706 15.7361C14.6986 16.1479 15.1839 16.4956 15.7114 16.7683C15.8077 16.8071 15.9134 16.8164 16.015 16.795C16.1165 16.7735 16.2094 16.7223 16.2818 16.6479L16.6351 16.2887C16.7023 16.2164 16.7883 16.1641 16.8834 16.1377C16.9785 16.1112 17.079 16.1116 17.1739 16.1387L18.6147 16.5512C18.6964 16.5744 18.7714 16.6166 18.8337 16.6742C18.8961 16.7318 18.944 16.8033 18.9736 16.8828C19.0032 16.9624 19.0136 17.0478 19.0041 17.1321C18.9945 17.2165 18.9653 17.2974 18.9187 17.3683Z" fill="white"/>
</g>
<defs>
<clipPath id="clip0_4226_18542">
<rect width="30" height="30" fill="white"/>
</clipPath>
</defs>
</svg>
