<svg xmlns="http://www.w3.org/2000/svg" width="147" height="101" viewBox="0 0 147 101" fill="none">
  <path d="M78.9684 92.9505C77.0825 95.9101 73.5103 97.5963 69.7945 97.4966C67.8777 97.4451 64.7579 97.3777 61.996 97.3926C55.4022 97.4283 51.4687 88.0109 60.0029 86.4893C67.4952 85.1531 66.2287 83.1747 69.3801 81.827C73.7136 79.9735 78.8985 82.3111 80.0278 86.598C80.578 88.6866 80.2386 90.7429 79.2591 92.4639C79.2514 92.4775 79.2433 92.4912 79.2356 92.5052C79.1506 92.6561 79.0612 92.8045 78.9684 92.9505Z" fill="#EDF6F7"/>
  <path d="M52.2809 14.8104C56.7076 14.8104 60.2962 11.4949 60.2962 7.40518C60.2962 3.31541 56.7076 0 52.2809 0C47.8542 0 44.2656 3.31541 44.2656 7.40518C44.2656 11.4949 47.8542 14.8104 52.2809 14.8104Z" fill="#EDF6F7"/>
  <path d="M44.6239 55.0148C44.6239 55.0148 38.6636 41.2081 37.2795 37.9727C35.5559 33.9429 31.9924 28.7928 34.2007 27.6311C36.693 26.3198 37.543 32.1447 39.2501 37.8463C39.9617 40.2231 45.4464 54.522 45.4901 54.6419C45.5986 54.9394 44.7923 55.4064 44.6239 55.0148Z" fill="#F07D18"/>
  <path d="M43.0864 52.9221C43.0555 52.9821 39.7834 54.8381 39.0994 54.7117C38.4151 54.5853 39.5646 52.4107 39.6332 52.3728C39.7018 52.3349 41.1242 51.4443 41.1242 51.4443C41.1242 51.4443 43.5156 52.0933 43.0864 52.9221Z" fill="#FFB9A0"/>
  <path d="M42.0387 52.9031C41.9876 52.8609 40.7934 51.5908 40.9712 50.3012C41.149 49.0116 41.6007 48.339 41.7856 47.7499C41.8693 47.4832 42.3808 47.4729 42.4218 47.7133C42.4524 47.8921 42.4628 48.8194 42.4628 48.8194L43.7219 48.4402L44.4472 51.9548C44.4472 51.9548 42.8322 53.5605 42.0387 52.9031Z" fill="#FFE5CF"/>
  <path opacity="0.5" d="M42.0387 52.9031C41.9876 52.8609 40.7934 51.5908 40.9712 50.3012C41.149 49.0116 41.6007 48.339 41.7856 47.7499C41.8693 47.4832 42.3808 47.4729 42.4218 47.7133C42.4524 47.8921 42.4628 48.8194 42.4628 48.8194L43.7219 48.4402L44.4472 51.9548C44.4472 51.9548 42.8322 53.5605 42.0387 52.9031Z" fill="#FFB9A0"/>
  <path d="M43.4178 50.6487C43.4178 50.6487 42.8979 50.8763 42.7974 51.0868C42.6969 51.2977 42.9251 51.5082 43.2535 51.4831C43.5819 51.4579 44.4121 51.2809 44.7314 51.1797C45.0507 51.0785 44.9048 50.5139 44.5946 50.4884C44.2843 50.4633 43.6276 50.5981 43.4178 50.6487Z" fill="#FFE5CF"/>
  <path d="M42.6804 50.2868C42.6804 50.2868 42.1857 50.5756 42.1383 50.8017C42.0905 51.0278 42.3635 51.1867 42.6777 51.0951C42.992 51.0035 44.2151 50.6495 44.5025 50.4856C44.7899 50.3216 44.5058 49.763 44.1946 49.7617C43.7156 49.7599 42.9638 50.1232 42.6804 50.2868Z" fill="#FFE5CF"/>
  <path d="M42.5195 49.5156C42.5195 49.5156 42.0157 49.8078 41.9666 50.036C41.9175 50.2643 42.1948 50.4242 42.5148 50.3313C42.8348 50.2385 44.0801 49.8786 44.3725 49.7131C44.6652 49.5473 44.3943 48.942 44.0777 48.9414C43.5907 48.9405 42.8079 49.3501 42.5195 49.5156Z" fill="#FFE5CF"/>
  <path d="M42.3389 48.7843C42.3389 48.7843 41.947 49.0538 41.9198 49.283C41.8925 49.5119 42.1806 49.6479 42.4875 49.5311C42.7943 49.4144 43.7539 49.0892 44.0272 48.9026C44.3004 48.7163 43.9778 48.1406 43.6655 48.1648C43.1845 48.2018 42.6078 48.5983 42.3389 48.7843Z" fill="#FFE5CF"/>
  <path d="M1.61399 94.4209C1.61399 94.4209 0.891347 94.9963 0.451039 95.6183C0.0107312 96.2406 0.479609 97.6243 0.877902 98.3674C1.2762 99.1105 3.49622 100.568 4.22626 100.57C4.95596 100.573 4.67295 98.3804 4.89546 97.555C5.11763 96.7296 5.39963 96.0667 5.39963 96.0667C5.39963 96.0667 4.17786 94.2395 1.61399 94.4209Z" fill="#070540"/>
  <path d="M4.22743 100.57C3.49772 100.568 1.27736 99.1104 0.879069 98.3673C0.519428 97.6963 0.104665 96.5048 0.351372 95.8213C0.290535 95.8955 0.231716 95.9713 0.177601 96.048C-0.262706 96.6703 0.206171 98.054 0.604465 98.7971C1.00276 99.5402 3.22312 100.997 3.95282 101C4.1639 101.001 4.28994 100.817 4.36826 100.537C4.32557 100.558 4.27919 100.571 4.22743 100.57Z" fill="#E6E8F4"/>
  <path d="M35.7305 97.5444C35.7305 97.5444 35.7695 98.0503 35.8965 98.253C36.0236 98.4558 38.7494 99.1269 39.7558 99.2169C41.0511 99.3327 43.0043 99.1036 43.1149 98.8173C43.2254 98.531 42.7909 97.7037 42.3546 97.3143C41.9183 96.9252 40.1161 95.907 39.4785 95.6185C38.8412 95.33 35.8071 96.6513 35.7305 97.5444Z" fill="#070540"/>
  <path d="M39.7564 99.2168C38.7501 99.1268 36.0242 98.4557 35.8972 98.2529C35.8972 98.2529 35.8555 98.3877 35.9825 98.5905C36.1096 98.7933 38.7488 99.4845 39.7551 99.5742C41.0505 99.6901 43.0036 99.4609 43.1142 99.1746C43.1441 99.0976 43.1333 98.9805 43.0944 98.8439C42.8769 99.1174 41.0108 99.3289 39.7564 99.2168Z" fill="#E6E8F4"/>
  <path d="M16.8623 62.6016C16.8623 62.6016 14.3445 65.9391 13.8518 68.1138C13.359 70.2884 12.3557 79.0127 12.1914 79.8086C12.1507 80.0061 9.93873 81.1988 8.9435 82.5568C5.9279 86.671 1.52213 94.0935 1.48113 94.3597C1.42634 94.7137 4.81805 95.2835 5.29701 96.3616C6.15175 95.7083 15.7289 83.7042 16.862 82.5263C18.0727 81.2674 22.3356 75.5689 22.3356 75.5689C22.3356 75.5689 30.7324 83.1331 31.1481 83.6893C31.2839 83.8709 31.2466 85.6375 31.7867 87.5494C32.9006 91.4932 35.5065 97.2224 35.7277 97.4951C35.7277 97.4951 38.0996 95.59 39.4679 95.5564C39.4679 95.5564 36.2933 84.4985 35.4722 81.3128C34.6511 78.1268 28.0828 67.1458 27.3712 66.3149C26.6603 65.4842 17.5456 62.6522 16.8623 62.6016Z" fill="#6B78B7"/>
  <g opacity="0.33">
    <path d="M27.371 66.3149C26.6595 65.4842 17.5448 62.6522 16.8615 62.6016C16.8615 62.6016 14.3436 65.9391 13.8509 68.1138C13.7591 68.5187 13.6496 69.1509 13.5312 69.9161C13.5326 69.9139 15.9859 66.2009 28.4093 67.8902C27.8907 67.0548 27.5135 66.4813 27.371 66.3149Z" fill="#6B78B7"/>
    <path d="M25.0729 72.0158C24.197 73.0356 22.3359 75.5689 22.3359 75.5689C22.3359 75.5689 24.4783 77.4991 26.6526 79.4809C24.3644 76.7725 25.9488 70.996 25.0729 72.0158Z" fill="#6B78B7"/>
  </g>
  <path d="M39.7129 57.291C39.7129 57.291 40.4793 57.5692 41.1498 56.5196C41.8204 55.4704 42.2855 53.2451 42.2855 53.2451L39.1654 54.0416C39.1654 54.0416 38.317 56.3554 39.7129 57.291Z" fill="#ACB3D8"/>
  <path d="M27.7723 46.5573C26.321 46.5712 22.6039 47.4538 21.3354 49.166C19.4744 51.6776 20.1769 55.7741 18.8358 57.645C17.4947 59.5162 15.9358 60.9574 16.1822 62.5504C16.4285 64.1434 25.594 67.0143 28.6321 66.2395C31.1338 65.6014 33.5024 57.8027 34.4906 55.6222C34.4906 55.6222 38.1031 57.1646 39.7178 57.291C39.7178 57.291 38.7192 55.7862 39.7319 53.6622C40.7446 51.5381 41.1268 51.4447 41.1268 51.4447C41.1268 51.4447 39.8549 51.5009 37.0087 49.8066C34.1622 48.1124 31.5674 46.5206 27.7723 46.5573Z" fill="#E6E8F4"/>
  <path d="M37.0058 49.8073C34.1596 48.1131 31.5648 46.5213 27.7697 46.5582C27.0874 46.5648 25.4112 46.4685 26.9412 48.2593C29.2712 50.9867 35.5766 51.9574 34.488 55.6229C34.488 55.6229 38.1005 57.1653 39.7152 57.2917C39.7152 57.2917 38.7166 55.7869 39.7293 53.6628C40.742 51.5388 41.1242 51.4453 41.1242 51.4453C41.1242 51.4453 39.852 51.5012 37.0058 49.8073Z" fill="#E6E8F4"/>
  <path d="M26.4723 59.2166C26.4723 59.2166 26.9082 59.5157 30.0693 56.6585C33.2305 53.8013 28.4547 54.3196 27.2231 55.2173C25.9916 56.1148 24.8986 58.0282 26.4723 59.2166Z" fill="#ACB3D8"/>
  <path d="M31.7114 54.003C31.7114 54.003 40.3622 53.767 40.9548 53.6828C41.5477 53.5987 42.831 51.5374 43.1473 51.2532C43.4636 50.9691 45.2288 51.1961 45.4476 51.2532C45.6664 51.3104 45.5633 51.8159 45.4987 51.9172C45.4987 51.9172 45.9952 52.0858 46.1 52.2755C46.1773 52.4149 46.018 52.8655 46.018 52.8655C46.018 52.8655 46.3555 52.9835 46.4103 53.1468C46.4382 53.2301 46.3192 53.5567 46.3192 53.5567C46.3192 53.5567 46.7114 53.7083 46.6704 54.012C46.6442 54.2048 46.1316 54.7147 45.897 54.6625C45.6624 54.6104 45.0285 54.5508 44.7569 54.7296C44.4853 54.9082 44.4195 55.1435 44.4759 55.31C44.5237 55.4504 43.8649 56.1022 43.0441 56.077C42.223 56.0518 41.2015 55.7103 39.3082 56.4943C37.4152 57.2781 33.4057 57.9231 31.8183 57.9355C30.2308 57.9482 27.9731 56.4943 27.9456 56.4943C27.918 56.4937 30.0984 54.0483 31.7114 54.003Z" fill="#FFE5CF"/>
  <path opacity="0.5" d="M46.3201 53.5569C46.3201 53.5569 46.4394 53.2302 46.4111 53.147C46.3564 52.9836 46.0189 52.8656 46.0189 52.8656C46.0189 52.8656 46.1782 52.4154 46.1009 52.2756C45.996 52.0859 45.4996 51.9173 45.4996 51.9173C45.5641 51.8161 45.6673 51.3105 45.4485 51.2534C45.3043 51.2158 44.4896 51.1049 43.8594 51.1149C44.0083 51.1261 44.6109 51.195 44.737 51.336C44.867 51.4813 44.7131 51.8797 44.8637 52.1008C45.0143 52.3219 45.6062 53.2641 45.7087 53.5296C45.8112 53.7951 45.7635 54.59 45.3326 54.6099L45.3316 54.6102C45.5567 54.6083 45.7789 54.6363 45.8979 54.663C46.1325 54.7152 46.6451 54.2053 46.6713 54.0124C46.7123 53.7084 46.3201 53.5569 46.3201 53.5569Z" fill="#FFB9A0"/>
  <path d="M31.7139 54.0036C31.7199 53.9952 30.1651 53.5738 28.1672 51.7532C26.1694 49.9326 23.2956 49.1342 21.9821 49.9633C20.6686 50.7924 19.7093 53.3736 21.9139 55.192C24.9792 57.7206 25.6918 59.2168 26.4726 59.2168C26.4726 59.2168 25.7728 59.0733 27.8802 57.2781C29.9869 55.483 30.9637 55.0405 31.7139 54.0036Z" fill="#F3F4FA"/>
  <path d="M28.8714 49.2527C28.8714 49.2527 29.4465 49.5005 29.7212 49.3589C29.996 49.2173 29.5231 47.642 29.0759 47.3411C28.6286 47.0405 28.6797 48.9813 28.8714 49.2527Z" fill="#ACB3D8"/>
  <path d="M30.6854 45.3475C30.6854 45.3475 30.3405 46.1195 29.4112 46.1785C28.4818 46.2375 29.4495 43.9424 29.4495 43.9424H30.9025C30.9025 43.9424 30.8131 44.9532 30.6854 45.3475Z" fill="#070540"/>
  <path d="M30.6854 45.3475C30.6854 45.3475 30.3405 46.1195 29.4112 46.1785C28.4818 46.2375 29.4495 43.9424 29.4495 43.9424H30.9025C30.9025 43.9424 30.8131 44.9532 30.6854 45.3475Z" fill="#070540"/>
  <path d="M25.4422 43.892C25.4422 43.892 25.308 42.463 25.7295 41.8655C26.1194 41.3128 29.4762 41.0653 30.0657 41.9782C30.8485 43.1909 30.0099 45.4956 30.0099 45.4956C30.0099 45.4956 25.8798 47.6789 25.4422 43.892Z" fill="#D14122"/>
  <path d="M26.6507 47.4238C26.6507 47.4238 26.5986 47.9386 26.6114 48.033C26.6242 48.1274 28.4143 49.0758 28.8741 49.2528C28.8741 49.2528 30.0619 45.583 30.0108 45.5948C29.9594 45.6066 26.6507 47.4238 26.6507 47.4238Z" fill="#FFB9A0"/>
  <path d="M25.4404 43.892C25.4421 43.9436 25.6239 47.2669 25.6717 47.6386C25.7194 48.0103 26.8003 48.1401 27.2984 47.9364C27.7966 47.733 28.982 46.9542 29.1175 46.7682C29.2526 46.5822 29.3484 46.0956 29.3484 46.0956C29.3484 46.0956 29.3292 46.3399 29.7124 46.2663C30.0956 46.1928 30.4713 45.717 30.4881 45.4316C30.5362 44.6202 29.6166 44.4907 29.3578 45.5937C29.3319 45.704 29.0049 45.7648 29.0129 45.6791C29.021 45.5937 29.1067 44.6969 29.1171 44.5376C29.1279 44.3783 28.7541 44.2013 28.7447 44.051C28.735 43.9004 29.0224 42.8651 28.9457 42.6971C28.8691 42.5288 27.6598 43.0334 26.6121 42.821C25.5648 42.6089 25.4128 43.0163 25.4404 43.892Z" fill="#FFE5CF"/>
  <path d="M25.518 45.2895C26.4941 45.0612 27.452 46.1493 29.0371 45.4295C29.0657 45.1267 29.1101 44.6507 29.1178 44.5386C29.1286 44.3793 28.7548 44.2023 28.7454 44.052C28.7357 43.9014 29.023 42.8661 28.9464 42.6981C28.8698 42.5298 27.6604 43.0344 26.6128 42.822C25.5651 42.6096 25.4128 43.017 25.4404 43.8927C25.4411 43.9147 25.4754 44.5476 25.518 45.2895Z" fill="#FFB9A0"/>
  <path d="M30.6871 45.3475C30.6871 45.3475 30.8515 44.3939 30.1708 44.4715C28.6533 44.6445 26.4978 43.379 25.2589 43.6001C25.2589 43.6001 25.0283 42.0087 26.2807 41.2991C27.6345 40.5321 30.3389 40.9895 30.9234 42.5381C31.4914 44.0433 30.6871 45.3475 30.6871 45.3475Z" fill="#070540"/>
  <path d="M29.4493 44.7154C29.4493 44.7154 28.6823 45.079 27.8384 44.9815C26.994 44.8843 26.0523 44.0788 24.2608 44.1319L24.1875 43.9903C24.1875 43.9903 25.051 43.9064 25.257 43.8533C25.5669 43.7735 26.2573 43.7344 26.994 43.9418C27.6999 44.1406 29.4493 44.4629 29.4493 44.4629V44.7154Z" fill="#070540"/>
  <path d="M29.4493 44.4624C29.4493 44.4624 28.6823 44.8838 27.8384 44.7863C26.994 44.6888 25.9786 43.9367 24.1875 43.9898C24.1875 43.9898 24.9475 43.6802 25.257 43.6004C25.5669 43.5206 26.2573 43.4815 26.994 43.6889C27.7792 43.9103 29.05 44.3864 29.4493 44.4624Z" fill="#6B78B7"/>
  <path d="M45.7875 54.6661C45.6503 54.3788 45.214 54.2782 44.8127 54.4415C44.4114 54.6049 44.1973 54.9704 44.3344 55.2579C44.4716 55.5452 44.9078 55.6458 45.3092 55.4824C45.7105 55.3188 45.9246 54.9533 45.7875 54.6661Z" fill="#FF946E"/>
  <path d="M132.113 61.2373L131.07 61.5947L132.967 66.3169L134.009 65.9595L135.052 65.6021L133.156 60.8799L132.113 61.2373Z" fill="#ACB3D8"/>
  <path d="M134.007 65.9599L132.488 66.4803L132.841 67.3579L134.359 66.8374L135.877 66.317L135.525 65.4395L134.007 65.9599Z" fill="#070540"/>
  <path d="M131.762 60.3606L130.477 60.8012L130.829 61.6788L132.114 61.2381L133.399 60.7978L133.047 59.9199L131.762 60.3606Z" fill="#070540"/>
  <path d="M123.905 53.1157C123.903 53.1138 123.9 53.1122 123.898 53.1104C123.909 53.1359 123.92 53.1597 123.93 53.1849C123.922 53.1618 123.913 53.1387 123.905 53.1157Z" fill="#6B78B7"/>
  <path d="M132.755 50.5331C132.727 50.4527 132.697 50.3723 132.665 50.2922C131.546 47.5073 128.692 45.9171 126.29 46.7406C123.888 47.5642 122.847 50.4894 123.965 53.2742C123.997 53.3543 124.031 53.4335 124.066 53.5114L124.061 53.5133C125.694 57.5803 129.603 57.7557 130.796 60.6899L131.339 60.5042L131.111 60.0418C130.462 58.8357 129.389 58.1017 128.26 57.3297C127.985 57.1412 127.707 56.9508 127.433 56.7515C128.383 57.0986 129.396 57.1489 130.34 56.8257C131.283 56.5024 132.016 55.854 132.49 55.0181C132.423 55.3342 132.347 55.6457 132.272 55.955C131.961 57.2204 131.666 58.4234 132.026 59.7288L132.183 60.2151L132.722 60.0303C131.555 57.0868 134.394 54.5983 132.761 50.5313L132.755 50.5331ZM130.142 56.3335C128.037 57.0549 125.505 55.6007 124.498 53.0916C123.49 50.5825 124.383 47.9542 126.487 47.2328C128.592 46.5115 131.124 47.9657 132.132 50.4748C133.139 52.9838 132.247 55.6121 130.142 56.3335Z" fill="#6B78B7"/>
  <path d="M132.598 50.1364C132.598 50.1339 132.598 50.1311 132.599 50.1289C132.609 50.1545 132.617 50.1794 132.627 50.205C132.617 50.1819 132.607 50.1592 132.598 50.1364Z" fill="#6B78B7"/>
  <mask id="mask0_4431_9863" style="mask-type:luminance" maskUnits="userSpaceOnUse" x="124" y="47" width="9" height="10">
    <path d="M126.494 47.2327C128.599 46.5113 131.131 47.9656 132.138 50.4746C133.146 52.9837 132.253 55.612 130.149 56.3334C128.044 57.0547 125.512 55.6005 124.504 53.0915C123.497 50.5824 124.389 47.9541 126.494 47.2327Z" fill="white"/>
  </mask>
  <g mask="url(#mask0_4431_9863)">
    <path d="M131.12 46.6022L122.539 49.543L122.612 49.7246L131.193 46.7839L131.12 46.6022Z" fill="#070540"/>
    <path d="M131.363 47.2111L122.781 50.1504L122.854 50.3321L131.436 47.3928L131.363 47.2111Z" fill="#070540"/>
    <path d="M131.609 47.8195L123.027 50.7588L123.1 50.9405L131.682 48.0011L131.609 47.8195Z" fill="#070540"/>
    <path d="M131.851 48.4269L123.27 51.3662L123.343 51.5479L131.924 48.6086L131.851 48.4269Z" fill="#070540"/>
    <path d="M132.093 49.0328L123.512 51.9736L123.585 52.1553L132.166 49.2145L132.093 49.0328Z" fill="#070540"/>
    <path d="M132.339 49.6427L123.758 52.582L123.831 52.7637L132.412 49.8244L132.339 49.6427Z" fill="#070540"/>
    <path d="M132.582 50.2501L124 53.1895L124.073 53.3711L132.655 50.4318L132.582 50.2501Z" fill="#070540"/>
    <path d="M132.828 50.8585L124.246 53.7979L124.319 53.9795L132.901 51.0402L132.828 50.8585Z" fill="#070540"/>
    <path d="M133.074 51.466L124.492 54.4053L124.565 54.5869L133.147 51.6476L133.074 51.466Z" fill="#070540"/>
    <path d="M133.316 52.0734L124.734 55.0127L124.807 55.1944L133.389 52.2551L133.316 52.0734Z" fill="#070540"/>
    <path d="M133.562 52.6828L124.98 55.6221L125.053 55.8037L133.635 52.8644L133.562 52.6828Z" fill="#070540"/>
    <path d="M133.804 53.2892L125.223 56.2285L125.296 56.4102L133.877 53.4709L133.804 53.2892Z" fill="#070540"/>
    <path d="M134.046 53.8952L125.465 56.8359L125.538 57.0176L134.119 54.0768L134.046 53.8952Z" fill="#070540"/>
    <path d="M122.908 46.211L122.711 46.2783L127.891 59.1734L128.088 59.1061L122.908 46.211Z" fill="#070540"/>
    <path d="M123.622 45.9639L123.426 46.0312L128.606 58.9263L128.803 58.859L123.622 45.9639Z" fill="#070540"/>
    <path d="M124.333 45.707L124.137 45.7744L129.319 58.6681L129.515 58.6008L124.333 45.707Z" fill="#070540"/>
    <path d="M125.052 45.4746L124.855 45.542L130.033 58.438L130.23 58.3706L125.052 45.4746Z" fill="#070540"/>
    <path d="M125.763 45.2158L125.566 45.2832L130.746 58.1778L130.942 58.1104L125.763 45.2158Z" fill="#070540"/>
    <path d="M126.478 44.9707L126.281 45.0381L131.463 57.9318L131.66 57.8644L126.478 44.9707Z" fill="#070540"/>
    <path d="M127.189 44.7256L126.992 44.793L132.174 57.6867L132.371 57.6193L127.189 44.7256Z" fill="#070540"/>
    <path d="M127.915 44.4941L127.719 44.5615L132.897 57.4575L133.093 57.3901L127.915 44.4941Z" fill="#070540"/>
    <path d="M128.619 44.2471L128.422 44.3145L133.601 57.2095L133.798 57.1422L128.619 44.2471Z" fill="#070540"/>
  </g>
  <path d="M101.368 90.7575C101.368 90.7575 100.733 92.2105 100.189 92.2105C99.6442 92.2105 98.1018 91.7105 96.7103 91.8207C95.3188 91.931 89.7534 94.5577 86.9102 94.5298L84.9141 98.7772C84.9141 98.7772 88.695 97.4078 91.5684 96.9889C94.4419 96.5697 102.79 96.374 104.151 95.9269C105.512 95.4797 108.386 89.6113 108.386 89.6113L101.368 90.7575Z" fill="#FFD2B3"/>
  <path d="M101.368 90.7572C101.368 90.7572 101.142 91.2733 100.844 91.6897C101.232 91.5813 102.185 92.0425 103.243 93.0346C104.047 93.7876 104.845 94.4037 105.708 94.3022C107.007 92.4238 108.385 89.6113 108.385 89.6113L101.368 90.7572Z" fill="#FFB98B"/>
  <path d="M86.6918 94.3538C86.6918 94.3538 88.0628 94.7451 92.1725 93.1465C92.1725 93.1465 94.3139 94.7265 93.003 96.9247C93.003 96.9247 90.18 97.2973 88.325 97.8935C86.47 98.4898 84.6953 98.9742 84.6953 98.9742L86.6918 94.3538Z" fill="#E6E8F4"/>
  <path d="M86.2697 93.4961C86.2697 93.4961 87.6508 94.4277 87.6911 95.4335C87.7264 96.3169 86.6273 96.6678 86.1739 97.5339C85.7202 98.4003 86.1285 98.8335 84.8278 99.2524C83.5274 99.6716 82.2569 99.4061 80.5481 100.3C78.8393 101.195 76.8125 100.3 76.8125 100.3L86.2697 93.4961Z" fill="#070540"/>
  <path d="M80.3558 99.58C82.7768 98.0447 83.0628 96.9113 84.1065 96.2685C85.1501 95.6257 86.4354 94.55 86.2841 93.5998C86.2441 93.348 85.5517 92.8114 85.3716 92.6974C84.8728 92.3807 76.1443 99.7734 76.1523 100.197C76.2061 100.244 76.7705 100.587 76.8471 100.616C77.5086 100.863 78.974 100.456 80.3558 99.58Z" fill="#E6E8F4"/>
  <path d="M79.7882 99.2248C82.2092 97.6899 82.4952 96.5561 83.5389 95.9133C84.5825 95.2705 85.8678 94.1949 85.7166 93.2446C85.5653 92.2944 84.2346 92.3624 83.1154 93.1599C81.9961 93.9573 82.2986 94.6979 80.1815 95.3128C78.0643 95.9276 76.9753 97.4085 76.461 98.3028C76.2446 98.6795 75.7074 99.8201 76.0829 100.147C76.5988 100.596 78.2458 100.203 79.7882 99.2248Z" fill="white"/>
  <path d="M120.445 85.0942C120.445 85.0942 124.841 85.1315 126.132 85.3178C127.422 85.5041 128.269 88.1123 129.439 88.8948C130.608 89.6773 132.947 90.236 135.367 93.105C137.787 95.9739 137.625 96.3093 137.625 96.3093L141.255 96.0485C141.255 96.0485 128.955 81.8526 127.947 81.1077C126.938 80.3624 121.857 79.3193 121.857 79.3193C121.857 79.3193 120.808 84.0884 120.445 85.0942Z" fill="#FFD2B3"/>
  <path d="M125.272 82.8566C125.458 82.224 126.02 80.9186 125.704 80.2509C123.941 79.7476 121.857 79.3193 121.857 79.3193C121.857 79.3193 120.808 84.0884 120.445 85.0946C120.445 85.0946 122.42 85.1113 124.111 85.1784C124.581 84.4431 125.022 83.7034 125.272 82.8566Z" fill="#FFB98B"/>
  <path d="M137.234 95.5078C137.684 96.1916 137.629 96.309 137.629 96.309L141.259 96.0481C141.259 96.0481 141.089 95.8519 140.79 95.5078H137.234Z" fill="#FFD2B3"/>
  <path d="M132.591 90.7763C132.537 90.7061 134.68 88.8389 135.124 88.8576C135.567 88.8762 139.62 94.0366 140.145 94.5396C140.669 95.0427 137.223 95.4091 136.789 95.1234C136.354 94.8377 135.568 93.626 134.418 92.5463C133.063 91.2735 132.705 90.9257 132.591 90.7763Z" fill="#E6E8F4"/>
  <path d="M136.234 94.5614C136.234 94.5614 137.245 95.3132 138.53 94.9498C139.816 94.5865 138.782 93.5484 138.719 93.0705C138.657 92.5926 138.991 92.5637 139.47 93.0065C139.988 93.4854 144.489 95.383 145.608 95.6206C146.728 95.8581 147.045 96.5708 146.999 96.8779C146.954 97.1853 144.58 97.4229 142.13 97.5626C139.68 97.7024 135.944 97.6604 135.793 97.4928C135.642 97.3251 135.755 94.6163 136.234 94.5614Z" fill="#070540"/>
  <path d="M146.94 96.9543C146.939 96.9537 146.939 96.9528 146.938 96.9521C146.56 97.2236 144.38 97.4344 142.131 97.5626C139.759 97.698 136.183 97.6629 135.82 97.5083C135.742 97.7198 135.778 97.9825 135.814 98.0235C135.966 98.1912 139.681 98.2666 142.131 98.1269C144.581 97.9871 146.955 97.7496 147.001 97.4422C147.014 97.3515 147.001 97.0934 146.94 96.9543Z" fill="#E6E8F4"/>
  <path d="M101.896 78.7979C101.896 78.7979 100.807 80.3627 101.453 83.3062C102.098 86.2497 101.654 90.4282 100.848 91.0961C100.848 91.0961 102.017 92.3286 104.437 91.5805C106.857 90.8325 108.51 89.8267 109.962 89.7149C109.962 89.7149 110.406 86.2497 110.285 85.1694C110.285 85.1694 119.318 86.5854 120.125 86.5105C120.932 86.436 124.452 81.8156 124.452 79.9155C124.452 79.9155 118.192 77.5682 114.521 76.4506C110.849 75.3327 101.896 78.7979 101.896 78.7979Z" fill="#5BCFDE"/>
  <g opacity="0.4">
    <path d="M114.519 76.4506C110.847 75.3327 101.894 78.7979 101.894 78.7979C101.894 78.7979 100.805 80.3627 101.45 83.3062C101.618 84.0679 101.711 84.9122 101.745 85.7572C102.216 84.0251 116.069 84.9458 115.676 76.8155C115.271 76.6842 114.882 76.5612 114.519 76.4506Z" fill="#5BCFDE"/>
    <path d="M110.117 88.3412C110.231 87.2481 110.353 85.8008 110.282 85.1688C110.282 85.1688 107.812 84.7959 106.612 84.6844C105.413 84.5729 110.274 86.9681 110.117 88.3412Z" fill="#5BCFDE"/>
  </g>
  <path d="M122.941 64.6303C122.941 64.6303 130.275 64.0294 130.91 63.8477C131.545 63.6661 132.74 62.1432 132.951 62.0035C133.163 61.8638 134.625 61.9569 134.877 62.0035C135.129 62.0501 134.948 62.8699 134.948 62.8699C134.948 62.8699 135.404 63.9946 135.401 64.3089C135.4 64.5157 135.18 65.0774 134.948 65.0495C134.716 65.0215 134.837 64.7514 134.595 64.7048C134.353 64.6582 134 65.478 133.707 65.6271C133.415 65.7761 133.022 65.8041 132.376 65.7202C131.731 65.6364 127.492 67.6064 126.266 67.788C125.041 67.9697 121.609 67.6902 121.336 67.6902C121.065 67.6902 121.913 64.7163 122.941 64.6303Z" fill="#FFD2B3"/>
  <path d="M123.292 64.6006C123.07 64.6189 122.941 64.6298 122.941 64.6298C121.912 64.7158 121.064 67.6897 121.337 67.6897C121.465 67.6897 122.3 67.7521 123.274 67.7987C123.134 67.577 123.716 66.1998 123.292 64.6006Z" fill="#FFB98B"/>
  <path d="M134.949 65.049C135.181 65.077 135.401 64.5152 135.403 64.3084C135.405 63.9941 134.949 62.8694 134.949 62.8694C134.949 62.8694 135.13 62.0496 134.878 62.003C134.684 61.967 133.771 61.904 133.266 61.9409C133.396 61.9328 133.808 61.9313 133.799 62.2452C133.789 62.6179 134.354 63.5122 134.505 63.6706C134.656 63.8289 134.717 64.3811 134.383 64.8229L134.382 64.8239C134.459 64.7422 134.531 64.6922 134.596 64.7046C134.838 64.7509 134.717 65.0211 134.949 65.049Z" fill="#FFB98B"/>
  <path d="M113.069 59.9446C113.152 59.7956 117.303 58.8547 117.666 58.6686C118.029 58.4823 118.311 57.6858 118.569 57.3647C118.826 57.0433 119.995 56.2316 120.095 55.9987C120.196 55.7658 120.212 55.5811 120.404 55.5811C120.619 55.5811 120.762 55.9925 120.693 56.4272C120.626 56.862 119.955 57.3722 119.88 57.5048C119.88 57.5048 121.389 57.3998 121.654 57.4905C121.918 57.5812 121.794 57.8321 121.634 57.8864C121.375 57.9746 120.118 58.0283 120.05 58.105C119.983 58.1817 121.905 58.0898 122.086 58.1519C122.344 58.2401 122.266 58.5733 122.047 58.6152C121.828 58.6572 120.499 58.7571 120.378 58.7991C120.257 58.841 122.221 58.7478 122.448 58.8037C122.675 58.8596 122.667 59.2369 122.372 59.2857C122.078 59.3344 120.406 59.4605 120.323 59.5232C120.24 59.5859 122.268 59.803 122.397 59.912C122.525 60.0213 122.425 60.3054 122.123 60.3334C121.82 60.3613 120.323 60.2287 120.195 60.2496C120.066 60.2707 119.03 60.7107 118.584 60.6896C118.534 60.6874 117.956 60.5924 117.821 60.615C116.748 60.7948 113.655 62.1705 113.472 62.1705C113.266 62.1708 112.894 60.2558 113.069 59.9446Z" fill="#FF946E"/>
  <path d="M116.713 58.9492C115.375 59.3004 113.13 59.8348 113.069 59.9438C112.894 60.255 113.266 62.17 113.472 62.17C113.628 62.17 115.889 61.1751 117.221 60.7677C116.903 60.1994 116.719 59.5768 116.713 58.9492Z" fill="#F07D18"/>
  <path d="M111.276 56.5347C111.276 56.5347 109.804 54.8908 107.606 55.5799C105.408 56.2692 104.38 59.0684 104.319 62.7754C104.27 65.7755 104.884 71.6153 103.977 73.5433C103.069 75.4714 101.012 78.0143 100.68 79.1602C100.68 79.1602 103.906 83.8989 109.179 82.7372C116.408 81.1445 114.835 72.2581 115.642 68.2538C117.131 68.3631 119.735 68.9888 120.673 69.0727C121.61 69.1565 123.214 65.8869 122.942 64.6296C120.506 63.9145 118.574 63.1822 116.963 62.4624C115.351 61.742 113.999 60.6064 113.058 59.1988L111.276 56.5347Z" fill="#6B78B7"/>
  <path opacity="0.33" d="M110.799 59.5575C113.659 62.5311 117.086 63.4978 118.968 63.2944C118.262 63.0227 117.611 62.7513 117.005 62.4814C115.376 61.7563 114.005 60.6186 113.055 59.1976L112.973 59.0762C112.769 59.2901 110.731 59.4876 110.799 59.5575Z" fill="#6B78B7"/>
  <path opacity="0.44" d="M111.275 56.535C111.275 56.535 110.413 55.577 109.026 55.4326C109.621 55.5373 110.059 56.7387 109.148 56.9166C108.216 57.0986 107.3 57.6063 107.613 57.4874C108.696 57.0772 109.804 57.0356 109.259 57.2259C108.709 57.4178 108.38 57.756 108.551 57.7256C109.575 57.5414 110.316 57.7308 110.133 57.9004C110.133 57.9004 110.539 58.4491 110.58 58.4491C110.599 58.4491 111.081 57.824 111.598 57.1467L111.275 56.535Z" fill="#6B78B7"/>
  <path d="M113.024 68.3375C112.477 68.5971 115.289 71.1481 115.218 73.3882C115.368 71.4366 115.376 69.578 115.643 68.2536C115.473 68.2204 113.57 68.0776 113.024 68.3375Z" fill="#6B78B7"/>
  <path d="M110.13 57.9013C110.13 57.9013 110.966 57.7976 111.273 57.2598L115.868 59.3978C114.37 59.2422 113.454 60.4197 113.121 60.7669C112.662 61.2448 109.516 59.0556 110.13 57.9013Z" fill="#FFB98B"/>
  <path d="M112.103 57.6457C112.103 57.6457 111.474 58.2627 111.337 58.214C111.199 58.1649 111.002 57.6951 110.963 57.5876C110.923 57.4802 111.527 57.0889 111.453 55.8372C111.379 54.5851 111.241 53.0399 111.347 52.7955C111.453 52.5511 116.562 52.8517 116.866 53.0042C117.028 53.0859 116.638 54.8761 116.692 55.1158C116.746 55.3555 114.142 58.2167 114.142 58.2167L112.103 57.6457Z" fill="#070540"/>
  <path d="M112.415 56.5391C111.819 56.563 111.912 57.149 112.024 57.471C112.178 57.911 112.666 58.3383 112.928 58.0644C112.928 58.0644 113.048 58.5992 113.26 59.0296C113.471 59.46 115.589 60.3077 116.153 60.0338C116.577 59.8282 116.541 57.5757 116.605 57.1322C116.669 56.6888 116.901 56.4605 116.908 56.2714C116.916 56.0823 116.718 55.2281 116.661 54.9803C116.605 54.7325 116.019 55.2215 115.243 54.9803C114.467 54.739 113.246 54.113 113.316 54.2303C113.368 54.316 114.446 54.752 114.509 54.9477C114.573 55.1433 114.178 56.0041 114.178 56.1345C114.178 56.2649 113.719 56.2714 113.669 56.4084C113.62 56.5453 113.571 57.4126 113.556 57.517C113.542 57.6213 113.175 57.5626 113.168 57.4713C113.161 57.3794 113.064 56.5127 112.415 56.5391Z" fill="#FFD2B3"/>
  <path d="M50.6641 47.3069C50.6641 47.3069 51.2896 48.8021 57.304 50.3957C63.3184 51.9893 64.1455 48.6552 64.1455 48.6552L63.9425 44.8729C63.9425 44.8729 52.4643 43.4253 52.3873 43.3302C52.3103 43.2352 50.8462 45.3549 50.6641 47.3069Z" fill="#ACB3D8"/>
  <path d="M50.7255 63.0312C50.7255 63.0312 50.216 67.3305 50.3682 68.4425C50.5202 69.5542 57.1712 75.1481 58.203 75.6247C58.203 75.6247 60.574 73.5318 60.4547 73.2526C60.3353 72.9731 55.7803 68.7496 55.342 68.1655C54.9034 67.5811 55.5504 63.9771 55.5504 63.9771L50.7255 63.0312Z" fill="#450603"/>
  <path d="M60.3741 72.978C61.0097 73.818 63.4849 77.6884 64.8895 78.9622C64.8895 78.9622 64.4818 80.7412 63.6018 81.2583C63.414 81.3688 62.5337 80.7794 62.3797 80.8195C62.3797 80.8195 61.5838 79.5305 60.4501 78.1732C59.5335 77.0758 58.2919 75.9082 57.8879 75.5452C57.4937 75.1902 60.1184 72.6402 60.3741 72.978Z" fill="#E6E8F4"/>
  <path d="M67.5881 79.7765C67.6883 79.9231 65.5738 84.2491 64.4566 85.5635C63.9914 86.111 62.7689 87.1295 62.7074 87.0311C62.4759 86.6606 62.3764 86.1374 62.411 85.8896C62.4661 85.4968 62.8879 83.0135 62.7737 82.4169C62.6594 81.8204 62.0389 80.7736 61.4961 80.4445C61.4961 80.4445 61.6857 80.4153 62.0665 80.4302C62.447 80.4451 63.2462 81.0509 63.2866 80.9404C63.342 80.7888 62.6896 79.9743 62.652 79.5616C62.6147 79.1489 64.0872 78.1655 63.8401 77.8056C64.0442 77.609 64.2855 77.8593 65.0209 78.5099C65.3587 78.8092 67.0766 79.0275 67.5881 79.7765Z" fill="#6B78B7"/>
  <path d="M64.4591 85.5631C65.5199 84.3148 67.4784 80.3547 67.5876 79.832C67.7443 79.9062 67.8243 80.0444 67.9318 80.1981C68.0337 80.3438 65.9178 84.6707 64.8003 85.9852C64.3351 86.5326 63.1126 87.5512 63.0511 87.4527C62.9624 87.3108 62.8935 87.1468 62.8438 86.9844C63.1849 86.7795 64.0769 86.0128 64.4591 85.5631Z" fill="#070540"/>
  <path opacity="0.4" d="M62.0665 80.4308C62.4473 80.4457 63.2462 81.0515 63.2866 80.941C63.342 80.7894 62.6896 79.9749 62.652 79.5622C62.6335 79.3588 62.9814 79.0172 63.3098 78.6797C63.5783 80.6028 65.4552 82.5424 66.5556 83.1584C65.957 84.2763 65.2837 85.4154 64.7984 85.9861C64.3332 86.5336 63.1108 87.5521 63.0493 87.4537C62.9605 87.3118 62.8916 87.1478 62.8419 86.9854C62.7679 87.0298 62.7189 87.0491 62.7078 87.0317C62.4762 86.6612 62.3767 86.138 62.4113 85.8902C62.4665 85.4973 62.8883 83.0141 62.774 82.4175C62.6597 81.821 62.0393 80.7742 61.4961 80.445C61.4961 80.445 61.6857 80.4159 62.0665 80.4308Z" fill="#6B78B7"/>
  <path d="M59.7077 67.2895C59.7803 67.4121 59.586 68.3931 59.7702 69.039C59.9544 69.6849 62.2161 75.9349 62.3596 78.7961L58.9508 79.4892C58.9508 79.4892 54.666 70.6255 54.4697 69.5265C54.2734 68.4276 54.2734 66.084 54.2734 66.084L59.7077 67.2895Z" fill="#691813"/>
  <path d="M54.3968 68.9806C54.2741 67.7969 54.2734 66.084 54.2734 66.084L59.708 67.2895C59.7739 67.4006 59.621 68.2176 59.7296 68.8508C58.0779 68.3403 55.9604 68.3043 54.3968 68.9806Z" fill="#450603"/>
  <path d="M62.6614 78.5538C62.7498 79.813 63.0806 85.1224 63.6785 87.2918C63.6785 87.2918 62.3996 88.6516 61.1664 88.7634C60.6975 88.8059 60.0505 87.8414 59.7537 87.7653C59.7537 87.7653 59.8072 85.9391 59.5524 83.8421C59.3463 82.1463 58.8469 80.185 58.6731 79.5649C58.5027 78.9587 62.6258 78.0473 62.6614 78.5538Z" fill="white"/>
  <path d="M65.3352 89.6397C65.3392 89.8533 64.0395 90.7489 62.8738 91.7957C62.0866 92.5028 60.8766 94.0138 58.7921 94.7377C57.9242 95.0392 55.8013 94.6336 55.8047 94.4942C55.8171 93.9676 56.0739 93.3583 56.282 93.1179C56.6114 92.7369 58.7719 90.3729 59.064 89.6776C59.3561 88.9826 59.1413 87.5561 58.7971 86.889C58.7971 86.889 59.7026 86.7981 60.0928 87.0384C60.483 87.2788 61.0242 88.2874 61.1432 88.1951C61.3062 88.0684 61.1828 86.8263 61.4285 86.3698C61.6746 85.9134 63.4072 86.0034 63.3259 85.4948C63.7121 85.3653 63.8055 85.7736 64.1295 86.8925C64.2788 87.4064 65.3147 88.5497 65.3352 89.6397Z" fill="#6B78B7"/>
  <path d="M58.793 94.7374C60.8776 94.0132 62.0872 92.5022 62.8748 91.7954C63.9268 90.8508 65.0844 90.031 65.2978 89.7227C65.2978 89.7233 65.2981 89.7236 65.2985 89.7242C65.3536 89.9034 65.4037 90.2698 65.3818 90.4636C65.3583 90.676 63.8932 91.6889 62.7275 92.7357C61.9404 93.4428 60.7304 94.9538 58.6458 95.6777C57.7779 95.9792 55.731 95.5767 55.7344 95.4373C55.7401 95.1995 55.7273 94.7237 55.8056 94.4939C55.8023 94.6337 57.9248 95.0389 58.793 94.7374Z" fill="#070540"/>
  <path d="M64.1465 48.655C64.1465 48.655 64.0093 50.1185 64.1461 50.6101C64.1461 50.6101 54.8849 51.8429 54.333 47.9467C54.2789 47.5638 54.1676 45.0392 54.0234 44.9883C54.0234 44.9883 63.7821 46.6863 64.1465 48.655Z" fill="#691813"/>
  <path d="M54.2942 47.452C54.2334 46.5968 54.1403 45.028 54.0273 44.9883C54.0273 44.9883 63.7857 46.6863 64.1501 48.655C64.1501 48.655 64.1369 48.7954 64.1228 49.0028C61.325 47.2169 54.2942 47.452 54.2942 47.452Z" fill="#450603"/>
  <path d="M54.2954 47.4824C54.2997 49.295 51.6683 55.3742 49.6953 63.5247C50.0207 64.6693 53.1489 64.7292 53.1489 64.7292C53.1489 64.7292 53.0141 65.916 52.9832 66.5048C53.648 67.9205 59.2621 68.3689 60.1037 67.668C60.5037 66.4436 61.6236 61.6727 62.0068 60.3967C62.3896 59.1207 64.2614 56.9237 64.6759 54.8615C65.0899 52.7993 64.694 50.2523 64.089 49.7968C63.9162 50.9249 54.4795 49.9052 54.2954 47.4824Z" fill="#6B78B7"/>
  <path opacity="0.3" d="M53.7891 49.8201C54.1033 48.7633 54.2929 47.9681 54.2916 47.4824C54.4757 49.9049 63.9121 50.9249 64.0849 49.7968C64.6502 50.2225 65.0327 52.4742 64.7426 54.4501C63.6029 52.7307 58.1972 50.1151 53.7891 49.8201Z" fill="#6B78B7"/>
  <path opacity="0.3" d="M50.0703 64.0121C51.7267 64.5301 54.4667 56.7283 54.1954 58.0543C53.7625 60.1706 53.1515 64.7288 53.1515 64.7288C53.1515 64.7288 50.9842 64.6869 50.0703 64.0121Z" fill="#6B78B7"/>
  <path d="M64.5873 10.831C63.1612 10.7356 64.9046 6.81241 64.997 6.02709C65.0421 5.64327 64.0206 5.90567 63.4113 6.28545C62.8019 6.66522 62.7676 7.76791 62.7676 7.76791L62.2813 11.1819C62.2813 11.1819 64.4556 11.1524 64.5873 10.831Z" fill="#450603"/>
  <g opacity="0.5">
    <path d="M64.5873 10.831C63.1612 10.7356 64.9046 6.81241 64.997 6.02709C65.0421 5.64327 64.0206 5.90567 63.4113 6.28545C62.8019 6.66522 62.7676 7.76791 62.7676 7.76791L62.2813 11.1819C62.2813 11.1819 64.4556 11.1524 64.5873 10.831Z" fill="#450603"/>
  </g>
  <path d="M69.4451 10.7305C72.0495 9.79189 73.3364 7.08075 72.3195 4.67496C71.3026 2.26917 68.3669 1.07976 65.7625 2.01833C63.1582 2.95691 61.8712 5.66805 62.8882 8.07384C63.9051 10.4796 66.8407 11.669 69.4451 10.7305Z" fill="#F07D18"/>
  <path d="M65.151 3.89552C65.3957 3.56232 65.6669 3.26049 65.962 2.99157C65.5987 2.84407 65.2276 2.66552 64.8498 2.44784C65.0028 2.35655 65.1611 2.27239 65.3241 2.19662C65.6726 2.38356 66.0158 2.5382 66.3523 2.66552C66.6386 2.44784 66.9445 2.2581 67.2702 2.09942C67.5848 1.94602 67.9108 1.82616 68.2459 1.73828C68.2708 1.74139 68.2953 1.74325 68.3202 1.74636C68.698 1.79666 69.0593 1.88578 69.4015 2.00626C68.7303 2.03887 68.0876 2.19724 67.492 2.4879C67.2769 2.59286 67.0719 2.71334 66.8749 2.84687C67.6194 3.07914 68.3306 3.20491 69.0015 3.32322C70.1665 3.52848 71.2393 3.71852 72.1781 4.38957C72.3273 4.68302 72.444 4.992 72.525 5.31185C71.5334 4.21723 70.3315 4.00452 68.9128 3.75454C68.1387 3.61822 67.3135 3.47227 66.4437 3.17324C66.1449 3.42538 65.8713 3.71324 65.6239 4.03433C67.8802 4.73457 70.4297 6.16984 72.1606 8.39819C72.084 8.54569 71.9993 8.68822 71.9072 8.82579C70.2045 6.52415 67.61 5.06932 65.3648 4.39672C64.9856 4.96995 64.6804 5.63231 64.4546 6.36982C65.2357 6.72568 65.8094 7.35388 66.4255 8.02959C67.2309 8.91274 68.1253 9.89215 69.6845 10.6337C69.4963 10.7126 69.303 10.7821 69.1044 10.8396C67.6722 10.0766 66.7983 9.11986 66.0622 8.31248C65.4666 7.65913 64.9682 7.11354 64.3349 6.79649C64.1138 7.66131 63.9971 8.62115 63.9877 9.65335C63.8213 9.49684 63.6671 9.33009 63.5259 9.15402C63.5656 8.2479 63.6886 7.39829 63.8939 6.62134C63.5101 6.50707 63.0698 6.46981 62.5377 6.52788C62.5327 6.38255 62.535 6.23598 62.5451 6.08817C63.1135 6.036 63.5935 6.08382 64.0133 6.20586C64.2371 5.48885 64.5336 4.83922 64.8979 4.26661C64.3077 4.11476 63.7497 4.02005 63.2476 3.97937C63.337 3.84087 63.4331 3.70734 63.537 3.57909C64.0381 3.63716 64.582 3.7415 65.151 3.89552Z" fill="#070540"/>
  <path d="M61.5089 24.9887C61.5089 24.9887 60.6777 23.5696 60.3987 23.0522C60.1201 22.5352 63.7303 13.0076 64.0113 12.6197C64.7259 11.6344 66.6239 11.4366 66.7035 10.9547C66.7503 10.6727 66.5204 10.5674 66.1795 10.5271C65.5695 10.455 64.9615 10.664 64.6048 10.7295C64.2482 10.7947 63.3071 10.909 63.0567 10.6938C62.6547 10.3485 62.7176 8.8589 62.7384 8.46639C62.7589 8.07388 62.8298 7.38544 62.651 7.26092C62.4534 7.12335 62.1216 7.35966 61.9805 8.2633C61.8393 9.16694 61.8585 11.9083 61.6581 12.4086C61.4578 12.9088 58.9323 17.3512 58.4291 18.2251C57.9256 19.0989 56.7764 21.8375 56.6417 22.3088C56.5069 22.7802 59.1692 27.6412 59.5077 28.2135C59.8455 28.7852 61.7539 25.5278 61.5089 24.9887Z" fill="#450603"/>
  <path opacity="0.3" d="M60.9306 23.9922C61.2233 24.5002 61.5094 24.989 61.5094 24.989C61.7544 25.5281 59.846 28.7855 59.5075 28.2135C59.365 27.9725 58.8107 26.9714 58.2266 25.8578C59.2934 25.4632 60.2644 24.8632 60.9306 23.9922Z" fill="#450603"/>
  <path d="M64.9805 28.4626C64.8666 28.4207 62.2392 26.0141 61.4426 24.6602C61.4426 24.6602 59.6447 25.7986 59.1328 27.5089C58.6209 29.2193 63.8438 31.8433 65.0434 31.9893C66.2426 32.1358 66.6537 29.078 64.9805 28.4626Z" fill="#FFB718"/>
  <path d="M70.4307 29.7259C70.4307 29.7259 70.8313 29.0785 72.2548 28.5267C73.3377 28.1068 74.14 27.4147 73.8207 25.9689C73.5014 24.523 71.8652 23.6324 71.2185 23.5265C70.5719 23.4203 70.107 24.006 70.107 24.006C70.107 24.006 68.3948 28.7229 70.4307 29.7259Z" fill="#330300"/>
  <path d="M66.0779 26.8023C65.9811 27.1979 66.8445 27.8668 66.8684 27.9876C66.8923 28.1081 66.4016 29.2965 66.4016 29.2965C66.4016 29.2965 69.8064 30.9171 69.9213 31.0016C69.9213 31.0016 70.1788 30.2455 70.4312 29.7257C70.4312 29.7257 70.087 28.7112 71.25 27.9299C71.8493 27.5271 71.215 27.3796 71.215 27.3796C71.215 27.3796 66.6627 26.0077 66.0779 26.8023Z" fill="#450603"/>
  <path d="M69.8812 27.6366C70.1273 27.9111 71.0318 28.3272 71.4909 27.7164C71.95 27.1056 71.2721 26.8144 70.4264 26.955C70.293 26.9774 71.2499 26.0315 71.26 25.9331C71.2667 25.8685 71.2566 25.5042 71.3776 25.3856C71.6398 25.1288 71.9621 24.9993 71.8697 24.7518C71.662 24.1963 70.9955 23.9541 70.621 23.9308C70.2466 23.9078 69.1378 24.25 68.3035 24.7975C67.9835 25.0074 66.2526 26.4839 66.0781 26.8029C66.5147 26.4725 67.471 27.4534 68.5573 27.8257C69.1038 28.0127 69.652 27.8509 69.8812 27.6366Z" fill="#691813"/>
  <path d="M71.1673 32.706C71.1673 32.706 70.7572 34.5167 67.865 39.7211C66.0066 43.0649 64.2178 46.2363 64.1449 48.6547C64.2618 48.1865 51.1114 44.8241 50.6637 47.3067C50.6637 47.3067 50.1952 44.6421 52.3648 41.7129C54.5344 38.784 60.5118 30.6593 63.1476 29.6327C65.7834 28.6064 71.1673 32.706 71.1673 32.706Z" fill="#E6E8F4"/>
  <path d="M68.3377 34.9559C63.1148 34.3703 59.4573 37.4339 56.1133 36.7784C58.6093 33.6203 61.519 30.2679 63.1498 29.6328C65.23 28.8227 69.0193 31.2041 70.5258 32.2447C70.4767 32.2531 69.4257 35.0776 68.3377 34.9559Z" fill="#ACB3D8"/>
  <path d="M61.0972 32.9726C61.0972 32.9726 60.4186 32.9478 60.3029 30.5607C60.1873 28.1737 64.7611 31.6265 64.7611 31.6265C64.7611 31.6265 62.5791 33.4623 61.0972 32.9726Z" fill="#FFB718"/>
  <path d="M61.8418 27.8206C61.8418 27.8206 60.1548 27.4685 59.6275 27.031C59.1001 26.5934 55.6919 19.7574 55.4812 19.2491C55.2705 18.7411 56.1235 18.1061 56.3615 17.7244C56.6132 17.3204 57.5439 16.7435 57.8094 16.5435C58.075 16.3438 57.5691 16.0386 57.267 16.1041C56.9719 16.168 55.9797 16.7133 55.7259 16.7077C55.4721 16.7022 55.3427 15.6401 55.3178 15.2132C55.293 14.7862 55.5279 12.4367 55.5383 12.1743C55.5488 11.9123 55.09 11.7849 54.9797 12.0998C54.8695 12.4144 54.4779 14.5927 54.3848 14.7309C54.2917 14.8691 54.1451 14.8306 54.1394 14.7359C54.1341 14.6412 54.2214 11.9327 54.2346 11.7182C54.2477 11.5036 53.799 11.3117 53.6857 11.6449C53.5724 11.9781 53.2985 14.5108 53.2229 14.6042C53.1472 14.6977 52.3446 12.1436 52.2622 11.9536C52.1799 11.7635 51.7137 11.8144 51.7329 12.1464C51.7524 12.4783 52.5237 14.8402 52.4565 15.0101C52.3893 15.1799 51.1554 13.754 50.9917 13.6285C50.8281 13.5031 50.3814 13.6223 50.619 13.9928C50.8566 14.3632 51.6959 15.4448 51.8549 15.7296C52.0142 16.0143 52.1352 17.6493 52.3184 18.1725C52.4555 18.565 53.0027 19.0734 53.1476 19.2525C53.2928 19.432 55.535 27.8253 55.9877 28.7091C56.4401 29.5931 62.6777 32.4398 63.1731 32.7882C63.6692 33.1372 64.3758 28.6199 61.8418 27.8206Z" fill="#691813"/>
  <path opacity="0.5" d="M61.4488 27.7285C61.6847 27.7872 61.8447 27.8207 61.8447 27.8207C64.3783 28.62 63.6718 33.1376 63.1764 32.7889C62.9925 32.6597 62.0188 32.1868 60.8438 31.598C62.0023 31.045 61.4706 27.7894 61.4488 27.7285Z" fill="#450603"/>
  <path d="M71.2187 31.5709C70.9085 30.3294 69.6635 29.2034 67.0808 28.8162C64.4978 28.4289 61.8425 27.8203 61.8425 27.8203C63.1389 28.8131 62.9483 33.5651 61.0977 32.9726C61.0977 32.9726 66.2019 34.8258 68.3362 34.9553C70.4705 35.0848 71.4822 32.6254 71.2187 31.5709Z" fill="#FEDA00"/>
  <path d="M71.2681 84.6523C71.2681 84.6523 70.8038 84.7467 70.6253 84.7871C70.5203 84.8107 70.5169 85.2427 70.5843 85.343C70.6529 85.4451 71.3267 85.5243 71.3267 85.5243C71.3267 85.5243 71.3765 84.6971 71.2681 84.6523Z" fill="#070540"/>
  <path d="M71.2877 85.791C71.2877 85.791 70.8344 85.9214 70.6605 85.9755C70.5583 86.0071 70.5946 86.4378 70.671 86.5326C70.7486 86.6291 71.4266 86.6552 71.4266 86.6552C71.4266 86.6552 71.4001 85.827 71.2877 85.791Z" fill="#070540"/>
  <path d="M71.7497 89.7207C71.7497 89.7207 71.3046 89.721 71.1326 89.7247C71.0312 89.7269 70.9342 90.1213 70.974 90.2256C71.0144 90.3318 71.6137 90.529 71.6137 90.529C71.6137 90.529 71.8393 89.7816 71.7497 89.7207Z" fill="#070540"/>
  <path d="M71.4587 91.7188C71.4587 91.7188 71.1015 91.8631 70.9651 91.9215C70.8846 91.956 70.9567 92.3038 71.0284 92.3746C71.1011 92.4466 71.657 92.4112 71.657 92.4112C71.657 92.4112 71.5537 91.7386 71.4587 91.7188Z" fill="#070540"/>
  <path d="M71.7841 92.8685C71.7841 92.8685 71.5695 93.1685 71.4895 93.2862C71.4424 93.3555 71.732 93.6008 71.8443 93.5995C71.9513 93.5986 72.3575 93.3508 72.3575 93.3508C72.3575 93.3508 71.8756 92.8375 71.7841 92.8685Z" fill="#070540"/>
  <path d="M83.1592 79.8424C83.42 81.1935 76.8658 84.4705 75.0807 87.8376C74.9295 88.123 74.0112 89.7349 73.7013 89.8489C72.8594 90.1579 72.4238 88.9806 72.3539 88.5322C72.1656 87.3243 72.328 84.7025 73.6445 83.7985C75.0186 82.8552 76.6275 80.5417 77.4211 79.0686C78.0621 77.8786 79.8317 75.5658 81.1745 75.545C82.5169 75.5239 83.1592 79.8424 83.1592 79.8424Z" fill="#E6E8F4"/>
  <path d="M78.7131 77.2283C78.8187 77.1054 78.9269 76.9843 79.0378 76.8672C79.0261 76.9057 79.0129 76.9426 79.0039 76.9849C78.532 79.2139 79.8751 81.4354 81.0068 81.9853C81.0683 82.0151 81.1362 82.0428 81.2074 82.0648C81.1375 82.1201 81.0649 82.1763 80.9927 82.2328C80.959 82.2188 80.9251 82.2058 80.8908 82.189C79.7416 81.6301 78.3881 79.461 78.7131 77.2283Z" fill="#6B78B7"/>
  <path d="M74.9165 87.9945C75.2956 87.2492 74.3037 86.5859 73.5199 87.4352L73.4453 89.1484C73.4453 89.1484 74.4715 89.3636 74.4526 89.3369C74.4335 89.3108 74.9165 87.9945 74.9165 87.9945Z" fill="#6B78B7"/>
  <path d="M73.6456 83.7988C73.252 84.0119 72.0148 83.674 71.2337 84.3379C70.5507 84.9186 71.6565 88.0351 71.5103 88.7726C71.3641 89.5101 70.8441 90.4308 71.0592 91.8946C71.2744 93.3588 72.4837 94.0491 73.4833 93.8597C74.2385 93.7165 74.2463 91.4139 74.5004 89.9656C74.781 88.3667 75.4627 87.6199 75.4627 87.6199C75.4627 87.6199 74.6257 87.586 74.092 88.8424C74.092 88.8424 74.4957 87.941 73.7428 87.292C72.9902 86.6433 72.5129 84.9807 73.6456 83.7988Z" fill="#ACB3D8"/>
  <path d="M80.258 69.2312C80.258 69.2312 81.1057 69.6845 85.0869 69.4898C89.0685 69.2951 87.5318 67.4767 85.8513 67.3413C84.1707 67.2056 80.2264 68.2272 80.258 69.2312Z" fill="#070540"/>
  <path d="M89.9002 69.2711C89.9002 69.2711 88.7772 72.9133 87.7131 74.6227C86.6493 76.3319 86.4584 77.4252 85.8423 77.9764C85.3418 78.4242 84.5399 78.8878 83.0495 80.292C82.2304 81.0637 80.1788 78.5155 80.6574 76.2552C80.846 75.3639 81.8883 75.4692 82.0348 74.6261C82.1814 73.783 81.8456 69.236 81.7794 68.3246C81.7132 67.4125 89.4155 66.3021 89.9002 69.2711Z" fill="#FFD2B3"/>
  <path d="M81.9353 70.5817C81.8728 69.5694 81.8069 68.676 81.7817 68.3242C81.7155 67.4128 89.4178 66.302 89.9025 69.271C89.9025 69.271 89.8074 69.5793 89.6467 70.0572C87.46 68.9766 82.8623 70.0138 81.9353 70.5817Z" fill="#FFB98B"/>
  <path d="M89.0745 54.8555C89.0745 54.8555 90.9496 60.5574 90.8219 63.4391C90.6942 66.3208 89.9689 69.3541 89.8818 69.3538C89.8936 69.2569 90.1544 68.3498 87.0736 68.2194C83.5676 68.071 80.389 68.6579 80.2555 69.2311C79.4949 69.1578 81.4114 66.4978 80.9563 62.03C80.5012 57.5621 76.9297 55.9777 76.9297 55.9777C76.9297 55.9777 77.8493 55.1614 77.5491 54.3164C77.5491 54.3164 86.7869 55.8656 89.0745 54.8555Z" fill="#6B78B7"/>
  <path opacity="0.3" d="M89.0745 54.8555C89.0745 54.8555 90.9496 60.5574 90.8219 63.4391C90.6942 66.3208 89.9689 69.3541 89.8818 69.3538C89.8936 69.2569 90.1544 68.3498 87.0736 68.2194C83.5676 68.071 80.389 68.6579 80.2555 69.2311C79.4949 69.1578 81.4114 66.4978 80.9563 62.03C80.5012 57.5621 76.9297 55.9777 76.9297 55.9777C76.9297 55.9777 77.8493 55.1614 77.5491 54.3164C77.5491 54.3164 86.7869 55.8656 89.0745 54.8555Z" fill="#6B78B7"/>
  <path d="M81.7097 67.4126C81.7097 67.4126 83.0744 68.3609 86.1616 65.2839C89.4084 62.0476 82.9765 61.9376 82.8297 61.9566C82.6831 61.9755 80.2715 65.7708 81.7097 67.4126Z" fill="#070540"/>
  <path d="M89.8876 59.534C89.8876 59.534 95.0052 63.4212 96.2152 65.008C96.6112 65.5272 95.9907 67.9959 95.9033 70.6733C95.0479 70.4065 91.6004 70.5832 90.5655 70.8904C90.8072 69.7075 91.2928 68.7145 91.2912 68.4328C91.2885 67.9757 84.899 65.5244 83.1613 64.4279C81.4236 63.3308 84.6459 57.7199 89.8876 59.534Z" fill="#FFD2B3"/>
  <path d="M89.8877 59.534C89.8877 59.534 90.0921 59.6893 90.4255 59.9479C90.4027 59.9541 90.3802 59.9588 90.357 59.966C87.536 60.8466 86.3838 63.3489 86.0786 65.8688C84.8598 65.3201 83.7463 64.7968 83.1611 64.4276C81.4238 63.3308 84.6461 57.7199 89.8877 59.534Z" fill="#FFB98B"/>
  <path d="M89.8851 59.5347C90.4864 59.0789 79.2925 53.1493 77.1467 54.2123C75.3001 55.1268 76.2177 59.082 76.8476 60.9756C77.9265 64.2194 80.1304 65.2839 81.7115 67.4128C81.3129 66.9738 81.3932 65.8617 83.4519 64.261C85.8006 62.4354 86.0426 59.5543 89.8851 59.5347Z" fill="#6B78B7"/>
  <path d="M91.6046 80.4772C91.4214 78.5311 90.4141 74.1148 90.4299 70.8284C90.4497 70.7266 92.9796 69.5832 95.9855 70.5971C95.8191 74.3253 95.2598 78.6736 95.1247 81.6473C95.0642 82.9819 95.7724 84.6137 95.7559 84.9364C95.7559 84.9364 93.4455 86.4515 91.0661 82.7158C91.288 82.5456 91.7612 82.145 91.6046 80.4772Z" fill="#E6E8F4"/>
  <path d="M95.9094 71.9468C95.9044 72.0257 95.899 72.1049 95.8936 72.1838C93.3307 71.4161 91.1406 72.0878 90.4852 72.3741C90.4795 72.2915 90.4738 72.2089 90.4688 72.1266C91.3302 71.7686 93.4793 71.2388 95.9094 71.9468Z" fill="#6B78B7"/>
  <path d="M96.4076 86.476C96.0705 85.191 95.9613 84.1601 95.9626 83.8303C95.9643 83.5008 95.1637 83.8073 95.1963 84.4861C95.2225 85.032 96.6069 87.2355 96.4076 86.476Z" fill="#6B78B7"/>
  <path d="M91.7051 85.9713C91.7125 86.0058 91.1728 86.2604 91.0043 86.3467C90.859 86.4213 90.4712 86.0614 90.5392 85.9418C90.6071 85.8223 90.8684 85.1965 90.9562 85.2012C91.044 85.2062 91.6685 85.8021 91.7051 85.9713Z" fill="#070540"/>
  <path d="M94.1959 88.3089C94.1963 88.3406 93.672 88.48 93.5072 88.53C93.3649 88.5729 93.0891 88.1937 93.1712 88.0987C93.2536 88.0037 93.6 87.4922 93.6767 87.5102C93.7537 87.5286 94.1949 88.1537 94.1959 88.3089Z" fill="#070540"/>
  <path d="M95.1705 89.1442C95.1786 89.1718 94.7555 89.4044 94.6236 89.4826C94.51 89.55 94.1754 89.2771 94.2234 89.1771C94.2719 89.0768 94.4474 88.557 94.5191 88.5566C94.591 88.556 95.1311 89.0088 95.1705 89.1442Z" fill="#070540"/>
  <path d="M96.3526 90.1221C96.362 90.146 96.0072 90.3817 95.8973 90.4599C95.8024 90.5276 95.4836 90.3099 95.5182 90.218C95.5525 90.1261 95.6652 89.6538 95.7281 89.6485C95.7913 89.6429 96.3062 90.0053 96.3526 90.1221Z" fill="#070540"/>
  <path d="M97.6538 90.4605C97.6689 90.4794 97.4177 90.7748 97.3416 90.8713C97.276 90.9546 96.9298 90.8362 96.9346 90.7459C96.9396 90.6555 96.9073 90.2071 96.9625 90.1869C97.0174 90.1671 97.5797 90.367 97.6538 90.4605Z" fill="#070540"/>
  <path d="M90.8848 85.0924C90.8922 85.1269 90.3525 85.3815 90.184 85.4678C90.0387 85.5424 89.6509 85.1824 89.7189 85.0629C89.7868 84.9433 90.0481 84.3176 90.1359 84.3223C90.2237 84.3273 90.8478 84.9232 90.8848 85.0924Z" fill="#070540"/>
  <path d="M96.8146 87.4572C96.2859 86.1312 95.7589 85.0704 95.5734 84.4674C95.4046 83.9196 93.7009 84.6528 92.8381 84.314C91.2184 83.678 91.3256 82.4502 91.3256 82.4502C91.2711 82.4598 89.8736 82.9977 89.8672 84.2926C89.8669 84.3935 89.9082 84.4904 89.9781 84.5683C90.2114 84.8288 90.8372 85.4949 91.9494 86.4576C93.4044 87.7168 94.3782 89.2474 95.892 90.2016C97.4059 91.1559 98.2424 90.7736 98.4004 90.4851C98.5581 90.196 97.1393 88.2717 96.8146 87.4572Z" fill="#ACB3D8"/>
  <path d="M71.5672 42.5246C71.5672 42.5246 69.776 43.1323 69.3569 43.3065C68.9374 43.4804 68.037 44.8654 66.9097 45.8802C65.7824 46.895 64.4063 48.2778 64.2325 48.8045C64.0588 49.3311 64.4913 50.4223 64.3556 50.9139C64.2201 51.4054 63.7388 52.5811 63.6238 52.7913C63.5085 53.0019 63.0904 52.9472 62.9207 52.6128C62.9207 52.6128 61.8125 52.8152 61.4078 52.3532C61.1447 52.0343 61.0062 51.1639 60.9696 50.8297C60.9333 50.4956 62.1409 48.5498 62.4283 48.094C62.7157 47.6381 65.9568 42.1327 66.8727 41.5213C67.7886 40.9099 68.7405 40.7906 69.7508 40.3379C69.7508 40.3379 71.5316 41.9797 71.5672 42.5246Z" fill="#FFD2B3"/>
  <path d="M61.4081 52.3531C61.3099 52.2339 61.2289 52.0376 61.1641 51.8212C61.3872 51.846 61.6981 51.8516 62.0497 51.7743C62.7542 51.619 63.3982 50.2418 63.0611 51.1194C62.724 51.9966 62.9209 52.6127 62.9209 52.6127C62.9209 52.6127 61.8128 52.8152 61.4081 52.3531Z" fill="#FFB98B"/>
  <path d="M69.7504 40.3379C69.7504 40.3379 71.5308 41.9797 71.5661 42.5246C71.5661 42.5246 69.7749 43.1323 69.3558 43.3065C69.2368 43.3559 69.0778 43.505 68.8873 43.7133C68.8879 43.7127 68.8883 43.7118 68.8886 43.7112C69.3743 43.1438 68.6516 40.9804 67.8164 41.0397C68.4402 40.7931 69.0822 40.6376 69.7504 40.3379Z" fill="#FFB98B"/>
  <path d="M92.0863 43.5592C92.0863 43.5592 92.9689 43.6219 93.2469 42.1466C93.5248 40.6713 89.5352 39.627 89.5352 39.627C89.5352 39.627 90.7636 42.981 92.0863 43.5592Z" fill="#00B09D"/>
  <path d="M93.1024 38.6831C93.1024 38.6831 97.4658 40.6344 98.1212 40.7953C98.7766 40.9562 99.6145 44.3117 99.2317 44.2946C97.9051 44.2347 90.9099 42.1107 90.6968 41.9647C90.4837 41.8188 91.0853 38.3626 93.1024 38.6831Z" fill="#FFD2B3"/>
  <path opacity="0.4" d="M96.2188 40.0439C97.0926 40.4156 97.8748 40.7343 98.1235 40.7951C98.7789 40.956 99.6169 44.3115 99.234 44.2945C98.7799 44.274 97.6603 44.011 96.3767 43.6688C97.4103 43.7187 96.575 40.8259 96.2188 40.0439Z" fill="#FFB98B"/>
  <path d="M93.1027 38.6831C93.1027 38.6831 93.307 38.7744 93.6327 38.9188C93.0556 38.9908 92.4886 42.1939 92.5884 42.583C91.534 42.2622 90.7653 42.0113 90.6968 41.9644C90.4837 41.8188 91.0857 38.3626 93.1027 38.6831Z" fill="#FFB98B"/>
  <path d="M99.5005 40.9619C99.5005 40.9619 99.5701 41.3051 100.194 42.0587C100.818 42.8127 100.485 43.9449 99.7133 44.2184C98.9416 44.492 97.8885 43.8815 97.579 42.9971C97.2694 42.1127 97.2734 41.2296 97.2734 41.2296L99.5005 40.9619Z" fill="#FFE5CF"/>
  <path d="M99.928 39.4037C99.928 39.4037 99.8507 40.8337 99.5377 41.3619C99.0793 42.1361 97.832 42.0845 97.187 41.7215C96.542 41.3585 96.2432 40.1974 96.2348 39.9161C96.2267 39.6348 96.3417 39.4947 96.8176 39.4087C97.2935 39.3227 99.928 39.4037 99.928 39.4037Z" fill="#FFB98B"/>
  <path d="M99.0845 39.8591C99.0845 39.8591 98.9719 40.3674 99.1363 40.5534C99.3008 40.7394 99.6206 40.6435 99.7511 40.3497C99.8812 40.0559 99.9852 39.5082 100.035 39.1865C100.084 38.8647 99.5194 38.58 99.3468 38.8343C99.1743 39.0883 99.1333 39.6551 99.0845 39.8591Z" fill="#FFE5CF"/>
  <path d="M98.2332 40.4791C98.2332 40.4791 98.2288 40.8995 98.552 40.9753C98.8039 41.0346 99.0473 40.8856 99.1042 40.5722C99.161 40.2592 99.3689 39.1274 99.3403 38.8035C99.3117 38.4793 98.6515 38.3622 98.5029 38.629C98.2742 39.0392 98.2029 40.1589 98.2332 40.4791Z" fill="#FFE5CF"/>
  <path d="M97.3576 40.3027C97.3576 40.3027 97.3552 40.8346 97.745 40.9197C98.0006 40.9756 98.1859 40.7573 98.2441 40.4387C98.3023 40.1201 98.5306 38.8811 98.5024 38.5516C98.4745 38.2221 97.7373 38.1675 97.5863 38.4392C97.3549 38.8569 97.3277 39.9766 97.3576 40.3027Z" fill="#FFE5CF"/>
  <path d="M96.6075 39.8552C96.6075 39.8552 96.6933 40.3191 96.9105 40.4511C97.1278 40.5827 97.4012 40.4002 97.4295 40.0812C97.4574 39.7623 97.5848 38.7854 97.527 38.4625C97.4692 38.1395 96.737 38.1439 96.6133 38.4233C96.4226 38.8534 96.548 39.536 96.6075 39.8552Z" fill="#FFE5CF"/>
  <path d="M85.6617 30.7778C85.6617 30.7778 85.9538 28.8712 83.3119 28.5591C81.0876 28.3016 79.8449 29.7559 79.8581 31.2728C79.8691 32.5183 79.5139 32.691 77.8531 32.3857C76.1924 32.0805 74.0847 32.8953 74.0631 34.7622C74.0262 37.947 75.5911 38.8168 79.1845 39.4381C82.7779 40.0595 84.9367 36.0223 84.3737 34.2209C83.8108 32.4199 84.5384 30.6691 85.6617 30.7778Z" fill="#F07D18"/>
  <path d="M89.0736 54.8563C89.0736 54.8563 90.9414 54.1256 90.5666 52.9291C90.1919 51.7324 88.4078 48.887 88.8766 46.2875C89.3455 43.6884 89.771 44.2086 89.2111 41.9917C89.2111 41.9917 91.0879 43.3701 92.0855 43.5586C92.0855 43.5586 91.2318 43.1071 91.4392 41.447C91.6469 39.7869 92.5477 38.9929 93.0989 38.683C93.0989 38.683 90.373 37.6201 88.8938 36.718C87.4142 35.8156 85.5152 36.046 83.2172 36.3565C80.1333 36.7733 76.5695 36.1643 74.5979 36.7509C72.6263 37.3375 70.8882 39.4662 68.7583 40.7104C68.242 41.012 70.6539 44.043 72.6263 43.3484C72.9819 43.2229 74.4288 42.3261 74.6863 42.183C74.9438 42.0398 76.42 42.9863 76.991 46.2459C77.3133 48.0864 77.1487 52.4354 76.8885 53.1726C76.6284 53.9098 76.8388 54.2051 77.549 54.3175C78.2585 54.4299 84.6809 56.5257 89.0736 54.8563Z" fill="#5BCFDE"/>
  <g opacity="0.5">
    <path d="M91.1646 43.207C90.2298 42.7375 89.2131 41.9916 89.2131 41.9916C89.2131 41.9916 88.5721 40.1384 88.5943 39.4534C88.6168 38.7733 90.3979 42.8462 91.1646 43.207Z" fill="#00B09D"/>
    <path d="M91.2497 43.2531C91.2265 43.2418 91.2033 43.2306 91.1797 43.2188C91.3487 43.2877 91.3501 43.2927 91.2497 43.2531Z" fill="#00B09D"/>
    <path d="M83.1756 36.3609C83.1884 36.359 83.2018 36.3581 83.2146 36.3566C84.7177 36.1535 86.0487 35.987 87.2046 36.1469C86.6262 36.0917 84.9631 36.1954 86.2027 36.731C87.5367 37.3074 88.3229 38.919 87.256 39.2615C86.1892 39.6041 83.223 38.216 83.223 38.216C82.9961 37.5667 83.0274 36.9295 83.1756 36.3609Z" fill="#00B09D"/>
  </g>
  <path d="M85.6592 35.6632C85.2697 35.8259 84.6381 35.92 84.2718 35.9538C84.2856 36.138 84.5471 37.4121 84.4257 38.1229C84.2677 39.0479 80.626 37.1761 80.7574 36.5122C80.7574 36.5122 81.7368 34.8434 81.3731 33.6289C81.3731 33.6289 86.0488 35.5005 85.6592 35.6632Z" fill="#FFB98B"/>
  <path opacity="0.33" d="M82.5396 34.1059C82.5389 34.1065 82.5386 34.1074 82.5379 34.1081C82.4589 34.073 82.3731 34.055 82.286 34.0643C81.9655 34.0981 81.679 34.1994 81.448 34.4083C81.4655 34.1416 81.449 33.8758 81.375 33.6289C81.375 33.6289 81.8781 33.8301 82.5396 34.1059Z" fill="#FFB98B"/>
  <path opacity="0.33" d="M82.2656 34.8262C82.2656 34.8262 85.9729 35.532 85.659 35.663C85.2695 35.8258 84.6379 35.9198 84.2715 35.9537C82.88 35.6096 82.2656 34.8262 82.2656 34.8262Z" fill="#FFB98B"/>
  <path d="M85.5387 30.4357C85.9601 31.2117 85.9272 35.0989 85.8724 35.4889C85.8375 35.738 85.0953 35.7743 84.5717 35.6734C83.5832 35.4827 82.4868 34.9902 82.3355 34.8915C82.1043 34.7405 82.0243 34.2039 81.9994 33.9217C81.7836 34.0614 81.3147 33.845 81.1739 33.3944C81.1329 33.2034 81.7251 33.0249 81.9802 33.0972C82.1735 33.2935 82.3073 33.5211 82.3342 33.6236C82.0989 32.0011 83.5657 31.8734 83.3526 30.6236C83.2487 30.014 84.7135 30.3941 84.8564 30.3248C84.9995 30.2553 85.1172 29.6597 85.5387 30.4357Z" fill="#FFD2B3"/>
  <path opacity="0.5" d="M77.8255 45.1159C78.7612 46.385 81.8077 47.7684 81.8907 48.2696C81.9741 48.7708 77.2823 46.8806 77.1573 48.25C77.1347 47.4749 77.0826 46.762 76.9922 46.2462C76.4212 42.9866 74.945 42.0401 74.6875 42.1832C74.6875 42.1832 76.3892 40.9976 76.8457 41.0259C77.3025 41.0538 76.8897 43.8467 77.8255 45.1159Z" fill="#00B09D"/>
  <path d="M88.5985 23.0359L89.2106 21.5767L88.1726 20.8604L86.5092 21.4233L85.9375 22.7173L86.965 23.5489L88.5985 23.0359Z" fill="#F4F3F3"/>
  <path d="M86.0352 22.6364L86.5343 21.5067C86.5458 21.481 86.5683 21.4608 86.5965 21.4515L88.1063 20.9406C88.1403 20.9291 88.1783 20.9341 88.2072 20.9543L89.0717 21.5511C89.11 21.5775 89.1248 21.6247 89.1073 21.666L88.5692 22.9495C88.5577 22.9768 88.5339 22.9979 88.504 23.0072L87.0348 23.4687C86.9985 23.4801 86.9585 23.4727 86.9299 23.4494L86.0641 22.7485C86.0295 22.7203 86.0181 22.6756 86.0352 22.6364Z" fill="white"/>
  <path d="M85.9369 22.7168L85.0156 23.8064L85.4411 25.2402L86.6286 25.1122L86.9644 23.5484L85.9369 22.7168Z" fill="#070540"/>
  <path d="M89.2098 21.5766L90.9095 21.8073L91.2846 21.4117C90.4964 20.7739 89.512 20.4767 88.5413 20.5059L88.1719 20.8599L89.2098 21.5766Z" fill="#F4F3F3"/>
  <path d="M88.6138 20.559C89.527 20.5463 90.407 20.8254 91.1162 21.3515C91.1636 21.3866 91.1686 21.4515 91.1286 21.4937L90.9256 21.7077C90.9017 21.7328 90.8654 21.7452 90.8295 21.7403L89.2608 21.5272C89.2434 21.5248 89.2266 21.5185 89.2124 21.5086L88.3594 20.9198C88.308 20.8841 88.3016 20.8149 88.3463 20.772L88.5369 20.5894C88.5574 20.5708 88.5849 20.5596 88.6138 20.559Z" fill="white"/>
  <path d="M88.172 20.8599L88.5414 20.5059C87.7421 20.5301 86.9525 20.7754 86.2891 21.2359L86.5085 21.4228L88.172 20.8599Z" fill="#070540"/>
  <path d="M85.9354 22.7172L86.5072 21.4233L86.2877 21.2363C86.0719 21.3863 85.8692 21.5583 85.684 21.7537C85.1395 22.3278 84.8242 23.0144 84.7305 23.719L85.0135 23.8072L85.9354 22.7172Z" fill="#F4F3F3"/>
  <path d="M84.8821 23.7074C84.8327 23.6922 84.8018 23.6459 84.8099 23.5984C84.9252 22.9274 85.2414 22.3041 85.7295 21.7896C85.8767 21.6346 86.0387 21.4906 86.2125 21.3605C86.2535 21.3297 86.3133 21.3322 86.3523 21.3654L86.3825 21.3912C86.4155 21.4191 86.4259 21.4629 86.4091 21.5011L85.8898 22.6768C85.8861 22.6852 85.8811 22.6932 85.875 22.7004L85.0404 23.6872C85.0125 23.7202 84.9651 23.7335 84.9221 23.7202L84.8821 23.7074Z" fill="white"/>
  <path d="M85.0163 23.8069L84.7328 23.7188C84.6136 24.6143 84.8544 25.5381 85.4399 26.2952L85.4426 25.2407L85.0163 23.8069Z" fill="#F4F3F3"/>
  <path d="M85.1786 25.7909C84.8638 25.2146 84.7223 24.5696 84.7712 23.9188C84.7759 23.8548 84.8469 23.8129 84.9126 23.8334C84.9462 23.8439 84.9722 23.8691 84.9816 23.9008L85.3786 25.2354C85.3813 25.2441 85.3823 25.2528 85.3823 25.2618L85.3809 25.7456C85.3809 25.849 85.2291 25.8832 85.1786 25.7909Z" fill="white"/>
  <path d="M87.9257 26.1625L87.2767 25.6374L86.6277 25.1123L85.4402 25.2402L85.4375 26.2948C85.6126 26.5218 85.818 26.7342 86.0546 26.9261C86.2916 27.1177 86.5463 27.2776 86.8129 27.4084L87.9439 27.2674L87.9257 26.1625Z" fill="#F4F3F3"/>
  <path d="M86.0927 26.8842C85.88 26.7119 85.6863 26.5169 85.5169 26.3035C85.5032 26.2862 85.4958 26.2653 85.4961 26.2439L85.4985 25.3766C85.4985 25.3266 85.5391 25.2844 85.5929 25.2788L86.5602 25.1745C86.5902 25.1714 86.6204 25.1797 86.6429 25.1984L87.8294 26.1588C87.8523 26.1772 87.8654 26.2036 87.866 26.2315L87.8815 27.1311C87.8825 27.1811 87.8425 27.224 87.7887 27.2305L86.8584 27.3466C86.8352 27.3494 86.812 27.3457 86.7915 27.3354C86.5404 27.2081 86.3055 27.0566 86.0927 26.8842Z" fill="white"/>
  <path d="M89.8959 24.0854L89.2472 23.5603L88.5982 23.0352L86.9647 23.5481L86.6289 25.112L87.2779 25.6371L87.9266 26.1622L89.5601 25.6492L89.8959 24.0854Z" fill="#F4F3F3"/>
  <path d="M86.7052 25.0357L87.0036 23.646C87.011 23.6116 87.0379 23.583 87.0742 23.5718L88.5259 23.1157C88.5622 23.1042 88.6022 23.1116 88.6307 23.1349L89.784 24.0684C89.8129 24.0917 89.826 24.1274 89.8182 24.1618L89.5198 25.5515C89.5124 25.5859 89.4855 25.6145 89.4492 25.6257L87.9975 26.0815C87.9612 26.093 87.9212 26.0856 87.8926 26.0623L86.7394 25.1288C86.7109 25.1058 86.6978 25.0701 86.7052 25.0357Z" fill="white"/>
  <path d="M89.8944 24.0851L91.3797 23.333L92.2848 24.1891L91.8996 25.7865L90.5861 26.4805L89.5586 25.6489L89.8944 24.0851Z" fill="#F4F3F3"/>
  <path d="M89.6348 25.5732L89.9367 24.1671C89.9427 24.1385 89.9626 24.1137 89.9901 24.0997L91.2962 23.438C91.3383 23.4165 91.3907 23.424 91.4243 23.4557L92.1782 24.1689C92.2034 24.1928 92.2138 24.227 92.2061 24.2593L91.8565 25.7092C91.8502 25.7362 91.8313 25.7598 91.8051 25.7734L90.6586 26.3793C90.619 26.4001 90.5692 26.3957 90.535 26.3678L89.6691 25.6669C89.6406 25.6433 89.6274 25.6076 89.6348 25.5732Z" fill="white"/>
  <path d="M90.9094 21.8069L89.2097 21.5762L88.5977 23.0353L89.2467 23.5605L89.8954 24.0856L91.3807 23.3335L90.9094 21.8069Z" fill="#070540"/>
  <path d="M90.5907 26.481L89.5427 27.4682L87.9485 27.267L87.9297 26.1624L89.5632 25.6494L90.5907 26.481Z" fill="#070540"/>
  <path d="M91.3771 23.3333L90.9062 21.8067L91.2814 21.4111C92.0695 22.049 92.5176 22.9116 92.614 23.8044L92.2826 24.1894L91.3771 23.3333Z" fill="#F4F3F3"/>
  <path d="M91.4231 23.281L90.9885 21.8724C90.9784 21.8401 90.9872 21.8053 91.011 21.7802L91.214 21.5662C91.254 21.5243 91.3246 21.5203 91.3683 21.5591C92.0261 22.1398 92.4415 22.9089 92.5477 23.7468C92.5511 23.7731 92.5427 23.7999 92.5245 23.8207L92.3538 24.0191C92.3138 24.0657 92.2385 24.0691 92.1935 24.0265L91.4496 23.3229C91.4369 23.3111 91.4278 23.2965 91.4231 23.281Z" fill="white"/>
  <path d="M92.2882 24.1897L92.6202 23.8047C92.6997 24.5397 92.5397 25.2952 92.1323 25.9635L91.9023 25.7871L92.2882 24.1897Z" fill="#070540"/>
  <path d="M90.5871 26.4808L91.9006 25.7871L92.1302 25.9635C91.9977 26.1809 91.8394 26.3892 91.6546 26.5842C91.1101 27.1584 90.4146 27.5376 89.6712 27.7158L89.5391 27.468L90.5871 26.4808Z" fill="#F4F3F3"/>
  <path d="M89.6636 27.4288L90.6128 26.5348C90.6198 26.5283 90.6276 26.5227 90.636 26.5184L91.8292 25.888C91.8678 25.8675 91.9162 25.8715 91.9505 25.8979L91.9821 25.9222C92.0228 25.9535 92.0335 26.0079 92.0056 26.0498C91.889 26.2259 91.7559 26.3932 91.6087 26.5485C91.1206 27.0634 90.4935 27.4351 89.7886 27.6288C89.7389 27.6425 89.6851 27.6201 89.6619 27.577L89.6434 27.5422C89.6239 27.504 89.6317 27.4587 89.6636 27.4288Z" fill="white"/>
  <path d="M89.5377 27.4675L89.6698 27.7153C88.7243 27.9423 87.7019 27.8433 86.8125 27.4076L87.9435 27.2666L89.5377 27.4675Z" fill="#F4F3F3"/>
  <path d="M87.9606 27.3241L89.4446 27.5114C89.4799 27.5157 89.5105 27.5362 89.5259 27.5657C89.5565 27.6235 89.5209 27.6937 89.4526 27.7064C88.7613 27.8365 88.0514 27.7924 87.3923 27.5809C87.2857 27.5468 87.3015 27.4027 87.4131 27.389L87.9314 27.3244C87.9411 27.3229 87.9509 27.3229 87.9606 27.3241Z" fill="white"/>
</svg>