<svg width="20" height="20" viewBox="0 0 20 20" fill="none" xmlns="http://www.w3.org/2000/svg">
<path d="M18.2031 2.8125H15.2296L10.2839 0.0733594C10.1073 -0.0244531 9.89273 -0.0244531 9.71613 0.0733594L4.77043 2.8125H1.79688C1.47328 2.8125 1.21094 3.07484 1.21094 3.39844V4.57031C1.21094 4.89391 1.47328 5.15625 1.79688 5.15625H18.2031C18.5267 5.15625 18.7891 4.89391 18.7891 4.57031V3.39844C18.7891 3.07484 18.5267 2.8125 18.2031 2.8125ZM10 1.25574L12.8108 2.8125H7.18918L10 1.25574Z" fill="#AAAAAA"/>
<path d="M11.1437 11.7375L9.99957 10.9062L8.85547 11.7375L9.29246 13.0825H10.7067L11.1437 11.7375Z" fill="#AAAAAA"/>
<path d="M8.0648 10.8642L9.41465 9.88352V8.8418C8.40152 9.02305 7.54613 9.66457 7.07422 10.5423L8.0648 10.8642Z" fill="#AAAAAA"/>
<path d="M8.21766 13.565L7.70207 11.9782L6.71133 11.6562C6.69105 11.8043 6.67969 11.9552 6.67969 12.1087C6.67969 12.9998 7.03316 13.8093 7.60644 14.4063L8.21766 13.565Z" fill="#AAAAAA"/>
<path d="M10.5859 9.88352L11.9358 10.8642L12.9264 10.5423C12.4545 9.66457 11.5991 9.02305 10.5859 8.8418V9.88352Z" fill="#AAAAAA"/>
<path d="M2.77344 6.32812V17.0703C2.77344 17.3188 2.93012 17.5402 3.16438 17.6229L9.805 19.9666C9.86809 19.9889 9.93406 20 10 20C10.0659 20 10.1319 19.9889 10.195 19.9666L16.8356 17.6229C17.0699 17.5402 17.2266 17.3188 17.2266 17.0703V6.32812H2.77344ZM12.6714 15.7186C12.6613 15.7271 12.6513 15.7357 12.6404 15.7436C12.628 15.7526 12.6154 15.761 12.6025 15.7689C11.8678 16.293 10.9693 16.6016 10 16.6016C9.03078 16.6016 8.13231 16.293 7.39758 15.769C7.38473 15.7611 7.37203 15.7527 7.35957 15.7436C7.34867 15.7357 7.33871 15.7271 7.32852 15.7186C6.22461 14.8994 5.50781 13.5866 5.50781 12.1094C5.50781 9.63238 7.52301 7.61719 10 7.61719C12.477 7.61719 14.4922 9.63238 14.4922 12.1094C14.4922 13.5866 13.7754 14.8994 12.6714 15.7186Z" fill="#AAAAAA"/>
<path d="M12.2968 11.9782L11.7812 13.565L12.3925 14.4063C12.9657 13.8093 13.3192 12.9998 13.3192 12.1087C13.3192 11.9552 13.3079 11.8043 13.2876 11.6562L12.2968 11.9782Z" fill="#AAAAAA"/>
<path d="M10.8356 14.2539H9.16711L8.55469 15.0969C8.99223 15.3095 9.48305 15.4291 10.0014 15.4291C10.5197 15.4291 11.0105 15.3095 11.448 15.0968L10.8356 14.2539Z" fill="#AAAAAA"/>
</svg>
