<svg width="14" height="14" viewBox="0 0 14 14" fill="none" xmlns="http://www.w3.org/2000/svg">
<g id="vuesax/bold/send">
<g id="send">
<path id="Vector" d="M10.5393 4.96437L5.54594 2.4677C2.19178 0.787701 0.815112 2.16437 2.49511 5.51853L3.00261 6.53353C3.14844 6.83103 3.14844 7.1752 3.00261 7.4727L2.49511 8.48187C0.815112 11.836 2.18594 13.2127 5.54594 11.5327L10.5393 9.03603C12.7793 7.91603 12.7793 6.08437 10.5393 4.96437ZM8.65511 7.4377H5.50511C5.26594 7.4377 5.06761 7.23937 5.06761 7.0002C5.06761 6.76103 5.26594 6.5627 5.50511 6.5627H8.65511C8.89428 6.5627 9.09261 6.76103 9.09261 7.0002C9.09261 7.23937 8.89428 7.4377 8.65511 7.4377Z" fill="white"/>
</g>
</g>
</svg>
