<svg xmlns="http://www.w3.org/2000/svg" width="20" height="20" viewBox="0 0 20 20" fill="none">
  <g clip-path="url(#clip0_4614_4219)">
    <path d="M17.5596 7.34987C17.4094 7.23785 17.2922 7.08738 17.2203 6.91432C17.1485 6.74126 17.1246 6.55202 17.1513 6.36654C17.5013 4.16654 17.1013 3.49154 16.8013 3.19154C16.5013 2.89154 15.8346 2.49987 13.6346 2.84987C13.4493 2.87477 13.2606 2.8501 13.0879 2.77837C12.9151 2.70664 12.7645 2.59042 12.6513 2.44154C11.2013 0.508203 10.443 0.283203 10.0013 0.283203C9.55964 0.283203 8.8013 0.508203 7.3513 2.44154C7.2381 2.59042 7.08746 2.70664 6.91472 2.77837C6.74199 2.8501 6.55334 2.87477 6.36797 2.84987C4.16797 2.49987 3.5013 2.89987 3.2013 3.19154C2.9013 3.4832 2.5013 4.16654 2.8513 6.36654C2.87798 6.55202 2.85413 6.74126 2.78227 6.91432C2.7104 7.08738 2.59319 7.23785 2.44297 7.34987C0.509636 8.79987 0.292969 9.5582 0.292969 9.99987C0.292969 10.4415 0.509636 11.1999 2.44297 12.6499C2.59319 12.7619 2.7104 12.9124 2.78227 13.0854C2.85413 13.2585 2.87798 13.4477 2.8513 13.6332C2.53464 15.8499 2.9013 16.5082 3.2013 16.8082C3.5013 17.1082 4.1513 17.4665 6.36797 17.1499C6.55345 17.1232 6.74269 17.147 6.91575 17.2189C7.08881 17.2908 7.23928 17.408 7.3513 17.5582C8.8013 19.4915 9.55964 19.7165 10.0013 19.7165C10.443 19.7165 11.2013 19.4915 12.6513 17.5582C12.7633 17.408 12.9138 17.2908 13.0869 17.2189C13.2599 17.147 13.4492 17.1232 13.6346 17.1499C15.8596 17.4665 16.5013 17.0999 16.8013 16.8082C17.1013 16.5165 17.468 15.8499 17.1513 13.6332C17.1246 13.4477 17.1485 13.2585 17.2203 13.0854C17.2922 12.9124 17.4094 12.7619 17.5596 12.6499C19.493 11.1999 19.7096 10.4415 19.7096 9.99987C19.7096 9.5582 19.493 8.79987 17.5596 7.34987Z" fill="#38E894"/>
    <path d="M9.58544 12.9165C9.47577 12.9171 9.36705 12.8961 9.26552 12.8546C9.16399 12.8131 9.07164 12.752 8.99377 12.6748L7.32711 11.0081C7.17019 10.8512 7.08203 10.6384 7.08203 10.4165C7.08203 10.1945 7.17019 9.98171 7.32711 9.82479C7.48403 9.66787 7.69686 9.57971 7.91877 9.57971C8.14069 9.57971 8.35352 9.66787 8.51044 9.82479L9.58544 10.9081L12.3271 8.15812C12.4046 8.08001 12.4967 8.01802 12.5983 7.97571C12.6998 7.9334 12.8088 7.91162 12.9188 7.91162C13.0288 7.91162 13.1377 7.9334 13.2393 7.97571C13.3408 8.01802 13.433 8.08001 13.5104 8.15812C13.5885 8.23559 13.6505 8.32776 13.6929 8.42931C13.7352 8.53086 13.7569 8.63978 13.7569 8.74979C13.7569 8.8598 13.7352 8.96872 13.6929 9.07027C13.6505 9.17182 13.5885 9.26398 13.5104 9.34145L10.1771 12.6748C10.0992 12.752 10.0069 12.8131 9.90536 12.8546C9.80383 12.8961 9.69511 12.9171 9.58544 12.9165Z" fill="white"/>
  </g>
  <defs>
    <clipPath id="clip0_4614_4219">
      <rect width="20" height="20" fill="white"/>
    </clipPath>
  </defs>
</svg>