<svg width="16" height="16" viewBox="0 0 16 16" fill="none" xmlns="http://www.w3.org/2000/svg">
<g id="fi_4032389">
<g id="Layer 2">
<path id="Vector" d="M12.5836 2.76327H11.4927V2.18144C11.4927 2.02713 11.4314 1.87914 11.3223 1.77002C11.2131 1.66091 11.0652 1.59961 10.9108 1.59961C10.7565 1.59961 10.6085 1.66091 10.4994 1.77002C10.3903 1.87914 10.329 2.02713 10.329 2.18144V2.76327H8.58352V2.18144C8.58352 2.02713 8.52222 1.87914 8.41311 1.77002C8.30399 1.66091 8.156 1.59961 8.00169 1.59961C7.84738 1.59961 7.69939 1.66091 7.59028 1.77002C7.48116 1.87914 7.41986 2.02713 7.41986 2.18144V2.76327H5.67437V2.18144C5.67437 2.02713 5.61307 1.87914 5.50396 1.77002C5.39484 1.66091 5.24685 1.59961 5.09254 1.59961C4.93823 1.59961 4.79024 1.66091 4.68113 1.77002C4.57201 1.87914 4.51071 2.02713 4.51071 2.18144V2.76327H3.41978C2.93775 2.76389 2.47564 2.95564 2.13479 3.29649C1.79394 3.63734 1.60218 4.09946 1.60156 4.58149V6.25425H14.4018V4.58149C14.4012 4.09946 14.2094 3.63734 13.8686 3.29649C13.5278 2.95564 13.0656 2.76389 12.5836 2.76327Z" fill="#FE5C4D"/>
<path id="Vector_2" d="M1.60156 12.5817C1.60218 13.0637 1.79394 13.5259 2.13479 13.8667C2.47564 14.2076 2.93775 14.3993 3.41978 14.3999H12.5836C13.0656 14.3993 13.5278 14.2076 13.8686 13.8667C14.2094 13.5259 14.4012 13.0637 14.4018 12.5817V7.41797H1.60156V12.5817ZM5.84485 10.2439C5.95396 10.1348 6.10192 10.0736 6.2562 10.0736C6.41048 10.0736 6.55845 10.1348 6.66756 10.2439L7.41986 10.9956L9.33583 9.08026C9.44556 8.97427 9.59254 8.91563 9.74509 8.91695C9.89764 8.91828 10.0436 8.97947 10.1514 9.08734C10.2593 9.19522 10.3205 9.34115 10.3218 9.4937C10.3232 9.64626 10.2645 9.79323 10.1585 9.90296L7.83122 12.2303C7.72211 12.3394 7.57414 12.4006 7.41986 12.4006C7.26558 12.4006 7.11762 12.3394 7.00851 12.2303L5.84485 11.0666C5.73577 10.9575 5.6745 10.8096 5.6745 10.6553C5.6745 10.501 5.73577 10.353 5.84485 10.2439Z" fill="#FE5C4D"/>
</g>
</g>
</svg>
