<svg width="20" height="20" viewBox="0 0 20 20" fill="none" xmlns="http://www.w3.org/2000/svg">
<g id="fi_763965">
<g id="Group">
<g id="Group_2">
<path id="Vector" d="M5.35775 3.54883H2.74269C2.45741 3.54883 2.22656 3.77968 2.22656 4.06496C2.22656 4.35024 2.45741 4.58109 2.74269 4.58109H5.35775C5.64303 4.58109 5.87387 4.35024 5.87387 4.06496C5.87387 3.77968 5.64303 3.54883 5.35775 3.54883Z" fill="#AAAAAA"/>
</g>
</g>
<g id="Group_3">
<g id="Group_4">
<path id="Vector_2" d="M5.35775 7.67773H2.74269C2.45741 7.67773 2.22656 7.90858 2.22656 8.19386C2.22656 8.47915 2.45741 8.70999 2.74269 8.70999H5.35775C5.64303 8.70999 5.87387 8.47915 5.87387 8.19386C5.87387 7.90858 5.64303 7.67773 5.35775 7.67773Z" fill="#AAAAAA"/>
</g>
</g>
<g id="Group_5">
<g id="Group_6">
<path id="Vector_3" d="M4.31868 5.61328H1.70363C1.41835 5.61328 1.1875 5.84413 1.1875 6.12941C1.1875 6.41469 1.41835 6.64554 1.70363 6.64554H4.31868C4.60396 6.64554 4.83481 6.41469 4.83481 6.12941C4.83481 5.84413 4.60396 5.61328 4.31868 5.61328Z" fill="#AAAAAA"/>
</g>
</g>
<g id="Group_7">
<g id="Group_8">
<path id="Vector_4" d="M17.7784 8.19328H14.6472V6.12876C14.6472 5.22223 13.5382 4.74491 12.8848 5.39923L8.75605 9.52795C8.35282 9.93119 8.35282 10.5844 8.75605 10.9876L11.123 13.3546L8.23993 16.2376C7.83669 16.6409 7.83669 17.2941 8.23993 17.6973C8.64313 18.1005 9.29637 18.1005 9.69961 17.6973L13.3125 14.0844C13.7157 13.6812 13.7157 13.028 13.3125 12.6247L10.9456 10.2578L12.5827 8.6207V9.22553C12.5827 9.79558 13.0449 10.2578 13.6149 10.2578H17.7784C18.3484 10.2578 18.8106 9.79558 18.8106 9.22553C18.8106 8.65549 18.3484 8.19328 17.7784 8.19328Z" fill="#AAAAAA"/>
</g>
</g>
<g id="Group_9">
<g id="Group_10">
<path id="Vector_5" d="M10.8342 2.94859C10.4239 2.6759 9.87956 2.72986 9.53176 3.07762L6.69305 5.91633C6.28982 6.31957 6.28982 6.97278 6.69305 7.37602C7.09629 7.77925 7.74953 7.77921 8.15277 7.37598L10.3932 5.13557L11.1479 5.67922L12.1563 4.67085C12.3249 4.50217 12.5239 4.37125 12.7415 4.26902L10.8342 2.94859Z" fill="#AAAAAA"/>
</g>
</g>
<g id="Group_11">
<g id="Group_12">
<path id="Vector_6" d="M8.02445 11.7176C7.76291 11.4561 7.58832 11.1342 7.49628 10.7861L2.04461 16.2378C1.64138 16.641 1.64138 17.2942 2.04461 17.6975C2.44781 18.1007 3.10106 18.1007 3.5043 17.6975L8.75429 12.4475L8.02445 11.7176Z" fill="#AAAAAA"/>
</g>
</g>
<g id="Group_13">
<g id="Group_14">
<path id="Vector_7" d="M15.1578 5.09677C16.0129 5.09677 16.7061 4.40354 16.7061 3.54839C16.7061 2.69324 16.0129 2 15.1578 2C14.3026 2 13.6094 2.69324 13.6094 3.54839C13.6094 4.40354 14.3026 5.09677 15.1578 5.09677Z" fill="#AAAAAA"/>
</g>
</g>
</g>
</svg>
