<svg width="20" height="20" viewBox="0 0 20 20" fill="none" xmlns="http://www.w3.org/2000/svg">
<g id="fi_3991400">
<path id="SOLID-13" d="M4.39735 2C3.08112 2 2.00003 3.08838 2.00003 4.40397V6.80016C2.00003 8.11581 3.08109 9.20256 4.39738 9.20256H6.79474C8.111 9.20256 9.19988 8.11578 9.19988 6.80016V4.40397C9.19985 3.08838 8.11097 2 6.79471 2L4.39735 2ZM13.1975 2C11.8812 2 10.8002 3.08838 10.8002 4.40397V6.80016C10.8002 8.11581 11.8812 9.20256 13.1975 9.20256H15.6026C16.9189 9.20256 18 8.11578 18 6.80016V4.40397C18 3.08834 16.9189 2 15.6026 2L13.1975 2ZM4.39735 10.8037C3.08109 10.8037 2 11.8842 2 13.1998V15.5976C2 16.9132 3.08106 18 4.39735 18H6.79471C8.11097 18 9.19984 16.9132 9.19984 15.5976V13.1998C9.19984 11.8842 8.11097 10.8037 6.79471 10.8037H4.39735ZM13.1975 10.8037C11.8812 10.8037 10.8002 11.8842 10.8002 13.1998V15.5976C10.8002 16.9132 11.8812 18 13.1975 18H15.6026C16.9189 18 18 16.9132 18 15.5976V13.1998C18 11.8842 16.9189 10.8037 15.6026 10.8037H13.1975Z" fill="#AAAAAA"/>
</g>
</svg>
