<svg width="16" height="16" viewBox="0 0 16 16" fill="none" xmlns="http://www.w3.org/2000/svg">
<g id="fi_7938303">
<g id="Group">
<path id="Vector" d="M8.14115 8H7.85625V9.38028C7.85625 9.94345 7.3997 10.4 6.83652 10.4C6.73695 10.4 6.65625 10.4807 6.65625 10.5803V11.4576L9.5987 11.2V10.5803C9.5987 10.4807 9.51798 10.4 9.41843 10.4C8.85525 10.4 8.3987 9.94345 8.3987 9.38028L8.14115 8Z" fill="#FD9644"/>
<path id="Vector_2" d="M7.38592 10.4C7.9491 10.4 8.40565 9.94345 8.40565 9.38028V8H7.60625V9.38028C7.60625 9.94345 7.1497 10.4 6.58652 10.4C6.48695 10.4 6.40625 10.4807 6.40625 10.5803V11.2L7.20565 11.4576V10.5803C7.20565 10.4807 7.28635 10.4 7.38592 10.4Z" fill="#FA8231"/>
<path id="Vector_3" d="M10.0081 11.9992L6.26562 12.2568V11.4568L6.7807 11.1992H9.82777C9.92735 11.1992 10.008 11.2799 10.008 11.3795V11.9992H10.0081Z" fill="#FA8231"/>
<path id="Vector_4" d="M6 11.3795V11.9992L6.77265 12.2568V11.1992H6.1803C6.0807 11.1992 6 11.2799 6 11.3795Z" fill="#FA8231"/>
<path id="Vector_5" d="M10.6231 14.4H6.00339L5.46094 14.1425V12.2576L6.00339 12H10.6231C10.7227 12 10.8034 12.0807 10.8034 12.1803V14.2197C10.8034 14.3193 10.7227 14.4 10.6231 14.4Z" fill="#BA6125"/>
<path id="Vector_6" d="M5.20312 12.1803V14.2197C5.20312 14.3193 5.28385 14.4 5.3834 14.4H6.00313V12H5.3834C5.28382 12 5.20312 12.0808 5.20312 12.1803Z" fill="#BA6125"/>
<g id="Group_2">
<path id="Vector_7" d="M9.60156 8.39953L10.2954 7.34461L11.5746 6.91821C12.3373 6.66396 12.8818 5.98278 12.9618 5.18278L13.0767 4.03371C13.0982 3.81848 13.0302 3.61163 12.885 3.45128C12.7399 3.29091 12.5409 3.20258 12.3246 3.20258H11.2052V2.39648H12.3246C12.765 2.39648 13.1872 2.58381 13.4827 2.91038C13.7783 3.23696 13.9227 3.67566 13.8788 4.11396L13.7639 5.26303C13.6524 6.37858 12.8931 7.32846 11.8295 7.68301L9.60156 8.39953Z" fill="#FA8231"/>
</g>
<g id="Group_3">
<path id="Vector_8" d="M6.40223 8.39953L5.7084 7.34461L4.4292 6.91821C3.6665 6.66396 3.12195 5.98278 3.04198 5.18278L2.92708 4.03371C2.90555 3.81848 2.97363 3.61163 3.11875 3.45128C3.26388 3.29091 3.46293 3.20258 3.67923 3.20258H4.79858V2.39648H3.67918C3.2387 2.39648 2.81658 2.58381 2.521 2.91038C2.22545 3.23696 2.08108 3.67566 2.1249 4.11396L2.2398 5.26303C2.35135 6.37858 3.11065 7.32846 4.17423 7.68301L6.40223 8.39953Z" fill="#FA8231"/>
</g>
<path id="Vector_9" d="M7.9987 8.77386C6.56502 8.66066 4.97832 7.39711 4.87875 5.60453L4.65625 1.85716L5.17135 1.59961H11.4081C11.5116 1.59961 11.5939 1.68656 11.5881 1.78988L11.3762 5.60453C11.2838 7.26673 10.0023 8.59353 8.38502 8.77773C8.2582 8.79218 7.9987 8.77386 7.9987 8.77386Z" fill="#FA8231"/>
<path id="Vector_10" d="M5.39892 5.60453L5.17642 1.59961H4.59435C4.49085 1.59961 4.4086 1.68656 4.41435 1.78988L4.62627 5.60453C4.72587 7.39708 6.20847 8.79961 8.00377 8.79961C8.13435 8.79961 8.26325 8.79218 8.3901 8.77773C6.77277 8.59353 5.49127 7.26673 5.39892 5.60453Z" fill="#BA6125"/>
<path id="Vector_11" d="M9.42227 13.5988H6.58652C6.48695 13.5988 6.40625 13.5181 6.40625 13.4185V12.9791C6.40625 12.8795 6.48697 12.7988 6.58652 12.7988H9.42227C9.52185 12.7988 9.60255 12.8796 9.60255 12.9791V13.4185C9.60255 13.5181 9.52185 13.5988 9.42227 13.5988Z" fill="#F2FBFF"/>
<path id="3" d="M8.0255 6.39922C7.82923 6.39922 7.64861 6.36239 7.48363 6.28872C7.3215 6.21506 7.19066 6.10309 7.0911 5.95281C6.99439 5.79959 6.94319 5.60511 6.9375 5.36938H7.56043C7.56328 5.46073 7.58319 5.54323 7.62017 5.6169C7.65714 5.68762 7.70977 5.7436 7.77803 5.78485C7.8463 5.82611 7.92879 5.84673 8.0255 5.84673C8.11368 5.84673 8.18906 5.82905 8.25163 5.79369C8.31706 5.75539 8.36541 5.70677 8.3967 5.64784C8.43083 5.58596 8.4479 5.51524 8.4479 5.43568C8.4479 5.34434 8.42657 5.26773 8.3839 5.20585C8.34123 5.14102 8.28008 5.0924 8.20043 5.05999C8.12079 5.02463 8.02834 5.00695 7.9231 5.00695H7.70123V4.46773H7.9231C8.04541 4.46773 8.15208 4.43826 8.2431 4.37933C8.33412 4.31745 8.37963 4.22316 8.37963 4.09646C8.37963 3.99038 8.34692 3.90787 8.2815 3.84894C8.21608 3.78706 8.12932 3.75612 8.02123 3.75612C7.89039 3.75612 7.79083 3.7959 7.72257 3.87546C7.6543 3.95207 7.6159 4.04489 7.60737 4.15391H6.9887C6.99723 3.95355 7.04559 3.78264 7.13377 3.64121C7.22194 3.49682 7.34141 3.3878 7.49217 3.31414C7.64577 3.23752 7.82212 3.19922 8.02123 3.19922C8.23172 3.19922 8.41092 3.23752 8.55883 3.31414C8.70674 3.39075 8.81768 3.49388 8.89163 3.62353C8.96843 3.75023 9.00683 3.88872 9.00683 4.039C9.00683 4.1657 8.98408 4.2762 8.93857 4.37049C8.89306 4.46183 8.83332 4.53845 8.75937 4.60032C8.68541 4.65926 8.60719 4.70198 8.5247 4.7285C8.63563 4.75207 8.73092 4.79775 8.81057 4.86552C8.89306 4.93034 8.95706 5.01432 9.00257 5.11745C9.04808 5.21763 9.07083 5.33255 9.07083 5.4622C9.07083 5.6331 9.02959 5.79075 8.9471 5.93513C8.86746 6.07657 8.74941 6.19001 8.59297 6.27546C8.43937 6.35797 8.25021 6.39922 8.0255 6.39922Z" fill="#BA6125"/>
</g>
</g>
</svg>
