<svg width="20" height="20" viewBox="0 0 20 20" fill="none" xmlns="http://www.w3.org/2000/svg">
<g id="fi_4032389">
<g id="Layer 2">
<path id="Vector" d="M15.7276 3.45458H14.3639V2.72729C14.3639 2.5344 14.2873 2.34941 14.1509 2.21302C14.0145 2.07662 13.8295 2 13.6366 2C13.4437 2 13.2587 2.07662 13.1223 2.21302C12.9859 2.34941 12.9093 2.5344 12.9093 2.72729V3.45458H10.7275V2.72729C10.7275 2.5344 10.6508 2.34941 10.5144 2.21302C10.378 2.07662 10.1931 2 10.0002 2C9.80727 2 9.62229 2.07662 9.48589 2.21302C9.3495 2.34941 9.27288 2.5344 9.27288 2.72729V3.45458H7.09101V2.72729C7.09101 2.5344 7.01439 2.34941 6.878 2.21302C6.7416 2.07662 6.55661 2 6.36373 2C6.17084 2 5.98585 2.07662 5.84946 2.21302C5.71306 2.34941 5.63644 2.5344 5.63644 2.72729V3.45458H4.27277C3.67023 3.45534 3.09259 3.69504 2.66653 4.12111C2.24047 4.54717 2.00077 5.12481 2 5.72735V7.8183H18.0003V5.72735C17.9996 5.12481 17.7599 4.54717 17.3338 4.12111C16.9077 3.69504 16.3301 3.45534 15.7276 3.45458Z" fill="#AAAAAA"/>
<path id="Vector_2" d="M2 15.7281C2.00077 16.3307 2.24047 16.9083 2.66653 17.3344C3.09259 17.7604 3.67023 18.0001 4.27277 18.0009H15.7276C16.3301 18.0001 16.9077 17.7604 17.3338 17.3344C17.7599 16.9083 17.9996 16.3307 18.0003 15.7281V9.27344H2V15.7281ZM7.30411 12.8059C7.44049 12.6695 7.62545 12.5929 7.8183 12.5929C8.01115 12.5929 8.19611 12.6695 8.33249 12.8059L9.27288 13.7455L11.6678 11.3513C11.805 11.2188 11.9887 11.1455 12.1794 11.1472C12.3701 11.1488 12.5525 11.2253 12.6874 11.3602C12.8222 11.495 12.8987 11.6774 12.9003 11.8681C12.902 12.0588 12.8287 12.2425 12.6962 12.3797L9.78707 15.2888C9.65068 15.4252 9.46573 15.5018 9.27288 15.5018C9.08002 15.5018 8.89507 15.4252 8.75868 15.2888L7.30411 13.8343C7.16776 13.6979 7.09117 13.5129 7.09117 13.3201C7.09117 13.1272 7.16776 12.9423 7.30411 12.8059Z" fill="#AAAAAA"/>
</g>
</g>
</svg>
