<svg width="20" height="20" viewBox="0 0 20 20" fill="none" xmlns="http://www.w3.org/2000/svg">
<g id="fi_3596097" clip-path="url(#clip0_5632_41724)">
<path id="Vector" d="M17.7083 2.5H2.29167C1.0275 2.5 0 3.5275 0 4.79167V15.2083C0 16.4725 1.0275 17.5 2.29167 17.5H17.7083C18.9725 17.5 20 16.4725 20 15.2083V4.79167C20 3.5275 18.9725 2.5 17.7083 2.5ZM6.25 5.83333C7.39833 5.83333 8.33333 6.76833 8.33333 7.91667C8.33333 9.065 7.39833 10 6.25 10C5.10167 10 4.16667 9.065 4.16667 7.91667C4.16667 6.76833 5.10167 5.83333 6.25 5.83333ZM10 13.5417C10 13.8867 9.72 14.1667 9.375 14.1667H3.125C2.78 14.1667 2.5 13.8867 2.5 13.5417V13.125C2.5 11.8608 3.5275 10.8333 4.79167 10.8333H7.70833C8.9725 10.8333 10 11.8608 10 13.125V13.5417ZM16.875 14.1667H12.2917C11.9467 14.1667 11.6667 13.8867 11.6667 13.5417C11.6667 13.1967 11.9467 12.9167 12.2917 12.9167H16.875C17.22 12.9167 17.5 13.1967 17.5 13.5417C17.5 13.8867 17.22 14.1667 16.875 14.1667ZM16.875 10.8333H12.2917C11.9467 10.8333 11.6667 10.5533 11.6667 10.2083C11.6667 9.86333 11.9467 9.58333 12.2917 9.58333H16.875C17.22 9.58333 17.5 9.86333 17.5 10.2083C17.5 10.5533 17.22 10.8333 16.875 10.8333ZM16.875 7.5H12.2917C11.9467 7.5 11.6667 7.22 11.6667 6.875C11.6667 6.53 11.9467 6.25 12.2917 6.25H16.875C17.22 6.25 17.5 6.53 17.5 6.875C17.5 7.22 17.22 7.5 16.875 7.5Z" fill="#AAAAAA"/>
</g>
<defs>
<clipPath id="clip0_5632_41724">
<rect width="20" height="20" fill="white"/>
</clipPath>
</defs>
</svg>
