<svg xmlns="http://www.w3.org/2000/svg" width="234" height="234" viewBox="0 0 234 234" fill="none">
  <path d="M102.669 61.126C102.669 61.126 103.206 60.7638 103.873 60.9343C104.539 61.1047 104.576 61.5306 104.872 61.8075C105.169 62.0844 105.687 62.1909 105.687 62.1909C105.687 62.1909 106.335 63.4687 104.724 66.1525C103.114 68.8361 98.7264 71.8393 97.6712 71.3282C96.616 70.8171 96.9087 68.0383 97.0678 67.7983C97.227 67.5582 97.5046 67.1961 97.7268 66.4721C97.949 65.7479 98.3376 65.0238 99.0783 64.3208C99.8186 63.6179 102.669 61.126 102.669 61.126Z" fill="#6264A3"/>
  <path d="M98.4171 67.4866C98.4171 67.4866 97.8788 67.3834 97.9618 66.4521C98.0449 65.5208 100.369 62.8941 101.179 62.2733C101.988 61.6524 103.353 61.136 103.856 61.2464C104.58 61.4049 104.302 62.6572 104.302 62.6572L98.4171 67.4866Z" fill="#1B1720"/>
  <path d="M103.709 49.1299C103.777 48.5786 103.831 48.0248 103.848 47.4683C103.862 47.004 103.847 46.5399 103.795 46.0791C103.749 45.6655 103.69 45.2745 103.459 44.9403C103.256 44.6454 102.898 45.062 103.1 45.3539C103.291 45.6308 103.297 46.1128 103.321 46.4482C103.344 46.7663 103.349 47.0857 103.341 47.4047C103.327 47.332 103.316 47.2588 103.298 47.1867C103.184 46.7006 102.982 46.1975 102.674 45.8318C102.529 45.6591 102.339 45.5126 102.137 45.4385C102.207 44.3857 102.188 43.3292 101.902 42.3121C101.801 41.9552 101.31 42.1079 101.411 42.4675C101.483 42.7212 101.536 42.9778 101.575 43.2362C101.541 43.1625 101.505 43.0893 101.464 43.0195C101.252 42.6642 100.955 42.3716 100.616 42.2117C100.558 41.5432 100.399 40.8884 100.147 40.2765C100.089 40.1337 99.9106 40.0967 99.7996 40.1716C99.6725 40.2572 99.6496 40.4284 99.7084 40.5717C99.804 40.8043 99.8819 41.0446 99.9452 41.2893C99.7526 41.022 99.5413 40.7694 99.317 40.5555C98.9199 40.1764 98.4618 39.9996 97.9476 40.1322C97.5653 40.2308 97.24 40.4795 96.9419 40.7642C96.5658 40.5325 96.1233 40.4639 95.6931 40.5374C95.0435 40.6485 94.4793 41.0857 93.9874 41.5629C93.6873 41.854 93.4078 42.1703 93.1424 42.502C93.3695 42.1555 93.6347 41.838 93.8888 41.5477C94.4718 40.8814 95.1342 40.3211 95.856 39.8703C96.1436 39.6907 95.8874 39.1854 95.5994 39.3652C94.824 39.8494 94.1081 40.4629 93.4863 41.1834C92.9599 41.7934 92.3973 42.5182 92.1653 43.3592C91.9792 43.4932 91.7999 43.6398 91.6274 43.797C90.9552 44.4093 90.4078 45.1895 89.9552 46.0231C89.5 46.8618 89.1366 47.766 88.8273 48.6876C88.7922 48.7919 88.759 48.8992 88.7273 49.008C88.8012 48.0661 89.1153 47.1313 89.4929 46.3074C90.1395 44.897 90.9528 43.5866 91.8791 42.4022C92.0974 42.1229 91.7389 41.708 91.5196 41.9886C90.5159 43.2721 89.621 44.7036 88.9478 46.2497C88.278 47.7881 87.8638 49.5844 88.5275 51.2011C89.2202 52.8885 92.1121 54.3541 92.9709 54.8127C93.4897 55.0898 100.74 59.6903 101.013 59.6708C101.243 59.6544 102.701 59.5711 103.668 56.0787C103.748 55.7897 104.022 54.2164 104.114 52.1077C104.156 51.1442 104.136 50.0005 103.709 49.1299Z" fill="#1B1720"/>
  <path d="M97.0273 61.7609C97.0273 61.7609 98.239 64.4993 98.4986 65.5447C98.7583 66.5903 98.412 67.4863 98.412 67.4863C98.412 67.4863 98.9745 67.8347 101.008 66.4906C103.042 65.1463 104.297 62.6569 104.297 62.6569C104.297 62.6569 103.322 61.6273 102.609 60.2173C101.889 58.7906 100.914 55.874 100.914 55.874L97.0273 61.7609Z" fill="#E98E63"/>
  <path d="M99.5579 63.3724C100.096 62.9399 100.606 62.4163 100.978 61.7898C101.364 61.1406 101.506 60.3692 101.511 59.591C101.52 58.3295 101.214 57.1121 100.892 55.9082L97.0273 61.7619C97.0273 61.7619 97.6187 63.0986 98.0637 64.261C98.5996 64.0695 99.104 63.7373 99.5579 63.3724Z" fill="#1B1720"/>
  <path d="M101.998 51.6839C100.836 51.6303 100.571 53.263 100.571 53.263C100.571 53.263 100.139 53.7332 100.083 53.5696C99.9811 53.2693 99.8065 52.6115 99.4942 52.0195C99.1415 51.6775 98.6601 51.5968 98.241 51.4012C98.0093 51.2931 97.8046 51.1484 97.6215 50.9521C97.4525 50.7707 97.3095 50.5615 97.1568 50.363C97 50.1594 96.8305 49.9679 96.6204 49.8384C96.388 49.6951 96.1209 49.6606 95.8752 49.5563C95.7087 49.4857 95.5509 49.3936 95.4204 49.2534C95.3006 49.1243 95.2084 48.9642 95.1135 48.8114C95.0676 48.7375 95.0208 48.6651 94.9733 48.5938C94.3896 49.4543 93.6771 50.1927 92.8749 50.7777C92.3838 51.136 91.8541 51.469 91.2942 51.659C91.0062 51.7566 90.7059 51.8122 90.4054 51.8099C90.1537 51.8081 89.9127 51.7457 89.668 51.6987C89.6729 52.002 89.679 52.249 89.6819 52.2658C89.8834 53.8999 90.4354 55.8758 90.7725 56.9986C91.4852 59.3722 93.4053 63.6501 94.9944 63.9278C97.1482 64.3035 100.799 62.0394 101.192 60.6592C101.438 59.7965 101.645 56.8321 101.645 56.8321C101.645 56.8321 102.299 57.406 102.935 56.7904C103.72 56.0303 104.04 51.7783 101.998 51.6839Z" fill="#E98E63"/>
  <path d="M92.0541 57.6352C91.9507 57.4356 91.757 57.2513 91.5429 57.2985C91.4277 57.324 91.3378 57.4365 91.3141 57.567C91.3129 57.5732 91.3129 57.5797 91.3121 57.5859C91.2534 57.7095 91.2543 57.847 91.2926 57.974C91.3021 58.018 91.3158 58.0605 91.3346 58.1003C91.3361 58.1044 91.3361 58.1085 91.3378 58.1126C91.3841 58.2208 91.439 58.3213 91.5268 58.3913C91.5653 58.4219 91.6095 58.4394 91.6549 58.4498C91.6573 58.4507 91.6592 58.4529 91.6617 58.4539C91.7544 58.4892 91.8361 58.4558 91.9024 58.3928C91.9361 58.3799 91.9693 58.3634 92.0003 58.3372C92.1031 58.2511 92.1597 58.1188 92.1488 57.9708C92.14 57.8527 92.1068 57.737 92.0541 57.6352Z" fill="#1B1720"/>
  <path d="M97.0374 55.4656C97.0373 55.4605 97.0374 55.4554 97.0369 55.4504C97.0359 55.4391 97.0376 55.4277 97.0359 55.4166C97.0324 55.393 97.0242 55.3694 97.0176 55.3458C97.0157 55.3394 97.0159 55.3324 97.0139 55.326C97.0129 55.3226 97.0108 55.3191 97.0098 55.3156C97.0025 55.2936 96.9932 55.2723 96.9837 55.2507C96.9825 55.248 96.9817 55.2454 96.9805 55.2429C96.9627 55.1657 96.9337 55.0918 96.8915 55.029C96.7922 54.8815 96.6417 54.7821 96.4686 54.7757C96.2827 54.7686 96.1243 54.8995 96.0926 55.0955C96.081 55.1664 96.0783 55.2441 96.0877 55.3191C96.0871 55.3612 96.0922 55.403 96.1024 55.4445C96.106 55.4761 96.1114 55.5075 96.1217 55.5381C96.15 55.622 96.1973 55.6974 96.2619 55.7546C96.2978 55.7863 96.3354 55.8123 96.3746 55.8355C96.389 55.8454 96.4022 55.8575 96.4173 55.8661C96.4229 55.8692 96.4288 55.8716 96.4346 55.8745C96.4983 55.9219 96.5712 55.9548 96.6512 55.9511C96.679 55.9498 96.7063 55.9437 96.733 55.9351C96.771 55.9285 96.8088 55.9162 96.8454 55.8936C96.9902 55.8051 97.0483 55.6342 97.0374 55.4656Z" fill="#1B1720"/>
  <path d="M97.1975 52.7849C96.5205 52.5965 95.8248 52.4969 95.1284 52.4902C94.8011 52.4871 94.8008 53.0721 95.1284 53.0752C95.7814 53.0815 96.4275 53.1724 97.0622 53.349C97.1956 53.3861 97.3378 53.3005 97.3749 53.1447C97.4107 52.9957 97.3315 52.8221 97.1975 52.7849Z" fill="#1B1720"/>
  <path d="M91.76 55.2976C91.3644 55.259 90.9615 55.3044 90.5787 55.4245C90.4504 55.4647 90.3588 55.6344 90.401 55.7843C90.4436 55.9354 90.5763 56.0318 90.7137 55.9887C90.8025 55.9608 90.892 55.937 90.9825 55.9179C91.0034 55.9134 91.0242 55.9093 91.0452 55.9054C91.0495 55.9046 91.0774 55.8998 91.0934 55.897C91.1081 55.8951 91.1413 55.8904 91.1458 55.8898C91.1668 55.8871 91.1879 55.8847 91.2091 55.8826C91.3925 55.8643 91.5766 55.8649 91.76 55.8828C91.8928 55.8957 92.0199 55.7389 92.0142 55.5903C92.0076 55.4204 91.9023 55.3114 91.76 55.2976Z" fill="#1B1720"/>
  <path d="M95.376 58.8259C95.3562 58.7551 95.318 58.6868 95.2592 58.6512L95.1985 58.6217C95.1535 58.6079 95.1084 58.6079 95.0633 58.6217C94.8726 58.6533 94.8696 58.6605 94.6789 58.6921C94.6204 58.7017 94.5554 58.7707 94.5271 58.8265C94.4952 58.8891 94.4816 58.9815 94.5015 59.0519C94.5215 59.1227 94.5596 59.1909 94.6182 59.2266L94.6789 59.256C94.724 59.2699 94.7691 59.2699 94.814 59.256C95.0047 59.2245 95.0079 59.2172 95.1984 59.1857C95.2569 59.1759 95.3219 59.1069 95.3502 59.0513C95.3823 58.9885 95.3957 58.8961 95.376 58.8259Z" fill="#DD6A59"/>
  <path d="M94.9102 60.815C94.9102 60.815 96.1218 60.3172 97.1604 59.5703C97.1604 59.5703 97.5931 60.3669 97.7229 61.0141C97.8527 61.6613 96.0352 62.1094 96.0352 62.1094L94.9102 60.815Z" fill="#E8E8E8"/>
  <path d="M91.2411 105.117C90.693 103.838 90.1811 102.257 89.6068 100.993C89.3161 102.784 88.8949 105.294 88.5575 107.095C87.8606 110.812 86.0866 118.83 86.0233 119.341C85.96 119.851 83.8594 121.083 82.824 121.816C81.7888 122.549 82.0276 124.412 82.2399 125.481C82.4523 126.55 83.0364 127.497 83.4611 127.619C83.8858 127.741 83.9919 128.138 84.3636 128.474C84.7353 128.81 85.1334 128.474 85.2927 128.657C85.452 128.841 85.4785 129.207 85.9828 129.207C86.4872 129.207 86.5403 129.329 86.8057 129.421C87.0711 129.513 88.77 128.321 89.7257 126.855C90.6813 125.389 91.6636 120.167 91.6636 120.167C91.6636 120.167 93.1503 116.299 94.1389 112.436C93.249 109.958 92.2717 107.522 91.2411 105.117Z" fill="#E98E63"/>
  <path d="M93.4626 112.458C93.7849 113.289 93.9719 113.239 94.2114 112.139C94.603 110.567 94.9039 109.012 94.9793 107.736C95.2447 103.246 95.5367 98.8178 95.5101 98.3901C95.4835 97.9625 90.0826 97.9531 90.0826 97.9531C90.0826 97.9531 89.8848 99.2438 89.6016 100.996C89.8978 103.279 92.3987 109.715 93.4626 112.458Z" fill="#DC8058"/>
  <path d="M88.7475 126.485C88.8072 126.201 88.7579 125.889 88.5962 125.655C88.448 125.441 88.2184 125.317 87.9836 125.302C87.9823 125.049 87.9292 124.802 87.756 124.629C87.4884 124.362 87.0389 124.441 86.6857 124.539C86.4705 124.161 86.1008 123.927 85.7085 123.936C85.7476 123.789 85.8046 123.654 85.897 123.546C86.1017 123.308 86.4247 123.245 86.6952 123.165C87.4349 122.946 88.0643 122.476 88.3707 121.641C88.4245 121.494 88.408 121.329 88.2796 121.241C88.1736 121.168 87.985 121.2 87.9318 121.346C87.6965 121.987 87.2564 122.387 86.6791 122.566C86.1571 122.727 85.579 122.868 85.3214 123.485C85.0565 124.118 85.1517 124.881 84.7999 125.48C84.6475 125.74 84.393 125.967 84.1075 125.948C83.8316 125.93 83.5945 125.694 83.4443 125.443C83.3523 125.289 83.2516 125.104 83.2818 124.912C83.314 124.706 83.4027 124.509 83.4442 124.304C83.534 123.861 83.5554 123.405 83.5094 122.954C83.4718 122.584 82.9628 122.58 83.001 122.954C83.0479 123.414 83.0266 123.872 82.9154 124.319C82.8664 124.516 82.7857 124.706 82.7688 124.911C82.751 125.128 82.8105 125.329 82.8934 125.52C83.1747 126.169 83.8001 126.703 84.4521 126.482C85.1599 126.242 85.4654 125.41 85.5929 124.647C85.5988 124.612 85.6039 124.574 85.6092 124.537C85.8895 124.471 86.2085 124.638 86.3129 124.957C86.3615 125.106 86.4827 125.205 86.6256 125.161C86.7718 125.116 86.9193 125.079 87.07 125.061C87.1455 125.052 87.3438 125.004 87.4157 125.063C87.5257 125.154 87.4774 125.446 87.4584 125.569C87.4289 125.761 87.5732 126.022 87.7711 125.929C88.1094 125.77 88.4041 126.142 88.1911 126.503C88.0808 126.69 88.2277 126.944 88.4106 126.943C88.6046 126.942 88.4777 127.279 88.4265 127.361C88.2886 127.584 88.076 127.738 87.9204 127.945C87.707 128.228 88.0652 128.644 88.2801 128.358C88.5451 128.006 88.9345 127.752 89.0111 127.256C89.0567 126.957 88.949 126.651 88.7475 126.485Z" fill="#DC8058"/>
  <path opacity="0.55" d="M118.889 203.491C118.889 204.722 115.046 204.884 84.6487 204.884C51.8979 204.884 38.9688 204.722 38.9688 203.491C38.9688 202.259 51.6672 202.236 84.4065 202.236C116.283 202.236 118.889 202.259 118.889 203.491Z" fill="#7A9759"/>
  <path d="M79.3137 144.475C79.3137 144.475 75.3526 151.85 74.7763 153.341C74.2001 154.833 73.696 156.241 71.9674 159.225C70.2389 162.208 61.092 183.339 60.0837 185.493C59.0755 187.648 50.9368 195.106 49.7845 195.851C48.6322 196.597 47.9839 198.752 48.6322 199.415C49.2804 200.078 53.8897 199.663 56.1946 198.752C58.4992 197.84 61.6682 195.769 65.0533 194.028C68.4384 192.288 67.1421 188.311 66.7819 186.322C66.4217 184.333 72.7598 175.549 74.9205 173.395C77.0813 171.24 79.8902 167.428 80.8984 163.202C81.9067 158.976 83.9234 158.396 85.9401 155.827C87.9568 153.258 89.3252 151.85 90.4775 149.944C91.6297 148.038 79.3137 144.475 79.3137 144.475Z" fill="#E98E63"/>
  <path d="M78.0929 162.298C76.6178 161.529 75.2682 160.458 74.0926 159.178C73.6513 158.698 73.2365 158.187 72.8447 157.653C72.5918 158.126 72.3034 158.645 71.9674 159.224C70.2389 162.207 61.092 183.338 60.0837 185.493C59.0755 187.647 50.9368 195.105 49.7845 195.851C48.6322 196.597 47.9839 198.751 48.6322 199.414C49.2804 200.077 53.8897 199.663 56.1946 198.751C58.4992 197.84 61.6682 195.768 65.0533 194.028C68.4384 192.288 67.1421 188.31 66.7819 186.321C66.4217 184.332 72.7598 175.549 74.9205 173.394C77.0565 171.264 79.8249 167.514 80.862 163.346C79.9102 163.113 78.981 162.761 78.0929 162.298Z" fill="#E8E8E8"/>
  <path d="M78.0929 162.298C76.6178 161.529 75.2682 160.458 74.0926 159.178C73.6513 158.698 73.2365 158.187 72.8447 157.653C72.5918 158.126 72.3034 158.645 71.9674 159.224C70.2389 162.207 61.092 183.338 60.0837 185.493C59.0755 187.647 50.9368 195.105 49.7845 195.851C48.6322 196.597 47.9839 198.751 48.6322 199.414C49.2804 200.077 53.8897 199.663 56.1946 198.751C58.4992 197.84 61.6682 195.768 65.0533 194.028C68.4384 192.288 67.1421 188.31 66.7819 186.321C66.4217 184.332 72.7598 175.549 74.9205 173.394C77.0565 171.264 79.8249 167.514 80.862 163.346C79.9102 163.113 78.981 162.761 78.0929 162.298Z" fill="#E8E8E8"/>
  <path d="M72.4319 164.41C73.2478 165.237 74.1284 165.948 75.0797 166.554C76.0414 167.166 77.0551 167.678 78.1125 168.028C78.3521 168.107 78.5943 168.179 78.8381 168.241C78.9964 167.965 79.1506 167.684 79.2991 167.397C78.7898 167.279 78.2896 167.101 77.8067 166.889C76.8097 166.452 75.8712 165.856 74.9775 165.188C73.4957 164.082 72.0541 162.775 70.9977 161.127C70.8342 161.467 70.6567 161.841 70.4688 162.241C71.1125 162.977 71.7507 163.72 72.4319 164.41Z" fill="#6264A3"/>
  <path d="M65.3745 187.468C64.8427 187.827 64.2971 188.17 63.7332 188.458C63.4748 188.59 63.1171 188.772 62.9466 188.398C62.8549 188.198 62.809 187.95 62.7812 187.728C62.7416 187.412 62.7365 187.091 62.7243 186.772C62.7007 186.148 62.6577 185.447 62.246 184.984C61.8938 184.588 61.3786 184.535 60.9138 184.621C60.7457 184.652 60.5803 184.7 60.4176 184.758C60.2691 185.089 60.1554 185.34 60.0837 185.494C59.0755 187.648 50.9368 195.106 49.7845 195.852C48.6322 196.598 47.9839 198.752 48.6322 199.415C49.2804 200.078 53.8897 199.664 56.1946 198.752C58.4992 197.84 61.6682 195.769 65.0533 194.029C68.3881 192.315 67.1802 188.43 66.7992 186.414C66.3355 186.785 65.8618 187.139 65.3745 187.468Z" fill="#6264A3"/>
  <path d="M62.7103 188.994C62.7103 188.842 62.5422 188.707 62.4245 188.847C62.4234 188.849 62.4222 188.85 62.421 188.851C61.0331 188.203 59.5725 187.813 58.0746 187.706C57.7478 187.683 57.749 188.268 58.0746 188.291C59.427 188.387 60.7646 188.726 62.0271 189.293C61.5309 189.826 60.9968 190.304 60.4356 190.737C59.0866 190.327 57.7246 189.976 56.3516 189.69C56.0316 189.623 55.8945 190.187 56.2165 190.254C57.437 190.508 58.6484 190.815 59.8502 191.168C59.0393 191.738 58.1864 192.236 57.3266 192.7C56.7409 192.546 56.1463 192.427 55.5574 192.29C55.2381 192.217 54.9193 192.14 54.5993 192.069C54.3049 192.005 54.0093 191.961 53.7193 192.075C53.4114 192.196 53.5436 192.762 53.8546 192.639C54.123 192.534 54.3949 192.617 54.664 192.679C54.9627 192.748 55.2615 192.817 55.5601 192.886C55.8909 192.963 56.2236 193.034 56.5553 193.109C55.855 193.475 55.1511 193.832 54.4537 194.206C54.1049 194.392 53.7542 194.581 53.4073 194.779C52.6799 194.506 51.9141 194.373 51.1489 194.388C50.8222 194.394 50.8211 194.979 51.1489 194.973C51.6899 194.962 52.2248 195.032 52.7473 195.173C52.4234 195.378 52.1067 195.596 51.8028 195.836C50.9367 196.521 50.1674 197.416 49.8819 198.61C49.8239 198.852 50.1508 198.956 50.2086 198.714C50.4671 197.633 51.1654 196.817 51.9474 196.194C52.3533 195.87 52.7826 195.586 53.2221 195.323C53.3002 195.352 53.3781 195.381 53.4556 195.413C53.5849 195.466 53.7339 195.353 53.7683 195.209C53.7849 195.139 53.7775 195.074 53.7546 195.017C54.0232 194.866 54.2935 194.72 54.5627 194.576C55.4072 194.122 56.2636 193.693 57.1117 193.244C57.1768 193.261 57.2424 193.276 57.3073 193.294C57.5064 193.348 57.6341 193.147 57.6236 192.968C58.4342 192.527 59.2337 192.06 60.0013 191.524C60.1045 191.452 60.2067 191.378 60.3084 191.303C60.367 191.321 60.426 191.337 60.4845 191.355C60.7182 191.428 60.8522 191.139 60.7792 190.944C61.3432 190.495 61.8774 190 62.3717 189.453C62.3835 189.459 62.3956 189.463 62.4074 189.469C62.6881 189.608 62.934 189.168 62.7103 188.994Z" fill="#474393"/>
  <path d="M65.0527 194.028C66.7419 193.16 67.2646 191.734 67.3206 190.277C66.5948 191.016 65.5857 191.945 64.5763 192.552C62.6723 193.697 62.6291 194.444 61.8501 195.091C61.0712 195.738 56.441 198.277 55.1429 198.676C53.8447 199.074 50.8157 199.472 50.5992 199.124C50.3828 198.775 50.9021 198.477 50.2098 198.228C49.7515 198.063 48.991 198.007 48.4531 197.96C48.3146 198.567 48.3522 199.129 48.6314 199.414C49.2796 200.077 53.8889 199.663 56.1938 198.751C58.4986 197.84 61.6676 195.768 65.0527 194.028Z" fill="#E8E8E8"/>
  <path d="M90.4823 97.8612C90.4823 97.8612 89.0344 97.9368 89.2976 95.4381C89.5608 92.9392 89.4293 80.8993 89.3634 78.0975C89.2976 75.2958 97.0637 67.7992 97.0637 67.7992C97.0637 67.7992 97.0935 69.3475 98.5415 69.1962C99.9894 69.0446 102.427 67.738 103.652 66.1965C105.689 63.6338 105.623 62.1818 105.623 62.1818C105.623 62.1818 112.333 61.1356 115.755 60.8328C119.178 60.53 121.218 64.4676 122.731 68.7837C124.245 73.1001 125.246 77.2467 125.246 77.4739C125.246 77.7011 116.479 82.4138 116.742 83.7769C117.006 85.1399 118.914 93.9237 119.638 98.5429C120.362 103.162 119.638 104.071 120.494 104.904C121.349 105.736 120.494 106.342 120.625 107.327C120.757 108.311 121.481 108.765 121.284 109.826C121.086 110.886 120.625 111.189 120.823 112.022C121.02 112.855 121.454 114.538 120.875 115.514C120.296 116.489 105.949 123.304 100.815 123.229C95.6817 123.153 91.9788 117.933 91.9788 117.933C91.9788 117.933 93.1149 114.672 93.0491 113.839C92.9834 113.006 93.1808 111.719 93.7073 111.264C94.2338 110.81 93.3781 110.053 93.5756 109.296C93.773 108.538 93.9705 107.933 94.1022 107.63C94.2338 107.327 93.6415 106.115 93.8389 104.979C94.0364 103.844 94.9579 96.5742 94.9579 96.5742L90.4823 97.8612Z" fill="#E8E8E8"/>
  <path d="M96.279 96.8165C95.5975 93.4241 94.7466 90.0775 93.7279 86.799C93.4369 85.8624 93.1316 84.9314 92.8139 84.0064C92.695 83.6602 92.203 83.8112 92.3235 84.162C93.4355 87.4001 94.3857 90.7112 95.1638 94.0762C95.3861 95.0375 95.5939 96.0032 95.7886 96.9723C95.8624 97.3385 96.3527 97.1835 96.279 96.8165Z" fill="#B3C8D7"/>
  <path d="M114.471 82.6633C113.803 79.2755 112.852 75.9703 111.643 72.7877C111.512 72.4435 111.074 72.7409 111.203 73.0829C112.395 76.2177 113.322 79.4824 113.981 82.8187C114.053 83.1857 114.543 83.0305 114.471 82.6633Z" fill="#B3C8D7"/>
  <path d="M112.033 67.59C111.541 68.8212 111.139 70.0971 110.805 71.3956C110.743 71.6368 111.07 71.7397 111.132 71.4993C112.174 67.4552 113.959 63.502 116.904 60.8972C116.753 60.8662 116.599 60.8437 116.442 60.8311C114.539 62.6157 113.061 65.0148 112.033 67.59Z" fill="#B3C8D7"/>
  <path d="M90.5004 79.1085C91.3161 80.477 92.1317 81.8453 92.9474 83.2138C93.07 83.4195 93.364 83.2247 93.2401 83.0169C92.4244 81.6485 91.6088 80.28 90.7931 78.9115C90.4055 78.2614 90.0174 77.6117 89.6305 76.9609C89.5693 77.1095 89.5174 77.2532 89.4766 77.3905C89.8174 77.9634 90.1591 78.5358 90.5004 79.1085Z" fill="#B3C8D7"/>
  <path d="M118.945 105.713C115.435 108.875 111.155 110.645 106.829 111.68C105.607 111.972 104.375 112.206 103.138 112.401C102.923 112.435 103.015 112.811 103.228 112.777C107.659 112.08 112.11 110.852 116.057 108.361C117.154 107.668 118.2 106.876 119.185 105.989C119.356 105.834 119.115 105.56 118.945 105.713Z" fill="#B3C8D7"/>
  <path d="M120.216 108.733C117.769 109.702 115.313 110.67 112.767 111.236C112.553 111.283 112.643 111.659 112.857 111.612C115.403 111.045 117.859 110.078 120.306 109.109C120.511 109.028 120.423 108.651 120.216 108.733Z" fill="#B3C8D7"/>
  <path d="M119.454 112.178C116.647 112.792 113.977 113.985 111.281 115.036C108.526 116.109 105.723 116.992 102.794 117.013C101.005 117.026 99.2235 116.786 97.459 116.465C97.2456 116.427 97.1535 116.802 97.3688 116.841C98.9313 117.126 100.505 117.35 102.088 117.395C103.588 117.437 105.079 117.295 106.551 116.965C109.399 116.326 112.105 115.089 114.847 114.034C116.387 113.441 117.946 112.904 119.544 112.554C119.758 112.507 119.667 112.131 119.454 112.178Z" fill="#B3C8D7"/>
  <path d="M91.9864 117.933C91.9864 117.933 99.2229 120.272 103.288 119.617C107.354 118.962 110.931 118.308 114.265 116.904C117.599 115.501 120.883 115.514 120.883 115.514C120.883 115.514 121.329 122.537 120.272 129.273C119.215 136.009 115.137 155.511 115.137 155.511C115.137 155.511 102.638 152.36 102.231 151.331C101.825 150.302 104.142 132.766 104.304 132.111C104.467 131.456 91.8668 152.855 91.379 153.416C90.891 153.977 77.9985 146.532 78.9746 144.447C80.966 140.192 91.9864 117.933 91.9864 117.933Z" fill="#6264A3"/>
  <path d="M104.368 127.248C103.747 131.239 103.127 135.231 102.506 139.222C102.43 139.715 103.088 139.903 103.165 139.409C103.785 135.417 104.406 131.426 105.027 127.434C105.103 126.942 104.445 126.753 104.368 127.248Z" fill="#B0A973"/>
  <path d="M119.609 125.675C118.549 124.988 117.873 123.757 117.477 122.463C116.994 120.887 116.852 119.189 117.007 117.532C117.041 117.158 116.533 117.161 116.498 117.532C116.335 119.282 116.498 121.106 117.031 122.76C117.477 124.143 118.213 125.442 119.352 126.181C119.638 126.366 119.894 125.861 119.609 125.675Z" fill="#474393"/>
  <path d="M116.032 151.175C115.031 149.604 113.795 148.231 112.391 147.13C111.174 146.176 109.838 145.435 108.428 144.942C106.913 144.413 105.092 143.976 103.627 144.896C103.213 145.156 102.862 145.505 102.563 145.909C102.518 146.336 102.476 146.75 102.438 147.146C102.722 146.547 103.096 146.015 103.582 145.618C104.883 144.556 106.625 144.963 108.053 145.424C110.709 146.283 113.128 148.099 114.926 150.501C115.267 150.956 115.583 151.433 115.877 151.928C115.927 151.686 115.978 151.435 116.032 151.175Z" fill="#474393"/>
  <path d="M102.247 130.046C100.494 132.708 98.7402 135.37 96.9865 138.032L91.6913 146.071L89.4706 149.442C89.0697 149.229 88.6711 149.011 88.2754 148.785C86.0144 147.495 83.8055 146.018 81.7678 144.301C81.1131 143.749 80.4801 143.152 79.9032 142.492C79.8139 142.677 79.7295 142.852 79.6484 143.02C80.9728 144.512 82.5639 145.7 84.1315 146.811C85.7522 147.959 87.4322 148.994 89.158 149.916C89.0087 150.143 88.8594 150.369 88.7099 150.596C88.5782 150.796 88.8723 150.991 89.0026 150.793C89.1587 150.556 89.315 150.319 89.4711 150.082C90.0149 150.367 90.5627 150.642 91.1152 150.905C91.5871 151.129 92.063 151.342 92.5406 151.548C92.6353 151.392 92.7352 151.227 92.8391 151.056C91.8069 150.613 90.7893 150.127 89.7856 149.604C91.2827 147.331 92.7799 145.059 94.277 142.786C96.0399 140.11 97.8031 137.433 99.5661 134.757C100.557 133.252 101.548 131.748 102.539 130.243C102.672 130.043 102.377 129.849 102.247 130.046Z" fill="#474393"/>
  <path d="M113.528 151.891C113.528 151.891 115.604 154.076 115.104 155.61C114.604 157.143 110.48 155.562 110.48 155.562L113.528 151.891Z" fill="#1B1720"/>
  <path d="M113.529 151.891C113.529 151.891 113.367 156.662 114.424 159.375C115.481 162.088 116.456 166.485 116.375 174.25C116.294 182.014 114.993 194.644 115.318 195.298C115.643 195.953 118.164 201.005 118.001 202.689C117.839 204.373 108.082 203.812 107.838 202.97C107.594 202.128 108.732 195.579 108.895 193.615C109.057 191.65 108.895 185.008 107.919 179.956C106.943 174.905 105.073 171.817 105.561 167.982C106.049 164.146 105.886 162.369 104.585 158.72C103.284 155.072 102.634 154.23 102.471 151.236C102.309 148.243 105.155 144.314 113.529 151.891Z" fill="#E98E63"/>
  <path d="M116.374 174.25C116.424 169.525 116.081 166.049 115.568 163.438C114.691 164.019 113.763 164.496 112.796 164.84C111.307 165.368 109.73 165.573 108.177 165.387C107.37 165.291 106.579 165.089 105.812 164.798C105.806 165.734 105.717 166.752 105.56 167.982C105.072 171.818 106.943 174.905 107.918 179.957C108.894 185.008 109.057 191.65 108.894 193.615C108.731 195.58 107.593 202.128 107.837 202.97C108.081 203.812 117.838 204.373 118.001 202.689C118.163 201.006 115.643 195.954 115.317 195.299C114.992 194.644 116.293 182.015 116.374 174.25Z" fill="#E8E8E8"/>
  <path d="M115.472 195.607C115.418 195.644 115.358 195.669 115.292 195.676C115.141 195.694 115.003 195.612 114.889 195.506C114.603 195.243 114.421 194.848 114.221 194.503C114.136 194.358 114.048 194.223 113.931 194.11C113.765 193.951 113.563 193.849 113.357 193.784C112.921 193.646 112.461 193.654 112.013 193.636C111.611 193.62 111.205 193.568 110.833 193.789C110.5 193.987 110.276 194.345 110.094 194.711C109.883 195.134 109.784 195.669 109.452 195.999C109.208 196.242 108.867 196.312 108.579 196.132C108.202 198.812 107.664 202.365 107.839 202.97C108.083 203.812 117.84 204.373 118.002 202.689C118.149 201.169 116.108 196.903 115.472 195.607Z" fill="#6264A3"/>
  <path d="M116.333 199.741C116.244 199.728 116.155 199.717 116.066 199.705C116.043 199.566 116.018 199.428 115.991 199.29C115.934 198.999 115.87 198.709 115.802 198.421C115.947 198.443 116.092 198.471 116.235 198.51C116.553 198.597 116.689 198.033 116.37 197.946C116.134 197.881 115.894 197.841 115.653 197.816C115.579 197.527 115.502 197.24 115.423 196.953C115.468 196.955 115.513 196.955 115.558 196.957C115.885 196.972 115.885 196.387 115.558 196.372C115.457 196.367 115.357 196.367 115.256 196.364C115.226 196.262 115.198 196.158 115.168 196.056C115.1 195.819 114.772 195.92 114.841 196.16C114.86 196.225 114.878 196.29 114.897 196.355C113.261 196.341 111.627 196.562 110.037 197.006C110.008 196.773 109.981 196.541 109.955 196.31C110.724 196.109 111.504 195.982 112.288 195.889C112.69 195.842 113.092 195.801 113.495 195.761C113.9 195.721 114.302 195.685 114.692 195.84C115.002 195.964 115.135 195.399 114.827 195.276C114.433 195.119 114.019 195.126 113.608 195.165C113.168 195.206 112.727 195.252 112.288 195.304C111.408 195.408 110.53 195.546 109.67 195.783C109.425 195.85 109.449 196.197 109.617 196.316C109.646 196.576 109.677 196.838 109.71 197.1C109.457 197.206 109.54 197.642 109.784 197.662C109.834 198.015 109.888 198.368 109.952 198.718C109.744 198.85 109.83 199.242 110.06 199.262C110.145 199.657 110.243 200.048 110.362 200.428C110.284 200.459 110.207 200.488 110.13 200.521C109.825 200.648 109.957 201.214 110.265 201.085C110.359 201.045 110.453 201.009 110.547 200.972C110.819 201.697 111.173 202.379 111.652 202.988C111.798 203.174 112.037 202.898 111.891 202.712C111.451 202.152 111.121 201.524 110.866 200.854C112.461 200.288 114.137 200.086 115.801 200.259C115.884 200.964 115.89 201.676 115.74 202.375C115.687 202.618 116.014 202.722 116.067 202.478C116.222 201.759 116.224 201.027 116.146 200.301C116.208 200.309 116.27 200.317 116.333 200.326C116.47 200.347 116.586 200.177 116.587 200.033C116.589 199.859 116.468 199.762 116.333 199.741ZM110.274 198.614C110.212 198.274 110.16 197.93 110.113 197.587C111.734 197.129 113.396 196.914 115.064 196.944C115.142 197.226 115.219 197.508 115.292 197.792C114.596 197.767 113.892 197.862 113.207 197.964C112.218 198.111 111.24 198.33 110.274 198.614ZM110.679 200.309C110.564 199.942 110.469 199.566 110.386 199.184C111.315 198.909 112.256 198.691 113.207 198.549C113.934 198.441 114.696 198.327 115.439 198.38C115.505 198.656 115.569 198.934 115.627 199.212C115.658 199.363 115.687 199.514 115.714 199.666C114.018 199.502 112.302 199.722 110.679 200.309Z" fill="#474393"/>
  <path d="M107.684 170.363C109.637 170.657 111.677 170.507 113.575 169.903C114.507 169.607 115.429 169.214 116.218 168.56C116.19 168.16 116.159 167.769 116.124 167.394C116.103 167.41 116.084 167.428 116.062 167.445C114.541 168.643 112.657 169.123 110.843 169.285C109.851 169.374 108.845 169.37 107.855 169.253C107.057 169.159 106.246 168.986 105.498 168.636C105.476 168.997 105.475 169.352 105.491 169.704C106.182 170.059 106.939 170.25 107.684 170.363Z" fill="#6264A3"/>
  <path d="M116.124 201.821C115.348 201.729 111.526 201.729 110.991 202.005C110.457 202.282 110.858 202.805 109.976 202.805C109.323 202.805 108.319 202.519 107.809 202.37C107.799 202.651 107.807 202.86 107.839 202.97C108.082 203.812 117.84 204.373 118.002 202.689C118.015 202.558 118.01 202.405 117.993 202.237C117.642 202.485 117.299 202.674 117.086 202.651C116.498 202.59 116.899 201.913 116.124 201.821Z" fill="#E8E8E8"/>
  <path d="M122.732 75.8887C122.732 75.8887 125.052 76.186 125.281 77.4978C125.51 78.8098 122.445 80.3487 122.194 80.3487C121.943 80.3487 122.732 75.8887 122.732 75.8887Z" fill="#1B1720"/>
  <path d="M90.4311 96.6846C90.3706 96.7544 90.0245 97.6512 89.862 98.8362C89.6993 100.021 89.7535 101.456 89.9433 101.892C90.1331 102.329 90.4041 102.641 90.4313 103.202C90.4584 103.763 90.7023 104.044 91.0546 104.325C91.407 104.605 91.407 105.011 91.8407 105.354C92.2744 105.697 93.8192 105.26 93.9548 104.948C94.0904 104.637 93.9277 104.294 93.9277 104.294C93.9277 104.294 95.0662 104.387 96.5568 103.951C98.0476 103.514 99.1858 102.235 99.8092 102.048C100.433 101.861 112.467 98.8986 116.776 97.0588C121.086 95.219 123.597 93.3476 124.029 88.6676C124.462 83.9876 122.731 75.8888 122.731 75.8888C122.731 75.8888 120.144 75.6513 117.317 77.0787C114.49 78.5059 114.077 79.9051 114.192 80.9672C114.307 82.0294 115.432 86.0787 115.375 86.3441C115.375 86.3441 112.75 87.6386 109.922 89.5638C107.095 91.4888 98.4696 96.3681 97.4888 96.7995C96.5078 97.231 91.5377 95.4079 90.4311 96.6846Z" fill="#E98E63"/>
  <path d="M91.7518 102.7C91.5165 102.769 91.3247 102.543 91.3355 102.281C91.3504 101.923 91.3859 101.649 91.1304 101.386C90.9277 101.178 90.7361 101.039 90.6679 100.713C90.5952 100.364 90.774 100.069 90.7571 99.7252C90.7398 99.3725 90.5266 99.2379 90.3281 99.0197C90.1656 98.8411 90.1385 98.5508 90.2756 98.3404C90.3551 98.2185 90.4637 98.1424 90.5242 98.0013C90.5939 97.8384 90.5735 97.6733 90.574 97.4985C90.575 97.1748 90.6761 96.7332 90.9188 96.5842C91.2076 96.4071 91.0489 96.1977 90.7601 96.3748C90.465 96.5557 90.2123 96.7392 90.1151 97.1083C90.091 97.2 90.0766 97.2975 90.0696 97.3929C90.063 97.4859 90.0917 97.6089 90.0724 97.6965C90.0376 97.8536 89.8659 97.9697 89.7944 98.119C89.6449 98.4306 89.6425 98.8308 89.7814 99.1473C89.8525 99.3093 89.9578 99.4251 90.0791 99.5367C90.2288 99.6742 90.2718 99.7371 90.219 99.9614C90.1298 100.339 90.1051 100.696 90.2362 101.067C90.2988 101.243 90.3866 101.405 90.5013 101.544C90.5947 101.657 90.7789 101.744 90.8411 101.882C90.9138 102.044 90.8083 102.321 90.8367 102.505C90.8635 102.679 90.9366 102.842 91.0406 102.972C91.2574 103.242 91.5779 103.354 91.8867 103.264C92.204 103.172 92.0697 102.607 91.7518 102.7Z" fill="#DC8058"/>
  <path d="M93.3483 104.174C93.3044 104.017 93.1746 103.933 93.0356 103.969C92.849 104.018 92.6624 104.067 92.4758 104.116C92.4151 104.132 92.3546 104.189 92.3239 104.25C92.2921 104.313 92.2785 104.405 92.2983 104.476C92.3424 104.632 92.4721 104.716 92.611 104.68C92.7976 104.631 92.9842 104.582 93.1708 104.533C93.2313 104.518 93.2919 104.46 93.3229 104.399C93.3546 104.336 93.3681 104.244 93.3483 104.174Z" fill="#DC8058"/>
  <path d="M117.237 84.8055C115 85.8417 112.807 86.9989 110.667 88.2773C110.376 88.4508 110.633 88.9559 110.923 88.7823C113.024 87.5273 115.176 86.3868 117.372 85.3695C117.672 85.2308 117.541 84.6647 117.237 84.8055Z" fill="#DC8058"/>
  <path d="M54.7969 200.014C59.1324 195.026 59.1323 186.938 54.7966 181.95C50.461 176.962 43.4317 176.962 39.0962 181.95C34.7607 186.939 34.7608 195.026 39.0965 200.014C43.4321 205.003 50.4614 205.002 54.7969 200.014Z" fill="#E8E8E8"/>
  <path d="M36.1523 188.003C36.9645 187.764 40.5983 185.393 40.7901 184.968C40.913 184.695 40.4218 182.597 39.9903 181.027C38.1275 182.749 36.7418 185.164 36.1523 188.003Z" fill="#2C2E3A"/>
  <path d="M43.6148 203.166C44.1599 202.775 44.5599 202.449 44.6202 202.316C44.8156 201.883 43.4596 196.837 43.2579 196.634C43.0562 196.431 38.7413 196.069 38.4562 196.516C38.4562 196.516 38.1212 197.23 37.75 198.127C39.1227 200.466 41.1612 202.28 43.6148 203.166Z" fill="#2C2E3A"/>
  <path d="M48.1424 179.26C48.3196 180.378 48.408 181.51 48.4161 182.645C48.1714 182.852 45.651 185 45.1498 186.066C45.1393 186.058 45.1325 186.047 45.12 186.041C43.9522 185.423 42.7314 184.948 41.4786 184.619C41.1993 184.545 41.1289 185.051 41.4072 185.124C42.6221 185.444 43.8019 185.908 44.9344 186.506C44.9766 186.528 45.0154 186.531 45.052 186.526C45.033 187.648 45.6821 190.622 46.3079 191.241C45.1864 192.661 44.1508 194.168 43.2092 195.753C43.0485 196.024 43.3909 196.351 43.5526 196.079C44.5325 194.429 45.6155 192.865 46.7899 191.395C47.9771 191.484 51.3078 191.197 51.7942 190.939C53.0072 192.049 54.1089 193.31 55.0766 194.705C55.0699 194.736 54.0986 199.176 54.5336 200.02C54.5606 200.072 54.5967 200.13 54.6404 200.193C56.1749 198.499 57.2989 196.287 57.7862 193.746C56.9105 193.938 55.9673 194.195 55.4554 194.43C54.4414 192.964 53.2828 191.638 52.0046 190.479C52.3422 189.201 52.7873 185.599 52.7347 185.146C53.2238 184.725 53.7406 184.346 54.2835 184.023C54.3901 183.959 54.4577 183.831 54.4111 183.692C54.3714 183.573 54.2307 183.481 54.1233 183.545C53.5157 183.906 52.9381 184.327 52.3942 184.803C51.6263 184.212 49.737 183.008 48.8595 182.688C48.8561 181.52 48.7671 180.355 48.5847 179.205C48.534 178.883 48.0908 178.935 48.1424 179.26Z" fill="#2C2E3A"/>
  <path d="M45.2139 202.132C45.1675 202.246 45.2094 202.429 45.3236 202.471C46.2693 202.824 47.2457 203.033 48.2394 203.081C48.3594 203.087 48.4738 203.017 48.4946 202.869C48.5121 202.745 48.4316 202.581 48.3106 202.575C47.3599 202.53 46.4147 202.343 45.509 202.006C45.3939 201.963 45.2694 201.996 45.2139 202.132Z" fill="#2C2E3A"/>
  <path opacity="0.55" d="M160.424 226.806C171.35 226.806 180.207 225.902 180.207 224.787C180.207 223.672 171.35 222.769 160.424 222.769C149.498 222.769 140.641 223.672 140.641 224.787C140.641 225.902 149.498 226.806 160.424 226.806Z" fill="#7A9759"/>
  <path d="M171.662 35.5696C172.666 33.0197 171.886 29.7123 169.916 28.081C169.904 27.3536 169.81 26.614 169.607 25.9471C169.313 24.984 168.75 24.1884 167.935 23.7596C167.663 23.6164 167.379 23.5129 167.091 23.4367C166.256 21.9061 165.016 20.669 163.451 20.3011C161.813 19.9155 160.236 20.5003 158.909 21.5541C158.653 21.5327 158.393 21.5377 158.136 21.5713C157.81 21.614 157.493 21.6965 157.184 21.8055C158.483 20.9079 159.883 20.2026 161.347 19.727C161.8 19.5794 161.608 18.7643 161.151 18.9125C157.579 20.0741 154.389 22.5262 152.064 25.8398C152.174 25.6298 152.287 25.4216 152.405 25.2176C153.449 23.4123 154.825 21.871 156.418 20.7133C156.816 20.4237 156.448 19.6927 156.047 19.984C154.318 21.2404 152.839 22.916 151.718 24.8839C151.245 25.7141 150.846 26.597 150.514 27.5125C150.934 25.9668 151.606 24.5129 152.492 23.2524C152.787 22.8335 152.271 22.2323 151.973 22.6551C150.691 24.4789 149.775 26.6723 149.449 28.9975C149.281 30.1946 149.359 31.3279 149.798 32.4377C150.209 33.4762 150.856 34.3687 151.486 35.2388C151.514 35.2772 151.544 35.3045 151.575 35.3266C151.993 35.9987 152.505 36.5958 153.089 37.0863C153.276 38.533 153.788 42.4702 154.95 43.0856C155.13 43.1808 155.346 43.1445 155.453 42.9341C155.512 42.8169 155.515 42.6514 155.461 42.5223C156.811 43.2272 158.182 43.8795 159.57 44.4779C159.682 44.5261 159.851 44.4746 159.927 44.3693C160.007 44.259 160.087 44.1486 160.168 44.0384C160.911 45.0612 161.838 45.8956 162.898 46.4498C164.109 47.0827 165.548 46.0188 166.714 45.0074C167.264 44.5312 169.285 42.3062 169.761 41.7101C170.72 40.5095 171.307 38.0722 171.662 35.5696Z" fill="#4E3333"/>
  <path d="M170.612 51.2697C170.612 51.2697 167.817 47.4945 167.331 44.6981C166.845 41.9016 166.602 44.8379 165.751 45.6768C164.9 46.5156 161.569 43.505 161.447 42.806C161.326 42.1069 162.422 42.4725 162.787 40.9346C163.151 39.3966 163.442 35.3299 161.619 35.0502C159.796 34.7706 158.702 37.8467 158.824 39.5245C158.945 41.2025 157.039 41.4741 157.039 41.4741C157.039 41.4741 156.18 38.1246 155.208 37.7052C154.236 37.2857 153.62 36.9394 153.377 35.8207C153.134 34.7022 152.51 32.2734 152.51 32.2734C152.51 32.2734 151.775 37.8465 153.112 42.8801C154.449 47.9136 155.497 51.5613 160.121 50.1202C160.591 49.9738 162.278 54.9619 162.716 55.0465C167.184 55.9098 170.612 51.2697 170.612 51.2697Z" fill="#E38E6C"/>
  <path d="M152.965 38.5185C152.926 38.4503 152.873 38.4007 152.805 38.3771C152.64 38.3202 152.463 38.2952 152.291 38.3079C152.22 38.3132 152.153 38.3387 152.102 38.398C152.055 38.4514 152.021 38.539 152.024 38.6156C152.027 38.6952 152.049 38.7779 152.102 38.8332C152.152 38.8865 152.22 38.9286 152.291 38.9233C152.359 38.9183 152.428 38.9212 152.496 38.9286C152.552 38.9389 152.608 38.9516 152.662 38.9703C152.728 38.993 152.81 38.9787 152.868 38.9393C152.924 38.9021 152.977 38.8288 152.992 38.7552C153.007 38.677 153.004 38.5885 152.965 38.5185Z" fill="#4E3333"/>
  <path d="M170.013 49.1086C169.291 48.5891 166.401 48.1217 165.995 48.2775C165.589 48.4333 172 52.2251 172 52.2251C172 52.2251 170.736 49.6281 170.013 49.1086Z" fill="#6264A3"/>
  <path d="M180.311 104.7C180.311 104.7 180.195 116.525 179.04 122.637C179.04 122.637 177.539 129.413 176.153 135.525C174.768 141.636 173.728 154.391 173.728 154.391C173.728 154.391 157.215 153.461 156.522 152.265C155.83 151.069 158.716 130.875 158.716 130.875C158.716 130.875 156.151 134.09 154.535 136.747C152.918 139.404 147.862 150.671 147.631 151.202C147.631 151.202 146.476 147.615 142.896 147.084C139.316 146.552 133.889 148.147 133.311 147.881C132.734 147.615 141.857 123.7 145.09 115.462C148.323 107.225 153.289 95.1345 153.289 95.1345C153.289 95.1345 160.564 91.5473 168.878 91.8129C177.193 92.0785 180.311 104.7 180.311 104.7Z" fill="#6264A3"/>
  <path d="M143.492 66.1981C143.492 66.1981 153.696 49.0375 155.739 47.1766C157.782 45.3157 166.039 48.1559 166.975 48.4498C167.912 48.7437 172.764 52.6612 174.296 54.2282C175.828 55.7952 179.063 59.517 180.255 61.5737C181.446 63.6303 191.666 77.6007 192.517 78.6779C193.368 79.7553 184.256 86.8422 183.404 86.8422C182.553 86.8422 180.936 85.0792 180.936 85.0792C180.936 85.0792 180.17 101.729 180.255 105.647C180.255 105.647 177.02 101.043 174.466 98.7908C171.913 96.5382 163.145 94.1876 160.761 94.3834C158.378 94.5792 153.003 95.6267 153.003 95.6267C153.003 95.6267 153.57 92.2244 154.336 90.5595C155.102 88.8945 153.27 87.0379 153.696 85.5688C154.122 84.0997 154.462 84.5893 154.377 82.8265C154.292 81.0635 152.589 76.1667 152.589 75.8728C152.589 75.579 154.036 72.5428 154.036 72.5428L143.492 66.1981Z" fill="#E8E8E8"/>
  <path d="M183.536 84.1465C183.536 84.1465 182.524 86.3662 183.114 86.8307C183.704 87.2952 185.257 85.9732 185.722 85.3303C186.188 84.6872 183.536 84.1465 183.536 84.1465Z" fill="#1B1720"/>
  <path d="M183.535 84.1469C183.535 84.1469 185.384 81.0256 187.165 79.3794C189.218 77.4809 190.795 76.8479 192.445 78.7043C194.095 80.5607 196.882 83.6828 197.946 87.1002C199.01 90.5176 195.856 96.8042 192.592 103.302C189.329 109.799 188.742 110.938 188.485 112.035C188.228 113.132 188.008 116.549 187.678 117.646C187.348 118.743 186.943 119.724 186.095 119.724C185.247 119.724 184.822 119.041 184.822 119.041C184.822 119.041 184.017 119.554 183.486 119.261C182.956 118.968 182.787 118.456 182.787 118.456C182.787 118.456 182.362 118.895 181.875 118.675C181.387 118.456 181.281 117.699 181.281 117.699C181.281 117.699 180.687 118.236 179.987 117.87C179.287 117.504 179.287 116.65 179.245 116.333C179.202 116.016 178.757 115.918 178.29 115.406C177.824 114.893 178.418 113.868 179.16 113.234C179.902 112.6 180.454 110.55 180.793 109.94C181.132 109.33 182.871 108.354 183.168 107.939C183.465 107.524 186.468 99.1666 187.275 95.1586C188.082 91.1504 187.642 87.944 187.642 87.944L183.535 84.1469Z" fill="#E98E63"/>
  <path d="M190.017 90.6169C189.021 89.0742 187.803 87.7496 186.401 86.7028C186.051 86.4415 185.727 87.085 186.075 87.345C187.378 88.3182 188.532 89.5569 189.458 90.9923C189.562 91.1533 189.738 91.235 189.901 91.1256C190.038 91.0326 190.121 90.7791 190.017 90.6169Z" fill="#DC8058"/>
  <path d="M187.364 115.332C187.282 114.65 186.641 114.149 186.067 114.28C185.97 113.988 185.741 113.739 185.525 113.559C185.292 113.365 185.015 113.286 184.767 113.366C184.663 112.92 184.397 112.528 183.999 112.405C184.005 112.404 184.011 112.403 184.017 112.401C184.676 112.223 185.428 112.02 185.852 111.362C185.956 111.201 185.875 110.947 185.736 110.853C185.571 110.743 185.398 110.825 185.294 110.987C185.146 111.216 184.887 111.329 184.661 111.417C184.348 111.54 184.028 111.639 183.705 111.721C183.054 111.885 182.391 111.96 181.725 111.958C181.48 111.957 181.381 112.213 181.423 112.425C181.304 113.055 181.124 113.668 180.869 114.243C180.671 114.688 180.421 115.232 179.972 115.361C179.569 115.476 179.74 116.193 180.144 116.078C180.659 115.93 181.947 113.821 181.959 113.792C181.979 113.744 182.258 113.211 182.466 113.204C182.674 113.196 182.677 113.526 182.674 113.565C182.637 113.977 182.546 114.25 182.468 114.615C182.427 114.803 182.28 115.123 182.454 115.169C182.621 115.212 182.81 114.947 182.885 114.757C183.041 114.362 183.17 114.072 183.275 113.744C183.301 113.661 183.408 113.379 183.421 113.343C183.595 112.858 184.356 113.386 184.218 113.994C184.095 114.3 184.027 114.648 183.94 114.956C183.798 115.462 183.655 115.967 183.512 116.473C183.458 116.664 183.575 116.879 183.738 116.931C183.913 116.986 184.081 116.863 184.135 116.671C184.353 115.9 184.552 115.119 184.79 114.356C184.807 114.299 184.901 114.099 185.059 114.098C185.191 114.097 185.299 114.218 185.389 114.329C185.423 114.371 185.512 114.671 185.491 114.885C185.441 115.075 185.421 115.283 185.392 115.475C185.326 115.903 185.261 116.331 185.196 116.759C185.167 116.95 185.24 117.169 185.422 117.217C185.579 117.258 185.788 117.162 185.819 116.957C185.872 116.609 186.081 115.228 186.095 115.147C186.1 115.121 186.229 114.879 186.567 115.142C186.784 115.31 186.886 115.519 186.9 115.551C186.974 115.726 187.03 115.894 187.181 115.837C187.366 115.769 187.389 115.539 187.364 115.332Z" fill="#DC8058"/>
  <path d="M146.272 65.3745C146.272 65.3745 143.949 65.1393 143.477 66.2449C142.849 67.7182 144.851 68.5592 146.617 69.0672L146.272 65.3745Z" fill="#1B1720"/>
  <path d="M151.817 98.7354C150.806 94.9393 148.43 85.8356 148.844 84.884C149.355 83.7087 155.604 71.7722 154.515 70.0273C152.224 66.3555 146.272 65.376 146.272 65.376C144.91 67.8246 141.664 76.8004 140.842 79.4971C138.243 88.0207 146.573 104.064 148.338 107.315C149.634 104.094 150.893 101 151.817 98.7354Z" fill="#E98E63"/>
  <path d="M145.724 84.5019C144.656 85.152 143.189 84.724 142.523 83.5618C142.295 83.164 141.735 83.536 141.964 83.9371C142.829 85.4464 144.66 85.9899 146.05 85.1442C146.418 84.9203 146.092 84.2782 145.724 84.5019Z" fill="#DC8058"/>
  <path d="M181.011 69.8249C180.976 74.9359 180.94 80.047 180.905 85.158C180.895 86.6006 180.885 88.0432 180.875 89.4858C180.872 89.9643 181.518 89.9649 181.521 89.4858C181.557 84.3749 181.592 79.2637 181.627 74.1528L181.657 69.8249C181.661 69.3464 181.014 69.3458 181.011 69.8249Z" fill="#B0A973"/>
  <path d="M161.381 63.3308C160.243 65.125 158.986 66.8141 157.625 68.3887C158.537 66.3979 159.393 64.3742 160.193 62.3203C160.638 61.1758 161.065 60.0222 161.476 58.861C161.633 58.418 161.008 58.2253 160.853 58.6633C159.414 62.7284 157.753 66.6893 155.886 70.5165C155.358 71.5988 154.812 72.6697 154.252 73.7303C154.036 74.1402 154.594 74.5144 154.81 74.1057C155.585 72.6391 156.329 71.1509 157.041 69.6431C157.092 69.6447 157.144 69.6267 157.19 69.5757C158.864 67.7388 160.389 65.7312 161.753 63.581C161.916 63.323 161.543 63.0753 161.381 63.3308Z" fill="#B3C8D7"/>
  <path d="M179.129 68.7255C178.506 70.4918 177.085 71.6448 175.684 72.5352C174 73.6055 172.222 74.5056 170.427 75.2983C169.39 75.7568 168.338 76.1723 167.275 76.5479C167.011 76.6413 167.124 77.12 167.39 77.0258C169.356 76.3308 171.283 75.4943 173.157 74.5199C174.802 73.665 176.528 72.7696 177.908 71.4044C178.617 70.703 179.192 69.8572 179.545 68.8573C179.649 68.5618 179.232 68.4333 179.129 68.7255Z" fill="#B3C8D7"/>
  <path d="M167.283 79.1029C164.377 81.5195 160.837 82.4583 157.496 83.7663C156.557 84.1343 155.628 84.536 154.722 85.0017C154.469 85.1315 154.688 85.5588 154.939 85.4297C158.182 83.7636 161.719 83.0033 164.934 81.2563C165.832 80.7684 166.695 80.2006 167.5 79.5309C167.723 79.3459 167.508 78.9155 167.283 79.1029Z" fill="#B3C8D7"/>
  <path d="M172.624 87.0951C170.919 86.7546 169.435 85.6831 167.813 85.0513C166.099 84.3836 164.267 84.3124 162.477 84.4671C161.458 84.555 160.445 84.7126 159.433 84.8719C159.16 84.915 159.276 85.3926 159.548 85.3499C161.324 85.0704 163.119 84.7978 164.915 84.9236C165.798 84.9854 166.676 85.1525 167.521 85.4622C168.323 85.7562 169.085 86.1696 169.855 86.5569C170.713 86.9878 171.584 87.3884 172.51 87.5732C172.781 87.6273 172.897 87.1497 172.624 87.0951Z" fill="#B3C8D7"/>
  <path d="M175.301 100.224C175.294 99.9052 174.863 99.904 174.87 100.224C175.017 106.626 173.515 113.033 170.631 118.508C169.818 120.051 168.897 121.515 167.875 122.884C167.695 123.124 167.999 123.477 168.18 123.234C171.875 118.285 174.272 112.108 175.04 105.646C175.254 103.849 175.342 102.036 175.301 100.224Z" fill="#474393"/>
  <path d="M174.635 126.722C171.657 126.309 168.698 125.72 165.77 124.968C166.055 124.756 166.342 124.547 166.632 124.343C166.987 124.095 166.662 123.451 166.306 123.701C165.801 124.056 165.303 124.426 164.813 124.808C164.791 124.821 164.771 124.837 164.753 124.855C161.641 127.29 158.848 130.262 156.506 133.654C155.729 134.78 154.999 135.949 154.322 137.158C154.096 137.561 154.656 137.935 154.88 137.533C157.207 133.379 160.172 129.691 163.601 126.713C164.067 126.308 164.543 125.916 165.026 125.537C168.197 126.376 171.405 127.018 174.635 127.466C175.047 127.523 175.044 126.779 174.635 126.722Z" fill="#474393"/>
  <path d="M133.809 147.898C133.809 147.898 136.889 144.86 141.839 144.48C146.79 144.1 148.142 147.672 147.851 151.455C147.56 155.239 133.809 147.898 133.809 147.898Z" fill="#1B1720"/>
  <path d="M133.31 147.88C133.31 147.88 136.117 145.619 140.958 145.492C145.798 145.366 147.261 149.064 147.63 151.202C147.999 153.34 149.759 158.783 149.869 162.073C149.979 165.364 149.649 169.921 150.859 173.212C152.069 176.503 153.169 175.237 153.389 178.275C153.491 179.679 150.192 183.435 147.879 188.656C145.189 194.726 143.299 202.375 141.288 204.349C139.652 205.955 137.805 205.865 136.208 204.99C134.155 203.866 133.018 201.173 133.001 199.37C132.927 191.649 140.573 178.465 140.903 176.44C141.233 174.414 139.198 171.693 136.007 162.706C132.817 153.72 132.704 151.154 133.31 147.88Z" fill="#E98E63"/>
  <path d="M150.859 173.212C149.649 169.921 149.979 165.364 149.869 162.073C149.804 160.136 149.168 157.455 148.58 155.139C147.994 154.433 147.334 153.81 146.606 153.304C144.921 152.133 142.928 151.691 140.99 152.117C139.976 152.34 139.01 152.781 138.107 153.353C137.172 153.946 136.301 154.679 135.546 155.549C135.059 156.111 134.617 156.739 134.263 157.425C134.7 158.903 135.271 160.632 136.008 162.706C139.198 171.693 141.233 174.414 140.903 176.439C140.573 178.464 132.927 191.649 133.001 199.37C133.018 201.173 134.155 203.866 136.208 204.99C137.805 205.865 139.652 205.955 141.288 204.349C143.299 202.375 145.189 194.726 147.879 188.656C150.191 183.435 153.491 179.679 153.389 178.275C153.169 175.237 152.069 176.503 150.859 173.212Z" fill="#E8E8E8"/>
  <path d="M137.826 158.217C138.78 157.143 139.923 156.304 141.184 155.796C141.837 155.534 142.513 155.368 143.206 155.347C143.883 155.326 144.562 155.435 145.213 155.646C146.556 156.081 147.78 156.936 148.82 157.995C149.017 158.196 149.206 158.407 149.391 158.623C149.291 158.132 149.182 157.634 149.067 157.138C148.952 156.989 148.833 156.845 148.707 156.706C148.248 156.2 147.725 155.78 147.165 155.435C146.475 155.012 145.731 154.75 144.961 154.599C144.231 154.456 143.477 154.393 142.739 154.474C142.085 154.547 141.44 154.727 140.821 154.981C139.533 155.508 138.34 156.364 137.347 157.442C136.488 158.375 135.763 159.5 135.332 160.77C135.435 161.074 135.542 161.386 135.653 161.706C136.21 160.42 136.932 159.222 137.826 158.217Z" fill="#6264A3"/>
  <path d="M150.859 173.212C150.606 172.523 150.423 171.776 150.286 170.999C150.07 170.897 149.841 170.827 149.612 170.782C149.042 170.67 148.452 170.694 147.881 170.774C146.685 170.943 145.433 171.434 144.595 172.475C144.373 172.751 144.185 173.072 144.071 173.426C143.953 173.792 143.908 174.185 143.839 174.565C143.772 174.931 143.671 175.282 143.509 175.608C143.337 175.955 143.117 176.275 142.9 176.585C142.504 177.153 141.985 177.842 141.327 177.976C140.989 178.045 140.696 177.914 140.489 177.635C138.837 181.573 132.936 192.583 133.001 199.371C133.018 201.173 134.155 203.866 136.208 204.991C137.805 205.865 139.652 205.955 141.288 204.349C143.299 202.376 145.189 194.726 147.879 188.656C150.191 183.435 153.491 179.68 153.389 178.275C153.169 175.237 152.069 176.503 150.859 173.212Z" fill="#6264A3"/>
  <path d="M151.223 174.085C150.685 174.174 150.054 174.366 149.345 174.741C147.007 175.976 145.049 178.448 144.607 179.321C144.164 180.193 143.027 182.592 142.332 183.537C141.637 184.482 138.794 188.262 136.835 191.897C134.876 195.532 133.739 197.204 133.992 200.257C134.124 201.848 134.342 202.984 134.922 203.976C135.299 204.378 135.726 204.728 136.206 204.991C137.802 205.865 139.649 205.955 141.286 204.349C143.297 202.376 145.187 194.726 147.877 188.656C150.189 183.435 153.489 179.68 153.387 178.275C153.19 175.547 152.282 176.287 151.223 174.085Z" fill="#E8E8E8"/>
  <path d="M138.031 205.66C138.031 205.66 134.195 205.088 134.415 199.646C134.635 194.203 144.315 180.782 147.946 177.744C151.576 174.706 152.571 175.412 153.451 177.057C154.331 178.703 150.725 186.911 149.405 188.809C148.085 190.708 144.437 206.91 138.031 205.66Z" fill="#1B1720"/>
  <path d="M172.309 151.97C172.309 151.97 173.712 153.061 173.712 154.054C173.712 155.048 172.479 155.473 171.574 155.331L172.309 151.97Z" fill="#1B1720"/>
  <path d="M157.004 151.969C157.004 151.969 157.546 149.788 163.912 149.944C170.277 150.099 172.309 151.969 172.309 151.969C172.309 151.969 172.311 160.732 172.718 162.758C173.124 164.784 176.101 173.63 176.372 181.265C176.643 188.901 173.392 207.133 173.528 211.185C173.663 215.236 175.018 223.339 174.476 224.742C173.934 226.144 149.555 225.988 148.742 224.742C147.93 223.495 148.742 221.469 149.42 220.846C150.097 220.223 159.036 215.704 162.016 212.743C164.995 209.782 163.762 196.837 163.334 191.716C162.782 185.112 161.899 171.232 158.919 165.933C155.939 160.635 157.004 151.969 157.004 151.969Z" fill="#E98E63"/>
  <path d="M176.372 181.266C176.233 177.339 175.378 173.094 174.524 169.619C174.407 169.583 174.29 169.544 174.172 169.511C172.421 169.015 170.587 168.837 168.794 169.081C167.966 169.193 167.166 169.427 166.371 169.708C165.459 170.029 164.56 170.403 163.689 170.848C162.78 171.312 161.893 171.851 161.085 172.522C161.08 172.527 161.074 172.532 161.069 172.536C162.395 178.858 162.947 187.08 163.334 191.717C163.762 196.838 164.995 209.783 162.016 212.744C159.036 215.705 150.097 220.223 149.42 220.847C148.742 221.47 147.93 223.496 148.742 224.743C149.555 225.989 173.934 226.145 174.476 224.743C175.018 223.34 173.663 215.237 173.528 211.185C173.392 207.134 176.643 188.902 176.372 181.266Z" fill="#E8E8E8"/>
  <path d="M165.127 177.098C167.246 175.894 169.592 174.999 171.978 175.005C173.113 175.007 174.253 175.23 175.303 175.735C175.486 175.822 175.663 175.921 175.838 176.024C175.799 175.778 175.728 175.233 175.686 174.989C174.608 174.33 173.484 174.103 172.27 173.957C170.996 173.804 169.666 174.039 168.412 174.334C167.118 174.638 165.86 175.14 164.671 175.798C163.715 176.327 162.8 176.958 161.945 177.681C162.012 178.161 162.076 178.644 162.137 179.128C163.091 178.372 164.088 177.688 165.127 177.098Z" fill="#6264A3"/>
  <path d="M174.476 224.741C174.88 223.696 174.124 217.488 173.711 213.448C168.888 214.596 168.954 213.37 167.311 214.024C164.977 214.954 162.341 215.519 161.267 215.592C160.117 215.67 160.762 214.536 161.386 213.206C157.735 215.541 149.885 220.418 149.42 220.846C148.742 221.469 147.93 223.495 148.742 224.742C149.555 225.988 173.934 226.144 174.476 224.741Z" fill="#6264A3"/>
  <path d="M167.415 222.866C164.508 222.793 162.044 224.829 161.223 224.829C160.402 224.829 150.798 224.61 149.597 224.32C149.226 224.23 148.819 224.063 148.434 223.876C148.477 224.185 148.573 224.481 148.743 224.742C149.556 225.989 173.935 226.144 174.477 224.742C174.621 224.367 174.63 223.51 174.563 222.382C172.682 222.592 169.4 222.916 167.415 222.866Z" fill="#E8E8E8"/>
  <path d="M152.856 97.0199C150.82 99.819 149.962 103.589 150.547 107.177C150.624 107.647 151.247 107.448 151.171 106.979C150.631 103.673 151.436 100.126 153.313 97.5458C153.578 97.1812 153.123 96.6524 152.856 97.0199Z" fill="#474393"/>
  <path d="M150.513 108.284C148.438 112.393 146.464 116.569 144.595 120.807C142.734 125.027 140.977 129.307 139.326 133.642C138.397 136.079 137.503 138.534 136.641 141.004C136.538 141.3 136.955 141.428 137.057 141.136C138.588 136.745 140.227 132.405 141.971 128.121C143.71 123.854 145.552 119.643 147.497 115.495C148.594 113.154 149.724 110.834 150.885 108.534C151.024 108.258 150.652 108.008 150.513 108.284Z" fill="#474393"/>
  <path d="M174.263 148.692C173.996 148.565 173.728 148.445 173.46 148.327C172.598 147.949 171.722 147.614 170.834 147.326C167.405 146.217 163.777 145.815 160.248 146.445C160.634 142.29 161.02 138.135 161.405 133.98C161.529 132.646 161.653 131.313 161.777 129.979C161.806 129.662 161.375 129.664 161.346 129.979C160.91 134.678 160.473 139.377 160.037 144.076C159.961 144.893 159.885 145.709 159.809 146.526C158.897 146.711 157.958 146.931 157.103 147.349C156.944 147.427 156.789 147.517 156.639 147.617C156.608 147.953 156.58 148.275 156.555 148.586C156.803 148.331 157.111 148.141 157.419 147.997C158.142 147.66 158.931 147.472 159.694 147.304C159.709 147.3 159.724 147.298 159.738 147.295C159.714 147.555 159.69 147.816 159.666 148.077C159.636 148.394 160.067 148.391 160.096 148.077C160.123 147.787 160.15 147.497 160.177 147.207C161.697 146.916 163.245 146.831 164.783 146.915C166.498 147.009 168.199 147.318 169.864 147.799C171.323 148.22 172.805 148.741 174.184 149.458C174.209 149.208 174.235 148.953 174.263 148.692Z" fill="#474393"/>
  <path d="M149.611 146.509C149.175 144.952 148.352 143.508 147.096 142.685C145.706 141.775 144.026 141.422 142.443 141.362C140.806 141.299 139.313 141.511 137.187 142.326C136.434 142.615 135.447 143.142 134.487 143.759C134.347 144.168 134.217 144.552 134.098 144.91C135.167 144.164 136.368 143.47 137.136 143.142C138.908 142.385 140.218 142.131 141.716 142.099C143.224 142.068 144.763 142.304 146.16 142.982C147.47 143.618 148.383 144.822 148.878 146.344C149.023 146.789 149.13 147.244 149.21 147.704C149.355 147.386 149.507 147.054 149.664 146.713C149.646 146.645 149.63 146.577 149.611 146.509Z" fill="#474393"/>
</svg>