<svg id="layer_1" enable-background="new 0 0 32 32" height="512" viewBox="0 0 32 32" width="512" xmlns="http://www.w3.org/2000/svg"><path d="m21.6464844 14.0483398c2.5742188 0 4.6679688-2.0942383 4.6679688-4.668457s-2.09375-4.668457-4.6679688-4.668457-4.6689453 2.0942383-4.6689453 4.668457 2.0947265 4.668457 4.6689453 4.668457zm2.6679687-4.668457c0 1.4711914-1.1972656 2.668457-2.6679688 2.668457-1.4716797 0-2.6689453-1.1972656-2.6689453-2.668457s1.1972656-2.668457 2.6689453-2.668457c1.4707032 0 2.6679688 1.1972656 2.6679688 2.668457z"/><path d="m21.6503906 15.5483398c-.9414062 0-1.8417969.1508789-2.6767578.4482422-.5195312.1850586-.7910156.7573242-.6064453 1.2773438.1694336.4747925.6596069.723999 1.1412964.6260986.0458374-.0093384.0916138-.00354.1370239-.0196533.6181641-.2202148 1.2929688-.3320312 2.0048828-.3320312 1.6992188 0 3.2949219.659668 4.4921875 1.8569336 1.1972657 1.1977538 1.8574219 2.793457 1.8574219 4.493164 0 .371582-.1445312.7202148-.4072266.9833984-.2626953.262207-.6074219.4067383-.9726562.4067383h-5.3798828c-.0703735 0-.1320801.0262451-.1983643.0400391-.4540405.0946655-.8016357.4780273-.8016357.9599609 0 .5522461.4472542 1 1 1h5.3798828c.8994141 0 1.7470703-.3530273 2.3867188-.9926758.6406249-.6401367.993164-1.4912109.993164-2.3974609 0-2.2338867-.8681641-4.331543-2.4433594-5.9072266-1.5751953-1.5751953-3.6728515-2.4428711-5.90625-2.4428711z"/><path d="m10.3535156 14.0483398c2.5742188 0 4.6689453-2.0942383 4.6689453-4.668457s-2.0947266-4.668457-4.6689453-4.668457-4.6679688 2.0942383-4.6679688 4.668457 2.0937501 4.668457 4.6679688 4.668457zm0-7.336914c1.4716797 0 2.6689453 1.1972656 2.6689453 2.668457s-1.1972656 2.668457-2.6689453 2.668457c-1.4707031 0-2.6679688-1.1972656-2.6679688-2.668457s1.1972657-2.668457 2.6679688-2.668457z"/><path d="m5.3828125 27.2851562h9.9423828c1.8652344 0 3.3828125-1.5175781 3.3828125-3.3828125 0-4.6064453-3.7480469-8.3540039-8.3544922-8.3540039s-8.3535156 3.7475586-8.3535156 8.354004c0 1.8652343 1.5175781 3.3828124 3.3828125 3.3828124zm4.9707031-9.7368164c3.5039062 0 6.3544922 2.8505859 6.3544922 6.3540039 0 .7626953-.6201172 1.3828125-1.3828125 1.3828125h-9.9423828c-.7626953 0-1.3828125-.6201171-1.3828125-1.3828124 0-3.503418 2.8505859-6.354004 6.3535156-6.354004z"/></svg>