<svg width="20" height="20" viewBox="0 0 20 20" fill="none" xmlns="http://www.w3.org/2000/svg">
<path d="M12.0895 13.0203V14.7543C12.0895 15.0875 11.816 15.3609 11.4828 15.3609H10.5816V13.5039C10.5816 13.3258 10.4375 13.1816 10.2594 13.1816C10.0813 13.1816 9.93711 13.3258 9.93711 13.5039V15.3609H8.29063V13.5039C8.29063 13.3258 8.14648 13.1816 7.96836 13.1816C7.79023 13.1816 7.64492 13.3258 7.64492 13.5039V15.3609H6.74453C6.41133 15.3609 6.13789 15.0875 6.13789 14.7543V13.0203C6.13789 11.7336 7.19102 10.6805 8.47852 10.6805H9.74844C11.0352 10.6805 12.0895 11.7336 12.0895 13.0203ZM7.41562 8.13281C7.41562 9.0707 8.17539 9.83125 9.11328 9.83125C10.0512 9.83125 10.8117 9.0707 10.8117 8.13281C10.8117 7.19492 10.0512 6.43516 9.11328 6.43516C8.17539 6.43516 7.41562 7.19492 7.41562 8.13281ZM3.07266 11.377H1.99219C0.896094 11.377 0 12.2738 0 13.3691V14.8453C0 15.1289 0.232422 15.3613 0.516016 15.3613H1.23477V13.7812C1.23477 13.6031 1.37891 13.459 1.55703 13.459C1.73516 13.459 1.88047 13.6031 1.88047 13.7812V15.3613H3.18477V13.7812C3.18477 13.6031 3.32891 13.459 3.50703 13.459C3.68516 13.459 3.83047 13.6031 3.83047 13.7812V15.3613H4.54805C4.83281 15.3613 5.06523 15.1289 5.06523 14.8453V13.3691C5.06484 12.2742 4.16797 11.377 3.07266 11.377ZM1.0875 9.21016C1.0875 10.0074 1.73398 10.6551 2.53242 10.6551C3.33086 10.6551 3.97734 10.0074 3.97734 9.21016C3.97734 8.41172 3.33086 7.76406 2.53242 7.76406C1.73398 7.76406 1.0875 8.41172 1.0875 9.21016ZM17.3113 9.9832H15.8508C14.3727 9.9832 13.1621 11.1934 13.1621 12.6719V14.6641C13.1621 15.0484 13.4754 15.3617 13.8586 15.3617H14.9414V13.2273C14.9414 13.05 15.0863 12.9051 15.2648 12.9051C15.443 12.9051 15.5871 13.05 15.5871 13.2273V15.3609H17.5746V13.2273C17.5746 13.05 17.7188 12.9051 17.8969 12.9051C18.075 12.9051 18.2203 13.05 18.2203 13.2273V15.3609H19.302C19.6863 15.3609 19.9996 15.0477 19.9996 14.6633V12.6711C20 11.1934 18.7895 9.9832 17.3113 9.9832ZM14.6297 7.05664C14.6297 8.13398 15.5035 9.00781 16.5809 9.00781C17.6594 9.00781 18.5332 8.13398 18.5332 7.05664C18.5332 5.9793 17.6594 5.10547 16.5809 5.10547C15.5031 5.10547 14.6297 5.9793 14.6297 7.05664Z" fill="#AAAAAA"/>
</svg>
