<svg width="20" height="20" viewBox="0 0 20 20" fill="none" xmlns="http://www.w3.org/2000/svg">
<path d="M13.4197 8.64064C11.533 6.75392 8.47444 6.75392 6.58772 8.64064C4.701 10.5274 4.701 13.586 6.58772 15.4727C8.47444 17.3594 11.533 17.3594 13.4197 15.4727C15.3026 13.586 15.3026 10.5274 13.4197 8.64064ZM7.88069 17.0508C7.13069 16.7305 6.46272 16.2461 5.93147 15.6406L4.70881 17.7578L5.951 17.5625C6.05647 17.543 6.16584 17.5781 6.23616 17.668L6.99397 18.5977L7.88069 17.0508ZM14.076 15.6406C13.5408 16.2461 12.8768 16.7305 12.1229 17.0508L13.0135 18.5938L13.7713 17.6641C13.8416 17.5781 13.951 17.5391 14.0565 17.5586L15.2987 17.7539L14.076 15.6406ZM11.9276 10.1328C10.8651 9.07033 9.14241 9.07033 8.07991 10.1328C7.01741 11.1953 7.01741 12.918 8.07991 13.9805C9.14241 15.043 10.8651 15.043 11.9276 13.9805C12.9901 12.918 12.9901 11.1953 11.9276 10.1328ZM10.0018 8.7383C11.8338 8.7383 13.3221 10.2227 13.3221 12.0586C13.3221 13.8906 11.8377 15.3789 10.0018 15.3789C8.16975 15.3789 6.68147 13.8945 6.68147 12.0586C6.68537 10.2227 8.16975 8.7383 10.0018 8.7383ZM8.45491 12.2774C8.37287 12.1328 8.41975 11.9531 8.56428 11.8711C8.70881 11.7891 8.8885 11.836 8.97053 11.9805L9.44709 12.8047L11.0799 11.1719C11.1971 11.0547 11.3885 11.0547 11.5018 11.1719C11.619 11.2891 11.619 11.4766 11.5018 11.5938L9.59553 13.5C9.45881 13.6367 9.22444 13.6094 9.12678 13.4375L8.45491 12.2774ZM16.8963 4.39064L17.4862 5.6133L18.8299 5.79689C19.0604 5.82814 19.1424 6.10939 18.9823 6.26564L18.0018 7.20314L18.244 8.53908C18.283 8.76564 18.0447 8.93361 17.8455 8.82814L16.6502 8.18751L15.4549 8.82814C15.2596 8.93361 15.0057 8.76955 15.0604 8.52345L15.2987 7.20314L14.3182 6.26564C14.1541 6.10939 14.244 5.82814 14.4744 5.79689L15.8143 5.6133L16.4041 4.39064C16.5018 4.18361 16.7947 4.18751 16.8963 4.39064ZM3.59944 4.39064L4.18928 5.6133L5.53303 5.79689C5.75959 5.82814 5.84553 6.10939 5.68537 6.26564L4.70491 7.20314L4.94709 8.53908C4.98616 8.76564 4.74787 8.93361 4.55256 8.82814L3.35725 8.18751L2.16194 8.82814C1.96662 8.93361 1.71662 8.76955 1.76741 8.52345L2.00569 7.20314L1.02522 6.26564C0.861156 6.10939 0.951 5.82814 1.18147 5.79689L2.52131 5.6133L3.11116 4.39064C3.20881 4.18361 3.50178 4.18751 3.59944 4.39064ZM10.2479 1.55861L10.8377 2.78126L12.1815 2.96486C12.408 2.99611 12.494 3.27736 12.3338 3.43361L11.3533 4.37111L11.5955 5.70705C11.6346 5.93361 11.3963 6.10158 11.1971 5.99611L10.0018 5.35158L8.80647 5.9922C8.61116 6.09767 8.36116 5.93361 8.41194 5.68751L8.65022 4.3672L7.66975 3.4297C7.50569 3.27345 7.59553 2.9922 7.826 2.96095L9.16584 2.77736L9.75569 1.5547C9.85725 1.35158 10.1502 1.35548 10.2479 1.55861Z" fill="#AAAAAA"/>
</svg>
