<svg width="12" height="12" viewBox="0 0 12 12" fill="none" xmlns="http://www.w3.org/2000/svg">
<g clip-path="url(#clip0_5731_18358)">
<path d="M3.52317 10.1377L3.10938 10.7584H8.90248L8.48869 10.1377H3.52317Z" fill="#505050"/>
<path d="M9.10129 11.1719H2.8944C2.78013 11.1719 2.6875 11.2645 2.6875 11.3788V11.7926C2.6875 11.9068 2.78013 11.9995 2.8944 11.9995H9.10129C9.21556 11.9995 9.30819 11.9068 9.30819 11.7926V11.3788C9.30819 11.2645 9.21556 11.1719 9.10129 11.1719Z" fill="#505050"/>
<path d="M11.9353 4.20754C11.7346 4.08848 11.4673 4.14721 11.1113 4.41798C11.0177 4.48834 10.929 4.56508 10.8458 4.64763C10.8875 4.50212 10.9261 4.3563 10.9608 4.21065C11.2134 3.87903 11.3603 3.47901 11.3822 3.06272C11.4576 2.33832 11.2872 1.72305 11.0789 1.62519C10.8661 1.72092 10.6756 2.27823 10.5719 2.93871C10.5018 3.30864 10.5031 3.68856 10.5756 4.05802C10.5742 4.06249 10.571 4.06578 10.57 4.07043C10.5356 4.21832 10.4952 4.36652 10.4531 4.51445C10.4262 4.40247 10.3881 4.29347 10.3393 4.18909C10.1509 3.78759 9.91711 3.6422 9.69445 3.63775C9.63006 3.64398 9.57611 3.68913 9.55864 3.75142C9.46041 4.07968 9.48817 4.43277 9.63648 4.74165C9.72222 5.01519 9.91544 5.24216 10.1718 5.37045C10.0704 5.6431 9.95548 5.91419 9.82697 6.18374C9.81491 6.0501 9.78719 5.91834 9.74437 5.79117C9.59516 5.35061 9.36106 5.1555 9.12089 5.10198C9.05484 5.09183 8.98976 5.12534 8.95965 5.18501C8.81137 5.50069 8.79616 5.86273 8.91747 6.18974C8.98085 6.49958 9.16419 6.77178 9.42749 6.94698C9.28077 7.2009 9.12408 7.44743 8.95742 7.68657C8.96478 7.53592 8.95218 7.38496 8.91995 7.23761C8.8165 6.76234 8.59117 6.51761 8.34242 6.41312C8.27773 6.38799 8.20421 6.40823 8.16151 6.46294C7.99496 6.68157 7.9153 7.00069 7.99715 7.46954C8.03112 7.8119 8.19556 8.12804 8.45638 8.35241C8.31656 8.51974 8.11101 8.75045 7.97946 8.89654H7.65776V8.81172C7.65758 8.65887 7.60664 8.5104 7.51293 8.38965C7.41765 8.2691 7.28531 8.1833 7.13638 8.14551C6.9416 8.09731 6.77805 7.96556 6.68948 7.78551L6.62328 7.65516V6.62068C6.58603 6.64551 6.54672 6.66827 6.50741 6.69103C6.19549 6.87311 5.80968 6.87311 5.49776 6.69103C5.45845 6.66827 5.41914 6.64551 5.3819 6.62068V7.65516L5.31569 7.78551C5.22713 7.96556 5.06357 8.09731 4.86879 8.14551C4.56285 8.22184 4.34798 8.4964 4.34741 8.81172V8.89654H4.02563C3.89408 8.75043 3.68853 8.51972 3.54871 8.35241C3.80953 8.12808 3.97401 7.81197 4.00802 7.46964C4.08987 7.00079 4.01021 6.68168 3.84366 6.46305C3.80096 6.40834 3.72744 6.38809 3.66275 6.41323C3.414 6.51763 3.18875 6.76245 3.08522 7.23771C3.053 7.38506 3.0404 7.53602 3.04775 7.68668C2.88153 7.44794 2.72481 7.20136 2.57758 6.94692C2.84088 6.77172 3.02422 6.49952 3.0876 6.18968C3.20894 5.86263 3.19374 5.50054 3.04541 5.18482C3.01531 5.12516 2.95023 5.09165 2.88418 5.10179C2.64401 5.15532 2.40991 5.35042 2.2607 5.79099C2.21787 5.91819 2.19014 6.04998 2.17808 6.18365C2.05047 5.91572 1.93554 5.64459 1.83329 5.37024C2.08964 5.24196 2.28286 5.015 2.36859 4.74146C2.5169 4.43258 2.54466 4.07949 2.44643 3.75123C2.42896 3.68894 2.37501 3.64379 2.31062 3.63757C2.08796 3.64201 1.85417 3.7874 1.66572 4.1889C1.61701 4.29329 1.57889 4.4023 1.55193 4.51429C1.50991 4.36634 1.4695 4.21814 1.4351 4.07025C1.43404 4.06565 1.43081 4.06237 1.42947 4.05783C1.502 3.68837 1.50326 3.30846 1.43319 2.93852C1.32943 2.27805 1.13901 1.72073 0.926297 1.625C0.717931 1.72286 0.547676 2.33813 0.622945 3.06254C0.644918 3.47883 0.791773 3.87884 1.04437 4.21046C1.07903 4.35612 1.1177 4.50194 1.15932 4.64745C1.07621 4.56489 0.987514 4.48816 0.893855 4.41779C0.537993 4.14703 0.270476 4.08829 0.0698484 4.20736C0.0120197 4.25969 -0.0124554 4.33952 0.00610363 4.41527C0.067579 4.82086 0.299596 5.18078 0.643614 5.40423C0.978579 5.62224 1.25642 5.62961 1.45258 5.53328C1.55981 5.81999 1.68101 6.10423 1.815 6.3837C1.7021 6.30844 1.583 6.2429 1.45899 6.18781C1.03599 5.99672 0.736055 5.99784 0.535924 6.15988C0.482047 6.21987 0.467189 6.30537 0.497669 6.38002C0.629744 6.77453 0.935566 7.08661 1.32732 7.22664C1.61692 7.3674 1.95919 7.34551 2.2285 7.16902C2.3832 7.43554 2.5483 7.69437 2.72226 7.94298C2.58104 7.88275 2.43427 7.83649 2.28403 7.80485C1.80927 7.70039 1.4881 7.76482 1.29625 7.96965C1.24709 8.03713 1.24269 8.12735 1.28503 8.1993C1.48627 8.57425 1.85633 8.82879 2.27845 8.88262C2.621 8.96536 2.9821 8.86803 3.23667 8.62435C3.30792 8.70947 3.39244 8.807 3.47874 8.90486C3.38318 8.92304 3.31376 9.00617 3.31293 9.10344V9.51723C3.31293 9.6315 3.40556 9.72413 3.51983 9.72413H8.48534C8.59961 9.72413 8.69224 9.6315 8.69224 9.51723V9.10344C8.69141 9.00617 8.62201 8.92302 8.52645 8.90482C8.61271 8.80696 8.69723 8.70939 8.76852 8.62427C9.02307 8.86797 9.38417 8.96533 9.72672 8.88262C10.1488 8.82877 10.5189 8.5742 10.7201 8.19924C10.7624 8.12732 10.758 8.03717 10.7089 7.96971C10.517 7.76488 10.1958 7.70039 9.72128 7.80485C9.57098 7.8365 9.42413 7.88279 9.28285 7.94306C9.45759 7.69341 9.62225 7.43539 9.77681 7.169C10.0461 7.3455 10.3884 7.36739 10.678 7.22664C11.0698 7.08661 11.3756 6.77453 11.5076 6.38002C11.5381 6.30537 11.5233 6.21987 11.4694 6.15988C11.2693 5.99784 10.9693 5.99672 10.5463 6.18781C10.4223 6.24292 10.3031 6.30847 10.1902 6.38377C10.3249 6.10277 10.4457 5.81932 10.5527 5.53342C10.7488 5.62975 11.0267 5.62239 11.3616 5.40436C11.7056 5.18091 11.9377 4.82098 11.9991 4.41539C12.0176 4.33965 11.9932 4.25985 11.9353 4.20754Z" fill="#505050"/>
<path d="M2.79418 2.68966H3.15625C3.16665 2.68841 3.17694 2.68633 3.18702 2.68345L3.18728 2.68552C3.42164 4.22364 4.35009 5.56865 5.70522 6.3331C5.88779 6.44069 6.11437 6.44069 6.29694 6.3331C7.65206 5.56865 8.58052 4.22364 8.81487 2.68552L8.81514 2.68345C8.82521 2.68633 8.8355 2.68841 8.84591 2.68966H9.20797C9.83614 2.68895 10.3452 2.17989 10.3459 1.55172C10.3452 0.923565 9.83613 0.414523 9.20797 0.413793H8.83763C8.82588 0.415074 8.81426 0.417422 8.80293 0.420807L8.80246 0.417931C8.78384 0.310345 8.76522 0.221379 8.7466 0.146897C8.72483 0.0606294 8.64729 0.000135134 8.55832 0H3.44384C3.35486 0.000135134 3.27733 0.0606294 3.25556 0.146897C3.23694 0.221379 3.21832 0.310345 3.1997 0.417931L3.19922 0.420807C3.18789 0.417422 3.17628 0.415074 3.16453 0.413793H2.79418C2.16602 0.414523 1.65698 0.923565 1.65625 1.55172C1.65696 2.17989 2.16601 2.68895 2.79418 2.68966ZM9.20797 0.827586C9.60763 0.828258 9.93144 1.15207 9.93211 1.55172C9.93163 1.95146 9.60771 2.27538 9.20797 2.27586H8.87073C8.92045 1.79423 8.91768 1.30862 8.86246 0.827586H9.20797ZM2.28339 1.03914C2.41822 0.902719 2.60238 0.826448 2.79418 0.827586L3.1397 0.827574C3.08448 1.30862 3.0817 1.79423 3.13142 2.27586H2.79418C2.39445 2.27538 2.07052 1.95146 2.07004 1.55172C2.06907 1.35907 2.14602 1.17421 2.28339 1.03914Z" fill="#505050"/>
</g>
<defs>
<clipPath id="clip0_5731_18358">
<rect width="12" height="12" fill="white"/>
</clipPath>
</defs>
</svg>
